%FSLAX44Y44*%
%MOMM*%
G71*
G01*
G75*
G04 Layer_Physical_Order=1*
G04 Layer_Color=255*
%ADD10C,0.7900*%
%ADD11C,0.9000*%
%ADD12C,2.3000*%
D10*
X571500Y336550D02*
D03*
X572300Y323850D02*
D03*
X558800Y336550D02*
D03*
Y323850D02*
D03*
X546100Y336550D02*
D03*
Y323850D02*
D03*
X584200D02*
D03*
X596900D02*
D03*
X584200Y336550D02*
D03*
X596900D02*
D03*
X393700D02*
D03*
X394500Y323850D02*
D03*
X381000Y336550D02*
D03*
Y323850D02*
D03*
X368300Y336550D02*
D03*
Y323850D02*
D03*
X292100D02*
D03*
Y336550D02*
D03*
X304800Y323850D02*
D03*
Y336550D02*
D03*
X318300Y323850D02*
D03*
X317500Y336550D02*
D03*
X487680D02*
D03*
X500380D02*
D03*
Y323850D02*
D03*
X487680D02*
D03*
X449580D02*
D03*
Y336550D02*
D03*
X462280Y323850D02*
D03*
Y336550D02*
D03*
X474980Y323850D02*
D03*
Y336550D02*
D03*
D11*
X609600Y320040D02*
D03*
Y340360D02*
D03*
X533400Y330200D02*
D03*
X406400Y320040D02*
D03*
Y340360D02*
D03*
X355600Y330200D02*
D03*
X279400D02*
D03*
X330200Y340360D02*
D03*
Y320040D02*
D03*
X436880Y330200D02*
D03*
X513080Y340350D02*
D03*
Y320050D02*
D03*
D12*
X279400Y355600D02*
D03*
Y304800D02*
D03*
X311150Y355600D02*
D03*
Y304800D02*
D03*
X436880Y355600D02*
D03*
Y304800D02*
D03*
X494030Y355600D02*
D03*
Y304800D02*
D03*
M02*
