%FSLAX44Y44*%
%MOMM*%
G71*
G01*
G75*
G04 Layer_Color=65535*
%ADD10C,0.7900*%
%ADD11C,0.9000*%
%ADD12C,2.3000*%
%ADD13C,0.2540*%
D13*
X527050Y313690D02*
X615950D01*
Y346710D01*
X527050D02*
X615950D01*
X527050Y313690D02*
Y346710D01*
X349250Y313690D02*
X412750D01*
Y346710D01*
X349250D02*
X412750D01*
X349250Y313690D02*
Y346710D01*
X265430Y290830D02*
Y369570D01*
X336550D01*
Y290830D02*
Y369570D01*
X265430Y290830D02*
X336550D01*
X422910D02*
Y369570D01*
X519430D01*
Y290830D02*
Y369570D01*
X422910Y290830D02*
X519430D01*
X527050Y355600D02*
Y370835D01*
X534668D01*
X537207Y368296D01*
Y363218D01*
X534668Y360678D01*
X527050D01*
X549903Y355600D02*
Y370835D01*
X542285Y363218D01*
X552442D01*
X546100Y309875D02*
X551178D01*
X548639D01*
Y294640D01*
X546100D01*
X551178D01*
X568953Y307336D02*
X566413Y309875D01*
X561335D01*
X558796Y307336D01*
Y297179D01*
X561335Y294640D01*
X566413D01*
X568953Y297179D01*
X584188Y307336D02*
X581648Y309875D01*
X576570D01*
X574031Y307336D01*
Y304797D01*
X576570Y302257D01*
X581648D01*
X584188Y299718D01*
Y297179D01*
X581648Y294640D01*
X576570D01*
X574031Y297179D01*
X589266Y294640D02*
Y309875D01*
X596884D01*
X599423Y307336D01*
Y302257D01*
X596884Y299718D01*
X589266D01*
X350647Y355727D02*
Y370962D01*
X358265D01*
X360804Y368423D01*
Y363344D01*
X358265Y360805D01*
X350647D01*
X376039Y355727D02*
X365882D01*
X376039Y365884D01*
Y368423D01*
X373500Y370962D01*
X368421D01*
X365882Y368423D01*
X354330Y309875D02*
X359408D01*
X356869D01*
Y294640D01*
X354330D01*
X359408D01*
X377183Y307336D02*
X374643Y309875D01*
X369565D01*
X367026Y307336D01*
Y297179D01*
X369565Y294640D01*
X374643D01*
X377183Y297179D01*
X392418Y307336D02*
X389879Y309875D01*
X384800D01*
X382261Y307336D01*
Y304797D01*
X384800Y302257D01*
X389879D01*
X392418Y299718D01*
Y297179D01*
X389879Y294640D01*
X384800D01*
X382261Y297179D01*
X397496Y294640D02*
Y309875D01*
X405114D01*
X407653Y307336D01*
Y302257D01*
X405114Y299718D01*
X397496D01*
X266827Y378587D02*
Y393822D01*
X274445D01*
X276984Y391283D01*
Y386204D01*
X274445Y383665D01*
X266827D01*
X282062Y378587D02*
X287140D01*
X284601D01*
Y393822D01*
X282062Y391283D01*
X274320Y287015D02*
X279398D01*
X276859D01*
Y271780D01*
X274320D01*
X279398D01*
X297173Y284476D02*
X294633Y287015D01*
X289555D01*
X287016Y284476D01*
Y274319D01*
X289555Y271780D01*
X294633D01*
X297173Y274319D01*
X312408Y284476D02*
X309869Y287015D01*
X304790D01*
X302251Y284476D01*
Y281937D01*
X304790Y279398D01*
X309869D01*
X312408Y276858D01*
Y274319D01*
X309869Y271780D01*
X304790D01*
X302251Y274319D01*
X317486Y271780D02*
Y287015D01*
X325104D01*
X327643Y284476D01*
Y279398D01*
X325104Y276858D01*
X317486D01*
X424307Y378587D02*
Y393822D01*
X431925D01*
X434464Y391283D01*
Y386204D01*
X431925Y383665D01*
X424307D01*
X439542Y391283D02*
X442081Y393822D01*
X447160D01*
X449699Y391283D01*
Y388744D01*
X447160Y386204D01*
X444620D01*
X447160D01*
X449699Y383665D01*
Y381126D01*
X447160Y378587D01*
X442081D01*
X439542Y381126D01*
X449580Y287015D02*
X454658D01*
X452119D01*
Y271780D01*
X449580D01*
X454658D01*
X472433Y284476D02*
X469893Y287015D01*
X464815D01*
X462276Y284476D01*
Y274319D01*
X464815Y271780D01*
X469893D01*
X472433Y274319D01*
X487668Y284476D02*
X485129Y287015D01*
X480050D01*
X477511Y284476D01*
Y281937D01*
X480050Y279398D01*
X485129D01*
X487668Y276858D01*
Y274319D01*
X485129Y271780D01*
X480050D01*
X477511Y274319D01*
X492746Y271780D02*
Y287015D01*
X500364D01*
X502903Y284476D01*
Y279398D01*
X500364Y276858D01*
X492746D01*
M02*
