*
*
G04 PADS9.1 Build Number: 384028 generated Gerber (RS-274-X) file*
G04 PC Version=2.1*
*
%IN "{LRF003}LevelShield_4.p"*%
*
%MOIN*%
*
%FSLAX35Y35*%
*
*
*
*
G04 PC Standard Apertures*
*
*
G04 Thermal Relief Aperture macro.*
%AMTER*
1,1,$1,0,0*
1,0,$1-$2,0,0*
21,0,$3,$4,0,0,45*
21,0,$3,$4,0,0,135*
%
*
*
G04 Annular Aperture macro.*
%AMANN*
1,1,$1,0,0*
1,0,$2,0,0*
%
*
*
G04 Odd Aperture macro.*
%AMODD*
1,1,$1,0,0*
1,0,$1-0.005,0,0*
%
*
*
G04 PC Custom Aperture Macros*
*
*
*
*
*
*
G04 PC Aperture Table*
*
%ADD010C,0.001*%
%ADD023R,0.058X0.058*%
%ADD024C,0.058*%
%ADD032C,0.029*%
%ADD051C,0.015*%
%ADD052C,0.008*%
%ADD053C,0.025*%
%ADD057C,0.005*%
%ADD058C,0.01*%
%ADD120R,0.028X0.028*%
%ADD123C,0.079*%
%ADD124C,0.093*%
*
*
*
*
G04 PC Circuitry*
G04 Layer Name {LRF003}LevelShield_4.p - circuitry*
%LPD*%
*
*
G04 PC Custom Flashes*
G04 Layer Name {LRF003}LevelShield_4.p - flashes*
%LPD*%
*
*
G04 PC Circuitry*
G04 Layer Name {LRF003}LevelShield_4.p - circuitry*
%LPD*%
*
G54D10*
G01X798097Y794887D02*
X801507D01*
Y788945*
X807449*
Y785315*
X801507*
Y779373*
X798097*
Y785315*
X792155*
Y788945*
X798097*
Y794887*
X829453Y800388D02*
X828903Y800278D01*
X828463Y800058*
X827913Y799288*
X827583Y798628*
X827363Y798407*
X827143Y798297*
X827033Y798407*
X826923Y798738*
Y799288*
X827033Y800388*
X827253Y801598*
X827693Y802588*
X828023Y802808*
X828353Y802918*
X828133*
X835945*
X836275Y802698*
X836385Y802258*
X836275Y801378*
X836165Y800828*
X835945Y800168*
X835725Y799288*
X835175Y798077*
X834625Y796537*
X833854Y794667*
X833304Y793566*
X832864Y792356*
X832534Y791146*
X832424Y789826*
X832534Y788945*
X832644Y788285*
X832754Y787625*
X832864Y787075*
X832754Y786855*
X832314Y786745*
X831654Y786525*
X830664Y786415*
X830004Y786635*
X829564Y787185*
X829453Y788505*
X829564Y789936*
X830004Y791256*
X831324Y793676*
X832864Y795877*
X834075Y797857*
X834735Y799068*
X834955Y800168*
X834845Y800388*
X833854*
X833634Y800608*
X829453*
Y800388*
X841336Y800608D02*
X841886Y800718D01*
X842216Y800938*
X842546Y801378*
X842766*
X842546Y800828*
X842326Y800388*
X842216Y800058*
X841886Y799948*
X838916*
Y800058*
X839136Y800278*
X839466Y800718*
X840016Y801598*
X840896Y802588*
X841226Y803249*
X841336Y803799*
X841226Y804239*
X841006Y804459*
X840676Y804679*
X840236Y804789*
X839796Y804679*
X839356Y804349*
X839136*
X839246Y804569*
X839576Y805009*
X840126Y805339*
X840896Y805449*
X841446Y805339*
X841776Y805119*
X841996Y804679*
X842106Y804129*
X841776Y803139*
X841116Y802148*
X840346Y801268*
X840126Y800938*
X840016Y800828*
Y800608*
X840236*
Y800828*
X841336*
Y800608*
X757497Y770791D02*
X756837Y770681D01*
X756397Y770351*
X755957Y769911*
X755847Y769251*
X755957Y768481*
X756397Y767711*
X756947Y767161*
X757718Y766940*
X758268Y767050*
X758268D02*
X758598Y767491D01*
X758818Y768591*
X758708Y769361*
X758488Y770131*
X758048Y770571*
X757497Y770791*
X757277*
X757938Y771561*
X758158*
X759038Y771341*
X759698Y770791*
X760138Y770021*
X760248Y769251*
X760028Y768151*
X759478Y767271*
X758488Y766720*
X757277Y766500*
X756177Y766720*
X755407Y767381*
X754857Y768371*
X754747Y769691*
X754857Y770791*
X755297Y771782*
X755847Y772552*
X756617Y773212*
X758158Y774092*
X758818Y774202*
X759368Y774312*
X759588*
X759258Y774092*
X758928Y773872*
X758378Y773542*
X757497Y773102*
X756947Y772442*
X756507Y771672*
X756397Y771121*
Y770791*
X756617Y771011*
X756837Y771341*
X757387Y771451*
X758158Y771561*
X757938*
X757277Y770791*
X757497*
X762559Y767601D02*
X762449Y767381D01*
X762229Y767050*
X762229D02*
X761568Y766720D01*
X761348Y766830*
X760908Y767050*
X760908D02*
X760578Y767381D01*
X760468Y767601*
X760578Y767931*
X761348Y768701*
X761568Y768811*
X761898Y768701*
X762229Y768261*
X762449Y767931*
X762559Y767601*
Y767821*
Y767601*
X765749Y767821D02*
X765859Y767381D01*
X765969Y767161*
X766409Y766940*
X766850*
X767070Y766720*
X766960Y766610*
X766409Y766720*
X763439*
X763659Y766940*
X764099*
X764429Y767161*
X764649Y767601*
Y772772*
X764429Y772882*
X763439*
Y773102*
X763549Y773322*
X763879*
X764649Y773652*
X765199Y773872*
X765749Y774312*
X765969*
Y774092*
X765859Y773542*
X765749Y772882*
Y773102*
Y767821*
X768940Y774092D02*
Y774312D01*
X771691*
X772131Y774532*
X772351Y774752*
Y774312*
Y774532*
X771911Y773542*
X772131Y773322*
X772021Y773102*
X769600*
X769820*
X769380Y772992*
X769160Y772662*
X768940Y771782*
Y771451*
X769160Y771341*
X769490Y771561*
X770150*
X771141Y771451*
X771911Y771011*
X772351Y770351*
X772571Y769471*
X772351Y768591*
X771801Y767601*
X770810Y766830*
X770150Y766610*
X769380Y766500*
X769050*
X768500Y766610*
X768060Y766830*
X767840Y767161*
X768390Y767050*
X768390D02*
X769160Y766940D01*
X770040Y767050*
X770040D02*
X770810Y767491D01*
X771251Y768151*
X771471Y769031*
X771361Y769691*
X770920Y770131*
X770260Y770351*
X768500*
Y770791*
X768280Y771121*
X768940Y774312*
Y774092*
X779502Y774312D02*
X780163D01*
X775872Y766720*
X775321*
X779502Y774312*
X775101Y773872D02*
X774771Y773762D01*
X774551Y773432*
X774441Y772442*
Y771782*
X774661Y771121*
X774991Y770571*
X775652Y770351*
X776202Y770461*
X776422Y770901*
X776532Y772002*
Y772552*
X776312Y773212*
X775872Y773652*
X775101Y773872*
Y774312*
X775321*
X776202Y774092*
X776862Y773652*
X777302Y772992*
X777412Y772222*
X777302Y771451*
X776862Y770791*
X776202Y770351*
X775321Y770131*
X774551Y770351*
X774001Y770791*
X773671Y771451*
X773561Y772222*
X773671Y772992*
X774001Y773652*
X774551Y774092*
X775321Y774312*
X775101*
Y773872*
X780163Y770351D02*
X779722Y770241D01*
X779502Y769801*
X779282Y769031*
X779392Y768261*
X779612Y767601*
X780052Y767161*
X780603Y766940*
X781043Y767050*
X781043D02*
X781263Y767491D01*
X781373Y768371*
X781153Y769691*
X780823Y770131*
X780163Y770351*
Y770791*
X780383Y770571*
X781153Y770461*
X781813Y770021*
X782143Y769471*
X782253Y768591*
X782143Y767821*
X781813Y767161*
X781153Y766830*
X780383Y766720*
X779612Y766830*
X778952Y767271*
X778512Y767931*
X778402Y768811*
X778512Y769581*
X778952Y770131*
X779612Y770461*
X780383Y770571*
X780163Y770791*
Y770351*
X852119Y783004D02*
Y786635D01*
X873023*
Y783004*
X852119*
X859050Y777723D02*
X859160Y778493D01*
X859380Y779153*
X860260Y780363*
X861361Y781134*
X862681Y781354*
X864111Y781134*
X865321Y780363*
X866092Y779153*
X866312Y778493*
X866422Y777723*
X866312Y776953*
X866092Y776293*
X865321Y775082*
X864111Y774312*
X862681Y774092*
X861361Y774312*
X860260Y775082*
X859380Y776293*
X859160Y776953*
X859050Y777723*
Y777943*
Y777723*
X866422Y791696D02*
X866312Y790926D01*
X866092Y790266*
X865321Y789055*
X864111Y788285*
X862681Y788065*
X861361Y788285*
X860260Y789055*
X859380Y790266*
X859160Y790926*
X859050Y791696*
X859160Y792466*
X859380Y793126*
X860260Y794337*
X861361Y795107*
X862681Y795327*
X864111Y795107*
X865321Y794337*
X866092Y793126*
X866312Y792466*
X866422Y791696*
X760688Y760999D02*
X760248Y760669D01*
X759808Y760339*
X758048Y758799*
X756287Y757478*
X754307Y756488*
X753317Y756268*
X752216Y756158*
Y745156*
X875114*
Y754288*
Y754068*
X874784*
X874343Y754288*
X872583Y754948*
X870823Y755938*
X869172Y757148*
X867522Y758689*
X866862Y759349*
X866312Y759789*
X865652Y760339*
X864991Y760999*
X862571Y762760*
X861251Y763420*
X859930Y763750*
X859600Y763860*
X859270Y763970*
X857840Y763750*
X856519Y763090*
X855089Y762099*
X853549Y760999*
X852889Y760339*
X852559Y760229*
X851458Y759129*
X848268Y756048*
X846617Y754618*
X844857Y753407*
X844527Y753077*
X843867Y752967*
Y752747*
X843647*
X842216Y752087*
X840676Y751867*
X839356Y752087*
X837925Y752747*
X837485Y753077*
X837045Y753628*
X836385Y754288*
X835395Y755498*
X834405Y756928*
X833414Y758579*
X832424Y760339*
X832204Y760999*
X830884Y764520*
X829453Y768041*
X829233Y768591*
Y768811*
X828573Y770571*
X827803Y773102*
X826923Y775632*
X826813Y775962*
X826703Y776293*
X825713Y779703*
X824392Y783224*
X824172Y783884*
X823072Y787515*
X821642Y790816*
X820982Y792356*
X819331Y795877*
X818451Y797417*
X817571Y798628*
X817241Y798958*
X816581Y799288*
X815480Y800058*
X814160Y800388*
X813390*
X812730Y800278*
X812180Y800058*
X811079Y799288*
X810419Y798628*
X809429Y797307*
X808439Y795657*
X807339Y793896*
X806348Y791916*
X806128Y791146*
X805908Y790376*
X804588Y787185*
X804038Y785535*
X803378Y783884*
X803268Y783554*
X803158Y783224*
X801947Y779813*
X800847Y776293*
X800627Y775632*
X799637Y773102*
X799197Y771782*
X798757Y770571*
X798427Y769251*
X797876Y768041*
X796556Y764520*
X795126Y760999*
X794906Y760339*
X793145Y756708*
X792155Y755168*
X791165Y753848*
X790065Y752747*
X788414Y751537*
X787644Y751207*
X786874Y751097*
X785884Y751207*
X785114Y751317*
X784343Y751647*
X783573Y751867*
X783243Y752087*
X782913Y752307*
X782583Y752527*
X782253Y752747*
X781373Y753407*
X779942Y754948*
X778622Y756598*
X777302Y758359*
X775872Y760119*
X775431Y760559*
X774881Y760999*
X773451Y762209*
X771911Y763200*
X770260Y763860*
X768280Y764190*
X767620*
X765639Y763970*
X763879Y763310*
X762229Y762319*
X760688Y760999*
X760468Y761219*
X760688Y760999*
X875114Y745156D02*
X752216D01*
Y756158*
X753207Y756268*
X754197Y756488*
X756067Y757368*
X757828Y758689*
X759588Y760119*
X761348Y761659*
X763219Y762980*
X765309Y763860*
X766409Y764080*
X767620Y764190*
X769380Y764080*
X770920Y763640*
X772351Y762980*
X773561Y762099*
X775762Y760009*
X777742Y757588*
X779502Y755278*
X781593Y753187*
X782693Y752307*
X783903Y751647*
X785334Y751207*
X786874Y751097*
X787864Y751207*
X788854Y751647*
X789845Y752307*
X790725Y753187*
X791715Y754288*
X792595Y755608*
X793475Y757148*
X794246Y758799*
X795896Y762539*
X797546Y766720*
X800627Y775742*
X803708Y784764*
X805248Y788945*
X806898Y792686*
X807669Y794337*
X808439Y795877*
X809319Y797197*
X810199Y798297*
X811079Y799178*
X811960Y799838*
X812840Y800278*
X813830Y800388*
X814820Y800278*
X815700Y799838*
X816691Y799178*
X817571Y798297*
X818341Y797197*
X819221Y795877*
X819991Y794447*
X820872Y792796*
X822412Y789165*
X823842Y784984*
X826813Y776072*
X826813D02*
X829894Y767271D01*
X831434Y763090*
X833084Y759459*
X833854Y757808*
X834735Y756378*
X835725Y755058*
X836605Y753958*
X837595Y753077*
X838586Y752417*
X839576Y751977*
X840676Y751867*
X841886Y751977*
X843097Y752417*
X844307Y752967*
X845517Y753738*
X847828Y755718*
X850138Y757918*
X852449Y760119*
X854759Y762099*
X855859Y762870*
X857070Y763420*
X858170Y763860*
X859270Y763970*
X860370Y763860*
X861361Y763530*
X863231Y762539*
X865101Y760999*
X866862Y759349*
X868732Y757588*
X870713Y755938*
X872803Y754728*
X873903Y754288*
X875114Y754068*
Y754288*
Y745156*
X873463Y746586*
Y753187*
X873683*
X872693Y753297*
X871813Y753628*
X869942Y754728*
X868072Y756268*
X866202Y758028*
X866202D02*
X864441Y759789D01*
X862681Y761329*
X860920Y762429*
X860150Y762760*
X859270Y762870*
X858390Y762760*
X857400Y762319*
X856409Y761769*
X855419Y760999*
X854429Y760119*
X853329Y759129*
X851128Y756818*
X848708Y754618*
X846177Y752747*
X844857Y751977*
X843537Y751427*
X842106Y750987*
X840676Y750877*
X839466Y750987*
X838365Y751427*
X837265Y752087*
X836275Y752967*
X835175Y754068*
X834295Y755388*
X833304Y756818*
X832424Y758469*
X830664Y762209*
X829013Y766280*
X827473Y770681*
X825933Y775192*
X823072Y784104*
X821532Y788175*
X820101Y791916*
X818671Y794997*
X817901Y796317*
X817131Y797417*
X816361Y798297*
X815480Y798958*
X814710Y799398*
X813830Y799508*
X812950Y799398*
X812070Y798958*
X811299Y798297*
X810529Y797417*
X809649Y796317*
X808879Y794997*
X808109Y793456*
X807449Y791806*
X805908Y788065*
X804478Y783884*
X801507Y774862*
X799967Y770241*
X798317Y765840*
X796666Y761659*
X795016Y757918*
X794026Y756268*
X793145Y754728*
X792155Y753407*
X791165Y752307*
X790175Y751427*
X789075Y750767*
X787974Y750327*
X786874Y750217*
X785114Y750327*
X783573Y750767*
X782143Y751427*
X780933Y752307*
X778732Y754398*
X776862Y756708*
X774991Y759129*
X773011Y761219*
X771911Y762099*
X770590Y762760*
X769160Y763200*
X767620Y763310*
X766519Y763200*
X765529Y762980*
X763659Y761989*
X761898Y760669*
X760248Y759129*
X758708Y757698*
X757057Y756378*
X755297Y755388*
X754307Y755168*
X753317Y755058*
Y755278*
Y746586*
X873463*
X875114Y745156*
X844637Y753187D02*
Y745156D01*
X843867*
Y752967*
X844637Y753187*
X874343Y754288D02*
X874784Y754068D01*
X875114*
Y754288*
Y745156*
X874343*
Y754288*
X867522Y758689D02*
X866862Y759349D01*
X866642*
Y745156*
X867522*
Y758689*
X859270Y763970D02*
X859600Y763860D01*
X859930Y763750*
X859710Y763970*
Y745156*
X859050*
Y763970*
X859270*
X864771Y761219D02*
X853549D01*
Y760999*
X852889Y760339*
X852669Y760559*
X865431*
X865652Y760339*
X864771Y761219*
X852119Y759789D02*
X851458Y759129D01*
Y759349*
Y745156*
X852119*
Y760119*
Y759789*
X844857Y753407D02*
X844527Y753077D01*
X843867Y752967*
Y752747*
X843647*
X844857Y753407*
X829233Y768811D02*
Y768591D01*
X829453Y768041*
X797876*
X798427Y769251*
X798757Y770571*
Y745156*
X798097*
Y768041*
X798317Y768811*
X829013*
X829233Y768371*
Y745156*
X828573*
Y770571*
X829233Y768811*
Y768591*
Y768811*
X820982Y791036D02*
X806128D01*
X806348Y791696*
X820982*
Y791036*
Y792576D02*
Y745156D01*
X821642*
Y791036*
Y790816*
X820982Y792356*
Y792576*
X814160Y800388D02*
X813390D01*
X813170Y800608*
Y745156*
X813830*
Y800608*
X814160Y800388*
X816581Y799288D02*
X810859D01*
Y799508*
X811079Y799288*
X810419Y798628*
X810199*
X817571*
X817241Y798958*
X816581Y799288*
Y799508*
Y799288*
X806348Y791916D02*
X806128Y791146D01*
X805908Y790376*
X805578*
Y745156*
X806348*
Y791916*
X824172Y784104D02*
X803378D01*
Y783884*
X803268Y783554*
X803158Y783224*
Y783444*
X824392*
Y783224*
X824172Y783884*
Y784104*
X826923Y775852D02*
X800407D01*
Y775632*
X800627*
X800847Y776293*
X800627Y776623*
X826703*
Y776293*
X826813Y775962*
X826923Y775632*
Y775852*
X832204Y761219D02*
X795126D01*
Y760999*
X794906Y760339*
Y760559*
X832424*
Y760339*
X832204Y760999*
Y761219*
X783573Y751867D02*
X783243Y752087D01*
X782913Y752307*
X782693Y752527*
Y745156*
X783353*
Y752087*
X783573Y751867*
X781373Y753407D02*
X782253Y752747D01*
X782033Y752967*
X752216*
Y753628*
X781153*
X781373Y753407*
X775872Y760119D02*
X775431Y760559D01*
X774881Y760999*
X774661Y761219*
X760468*
X760688Y760999*
X760248Y760669*
X759808Y760339*
Y760559*
Y745156*
X760468*
Y760559*
X775101*
Y745156*
X775872*
Y760119*
X768280Y764190D02*
X767620D01*
X767400Y764410*
Y745156*
X768060*
Y764410*
X768280Y764190*
X836605Y753628D02*
X790945D01*
X790285Y752967*
Y745156*
X790945*
Y754068*
X791165Y753848*
X790065Y752747*
Y752967*
X837925*
Y752747*
X837485Y753077*
X837045Y753628*
X836825*
X837045*
X836385Y754288*
X836165*
Y745156*
X836825*
Y753187*
X836605Y753628*
X843647Y752747D02*
X843867D01*
Y752967*
X844527Y753077*
X844857Y753407*
Y753628*
X875114*
Y752967*
X843647*
Y752747*
X824612Y772442D02*
X825052Y772332D01*
X825163Y772002*
X824832*
Y769691*
X825163*
Y769251*
X825052Y769031*
X824832Y768811*
X825933*
X826263Y768921*
X826483Y769031*
Y772222*
Y772002*
X826703Y772442*
X827363*
X827803Y772662*
X828023Y773102*
X828133Y774312*
Y774532*
X827913*
X827803Y774422*
X827693Y774202*
X827583Y773982*
X827363Y773872*
X826483*
Y779043*
X826703Y779593*
X826483Y779813*
X826153Y779703*
X825823Y779263*
X825603Y778933*
X825383Y778603*
X825163Y778823*
X822412Y775192*
X821972Y774752*
X821422Y773982*
X820982Y773322*
X820762Y772662*
X821092Y772442*
X821642*
X821422*
X824612*
Y773872*
X822632*
X822852*
X822082*
X822302Y774092*
X822412Y774312*
X824612Y777283*
Y777063*
X824832Y777503*
X825163Y777393*
Y777063*
X824832Y777283*
Y774312*
X825163*
X825052Y773982*
X824612Y773872*
Y772442*
X819111Y760339D02*
X814160D01*
Y761659*
X819111*
Y760339*
X832864Y754838D02*
X810859D01*
Y756158*
X832864*
Y754838*
X824172Y762099D02*
X823952D01*
Y762319*
X824282Y762760*
X825052Y763200*
X825713Y763860*
X825933Y764300*
X826043Y764850*
X825933Y765510*
X825603Y766060*
X825052Y766390*
X824392Y766500*
X823732Y766390*
X823182Y766060*
X822742Y765730*
X822412Y765620*
X822632Y766060*
X823182Y766610*
X824062Y767161*
X825163Y767381*
X825933Y767271*
X826703Y766940*
X827143Y766390*
X827363Y765620*
X827143Y764850*
X826703Y764190*
X826043Y763530*
X826373Y763420*
X827143Y763090*
X827473Y762870*
X827803Y762429*
X828023Y761879*
X828133Y760999*
X828023Y760229*
X827803Y759569*
X827033Y758359*
X825713Y757588*
X824172Y757368*
X823182Y757478*
X822302Y757698*
X821862Y758139*
X821642Y758469*
X821862Y758689*
X822192Y758579*
X822632Y758249*
X823182Y757918*
X823952Y757808*
X825052Y758028*
X825052D02*
X825823Y758579D01*
X826373Y759459*
X826483Y760559*
X826373Y761329*
X826153Y761879*
X825603Y762209*
X824832Y762319*
X824502*
X824172Y762099*
X823952Y762319*
X824172Y762099*
X787094Y793786D02*
X802828Y742845D01*
X802718Y742075*
X802497Y741305*
X801507Y739874*
X800077Y738664*
X798317Y737674*
X796116Y736794*
X793696Y736134*
X791055Y735694*
X788304Y735363*
X785554*
X782913Y735583*
X780273Y735914*
X777962Y736574*
X775872Y737454*
X774221Y738664*
X772901Y740095*
X772461Y740865*
X772131Y741745*
X771911Y741965*
X787094Y793786*
Y789826D02*
X801287Y742405D01*
X800737Y741085*
X799637Y739874*
X798097Y738884*
X796336Y738114*
X794246Y737564*
X791935Y737124*
X789515Y736904*
X787094*
Y789826*
X773341Y741745D02*
X773781Y740865D01*
X774441Y740095*
X775431Y739434*
X776532Y738774*
Y738994*
X785444Y784104*
X773121Y741965*
X773341Y741745*
X787094Y789826D02*
Y736904D01*
X784343*
X784123Y737124*
X787094Y789826*
X741874Y757808D02*
X764649Y759569D01*
X777852Y754068*
Y729532*
X753097Y726561*
X741874Y736244*
Y757808*
X744625Y757038D02*
X764319Y758469D01*
X774661Y754068*
X753647Y752527*
X744625Y757038*
X754307Y750877D02*
X776532Y752747D01*
Y730962*
X754307Y727992*
Y750877*
X863341Y740865D02*
X862241Y741965D01*
X861471Y743065*
X860920Y744275*
X860480Y745486*
X860370Y746916*
X860260Y748236*
X860370Y749887*
X860590Y751537*
X860370Y751867*
X856960Y766940*
X863891*
Y768591*
X856740*
X853109Y784324*
X851458Y782344*
Y795107*
X852339Y795877*
Y802478*
X848928*
Y795877*
X849918Y795107*
Y782344*
X848488Y784324*
X844857Y768591*
X837485*
Y766940*
X844417*
X840896Y751867*
Y751537*
X841116Y749887*
X841226Y748236*
Y746916*
X841006Y745486*
X840676Y744275*
X840126Y743065*
X839356Y741965*
X838365Y740865*
X838145*
Y727772*
X838916Y730962*
X839356*
X847387Y766940*
X849918*
Y763310*
X851678*
Y772222*
X849918*
Y768591*
X847608*
X850138Y779373*
X851458*
X853769Y768591*
X851678*
Y766940*
X854209*
X862021Y730962*
X862461*
X863121Y727772*
Y740865*
X861801Y740095*
X862021Y739874*
X861801Y739434*
X861361Y739214*
X860810Y739434*
X860590Y739874*
X860810Y740315*
X861361Y740535*
X861801Y740315*
X862021Y739874*
X861801Y740095*
X863121Y740865*
X863341*
X850798Y791696D02*
X849918Y791586D01*
X849038Y791366*
X848268Y790926*
X847497Y790266*
X846947Y789606*
X846507Y788725*
X846287Y787845*
X846177Y786855*
X846287Y785975*
X846507Y785095*
X846947Y784324*
X847497Y783664*
X848268Y783114*
X849038Y782674*
X849918Y782454*
X850798Y782344*
X851788Y782454*
X852669Y782674*
X853549Y783114*
X854209Y783664*
X854869Y784324*
X855309Y785095*
X855529Y785975*
X855639Y786855*
X855529Y787845*
X855309Y788725*
X854869Y789606*
X853549Y790926*
X852669Y791366*
X851788Y791586*
X850798Y791696*
Y793346*
X852008Y793236*
X853219Y792906*
X854319Y792246*
X855309Y791476*
X856079Y790596*
X856630Y789495*
X857070Y788175*
X857180Y786855*
X857070Y785645*
X856630Y784434*
X856079Y783444*
X855309Y782454*
X854319Y781794*
X853219Y781134*
X852008Y780804*
X850798Y780694*
X849588Y780804*
X848378Y781134*
X847387Y781794*
X846397Y782454*
X845737Y783444*
X845077Y784434*
X844747Y785645*
X844637Y786855*
X844747Y788175*
X845077Y789495*
X845737Y790596*
X846397Y791476*
X847387Y792246*
X848378Y792906*
X849588Y793236*
X850798Y793346*
Y791696*
X846177Y766940D02*
X846507Y767050D01*
X846507D02*
X846617Y767381D01*
X846507Y767821*
X846177Y768041*
X845737Y767821*
X845517Y767381*
X845737Y767050*
X845737D02*
X846177Y766940D01*
X845957*
X846177*
X855639D02*
X856079Y767050D01*
X856079D02*
X856299Y767381D01*
X856079Y767821*
X855639Y768041*
X855089Y767821*
X854869Y767381*
X855089Y767050*
X855089D02*
X855639Y766940D01*
X855419*
X855639*
X809759Y715559D02*
X811630Y715669D01*
X813500Y715889*
X815370Y716439*
X817021Y716989*
X818671Y717870*
X820211Y718750*
X821752Y719850*
X823072Y721060*
X824282Y722381*
X825383Y723921*
X826263Y725461*
X827143Y727112*
X827693Y728762*
X828243Y730632*
X828463Y732503*
X828573Y734373*
X828463Y736354*
X828243Y738224*
X827693Y740095*
X827143Y741855*
X826263Y743505*
X825383Y745046*
X824282Y746476*
X823072Y747796*
X821752Y749117*
X820211Y750217*
X818671Y751097*
X817021Y751867*
X815370Y752527*
X813500Y753077*
X811630Y753297*
X809759Y753407*
X807779Y753297*
X805908Y753077*
X804148Y752527*
X802387Y751867*
X800737Y751097*
X799197Y750217*
X797766Y749117*
X796446Y747796*
X795236Y746476*
X794136Y745046*
X793145Y743505*
X792375Y741855*
X791825Y740095*
X791275Y738224*
X791055Y736354*
X790945Y734373*
X791055Y732503*
X791275Y730632*
X791825Y728762*
X792375Y727112*
X793145Y725461*
X794136Y723921*
X795236Y722381*
X796446Y721060*
X797766Y719850*
X799197Y718750*
X800737Y717870*
X802387Y716989*
X804148Y716439*
X805908Y715889*
X807779Y715669*
X809759Y715559*
X809539Y715779*
X809759Y715559*
Y717429D02*
X812290Y717650D01*
X814710Y718200*
X816911Y719080*
X819111Y720180*
X820982Y721720*
X822632Y723371*
X824062Y725241*
X825163Y727332*
X825823Y728982*
X826373Y730742*
X826593Y732503*
X826703Y734373*
X826593Y736134*
X826373Y737894*
X825933Y739544*
X825383Y741085*
X824612Y742625*
X823842Y744055*
X821752Y746586*
X820541Y747686*
X819221Y748676*
X817791Y749557*
X816361Y750217*
X814820Y750767*
X813170Y751207*
X811519Y751427*
X809759Y751537*
X807008Y751317*
X804258Y750657*
X801837Y749557*
X799637Y748236*
X797656Y746476*
X796006Y744495*
X794576Y742295*
X793475Y739764*
X792815Y737124*
X792595Y734373*
X792705Y732613*
X792925Y730962*
X793365Y729312*
X793916Y727772*
X794686Y726341*
X795566Y724911*
X797656Y722381*
X800187Y720290*
X801617Y719520*
X803158Y718750*
X804698Y718200*
X806348Y717760*
X807999Y717539*
X809759Y717429*
X809539*
X809759*
X801287Y748126D02*
X800297Y745926D01*
X799637Y743505*
X799417Y740975*
X799637Y738334*
X800077Y735914*
X800737Y733603*
X801727Y731513*
X802828Y729862*
X803928Y728652*
X805468Y727222*
X807229Y725901*
X809539Y724691*
X812070Y723811*
X813500Y723591*
X815040Y723371*
X816691*
X818341Y723481*
X820211Y723811*
X822082Y724361*
X820211Y722601*
X817791Y721060*
X815040Y719850*
X812070Y719190*
X810419Y718970*
X808769Y719080*
X807119Y719190*
X805468Y719630*
X803818Y720290*
X802167Y721170*
X800517Y722271*
X798977Y723591*
X797656Y725021*
X796666Y726451*
X795786Y728102*
X795236Y729752*
X794796Y731623*
X794576Y733383*
Y735253*
X794686Y737014*
X795016Y738774*
X795456Y740535*
X796116Y742075*
X796886Y743615*
X797766Y745046*
X798867Y746256*
X799967Y747246*
X801287Y748126*
X825163Y727332D02*
X824062Y725241D01*
X822632Y723371*
X820982Y721720*
X819111Y720180*
X816911Y719080*
X814710Y718200*
X812290Y717650*
X809759Y717429*
X807999Y717539*
X806348Y717760*
X804698Y718200*
X803158Y718750*
X801617Y719520*
X800187Y720290*
X797656Y722381*
X795566Y724911*
X794686Y726341*
X793916Y727772*
X793365Y729312*
X792925Y730962*
X792705Y732613*
X792595Y734373*
X792815Y737124*
X793475Y739764*
X794576Y742295*
X796006Y744495*
X797656Y746476*
X799637Y748236*
X801837Y749557*
X804258Y750657*
X803488Y750217*
X802718Y749447*
X801947Y748786*
X801287Y748126*
X799967Y747246*
X798867Y746256*
X797766Y745046*
X796886Y743615*
X796116Y742075*
X795456Y740535*
X795016Y738774*
X794686Y737014*
X794576Y735253*
Y733383*
X794796Y731623*
X795236Y729752*
X795786Y728102*
X796666Y726451*
X797656Y725021*
X798977Y723591*
X800517Y722271*
X802167Y721170*
X803818Y720290*
X805468Y719630*
X807119Y719190*
X808769Y719080*
X810419Y718970*
X812070Y719190*
X815040Y719850*
X817791Y721060*
X820211Y722601*
X822082Y724361*
X823842Y725901*
X824612Y726672*
X825163Y727332*
X824612Y726672*
X823842Y725901*
X822852Y725131*
X822082Y724361*
X820211Y723811*
X818341Y723481*
X816691Y723371*
X815040*
X813500Y723591*
X812070Y723811*
X809539Y724691*
X807229Y725901*
X805468Y727222*
X803928Y728652*
X802828Y729862*
X801727Y731513*
X800737Y733603*
X800077Y735914*
X799637Y738334*
X799417Y740975*
X799637Y743505*
X800297Y745926*
X801287Y748126*
X801947Y748786*
X802718Y749447*
X803488Y750217*
X804258Y750657*
X803048Y748786*
X802167Y746476*
X801617Y743835*
X801507Y741085*
X801617Y738224*
X802167Y735473*
X803158Y732943*
X804478Y730742*
X806238Y728982*
X808329Y727442*
X810639Y726231*
X813280Y725461*
X816030Y725131*
X818891Y725241*
X821972Y726011*
X823512Y726561*
X825163Y727332*
G54D23*
X1054000Y1190000D03*
X1000000Y1000000D03*
X1140000Y1190000D03*
X1090000Y1000000D03*
X1040000Y1012500D03*
G54D24*
X1044000Y1190000D03*
X1034000D03*
X1024000D03*
X1014000D03*
X1004000D03*
X994000D03*
X984000D03*
X974000D03*
X964000D03*
X1010000Y1000000D03*
X1020000D03*
X1030000D03*
X1040000D03*
X1050000D03*
X1060000D03*
X1070000D03*
X1130000Y1190000D03*
X1120000D03*
X1110000D03*
X1100000D03*
X1090000D03*
X1080000D03*
X1070000D03*
X1100000Y1000000D03*
X1110000D03*
X1120000D03*
X1130000D03*
X1140000D03*
X1050000Y1012500D03*
G54D32*
X1151811Y1017559D03*
Y1127795D03*
X917000Y1180500D03*
X909000D03*
X913000Y1160500D03*
X903000D03*
Y1173000D03*
X923000Y1160500D03*
Y1173000D03*
G54D51*
X954000Y1064500D02*
X958500D01*
X963500Y1059500*
Y1059550*
X963550Y1059500*
Y1055500D02*
Y1059500D01*
X985500Y1128500D02*
X986000D01*
X988000Y1126500*
X988950*
X985500Y1128500D02*
X986000D01*
X988000Y1130500*
X988950*
X994050Y1126500D02*
X994590D01*
X996795Y1128705*
X986500Y1136500D02*
X988500Y1134500D01*
X988950*
X986500Y1136500D02*
X988500Y1138500D01*
X988950*
X985500Y1136500D02*
X986500D01*
X988500Y1134500*
X988950*
X994050Y1130500D02*
X995000D01*
X996795Y1128705*
X994050Y1130500D02*
X995000D01*
X997000Y1128500*
X994050Y1134500D02*
X995000D01*
X997000Y1136500*
X994050Y1138500D02*
X994500D01*
X996500Y1136500*
X997000*
X994050Y1138500D02*
X995500Y1139950D01*
X996950*
X997000Y1140000*
X1144460Y1087460D02*
X1143788Y1086788D01*
X1136540Y1087460D02*
X1137212Y1086788D01*
X1136540Y1079540D02*
X1137212Y1080212D01*
X1144460Y1079540D02*
X1143788Y1080212D01*
X1124460Y1087460D02*
X1123788Y1086788D01*
X1116540Y1087460D02*
X1117212Y1086788D01*
X1116540Y1079540D02*
X1117212Y1080212D01*
X1124460Y1079540D02*
X1123788Y1080212D01*
X1144460Y1107460D02*
X1143788Y1106788D01*
X1136540Y1107460D02*
X1137212Y1106788D01*
X1136540Y1099540D02*
X1137212Y1100212D01*
X1144460Y1099540D02*
X1143788Y1100212D01*
X1052722Y997278D02*
X1052051Y997949D01*
X1047278Y997278D02*
X1047949Y997949D01*
X1047278Y1002722D02*
X1047949Y1002051D01*
X1052722Y1002722D02*
X1052051Y1002051D01*
X1052722Y1009778D02*
X1052051Y1010449D01*
X1052722Y1015222D02*
X1052051Y1014551D01*
X1047278Y1015222D02*
X1047949Y1014551D01*
X1047278Y1009778D02*
X1047949Y1010449D01*
X1062722Y997278D02*
X1062051Y997949D01*
X1057278Y997278D02*
X1057949Y997949D01*
X1057278Y1002722D02*
X1057949Y1002051D01*
X1062722Y1002722D02*
X1062051Y1002051D01*
X1124460Y1107460D02*
X1123788Y1106788D01*
X1116540Y1107460D02*
X1117212Y1106788D01*
X1116540Y1099540D02*
X1117212Y1100212D01*
X1124460Y1099540D02*
X1123788Y1100212D01*
G54D52*
X929500Y1042500D02*
Y1046000D01*
X933500Y1050000*
Y1057000*
X936500Y1060000*
Y1062000*
X943500Y1069000*
Y1092000*
X957000Y1105500*
Y1123500*
X926000Y1042500D02*
Y1052000D01*
X934500Y1060500*
Y1062000*
X942000Y1069500*
Y1092500*
X954500Y1105000*
Y1118000*
X933000Y1042500D02*
Y1047000D01*
X938500Y1052500*
Y1062000*
X945000Y1068500*
Y1091500*
X959500Y1106000*
Y1117000*
X923500Y1058000D02*
Y1041500D01*
X925000Y1040000*
X941000*
X947000Y1034000*
X957500*
X960500Y1037000*
X923500Y1058000D02*
X935000Y1069500D01*
X937000*
X955000Y1055500D02*
X958450D01*
X955000Y1060000D02*
X958450D01*
Y1059500*
X931500Y1113500D02*
X946500D01*
X948000Y1115000*
X952000*
X978000Y1117500D02*
Y1153000D01*
X999000Y1174000*
X1004500*
X1007000Y1176500*
X1009500*
X1069500Y1104000D02*
X1086500D01*
X1100000Y1090500*
Y1074000*
X1102500Y1071500*
X1108000*
X1111000Y1068500*
X1125000*
X942000Y1142000D02*
Y1144000D01*
X945500Y1147500*
X952000*
X963000Y1158500*
X974000*
X988500Y1173000*
X992000*
X999500Y1180500*
X1017000*
X1022500Y1186000*
X1037500*
X1039000Y1187500*
Y1192000*
X1041000Y1194000*
X1050000*
X1054000Y1190000*
X942000Y1142000D02*
X945500Y1138500D01*
X949500*
X939000Y1147500D02*
Y1136500D01*
X949500Y1126000*
X939000Y1147500D02*
X971500Y1180000D01*
X994000*
X1004000Y1190000*
X934000Y1144500D02*
Y1139250D01*
X943750Y1129500*
Y1128250*
X951000Y1121000*
X934000Y1144500D02*
X971000Y1181500D01*
X992000*
X998500Y1188000*
Y1190500*
X1002000Y1194000*
X1030000*
X1034000Y1190000*
X940500Y1147000D02*
Y1139000D01*
X950500Y1129000*
X940500Y1147000D02*
X968000Y1174500D01*
X991000*
X998500Y1182000*
X1016000*
X1024000Y1190000*
X947000Y1144500D02*
Y1142000D01*
X947500Y1141500*
Y1141000*
X947000Y1144500D02*
X948500Y1146000D01*
X968500*
X1001500Y1179000*
X1019000*
X1024500Y1184500*
X1038500*
X1044000Y1190000*
X949500Y1143500D02*
X952000D01*
X958000Y1137500*
Y1127000*
X961000Y1124000*
X964500*
X977500Y1111000*
X1023500*
X1028000Y1106500*
X1067000*
X1069500Y1104000*
X947500Y1136000D02*
X954000Y1129500D01*
Y1126500*
X957000Y1123500*
X671874Y630559D02*
X1391874D01*
Y1325559*
X671874*
Y630559*
X1391874*
Y825559*
X671874*
Y630559*
X956874Y770559D02*
X1391874D01*
Y630559*
X956874*
Y770559*
Y660559D02*
X1391874D01*
Y630559*
X956874*
Y660559*
X1116874*
Y630559*
X956874*
Y660559*
Y770559D02*
X1391874D01*
Y825559*
X956874*
Y770559*
Y700559D02*
X1391874D01*
Y770559*
X956874*
Y700559*
X1256874Y660559D02*
X1391874D01*
Y700559*
X1256874*
Y660559*
X671874D02*
X831874D01*
Y630559*
X671874*
Y660559*
X831874Y630559D02*
X956874D01*
Y660559*
X831874*
Y630559*
G54D53*
X897500Y1009500D03*
X893500Y1005000D03*
X898000Y1000000D03*
X893500Y993500D03*
X903500D03*
X909500Y1000500D03*
X916500Y1007000D03*
X917500Y1000500D03*
X925000Y1000000D03*
X913500Y993500D03*
X922500D03*
X902500Y1008000D03*
X954000Y1006000D03*
X928000Y1008500D03*
X945500Y1000500D03*
X931500Y993500D03*
X940500D03*
X965000Y1001000D03*
X936500Y1003000D03*
X949500Y993500D03*
X959500D03*
X955000Y999000D03*
X985500Y1001000D03*
X993500Y1000500D03*
X979500Y993500D03*
X995500Y1007500D03*
X989000Y993500D03*
X998000D03*
X975500Y1001000D03*
X987500Y1009500D03*
X969500Y993500D03*
X1008500D03*
X1017000D03*
X1026500D03*
X1036000D03*
X1045000D03*
X1054500D03*
X1064500D03*
X1081500D03*
X1073500D03*
X1084000Y1005500D03*
X1077500Y1001000D03*
X1075000Y1009500D03*
X1058000Y1006000D03*
X1066000Y1005500D03*
X1123500Y993500D03*
X1114500D03*
X1105000D03*
X1095500D03*
X1088000D03*
X1095500Y1006500D03*
X1106000Y1007000D03*
X1120500Y1007500D03*
X1152500Y1008000D03*
X1147500Y1003000D03*
X1146500Y998000D03*
X1141000Y993500D03*
X1132000D03*
X1135000Y1007500D03*
X913000Y1048500D03*
X893500Y1044000D03*
Y1033500D03*
Y1024500D03*
Y1015000D03*
X911500Y1012500D03*
X917500Y1022500D03*
X921500Y1015500D03*
X925000Y1023500D03*
X913500Y1033000D03*
X909000Y1046000D03*
X905500Y1018000D03*
X915500Y1024000D03*
X920000Y1040500D03*
X916000D03*
X905500Y1012500D03*
X903500Y1034000D03*
X922000D03*
X958000Y1050000D03*
X929500Y1042500D03*
X935500Y1031000D03*
X926000Y1042500D03*
X941000Y1034000D03*
X933000Y1042500D03*
X931000Y1016000D03*
X937000Y1023500D03*
X938000Y1011000D03*
X946500Y1011500D03*
X942000Y1017000D03*
X946500Y1023500D03*
X953500Y1020000D03*
X963000Y1020500D03*
X958500Y1013000D03*
X958000Y1045000D03*
X948000Y1046000D03*
X960500Y1041000D03*
X962500Y1033500D03*
X929500Y1031000D03*
X960500Y1037000D03*
X965500Y1043500D03*
X949000Y1041000D03*
X942000Y1029000D03*
X949500Y1028500D03*
X949000Y1037000D03*
X989500Y1019500D03*
Y1016500D03*
X967000Y1011500D03*
X988500Y1050000D03*
X995000Y1015500D03*
X977000Y1011500D03*
Y1020000D03*
X981500Y1030000D03*
X975500Y1050000D03*
X994000Y1031000D03*
X998000D03*
X1003500Y1039000D03*
X995000Y1042000D03*
X993500Y1050000D03*
X985000Y1037500D03*
X979500Y1036500D03*
X1000000Y1050000D03*
X974500Y1046000D03*
X989500Y1031000D03*
X1009500D03*
X1041500Y1050000D03*
X1032500D03*
X1022500D03*
X1042000Y1023000D03*
X1033500Y1032000D03*
X1015000Y1018000D03*
X1021500Y1043000D03*
X1013500Y1050000D03*
X1031500Y1041500D03*
X1039500Y1043000D03*
X1013000Y1041500D03*
X1006500Y1050000D03*
X1042500Y1036500D03*
X1025500Y1036000D03*
X1020000Y1031000D03*
X1080000Y1015000D03*
X1075500Y1021500D03*
X1067500Y1024000D03*
X1064000Y1012500D03*
X1058000Y1026500D03*
X1059000Y1017500D03*
X1052000Y1020500D03*
X1048000Y1030500D03*
X1051000Y1050000D03*
X1064500Y1041500D03*
Y1046000D03*
X1059000D03*
X1056000Y1037000D03*
X1067500Y1034000D03*
X1085500Y1032500D03*
X1077500D03*
X1084500Y1040000D03*
X1077500Y1041000D03*
X1047000Y1044500D03*
X1077500Y1049500D03*
X1083000Y1022500D03*
X1121000Y1044500D03*
Y1049000D03*
X1092000Y1010500D03*
X1113000Y1012500D03*
X1109000Y1020500D03*
X1120000Y1032500D03*
X1102000Y1022500D03*
X1116000Y1039500D03*
X1121500Y1021500D03*
X1105500Y1040000D03*
X1113500Y1027000D03*
X1105500Y1048000D03*
X1098000Y1050000D03*
X1098500Y1040500D03*
X1122000Y1014500D03*
X1102000Y1033000D03*
X1094000D03*
X1090000Y1044500D03*
X1087500Y1022500D03*
X1101000Y1016500D03*
X1156000Y1048000D03*
Y1037500D03*
X1146000Y1037000D03*
X1137000Y1037500D03*
X1128500Y1038000D03*
X1126000Y1031500D03*
X1146000Y1027500D03*
X1148000Y1045000D03*
X1156000Y1026500D03*
X1134000D03*
X1140000Y1020000D03*
X1143500Y1012000D03*
X1129500Y1016000D03*
X916000Y1081500D03*
X920000D03*
X906000Y1060000D03*
X910000D03*
X924500Y1081500D03*
X893500Y1063000D03*
Y1072000D03*
X897500Y1060500D03*
X918000Y1088000D03*
X893500Y1053500D03*
Y1082000D03*
X912000Y1057500D03*
X915000Y1065500D03*
X919000D03*
X902500Y1067500D03*
X899000Y1081500D03*
X951000Y1073000D03*
Y1077000D03*
X926000Y1070500D03*
X955000Y1055500D03*
X961000Y1084000D03*
X938000Y1080500D03*
X954000Y1080000D03*
Y1064500D03*
X931000Y1061000D03*
Y1051000D03*
X934000Y1080500D03*
X941000Y1061000D03*
X957000Y1073000D03*
X948000Y1068500D03*
X937000Y1069500D03*
X941000Y1051000D03*
X936000Y1056000D03*
X955000Y1060000D03*
X981000Y1070500D03*
X992000Y1065500D03*
X1001000Y1060000D03*
X981500Y1063000D03*
X977500D03*
X968000Y1051000D03*
X967000Y1065500D03*
X968000Y1081500D03*
X978000Y1087500D03*
X979000Y1080500D03*
X973500Y1075000D03*
X1002000Y1068500D03*
X989500Y1074000D03*
X1004500Y1084500D03*
X970000Y1089000D03*
X991500Y1085000D03*
X997500Y1078000D03*
X1014000Y1068000D03*
X1027000Y1065500D03*
X1026500Y1060000D03*
X1039500D03*
X1033000Y1063000D03*
X1033500Y1090000D03*
X1020000Y1063000D03*
X1041000Y1068000D03*
X1039500Y1085500D03*
X1013500Y1060000D03*
X1044500Y1078500D03*
X1018500Y1088500D03*
X1019500Y1078500D03*
X1027500Y1082500D03*
X1034000Y1083000D03*
X1038500Y1074000D03*
X1012000Y1083500D03*
X1006500Y1076000D03*
X1026000Y1073000D03*
X1059000Y1052500D03*
X1069500Y1086000D03*
X1051500Y1060500D03*
X1055000Y1066500D03*
X1063500Y1058000D03*
X1064000Y1074000D03*
X1064500Y1069500D03*
X1046000Y1063000D03*
X1083000Y1054500D03*
X1050500Y1072500D03*
X1049500Y1088500D03*
X1058000Y1083000D03*
X1060500Y1076500D03*
X1067500Y1062500D03*
Y1053000D03*
X1077500Y1058000D03*
Y1068000D03*
X1076500Y1086000D03*
X1077500Y1078500D03*
X1084500Y1079500D03*
X1091500Y1055000D03*
X1102500Y1079500D03*
Y1084000D03*
X1125000Y1068500D03*
X1097000Y1088000D03*
X1107000Y1068500D03*
X1116500Y1071000D03*
X1086000Y1064000D03*
X1095000D03*
X1105000Y1063500D03*
X1105500Y1056000D03*
X1087000Y1086000D03*
X1095000Y1081500D03*
X1089500Y1073500D03*
X1099000Y1071500D03*
X1115500Y1051500D03*
X1116000Y1061500D03*
X1125000Y1065000D03*
X1123500Y1072500D03*
X1125000Y1078000D03*
X1115500D03*
X1104500Y1075000D03*
X1105500Y1089000D03*
X1116000Y1090000D03*
X1121000Y1053500D03*
Y1058500D03*
X1156000Y1087000D03*
Y1077500D03*
Y1068000D03*
Y1058000D03*
X1149000Y1082500D03*
Y1072500D03*
X1141000Y1072000D03*
X1137000Y1064500D03*
X1138500Y1058000D03*
X1139500Y1050500D03*
X1147500Y1063500D03*
X1147000Y1055500D03*
X1134500Y1070000D03*
X1135500Y1077000D03*
X923000Y1126000D03*
X924500Y1116000D03*
X900500Y1097500D03*
X893500Y1116000D03*
Y1126500D03*
Y1092500D03*
Y1104000D03*
X920000Y1106500D03*
X914000Y1112500D03*
X908000Y1093500D03*
X900000Y1109500D03*
X918000Y1115500D03*
X906000Y1124000D03*
X900500Y1121500D03*
X924000Y1094500D03*
X908000Y1114000D03*
X913500Y1097000D03*
X910500Y1122000D03*
X907000Y1103000D03*
X934000Y1090500D03*
X943000Y1100500D03*
X936500Y1125500D03*
X943000Y1108500D03*
X940500Y1116000D03*
X954500Y1118000D03*
X950500Y1129000D03*
X949500Y1126000D03*
X951000Y1121000D03*
X934500Y1100500D03*
X952000Y1115000D03*
X934500Y1104500D03*
X927500Y1108000D03*
X928500Y1096500D03*
X959500Y1117000D03*
X957000Y1099000D03*
X965000Y1098500D03*
X942000Y1122500D03*
X948000Y1090500D03*
X960500Y1093000D03*
X946000Y1122500D03*
X951500Y1111500D03*
X948500Y1119000D03*
X947500Y1107000D03*
X952000Y1106000D03*
X962000Y1128000D03*
X931500Y1113500D03*
X980500Y1095500D03*
X975000Y1108000D03*
X978000Y1117500D03*
X980500Y1115000D03*
X972000Y1095500D03*
X985500Y1128500D03*
X1002000Y1105000D03*
X998500Y1099000D03*
X969500Y1104000D03*
X1002500Y1118000D03*
X977500Y1104000D03*
X997500Y1119000D03*
X1002500Y1093000D03*
X992000D03*
X966000Y1115000D03*
Y1111000D03*
X987000Y1099000D03*
X1003000Y1124500D03*
X975000Y1128000D03*
X997000Y1128500D03*
X1012500Y1122500D03*
X1012000Y1105500D03*
X1017000Y1116000D03*
X1020000Y1125500D03*
X1009000Y1114500D03*
X1043500Y1125500D03*
X1025500Y1093500D03*
X1038000Y1109000D03*
X1026500Y1104000D03*
X1028000Y1126500D03*
X1026500Y1117500D03*
X1021500Y1107500D03*
X1021000Y1098500D03*
X1011500Y1095000D03*
X1008000Y1128000D03*
X1069500Y1104000D03*
X1085000Y1120000D03*
X1064000Y1121500D03*
Y1117000D03*
X1066000Y1104000D03*
X1053500Y1125500D03*
X1077000Y1117000D03*
Y1112500D03*
X1064000Y1109000D03*
Y1112500D03*
X1056000Y1109000D03*
X1047500D03*
X1061000Y1092000D03*
X1079000Y1106500D03*
X1082000Y1097000D03*
X1074500Y1096500D03*
X1075500Y1125500D03*
X1084500D03*
X1048000Y1128500D03*
X1060500D03*
X1122000Y1094000D03*
X1092500Y1103500D03*
X1102500Y1112500D03*
X1089500Y1128000D03*
X1086500Y1099000D03*
X1102500Y1129500D03*
X1089500Y1111500D03*
X1092500Y1118000D03*
X1100500Y1095500D03*
X1115500Y1097500D03*
X1105500Y1097000D03*
X1102500Y1102000D03*
X1115500Y1127500D03*
X1123000Y1113000D03*
X1123500Y1121500D03*
X1115500Y1118500D03*
Y1109000D03*
X1105500Y1108500D03*
Y1116500D03*
Y1124500D03*
X1102500Y1121000D03*
X1089500Y1123500D03*
X1156000Y1115500D03*
Y1106000D03*
Y1097000D03*
X1150500Y1091500D03*
X1143000Y1095000D03*
X1138500Y1094000D03*
X1149000Y1102000D03*
X1126500Y1127000D03*
X1131500Y1122000D03*
X1132500Y1113500D03*
X1141000Y1123000D03*
X1142500Y1112500D03*
X1130000Y1104500D03*
X1149000Y1116000D03*
X893500Y1157000D03*
Y1167000D03*
Y1136500D03*
Y1147000D03*
X909000Y1144500D03*
X900500Y1141000D03*
X901000Y1131000D03*
X898000Y1166500D03*
X903500Y1150500D03*
X916000Y1149500D03*
X910500Y1138500D03*
X925000Y1143500D03*
X910500Y1130500D03*
X944500Y1143000D03*
X939000Y1130500D03*
X947500Y1141000D03*
X949500Y1143500D03*
Y1138500D03*
X963000Y1161000D03*
X947500Y1136000D03*
X955000Y1158000D03*
X937500Y1151500D03*
X930500Y1163000D03*
Y1155000D03*
X934500Y1167000D03*
X944000Y1161500D03*
X942000Y1157500D03*
X936500Y1140500D03*
X950500Y1150000D03*
X951000Y1154000D03*
X955000D03*
X950500Y1164500D03*
X933500Y1148000D03*
X962000Y1141000D03*
X938000Y1158500D03*
X996500Y1152500D03*
X973000Y1162000D03*
X989000Y1158500D03*
X997000Y1136500D03*
Y1140000D03*
X985500Y1157000D03*
X989000Y1170000D03*
X968500Y1152000D03*
X968000Y1162000D03*
X994500Y1158500D03*
X975000Y1141000D03*
X997000Y1144000D03*
X968500Y1134500D03*
X995500Y1166000D03*
X985500Y1136500D03*
Y1141500D03*
X1003500Y1169500D03*
X1001500Y1157500D03*
X967000Y1167000D03*
X1002500Y1147500D03*
X976500Y1167000D03*
X1003000Y1140500D03*
X1015000Y1133500D03*
X1038500Y1165500D03*
X1034500Y1136000D03*
X1007500Y1152500D03*
X1009500Y1143000D03*
X1022500Y1153000D03*
X1028000Y1165500D03*
X1043500Y1155000D03*
X1041500Y1140000D03*
X1025500Y1137000D03*
X1009500Y1165500D03*
X1082000Y1164500D03*
X1075500Y1169000D03*
X1059000Y1165000D03*
X1082000Y1157000D03*
X1076000Y1135500D03*
X1083000Y1133500D03*
X1073500Y1152500D03*
X1064500Y1161000D03*
X1075500D03*
X1069000Y1151000D03*
X1065500Y1152000D03*
X1054000Y1155500D03*
X1049500Y1165500D03*
X1050000Y1160500D03*
X1049000Y1142000D03*
X1056000Y1145500D03*
X1058000Y1138500D03*
X1070000Y1130500D03*
X1066500Y1140500D03*
X1078000Y1143000D03*
X1084500Y1142500D03*
X1121500Y1165000D03*
X1106000Y1166500D03*
X1095000Y1166000D03*
X1102500Y1138500D03*
X1105500Y1132500D03*
X1121000Y1134000D03*
X1121500Y1144500D03*
X1092500Y1135500D03*
Y1143000D03*
X1099500Y1160000D03*
X1090000Y1157000D03*
Y1150000D03*
X1096000Y1148500D03*
X1105000Y1148000D03*
X1113500Y1161000D03*
X1120500Y1155500D03*
X1113500Y1151000D03*
X1113000Y1143500D03*
X1115500Y1136500D03*
X1146500Y1163000D03*
Y1153500D03*
Y1143000D03*
X1137500Y1141500D03*
X1139000Y1148500D03*
X1138000Y1157500D03*
X1129000Y1149000D03*
X1136000Y1166500D03*
X1126500Y1166000D03*
X1129000Y1160500D03*
X1127500Y1138500D03*
X1134500Y1130500D03*
X1151000Y1139500D03*
X1141500Y1134500D03*
X893500Y1177000D03*
Y1187000D03*
Y1196500D03*
X904000D03*
X914500D03*
X923500D03*
X916000Y1191000D03*
X904500Y1187000D03*
X922500Y1180000D03*
X933500Y1186000D03*
X933000Y1196500D03*
X929000Y1192000D03*
X942500Y1196500D03*
X939000Y1192000D03*
X941500Y1186500D03*
X951500Y1196500D03*
X960500D03*
X951000Y1172500D03*
X956000Y1188500D03*
X953000Y1179500D03*
X931500Y1176500D03*
X928500Y1181000D03*
X985000Y1177500D03*
X970500Y1196500D03*
X979500D03*
X989000D03*
X998000D03*
X989000Y1184000D03*
X1003500Y1176500D03*
X978000Y1177000D03*
X969500Y1185500D03*
X978000Y1171000D03*
X979500Y1184500D03*
X1002500D03*
X1009500Y1176500D03*
X1007500Y1196500D03*
X1017000D03*
X1024500D03*
X1033500D03*
X1042500D03*
Y1183000D03*
X1033000Y1175500D03*
X1025500Y1181500D03*
X1011000Y1184500D03*
X1024500Y1175500D03*
X1016500Y1172500D03*
X1040000Y1175500D03*
X1052500Y1196500D03*
X1062000D03*
Y1189500D03*
X1071000Y1196500D03*
X1080000D03*
X1083000Y1183500D03*
X1074500Y1184500D03*
X1069000Y1175500D03*
X1049000D03*
X1053000Y1180500D03*
X1065500Y1179000D03*
X1058000Y1175500D03*
X1089000Y1196500D03*
X1099000D03*
X1108000D03*
X1118000D03*
X1125500Y1185000D03*
X1114500Y1186000D03*
X1103500Y1185000D03*
X1093500Y1183500D03*
X1101000Y1175500D03*
X1109000Y1178500D03*
X1089000Y1175000D03*
X1118500Y1175500D03*
X1127000Y1196500D03*
X1135500D03*
X1146500D03*
X1135000Y1185000D03*
X1129500Y1175000D03*
X1139000Y1176000D03*
X1146500Y1173000D03*
Y1183000D03*
G54D57*
X1143850Y1000000D02*
G75*
G03X1143850I-3850J0D01*
G01X1146100Y1083500D02*
G03X1146100I-5600J0D01*
G01X1133850Y1000000D02*
G03X1133850I-3850J0D01*
G01X1123850D02*
G03X1123850I-3850J0D01*
G01X1123200Y1044500D02*
G03X1123200I-2200J0D01*
G01X1113850Y1000000D02*
G03X1113850I-3850J0D01*
G01X1103850D02*
G03X1103850I-3850J0D01*
G01X1126100Y1083500D02*
G03X1126100I-5600J0D01*
G01X1136700Y1093500D02*
G03X1136700I-6200J0D01*
G01X1146100Y1103500D02*
G03X1146100I-5600J0D01*
G01X1133850Y1190000D02*
G03X1133850I-3850J0D01*
G01X1126100Y1103500D02*
G03X1126100I-5600J0D01*
G01X1123850Y1190000D02*
G03X1123850I-3850J0D01*
G01X1113850D02*
G03X1113850I-3850J0D01*
G01X1103850D02*
G03X1103850I-3850J0D01*
G01X1087200Y1120000D02*
G03X1087200I-2200J0D01*
G01X1093850Y1190000D02*
G03X1093850I-3850J0D01*
G01X1083850D02*
G03X1083850I-3850J0D01*
G01X1066200Y1121500D02*
G03X1066200I-2200J0D01*
G01X1073850Y1190000D02*
G03X1073850I-3850J0D01*
G01X998700Y1152500D02*
G03X998700I-2200J0D01*
G01X987850Y1190000D02*
G03X987850I-3850J0D01*
G01X977850D02*
G03X977850I-3850J0D01*
G01X967850D02*
G03X967850I-3850J0D01*
G01X926700Y1116000D02*
G03X926700I-2200J0D01*
G01X928925Y1160500D02*
G03X928925I-5925J0D01*
G01X899700Y1009500D02*
G03X899700I-2200J0D01*
G01X915200Y1048500D02*
G03X915200I-2200J0D01*
G01X916200Y1160500D02*
G03X916200I-3200J0D01*
G01X945200Y1108500D02*
G03X945200I-2200J0D01*
G01X936700Y1100500D02*
G03X936700I-2200J0D01*
G01X943200Y1034000D02*
G03X943200I-2200J0D01*
G01X937700Y1031000D02*
G03X937700I-2200J0D01*
G01X960200Y1050000D02*
G03X960200I-2200J0D01*
G01X1063850Y1000000D02*
G03X1063850I-3850J0D01*
G01X1053850D02*
G03X1053850I-3850J0D01*
G01Y1012500D02*
G03X1053850I-3850J0D01*
G01X1043850Y1000000D02*
G03X1043850I-3850J0D01*
G01X1033850D02*
G03X1033850I-3850J0D01*
G01X1023850D02*
G03X1023850I-3850J0D01*
G01X1013850D02*
G03X1013850I-3850J0D01*
G01X1082200Y1015000D02*
G03X1082200I-2200J0D01*
G01X1073850Y1000000D02*
G03X1073850I-3850J0D01*
G01X1157435Y1133379D02*
Y1134634D01*
G03X1157362Y1134811I-250J-0*
G01X1148409Y1143763*
X1147750Y1145354D02*
G03X1148409Y1143763I2250J0D01*
G01X1147750Y1145354D02*
Y1197500D01*
G03X1147500Y1197750I-250J-0*
G01X892500*
G03X892250Y1197500I0J-250*
G01Y992500*
G03X892500Y992250I250J0*
G01X1147500*
G03X1147750Y992500I-0J250*
G01Y1000000*
X1148409Y1001591D02*
G03X1147750Y1000000I1591J-1591D01*
G01X1148409Y1001591D02*
X1157362Y1010544D01*
G03X1157435Y1010721I-177J177*
G01Y1011975*
G03X1157012Y1012155I-250J-0*
G01Y1022963D02*
G03Y1012155I-5201J-5404D01*
G01Y1022963D02*
G03X1157435Y1023143I173J180D01*
G01Y1122211*
G03X1157012Y1122391I-250J0*
G01Y1133199D02*
G03Y1122391I-5201J-5404D01*
G01Y1133199D02*
G03X1157435Y1133379I173J180D01*
G01X1020878Y1192254D02*
G03X1020676Y1192650I-202J146D01*
G01X1017324*
G03X1017122Y1192254I0J-250*
G01X1010879D02*
G03X1017121I3121J-2254D01*
G01X1010878D02*
G03X1010676Y1192650I-202J146D01*
G01X1007324*
G03X1007122Y1192254I0J-250*
G01X1002556Y1186431D02*
G03X1007121Y1192254I1444J3569D01*
G01X1002556Y1186431D02*
G03X1002285Y1186376I-94J-232D01*
G01X999686Y1183777*
G03X999863Y1183350I177J-177*
G01X1015337*
G03X1015514Y1183423I0J250*
G01X1020376Y1188285*
G03X1020431Y1188556I-177J177*
G01X1020879Y1192254D02*
G03X1020431Y1188556I3121J-2254D01*
G01X991814Y1171223D02*
G03X991637Y1171650I-177J177D01*
G01X989163*
G03X988986Y1171577I-0J-250*
G01X974955Y1157545*
X974000Y1157150D02*
G03X974955Y1157545I0J1350D01*
G01X974000Y1157150D02*
X963663D01*
G03X963486Y1157077I-0J-250*
G01X954186Y1147777*
G03X954363Y1147350I177J-177*
G01X967837*
G03X968014Y1147423I0J250*
G01X991814Y1171223*
X986314Y1172723D02*
G03X986137Y1173150I-177J177D01*
G01X979547*
G03X979389Y1172706I-0J-250*
G01X976611D02*
G03X979389I1389J-1706D01*
G01X976611D02*
G03X976453Y1173150I-158J194D01*
G01X968663*
G03X968486Y1173077I-0J-250*
G01X944374Y1148965*
G03X944699Y1148587I177J-177*
G01X945500Y1148850D02*
G03X944699Y1148587I0J-1350D01*
G01X945500Y1148850D02*
X951337D01*
G03X951514Y1148923I0J250*
G01X961567Y1158976*
G03X961555Y1159341I-177J177*
G01X965046Y1160192D02*
G03X961555Y1159341I-2046J808D01*
G01X965046Y1160192D02*
G03X965279Y1159850I233J-92D01*
G01X971453*
G03X971611Y1160294I0J250*
G01X975192Y1162183D02*
G03X971611Y1160294I-2192J-183D01*
G01X975192Y1162183D02*
G03X975618Y1162027I249J21D01*
G01X986314Y1172723*
X992814Y1178223D02*
G03X992637Y1178650I-177J177D01*
G01X972163*
G03X971986Y1178577I-0J-250*
G01X969686Y1176277*
G03X969863Y1175850I177J-177*
G01X990337*
G03X990514Y1175923I0J250*
G01X992814Y1178223*
X932150Y1050663D02*
Y1055637D01*
G03X931723Y1055814I-250J0*
G01X927423Y1051514*
G03X927350Y1051337I177J-177*
G01Y1044355*
G03X927437Y1044166I250J0*
G01X927571Y1044040D02*
G03X927437Y1044166I-1571J-1540D01*
G01X927571Y1044040D02*
G03X927929I179J175D01*
G01X928063Y1044166D02*
G03X927929Y1044040I1437J-1666D01*
G01X928063Y1044166D02*
G03X928150Y1044355I-163J189D01*
G01Y1046000*
X928545Y1046955D02*
G03X928150Y1046000I955J-955D01*
G01X928545Y1046955D02*
X932077Y1050486D01*
G03X932150Y1050663I-177J177*
G01X937483Y1066892D02*
G03X937275Y1067317I-177J177D01*
G01X935567Y1067831D02*
G03X937275Y1067317I1433J1669D01*
G01X935567Y1067831D02*
G03X935227Y1067818I-163J-190D01*
G01X924923Y1057514*
G03X924850Y1057337I177J-177*
G01Y1053363*
G03X925277Y1053186I250J-0*
G01X933077Y1060986*
G03X933150Y1061163I-177J177*
G01Y1062000*
X933545Y1062955D02*
G03X933150Y1062000I955J-955D01*
G01X933545Y1062955D02*
X937483Y1066892D01*
X1143850Y1000000D02*
G03X1143850I-3850J0D01*
G01X1146100Y1083500D02*
G03X1146100I-5600J0D01*
G01X1133850Y1000000D02*
G03X1133850I-3850J0D01*
G01X1123850D02*
G03X1123850I-3850J0D01*
G01X1123200Y1044500D02*
G03X1123200I-2200J0D01*
G01X1113850Y1000000D02*
G03X1113850I-3850J0D01*
G01X1103850D02*
G03X1103850I-3850J0D01*
G01X1123334Y1067063D02*
G03Y1069937I1666J1437D01*
G01Y1067063D02*
G03X1123145Y1067150I-189J-163D01*
G01X1111000*
X1110045Y1067545D02*
G03X1111000Y1067150I955J955D01*
G01X1110045Y1067545D02*
X1107514Y1070077D01*
G03X1107337Y1070150I-177J-177*
G01X1102500*
X1101545Y1070545D02*
G03X1102500Y1070150I955J955D01*
G01X1101545Y1070545D02*
X1099045Y1073045D01*
X1098650Y1074000D02*
G03X1099045Y1073045I1350J0D01*
G01X1098650Y1074000D02*
Y1089837D01*
G03X1098577Y1090014I-250J0*
G01X1086014Y1102577*
G03X1085837Y1102650I-177J-177*
G01X1071355*
G03X1071166Y1102563I0J-250*
G01X1067306Y1104162D02*
G03X1071166Y1102563I2194J-162D01*
G01X1067306Y1104162D02*
G03X1067233Y1104357I-249J19D01*
G01X1066514Y1105077*
G03X1066337Y1105150I-177J-177*
G01X1028000*
X1027045Y1105545D02*
G03X1028000Y1105150I955J955D01*
G01X1027045Y1105545D02*
X1023014Y1109577D01*
G03X1022837Y1109650I-177J-177*
G01X977500*
X977023Y1109737D02*
G03X977500Y1109650I477J1263D01*
G01X977023Y1109737D02*
G03X976737Y1109350I-88J-234D01*
G01X975899Y1110008D02*
G03X976737Y1109350I-899J-2008D01*
G01X975899Y1110008D02*
G03X976178Y1110413I102J228D01*
G01X964014Y1122577*
G03X963837Y1122650I-177J-177*
G01X961000*
X960045Y1123045D02*
G03X961000Y1122650I955J955D01*
G01X960045Y1123045D02*
X958465Y1124626D01*
G03X958087Y1124301I-177J-177*
G01X958350Y1123500D02*
G03X958087Y1124301I-1350J0D01*
G01X958350Y1123500D02*
Y1119279D01*
G03X958692Y1119046I250J-0*
G01X960937Y1115334D02*
G03X958692Y1119046I-1437J1666D01*
G01X960937Y1115334D02*
G03X960850Y1115145I163J-189D01*
G01Y1106000*
X960455Y1105045D02*
G03X960850Y1106000I-955J955D01*
G01X960455Y1105045D02*
X946423Y1091014D01*
G03X946350Y1090837I177J-177*
G01Y1068500*
X945955Y1067545D02*
G03X946350Y1068500I-955J955D01*
G01X945955Y1067545D02*
X939923Y1061514D01*
G03X939850Y1061337I177J-177*
G01Y1052500*
X939455Y1051545D02*
G03X939850Y1052500I-955J955D01*
G01X939455Y1051545D02*
X934423Y1046514D01*
G03X934350Y1046337I177J-177*
G01Y1044355*
G03X934437Y1044166I250J0*
G01X935046Y1041692D02*
G03X934437Y1044166I-2046J808D01*
G01X935046Y1041692D02*
G03X935279Y1041350I233J-92D01*
G01X941000*
X941955Y1040955D02*
G03X941000Y1041350I-955J-955D01*
G01X941955Y1040955D02*
X947486Y1035423D01*
G03X947663Y1035350I177J177*
G01X956837*
G03X957014Y1035423I0J250*
G01X958233Y1036643*
G03X958306Y1036838I-176J176*
G01X960338Y1034806D02*
G03X958306Y1036838I162J2194D01*
G01X960338Y1034806D02*
G03X960143Y1034733I-19J-249D01*
G01X958455Y1033045*
X957500Y1032650D02*
G03X958455Y1033045I0J1350D01*
G01X957500Y1032650D02*
X947000D01*
X946045Y1033045D02*
G03X947000Y1032650I955J955D01*
G01X946045Y1033045D02*
X940514Y1038577D01*
G03X940337Y1038650I-177J-177*
G01X925000*
X924045Y1039045D02*
G03X925000Y1038650I955J955D01*
G01X924045Y1039045D02*
X922545Y1040545D01*
X922150Y1041500D02*
G03X922545Y1040545I1350J0D01*
G01X922150Y1041500D02*
Y1058000D01*
X922545Y1058955D02*
G03X922150Y1058000I955J-955D01*
G01X922545Y1058955D02*
X934045Y1070455D01*
X935000Y1070850D02*
G03X934045Y1070455I0J-1350D01*
G01X935000Y1070850D02*
X935145D01*
G03X935334Y1070937I-0J250*
G01X939183Y1069225D02*
G03X935334Y1070937I-2183J275D01*
G01X939183Y1069225D02*
G03X939608Y1069017I248J-31D01*
G01X940577Y1069986*
G03X940650Y1070163I-177J177*
G01Y1092500*
X941045Y1093455D02*
G03X940650Y1092500I955J-955D01*
G01X941045Y1093455D02*
X953077Y1105486D01*
G03X953150Y1105663I-177J177*
G01Y1112721*
G03X952808Y1112954I-250J0*
G01X950334Y1113563D02*
G03X952808Y1112954I1666J1437D01*
G01X950334Y1113563D02*
G03X950145Y1113650I-189J-163D01*
G01X948663*
G03X948486Y1113577I-0J-250*
G01X947455Y1112545*
X946500Y1112150D02*
G03X947455Y1112545I0J1350D01*
G01X946500Y1112150D02*
X933355D01*
G03X933166Y1112063I0J-250*
G01Y1114937D02*
G03Y1112063I-1666J-1437D01*
G01Y1114937D02*
G03X933355Y1114850I189J163D01*
G01X938221*
G03X938454Y1115192I0J250*
G01X942546D02*
G03X938454I-2046J808D01*
G01X942546D02*
G03X942779Y1114850I233J-92D01*
G01X945837*
G03X946014Y1114923I0J250*
G01X947045Y1115955*
X948000Y1116350D02*
G03X947045Y1115955I0J-1350D01*
G01X948000Y1116350D02*
X950145D01*
G03X950334Y1116437I-0J250*
G01X952102Y1117198D02*
G03X950334Y1116437I-102J-2198D01*
G01X952102Y1117198D02*
G03X952357Y1117504I11J249D01*
G01X952443Y1118781D02*
G03X952357Y1117504I2057J-781D01*
G01X952443Y1118781D02*
G03X952086Y1119087I-234J88D01*
G01X948806Y1121162D02*
G03X952086Y1119087I2194J-162D01*
G01X948806Y1121162D02*
G03X948733Y1121357I-249J19D01*
G01X942795Y1127295*
X942400Y1128250D02*
G03X942795Y1127295I1350J0D01*
G01X942400Y1128250D02*
Y1128837D01*
G03X942327Y1129014I-250J0*
G01X941485Y1129856*
G03X941073Y1129763I-177J-177*
G01X938263Y1132573D02*
G03X941073Y1129763I737J-2073D01*
G01X938263Y1132573D02*
G03X938356Y1132985I-84J235D01*
G01X933045Y1138295*
X932650Y1139250D02*
G03X933045Y1138295I1350J0D01*
G01X932650Y1139250D02*
Y1144500D01*
X933045Y1145455D02*
G03X932650Y1144500I955J-955D01*
G01X933045Y1145455D02*
X936677Y1149086D01*
G03X936602Y1149491I-177J177*
G01X939509Y1152398D02*
G03X936602Y1149491I-2009J-898D01*
G01X939509Y1152398D02*
G03X939914Y1152323I228J102D01*
G01X942483Y1154892*
G03X942275Y1155317I-177J177*
G01X944183Y1157225D02*
G03X942275Y1155317I-2183J275D01*
G01X944183Y1157225D02*
G03X944608Y1157017I248J-31D01*
G01X970045Y1182455*
X971000Y1182850D02*
G03X970045Y1182455I0J-1350D01*
G01X971000Y1182850D02*
X991337D01*
G03X991514Y1182923I0J250*
G01X994316Y1185726*
G03X994131Y1186152I-176J176*
G01X997413Y1191782D02*
G03X994131Y1186152I-3413J-1782D01*
G01X997413Y1191782D02*
G03X997811Y1191721I222J115D01*
G01X1001045Y1194955*
X1002000Y1195350D02*
G03X1001045Y1194955I0J-1350D01*
G01X1002000Y1195350D02*
X1030000D01*
X1030955Y1194955D02*
G03X1030000Y1195350I-955J-955D01*
G01X1030955Y1194955D02*
X1032285Y1193624D01*
G03X1032556Y1193569I177J177*
G01X1037213Y1192122D02*
G03X1032556Y1193569I-3213J-2122D01*
G01X1037213Y1192122D02*
G03X1037668Y1192219I208J138D01*
G01X1038045Y1192955D02*
G03X1037668Y1192219I955J-955D01*
G01X1038045Y1192955D02*
X1040045Y1194955D01*
X1041000Y1195350D02*
G03X1040045Y1194955I0J-1350D01*
G01X1041000Y1195350D02*
X1050000D01*
X1050955Y1194955D02*
G03X1050000Y1195350I-955J-955D01*
G01X1050955Y1194955D02*
X1051986Y1193923D01*
G03X1052163Y1193850I177J177*
G01X1056900*
X1057850Y1192900D02*
G03X1056900Y1193850I-950J0D01*
G01X1057850Y1192900D02*
Y1187100D01*
X1056900Y1186150D02*
G03X1057850Y1187100I0J950D01*
G01X1056900Y1186150D02*
X1051100D01*
X1050150Y1187100D02*
G03X1051100Y1186150I950J0D01*
G01X1050150Y1187100D02*
Y1191837D01*
G03X1050077Y1192014I-250J0*
G01X1049514Y1192577*
G03X1049337Y1192650I-177J-177*
G01X1047324*
G03X1047122Y1192254I0J-250*
G01X1042556Y1186431D02*
G03X1047121Y1192254I1444J3569D01*
G01X1042556Y1186431D02*
G03X1042285Y1186376I-94J-232D01*
G01X1039455Y1183545*
X1038500Y1183150D02*
G03X1039455Y1183545I0J1350D01*
G01X1038500Y1183150D02*
X1025163D01*
G03X1024986Y1183077I-0J-250*
G01X1019955Y1178045*
X1019000Y1177650D02*
G03X1019955Y1178045I0J1350D01*
G01X1019000Y1177650D02*
X1011779D01*
G03X1011546Y1177308I-0J-250*
G01X1007841Y1175055D02*
G03X1011546Y1177308I1659J1445D01*
G01X1007841Y1175055D02*
G03X1007476Y1175067I-188J-165D01*
G01X1005455Y1173045*
X1004500Y1172650D02*
G03X1005455Y1173045I0J1350D01*
G01X1004500Y1172650D02*
X999663D01*
G03X999486Y1172577I-0J-250*
G01X987822Y1160913*
G03X988101Y1160508I177J-177*
G01X986992Y1159399D02*
G03X988101Y1160508I2008J-899D01*
G01X986992Y1159399D02*
G03X986587Y1159678I-228J102D01*
G01X979423Y1152514*
G03X979350Y1152337I177J-177*
G01Y1119355*
G03X979437Y1119166I250J0*
G01X976563D02*
G03X979437I1437J-1666D01*
G01X976563D02*
G03X976650Y1119355I-163J189D01*
G01Y1151637*
G03X976223Y1151814I-250J0*
G01X969455Y1145045*
X968500Y1144650D02*
G03X969455Y1145045I0J1350D01*
G01X968500Y1144650D02*
X953363D01*
G03X953186Y1144223I-0J-250*
G01X958955Y1138455*
X959350Y1137500D02*
G03X958955Y1138455I-1350J0D01*
G01X959350Y1137500D02*
Y1127663D01*
G03X959423Y1127486I250J-0*
G01X961486Y1125423*
G03X961663Y1125350I177J177*
G01X964500*
X965455Y1124955D02*
G03X964500Y1125350I-955J-955D01*
G01X965455Y1124955D02*
X977986Y1112423D01*
G03X978163Y1112350I177J177*
G01X1023500*
X1024455Y1111955D02*
G03X1023500Y1112350I-955J-955D01*
G01X1024455Y1111955D02*
X1028486Y1107923D01*
G03X1028663Y1107850I177J177*
G01X1067000*
X1067955Y1107455D02*
G03X1067000Y1107850I-955J-955D01*
G01X1067955Y1107455D02*
X1069143Y1106267D01*
G03X1069338Y1106194I176J176*
G01X1071166Y1105437D02*
G03X1069338Y1106194I-1666J-1437D01*
G01X1071166Y1105437D02*
G03X1071355Y1105350I189J163D01*
G01X1086500*
X1087455Y1104955D02*
G03X1086500Y1105350I-955J-955D01*
G01X1087455Y1104955D02*
X1100955Y1091455D01*
X1101350Y1090500D02*
G03X1100955Y1091455I-1350J0D01*
G01X1101350Y1090500D02*
Y1074663D01*
G03X1101423Y1074486I250J-0*
G01X1102986Y1072923*
G03X1103163Y1072850I177J177*
G01X1108000*
X1108955Y1072455D02*
G03X1108000Y1072850I-955J-955D01*
G01X1108955Y1072455D02*
X1111486Y1069923D01*
G03X1111663Y1069850I177J177*
G01X1123145*
G03X1123334Y1069937I-0J250*
G01X1126100Y1083500D02*
G03X1126100I-5600J0D01*
G01X1136700Y1093500D02*
G03X1136700I-6200J0D01*
G01X1146100Y1103500D02*
G03X1146100I-5600J0D01*
G01X1143850Y1192900D02*
Y1187100D01*
X1142900Y1186150D02*
G03X1143850Y1187100I0J950D01*
G01X1142900Y1186150D02*
X1137100D01*
X1136150Y1187100D02*
G03X1137100Y1186150I950J0D01*
G01X1136150Y1187100D02*
Y1192900D01*
X1137100Y1193850D02*
G03X1136150Y1192900I0J-950D01*
G01X1137100Y1193850D02*
X1142900D01*
X1143850Y1192900D02*
G03X1142900Y1193850I-950J0D01*
G01X1133850Y1190000D02*
G03X1133850I-3850J0D01*
G01X1126100Y1103500D02*
G03X1126100I-5600J0D01*
G01X1123850Y1190000D02*
G03X1123850I-3850J0D01*
G01X1113850D02*
G03X1113850I-3850J0D01*
G01X1103850D02*
G03X1103850I-3850J0D01*
G01X1087200Y1120000D02*
G03X1087200I-2200J0D01*
G01X1093850Y1190000D02*
G03X1093850I-3850J0D01*
G01X1083850D02*
G03X1083850I-3850J0D01*
G01X1066200Y1121500D02*
G03X1066200I-2200J0D01*
G01X1073850Y1190000D02*
G03X1073850I-3850J0D01*
G01X996400Y1139900D02*
Y1137100D01*
X996273Y1136625D02*
G03X996400Y1137100I-823J475D01*
G01X996273Y1136625D02*
G03Y1136375I216J-125D01*
G01X996400Y1135900D02*
G03X996273Y1136375I-950J0D01*
G01X996400Y1135900D02*
Y1133100D01*
X996273Y1132625D02*
G03X996400Y1133100I-823J475D01*
G01X996273Y1132625D02*
G03Y1132375I216J-125D01*
G01X996400Y1131900D02*
G03X996273Y1132375I-950J0D01*
G01X996400Y1131900D02*
Y1129100D01*
X996273Y1128625D02*
G03X996400Y1129100I-823J475D01*
G01X996273Y1128625D02*
G03Y1128375I216J-125D01*
G01X996400Y1127900D02*
G03X996273Y1128375I-950J0D01*
G01X996400Y1127900D02*
Y1125100D01*
X995450Y1124150D02*
G03X996400Y1125100I0J950D01*
G01X995450Y1124150D02*
X992650D01*
X991740Y1124829D02*
G03X992650Y1124150I910J271D01*
G01X991740Y1124829D02*
G03X991260I-240J-72D01*
G01X990350Y1124150D02*
G03X991260Y1124829I0J950D01*
G01X990350Y1124150D02*
X987550D01*
X986600Y1125100D02*
G03X987550Y1124150I950J0D01*
G01X986600Y1125100D02*
Y1125392D01*
G03X986527Y1125569I-250J0*
G01X985862Y1126234*
G03X985666Y1126306I-177J-177*
G01Y1130694D02*
G03Y1126306I-166J-2194D01*
G01Y1130694D02*
G03X985862Y1130766I19J249D01*
G01X986527Y1131431*
G03X986600Y1131608I-177J177*
G01Y1131900*
X986727Y1132375D02*
G03X986600Y1131900I823J-475D01*
G01X986727Y1132375D02*
G03Y1132625I-216J125D01*
G01X986600Y1133100D02*
G03X986727Y1132625I950J0D01*
G01X986600Y1133100D02*
Y1133892D01*
G03X986527Y1134069I-250J0*
G01X986291Y1134305*
G03X986051Y1134370I-177J-177*
G01Y1138630D02*
G03Y1134370I-551J-2130D01*
G01Y1138630D02*
G03X986291Y1138695I63J242D01*
G01X986527Y1138931*
G03X986600Y1139108I-177J177*
G01Y1139202*
G03X986263Y1139437I-250J0*
G01X987671Y1141141D02*
G03X986263Y1139437I-2171J359D01*
G01X987671Y1141141D02*
G03X987917Y1140850I246J-41D01*
G01X990350*
X991260Y1140171D02*
G03X990350Y1140850I-910J-271D01*
G01X991260Y1140171D02*
G03X991740I240J72D01*
G01X992650Y1140850D02*
G03X991740Y1140171I0J-950D01*
G01X992650Y1140850D02*
X995450D01*
X996400Y1139900D02*
G03X995450Y1140850I-950J0D01*
G01X998700Y1152500D02*
G03X998700I-2200J0D01*
G01X987850Y1190000D02*
G03X987850I-3850J0D01*
G01X977850D02*
G03X977850I-3850J0D01*
G01X967850D02*
G03X967850I-3850J0D01*
G01X926700Y1116000D02*
G03X926700I-2200J0D01*
G01X928925Y1160500D02*
G03X928925I-5925J0D01*
G01X919078Y1177441D02*
G03X919528Y1177801I3922J-4441D01*
G01X919078Y1177441D02*
G03X918774Y1177837I-165J188D01*
G01X919209Y1178184D02*
G03X918774Y1177837I-2209J2316D01*
G01X919209Y1178184D02*
G03X919528Y1177801I172J-180D01*
G01X899700Y1009500D02*
G03X899700I-2200J0D01*
G01X907226Y1177837D02*
G03X906791Y1178184I1774J2663D01*
G01X907226Y1177837D02*
G03X906922Y1177441I-139J-208D01*
G01X900361Y1167695D02*
G03X906922Y1177441I2639J5305D01*
G01X900361Y1167695D02*
G03X900020Y1167372I-112J-223D01*
G01X900172Y1166149D02*
G03X900020Y1167372I-2172J351D01*
G01X900172Y1166149D02*
G03X900523Y1165883I247J-39D01*
G01X898152Y1163907D02*
G03X900523Y1165883I4848J-3407D01*
G01X898152Y1163907D02*
G03X897953Y1164300I-204J144D01*
G01X898325Y1168676D02*
G03X897953Y1164300I-325J-2176D01*
G01X898325Y1168676D02*
G03X898550Y1169088I37J247D01*
G01X906472Y1177801D02*
G03X898550Y1169088I-3472J-4801D01*
G01X906472Y1177801D02*
G03X906791Y1178184I147J203D01*
G01X915200Y1048500D02*
G03X915200I-2200J0D01*
G01X909802Y1057582D02*
G03X912403Y1059663I2198J-82D01*
G01X909802Y1057582D02*
G03X909597Y1057837I-250J9D01*
G01X912198Y1059918D02*
G03X909597Y1057837I-2198J82D01*
G01X912198Y1059918D02*
G03X912403Y1059663I250J-9D01*
G01X916200Y1160500D02*
G03X916200I-3200J0D01*
G01X945200Y1108500D02*
G03X945200I-2200J0D01*
G01X936700Y1100500D02*
G03X936700I-2200J0D01*
G01X943200Y1034000D02*
G03X943200I-2200J0D01*
G01X937700Y1031000D02*
G03X937700I-2200J0D01*
G01X960200Y1050000D02*
G03X960200I-2200J0D01*
G01X965900Y1060900D02*
Y1058100D01*
X965773Y1057625D02*
G03X965900Y1058100I-823J475D01*
G01X965773Y1057625D02*
G03Y1057375I216J-125D01*
G01X965900Y1056900D02*
G03X965773Y1057375I-950J0D01*
G01X965900Y1056900D02*
Y1054100D01*
X964950Y1053150D02*
G03X965900Y1054100I0J950D01*
G01X964950Y1053150D02*
X962150D01*
X961240Y1053829D02*
G03X962150Y1053150I910J271D01*
G01X961240Y1053829D02*
G03X960760I-240J-72D01*
G01X959850Y1053150D02*
G03X960760Y1053829I0J950D01*
G01X959850Y1053150D02*
X957050D01*
X956323Y1053488D02*
G03X957050Y1053150I727J612D01*
G01X956323Y1053488D02*
G03X956016Y1053549I-191J-161D01*
G01X954129Y1057520D02*
G03X956016Y1053549I871J-2020D01*
G01X954129Y1057520D02*
G03Y1057980I-99J230D01*
G01X953823Y1061859D02*
G03X954129Y1057980I1177J-1859D01*
G01X953823Y1061859D02*
G03X953721Y1062318I-134J211D01*
G01X955332Y1066251D02*
G03X953721Y1062318I-1332J-1751D01*
G01X955332Y1066251D02*
G03X955483Y1066200I151J199D01*
G01X958500*
X959702Y1065702D02*
G03X958500Y1066200I-1202J-1202D01*
G01X959702Y1065702D02*
X963481Y1061923D01*
G03X963658Y1061850I177J177*
G01X964950*
X965900Y1060900D02*
G03X964950Y1061850I-950J0D01*
G01X1063850Y1000000D02*
G03X1063850I-3850J0D01*
G01X1053850D02*
G03X1053850I-3850J0D01*
G01Y1012500D02*
G03X1053850I-3850J0D01*
G01X1043850Y1000000D02*
G03X1043850I-3850J0D01*
G01Y1015400D02*
Y1009600D01*
X1042900Y1008650D02*
G03X1043850Y1009600I0J950D01*
G01X1042900Y1008650D02*
X1037100D01*
X1036150Y1009600D02*
G03X1037100Y1008650I950J0D01*
G01X1036150Y1009600D02*
Y1015400D01*
X1037100Y1016350D02*
G03X1036150Y1015400I0J-950D01*
G01X1037100Y1016350D02*
X1042900D01*
X1043850Y1015400D02*
G03X1042900Y1016350I-950J0D01*
G01X1033850Y1000000D02*
G03X1033850I-3850J0D01*
G01X1023850D02*
G03X1023850I-3850J0D01*
G01X1013850D02*
G03X1013850I-3850J0D01*
G01X1003850Y1002900D02*
Y997100D01*
X1002900Y996150D02*
G03X1003850Y997100I0J950D01*
G01X1002900Y996150D02*
X997100D01*
X996150Y997100D02*
G03X997100Y996150I950J0D01*
G01X996150Y997100D02*
Y1002900D01*
X997100Y1003850D02*
G03X996150Y1002900I0J-950D01*
G01X997100Y1003850D02*
X1002900D01*
X1003850Y1002900D02*
G03X1002900Y1003850I-950J0D01*
G01X991239Y1018153D02*
G03X987761I-1739J1347D01*
G01X991239D02*
G03Y1017847I198J-153D01*
G01X987761D02*
G03X991239I1739J-1347D01*
G01X987761D02*
G03Y1018153I-198J153D01*
G01X1093850Y1002900D02*
Y997100D01*
X1092900Y996150D02*
G03X1093850Y997100I0J950D01*
G01X1092900Y996150D02*
X1087100D01*
X1086150Y997100D02*
G03X1087100Y996150I950J0D01*
G01X1086150Y997100D02*
Y1002900D01*
X1087100Y1003850D02*
G03X1086150Y1002900I0J-950D01*
G01X1087100Y1003850D02*
X1092900D01*
X1093850Y1002900D02*
G03X1092900Y1003850I-950J0D01*
G01X1082200Y1015000D02*
G03X1082200I-2200J0D01*
G01X1073850Y1000000D02*
G03X1073850I-3850J0D01*
G01X1155273Y1134449D02*
X1157435D01*
X1156026Y1133999D02*
X1157435D01*
X1156622Y1133549D02*
X1157435D01*
X1156381Y1121849D02*
X1157435D01*
X1155727Y1121399D02*
X1157435D01*
X1154873Y1120949D02*
X1157435D01*
X1153546Y1120499D02*
X1157435D01*
X1087199Y1120049D02*
X1157435D01*
X1087163Y1119599D02*
X1157435D01*
X1087029Y1119149D02*
X1157435D01*
X1086774Y1118699D02*
X1157435D01*
X1086332Y1118249D02*
X1157435D01*
X980180Y1117799D02*
X1157435D01*
X980195Y1117349D02*
X1157435D01*
X980116Y1116899D02*
X1157435D01*
X979933Y1116449D02*
X1157435D01*
X979608Y1115999D02*
X1157435D01*
X979016Y1115549D02*
X1157435D01*
X975311Y1115099D02*
X1157435D01*
X975761Y1114649D02*
X1157435D01*
X976211Y1114199D02*
X1157435D01*
X976661Y1113749D02*
X1157435D01*
X977111Y1113299D02*
X1157435D01*
X977561Y1112849D02*
X1157435D01*
X978015Y1112399D02*
X1157435D01*
X1024461Y1111949D02*
X1157435D01*
X1024911Y1111499D02*
X1157435D01*
X1025361Y1111049D02*
X1157435D01*
X1025811Y1110599D02*
X1157435D01*
X1026261Y1110149D02*
X1157435D01*
X1026711Y1109699D02*
X1157435D01*
X1027161Y1109249D02*
X1157435D01*
X1142312Y1108799D02*
X1157435D01*
X1143302Y1108349D02*
X1157435D01*
X1143966Y1107899D02*
X1157435D01*
X1144471Y1107449D02*
X1157435D01*
X1144873Y1106999D02*
X1157435D01*
X1145197Y1106549D02*
X1157435D01*
X1145461Y1106099D02*
X1157435D01*
X1145671Y1105649D02*
X1157435D01*
X1145836Y1105199D02*
X1157435D01*
X1145959Y1104749D02*
X1157435D01*
X1146043Y1104299D02*
X1157435D01*
X1146089Y1103849D02*
X1157435D01*
X1146099Y1103399D02*
X1157435D01*
X1146073Y1102949D02*
X1157435D01*
X1146010Y1102499D02*
X1157435D01*
X1145909Y1102049D02*
X1157435D01*
X1145767Y1101599D02*
X1157435D01*
X1145582Y1101149D02*
X1157435D01*
X1145349Y1100699D02*
X1157435D01*
X1145060Y1100249D02*
X1157435D01*
X1144702Y1099799D02*
X1157435D01*
X1144259Y1099349D02*
X1157435D01*
X1143692Y1098899D02*
X1157435D01*
X1142918Y1098449D02*
X1157435D01*
X1141547Y1097999D02*
X1157435D01*
X1135196Y1097549D02*
X1157435D01*
X1135549Y1097099D02*
X1157435D01*
X1135841Y1096649D02*
X1157435D01*
X1136082Y1096199D02*
X1157435D01*
X1136278Y1095749D02*
X1157435D01*
X1136433Y1095299D02*
X1157435D01*
X1136552Y1094849D02*
X1157435D01*
X1136635Y1094399D02*
X1157435D01*
X1136684Y1093949D02*
X1157435D01*
X1136700Y1093499D02*
X1157435D01*
X1136684Y1093049D02*
X1157435D01*
X1136634Y1092599D02*
X1157435D01*
X1136551Y1092149D02*
X1157435D01*
X1136433Y1091699D02*
X1157435D01*
X1136277Y1091249D02*
X1157435D01*
X1136081Y1090799D02*
X1157435D01*
X1135839Y1090349D02*
X1157435D01*
X1135547Y1089899D02*
X1157435D01*
X1135193Y1089449D02*
X1157435D01*
X1141560Y1088999D02*
X1157435D01*
X1142923Y1088549D02*
X1157435D01*
X1143696Y1088099D02*
X1157435D01*
X1144261Y1087649D02*
X1157435D01*
X1144705Y1087199D02*
X1157435D01*
X1145061Y1086749D02*
X1157435D01*
X1145351Y1086299D02*
X1157435D01*
X1145584Y1085849D02*
X1157435D01*
X1145768Y1085399D02*
X1157435D01*
X1145909Y1084949D02*
X1157435D01*
X1146010Y1084499D02*
X1157435D01*
X1146073Y1084049D02*
X1157435D01*
X1146099Y1083599D02*
X1157435D01*
X1146089Y1083149D02*
X1157435D01*
X1146042Y1082699D02*
X1157435D01*
X1145958Y1082249D02*
X1157435D01*
X1145835Y1081799D02*
X1157435D01*
X1145670Y1081349D02*
X1157435D01*
X1145459Y1080899D02*
X1157435D01*
X1145196Y1080449D02*
X1157435D01*
X1144870Y1079999D02*
X1157435D01*
X1144468Y1079549D02*
X1157435D01*
X1143962Y1079099D02*
X1157435D01*
X1143297Y1078649D02*
X1157435D01*
X1142305Y1078199D02*
X1157435D01*
X1101350Y1077749D02*
X1157435D01*
X1101350Y1077299D02*
X1157435D01*
X1101350Y1076849D02*
X1157435D01*
X1101350Y1076399D02*
X1157435D01*
X1101350Y1075949D02*
X1157435D01*
X1101350Y1075499D02*
X1157435D01*
X1101350Y1075049D02*
X1157435D01*
X1101358Y1074599D02*
X1157435D01*
X1101761Y1074149D02*
X1157435D01*
X1102211Y1073699D02*
X1157435D01*
X1102661Y1073249D02*
X1157435D01*
X1108369Y1072799D02*
X1157435D01*
X1109061Y1072349D02*
X1157435D01*
X1109511Y1071899D02*
X1157435D01*
X1109961Y1071449D02*
X1157435D01*
X1110411Y1070999D02*
X1157435D01*
X1125802Y1070549D02*
X1157435D01*
X1126511Y1070099D02*
X1157435D01*
X1126876Y1069649D02*
X1157435D01*
X1127086Y1069199D02*
X1157435D01*
X1127186Y1068749D02*
X1157435D01*
X1127191Y1068299D02*
X1157435D01*
X1127101Y1067849D02*
X1157435D01*
X1126905Y1067399D02*
X1157435D01*
X1126560Y1066949D02*
X1157435D01*
X1125914Y1066499D02*
X1157435D01*
X959201Y1066049D02*
X1157435D01*
X959805Y1065599D02*
X1157435D01*
X960255Y1065149D02*
X1157435D01*
X960705Y1064699D02*
X1157435D01*
X961155Y1064249D02*
X1157435D01*
X961605Y1063799D02*
X1157435D01*
X962055Y1063349D02*
X1157435D01*
X962505Y1062899D02*
X1157435D01*
X962955Y1062449D02*
X1157435D01*
X963405Y1061999D02*
X1157435D01*
X965644Y1061549D02*
X1157435D01*
X965879Y1061099D02*
X1157435D01*
X965900Y1060649D02*
X1157435D01*
X965900Y1060199D02*
X1157435D01*
X965900Y1059749D02*
X1157435D01*
X965900Y1059299D02*
X1157435D01*
X965900Y1058849D02*
X1157435D01*
X965900Y1058399D02*
X1157435D01*
X965888Y1057949D02*
X1157435D01*
X965739Y1057499D02*
X1157435D01*
X965888Y1057049D02*
X1157435D01*
X965900Y1056599D02*
X1157435D01*
X965900Y1056149D02*
X1157435D01*
X965900Y1055699D02*
X1157435D01*
X965900Y1055249D02*
X1157435D01*
X965900Y1054799D02*
X1157435D01*
X965900Y1054349D02*
X1157435D01*
X965878Y1053899D02*
X1157435D01*
X965642Y1053449D02*
X1157435D01*
X939850Y1052999D02*
X1157435D01*
X939850Y1052549D02*
X1157435D01*
X958660Y1052099D02*
X1157435D01*
X959457Y1051649D02*
X1157435D01*
X959845Y1051199D02*
X1157435D01*
X960069Y1050749D02*
X1157435D01*
X960180Y1050299D02*
X1157435D01*
X960195Y1049849D02*
X1157435D01*
X960116Y1049399D02*
X1157435D01*
X959933Y1048949D02*
X1157435D01*
X959608Y1048499D02*
X1157435D01*
X959016Y1048049D02*
X1157435D01*
X935508Y1047599D02*
X1157435D01*
X935058Y1047149D02*
X1157435D01*
X1121076Y1046699D02*
X1157435D01*
X1122335Y1046249D02*
X1157435D01*
X1122776Y1045799D02*
X1157435D01*
X1123030Y1045349D02*
X1157435D01*
X1123164Y1044899D02*
X1157435D01*
X1123199Y1044449D02*
X1157435D01*
X1123142Y1043999D02*
X1157435D01*
X1122984Y1043549D02*
X1157435D01*
X1122696Y1043099D02*
X1157435D01*
X1122189Y1042649D02*
X1157435D01*
X935179Y1042199D02*
X1157435D01*
X935068Y1041749D02*
X1157435D01*
X941369Y1041299D02*
X1157435D01*
X942061Y1040849D02*
X1157435D01*
X942511Y1040399D02*
X1157435D01*
X942961Y1039949D02*
X1157435D01*
X943411Y1039499D02*
X1157435D01*
X961302Y1039049D02*
X1157435D01*
X962011Y1038599D02*
X1157435D01*
X962376Y1038149D02*
X1157435D01*
X962586Y1037699D02*
X1157435D01*
X962686Y1037249D02*
X1157435D01*
X962691Y1036799D02*
X1157435D01*
X962601Y1036349D02*
X1157435D01*
X962405Y1035899D02*
X1157435D01*
X962060Y1035449D02*
X1157435D01*
X961414Y1034999D02*
X1157435D01*
X959958Y1034549D02*
X1157435D01*
X959508Y1034099D02*
X1157435D01*
X959058Y1033649D02*
X1157435D01*
X958608Y1033199D02*
X1157435D01*
X958007Y1032749D02*
X1157435D01*
X942395Y1032299D02*
X1157435D01*
X941460Y1031849D02*
X1157435D01*
X937664Y1031399D02*
X1157435D01*
X937699Y1030949D02*
X1157435D01*
X937642Y1030499D02*
X1157435D01*
X937484Y1030049D02*
X1157435D01*
X937196Y1029599D02*
X1157435D01*
X936689Y1029149D02*
X1157435D01*
X892250Y1028699D02*
X1157435D01*
X892250Y1028249D02*
X1157435D01*
X892250Y1027799D02*
X1157435D01*
X892250Y1027349D02*
X1157435D01*
X892250Y1026899D02*
X1157435D01*
X892250Y1026449D02*
X1157435D01*
X892250Y1025999D02*
X1157435D01*
X892250Y1025549D02*
X1157435D01*
X892250Y1025099D02*
X1157435D01*
X1154258Y1024649D02*
X1157435D01*
X1155299Y1024199D02*
X1157435D01*
X1156046Y1023749D02*
X1157435D01*
X1156639Y1023299D02*
X1157435D01*
X1156363Y1011599D02*
X1157435D01*
X1155704Y1011149D02*
X1157435D01*
X1154842Y1010699D02*
X1157434D01*
X1156899Y1012049D02*
X1157424D01*
X1156914Y1122299D02*
X1157419D01*
X1154218Y1134899D02*
X1157274D01*
X1153487Y1010249D02*
X1157067D01*
X996400Y1135349D02*
X1156824D01*
X1052743Y1009799D02*
X1156617D01*
X996400Y1135799D02*
X1156374D01*
X1052212Y1009349D02*
X1156167D01*
X996334Y1136249D02*
X1155924D01*
X1051361Y1008899D02*
X1155717D01*
X996311Y1136699D02*
X1155474D01*
X899433Y1008449D02*
X1155267D01*
X996400Y1137149D02*
X1155024D01*
X899108Y1007999D02*
X1154817D01*
X996400Y1137599D02*
X1154574D01*
X898516Y1007549D02*
X1154367D01*
X996400Y1138049D02*
X1154124D01*
X892250Y1007099D02*
X1153917D01*
X996400Y1138499D02*
X1153674D01*
X892250Y1006649D02*
X1153467D01*
X996400Y1138949D02*
X1153224D01*
X892250Y1006199D02*
X1153017D01*
X996400Y1139399D02*
X1152774D01*
X892250Y1005749D02*
X1152567D01*
X996400Y1139849D02*
X1152324D01*
X892250Y1005299D02*
X1152117D01*
X996312Y1140299D02*
X1151874D01*
X892250Y1004849D02*
X1151667D01*
X995877Y1140749D02*
X1151424D01*
X892250Y1004399D02*
X1151217D01*
X987679Y1141199D02*
X1150974D01*
X892250Y1003949D02*
X1150767D01*
X987695Y1141649D02*
X1150524D01*
X1141607Y1003499D02*
X1150317D01*
X1053123Y1010249D02*
X1150135D01*
X1087143Y1120499D02*
X1150076D01*
X987617Y1142099D02*
X1150074D01*
X1142351Y1003049D02*
X1149867D01*
X987434Y1142549D02*
X1149624D01*
X1142841Y1002599D02*
X1149417D01*
X996400Y1134899D02*
X1149404D01*
X892250Y1024649D02*
X1149364D01*
X987111Y1142999D02*
X1149174D01*
X1143195Y1002149D02*
X1148967D01*
X1053403Y1010699D02*
X1148780D01*
X1086985Y1120949D02*
X1148749D01*
X986521Y1143449D02*
X1148724D01*
X1143455Y1001699D02*
X1148517D01*
X996400Y1134449D02*
X1148350D01*
X892250Y1024199D02*
X1148323D01*
X979350Y1143899D02*
X1148284D01*
X1143642Y1001249D02*
X1148128D01*
X979350Y1144349D02*
X1147987D01*
X1053605Y1011149D02*
X1147918D01*
X1143766Y1000799D02*
X1147897D01*
X1086698Y1121399D02*
X1147895D01*
X979350Y1144799D02*
X1147820D01*
X1143834Y1000349D02*
X1147777D01*
X979350Y1145249D02*
X1147752D01*
X892250Y1197449D02*
X1147750D01*
X892250Y1196999D02*
X1147750D01*
X892250Y1196549D02*
X1147750D01*
X892250Y1196099D02*
X1147750D01*
X892250Y1195649D02*
X1147750D01*
X1050621Y1195199D02*
X1147750D01*
X1051161Y1194749D02*
X1147750D01*
X1051611Y1194299D02*
X1147750D01*
X1142950Y1193849D02*
X1147750D01*
X1143709Y1193399D02*
X1147750D01*
X1143849Y1192949D02*
X1147750D01*
X1143850Y1192499D02*
X1147750D01*
X1143850Y1192049D02*
X1147750D01*
X1143850Y1191599D02*
X1147750D01*
X1143850Y1191149D02*
X1147750D01*
X1143850Y1190699D02*
X1147750D01*
X1143850Y1190249D02*
X1147750D01*
X1143850Y1189799D02*
X1147750D01*
X1143850Y1189349D02*
X1147750D01*
X1143850Y1188899D02*
X1147750D01*
X1143850Y1188449D02*
X1147750D01*
X1143850Y1187999D02*
X1147750D01*
X1143850Y1187549D02*
X1147750D01*
X1143850Y1187099D02*
X1147750D01*
X1143736Y1186649D02*
X1147750D01*
X1143200Y1186199D02*
X1147750D01*
X1041658Y1185749D02*
X1147750D01*
X1041208Y1185299D02*
X1147750D01*
X1040758Y1184849D02*
X1147750D01*
X1040308Y1184399D02*
X1147750D01*
X1039858Y1183949D02*
X1147750D01*
X1039406Y1183499D02*
X1147750D01*
X1024958Y1183049D02*
X1147750D01*
X1024508Y1182599D02*
X1147750D01*
X1024058Y1182149D02*
X1147750D01*
X1023608Y1181699D02*
X1147750D01*
X1023158Y1181249D02*
X1147750D01*
X1022708Y1180799D02*
X1147750D01*
X1022258Y1180349D02*
X1147750D01*
X1021808Y1179899D02*
X1147750D01*
X1021358Y1179449D02*
X1147750D01*
X1020908Y1178999D02*
X1147750D01*
X1020458Y1178549D02*
X1147750D01*
X1020008Y1178099D02*
X1147750D01*
X1011754Y1177649D02*
X1147750D01*
X1011586Y1177199D02*
X1147750D01*
X1011686Y1176749D02*
X1147750D01*
X1011691Y1176299D02*
X1147750D01*
X1011601Y1175849D02*
X1147750D01*
X1011405Y1175399D02*
X1147750D01*
X1011060Y1174949D02*
X1147750D01*
X1010414Y1174499D02*
X1147750D01*
X1006458Y1174049D02*
X1147750D01*
X1006008Y1173599D02*
X1147750D01*
X1005558Y1173149D02*
X1147750D01*
X1004859Y1172699D02*
X1147750D01*
X999158Y1172249D02*
X1147750D01*
X998708Y1171799D02*
X1147750D01*
X998258Y1171349D02*
X1147750D01*
X997808Y1170899D02*
X1147750D01*
X997358Y1170449D02*
X1147750D01*
X996908Y1169999D02*
X1147750D01*
X996458Y1169549D02*
X1147750D01*
X996008Y1169099D02*
X1147750D01*
X995558Y1168649D02*
X1147750D01*
X995108Y1168199D02*
X1147750D01*
X994658Y1167749D02*
X1147750D01*
X994208Y1167299D02*
X1147750D01*
X993758Y1166849D02*
X1147750D01*
X993308Y1166399D02*
X1147750D01*
X992858Y1165949D02*
X1147750D01*
X992408Y1165499D02*
X1147750D01*
X991958Y1165049D02*
X1147750D01*
X991508Y1164599D02*
X1147750D01*
X991058Y1164149D02*
X1147750D01*
X990608Y1163699D02*
X1147750D01*
X990158Y1163249D02*
X1147750D01*
X989708Y1162799D02*
X1147750D01*
X989258Y1162349D02*
X1147750D01*
X988808Y1161899D02*
X1147750D01*
X988358Y1161449D02*
X1147750D01*
X987908Y1160999D02*
X1147750D01*
X989802Y1160549D02*
X1147750D01*
X990511Y1160099D02*
X1147750D01*
X990876Y1159649D02*
X1147750D01*
X991086Y1159199D02*
X1147750D01*
X991186Y1158749D02*
X1147750D01*
X991191Y1158299D02*
X1147750D01*
X991101Y1157849D02*
X1147750D01*
X990905Y1157399D02*
X1147750D01*
X990560Y1156949D02*
X1147750D01*
X989914Y1156499D02*
X1147750D01*
X982958Y1156049D02*
X1147750D01*
X982508Y1155599D02*
X1147750D01*
X982058Y1155149D02*
X1147750D01*
X996576Y1154699D02*
X1147750D01*
X997835Y1154249D02*
X1147750D01*
X998276Y1153799D02*
X1147750D01*
X998530Y1153349D02*
X1147750D01*
X998664Y1152899D02*
X1147750D01*
X998699Y1152449D02*
X1147750D01*
X998642Y1151999D02*
X1147750D01*
X998484Y1151549D02*
X1147750D01*
X998196Y1151099D02*
X1147750D01*
X997689Y1150649D02*
X1147750D01*
X979350Y1150199D02*
X1147750D01*
X979350Y1149749D02*
X1147750D01*
X979350Y1149299D02*
X1147750D01*
X979350Y1148849D02*
X1147750D01*
X979350Y1148399D02*
X1147750D01*
X979350Y1147949D02*
X1147750D01*
X979350Y1147499D02*
X1147750D01*
X979350Y1147049D02*
X1147750D01*
X979350Y1146599D02*
X1147750D01*
X979350Y1146149D02*
X1147750D01*
X979350Y1145699D02*
X1147750D01*
X1143849Y999899D02*
X1147750D01*
X1143810Y999449D02*
X1147750D01*
X1143718Y998999D02*
X1147750D01*
X1143566Y998549D02*
X1147750D01*
X1143348Y998099D02*
X1147750D01*
X1143049Y997649D02*
X1147750D01*
X1142641Y997199D02*
X1147750D01*
X1142062Y996749D02*
X1147750D01*
X1141060Y996299D02*
X1147750D01*
X892250Y995849D02*
X1147750D01*
X892250Y995399D02*
X1147750D01*
X892250Y994949D02*
X1147750D01*
X892250Y994499D02*
X1147750D01*
X892250Y994049D02*
X1147750D01*
X892250Y993599D02*
X1147750D01*
X892250Y993149D02*
X1147750D01*
X892250Y992699D02*
X1147750D01*
X996400Y1133999D02*
X1147596D01*
X892250Y1023749D02*
X1147576D01*
X1053743Y1011599D02*
X1147259D01*
X1086193Y1121849D02*
X1147241D01*
X996400Y1133549D02*
X1147000D01*
X892250Y1023299D02*
X1146983D01*
X1053823Y1012049D02*
X1146723D01*
X1066050Y1122299D02*
X1146708D01*
X996400Y1133099D02*
X1146508D01*
X892250Y1022849D02*
X1146494D01*
X1053850Y1012499D02*
X1146275D01*
X1065811Y1122749D02*
X1146263D01*
X996286Y1132649D02*
X1146093D01*
X892250Y1022399D02*
X1146081D01*
X1080795Y1012949D02*
X1145895D01*
X1065398Y1123199D02*
X1145885D01*
X996352Y1132199D02*
X1145740D01*
X892250Y1021949D02*
X1145730D01*
X1081509Y1013399D02*
X1145571D01*
X1064472Y1123649D02*
X1145562D01*
X996400Y1131749D02*
X1145438D01*
X990419Y1021499D02*
X1145429D01*
X1081875Y1013849D02*
X1145293D01*
X979350Y1124099D02*
X1145285D01*
X996400Y1131299D02*
X1145180D01*
X991063Y1021049D02*
X1145172D01*
X1082085Y1014299D02*
X1145057D01*
X996224Y1124549D02*
X1145050D01*
X996400Y1130849D02*
X1144961D01*
X991406Y1020599D02*
X1144955D01*
X1082186Y1014749D02*
X1144857D01*
X996395Y1124999D02*
X1144852D01*
X996400Y1130399D02*
X1144777D01*
X991602Y1020149D02*
X1144772D01*
X1082191Y1015199D02*
X1144692D01*
X996400Y1125449D02*
X1144688D01*
X996400Y1129949D02*
X1144627D01*
X991691Y1019699D02*
X1144623D01*
X1082102Y1015649D02*
X1144558D01*
X996400Y1125899D02*
X1144555D01*
X996400Y1129499D02*
X1144507D01*
X991686Y1019249D02*
X1144504D01*
X1081906Y1016099D02*
X1144455D01*
X996400Y1126349D02*
X1144452D01*
X996399Y1129049D02*
X1144416D01*
X991585Y1018799D02*
X1144414D01*
X1081563Y1016549D02*
X1144379D01*
X996400Y1126799D02*
X1144378D01*
X996260Y1128599D02*
X1144354D01*
X991375Y1018349D02*
X1144353D01*
X1080919Y1016999D02*
X1144332D01*
X996400Y1127249D02*
X1144331D01*
X996367Y1128149D02*
X1144319D01*
X991209Y1017899D02*
X1144319D01*
X991485Y1017449D02*
X1144312D01*
X996400Y1127699D02*
X1144312D01*
X1134766Y1097999D02*
X1139453D01*
X1134764Y1088999D02*
X1139440D01*
X1131060Y996299D02*
X1138940D01*
X1122305Y1078199D02*
X1138695D01*
X1122312Y1108799D02*
X1138688D01*
X1131607Y1003499D02*
X1138393D01*
X1134235Y1098449D02*
X1138082D01*
X1134232Y1088549D02*
X1138077D01*
X1132062Y996749D02*
X1137938D01*
X1123297Y1078649D02*
X1137703D01*
X1123302Y1108349D02*
X1137698D01*
X1132351Y1003049D02*
X1137649D01*
X1132641Y997199D02*
X1137359D01*
X1133549Y1098899D02*
X1137308D01*
X1133544Y1088099D02*
X1137304D01*
X1132841Y1002599D02*
X1137159D01*
X1130101Y1193849D02*
X1137050D01*
X1123962Y1079099D02*
X1137038D01*
X1123966Y1107899D02*
X1137034D01*
X1133049Y997649D02*
X1136951D01*
X1133195Y1002149D02*
X1136805D01*
X1130611Y1186199D02*
X1136800D01*
X1132557Y1099349D02*
X1136741D01*
X1132550Y1087649D02*
X1136739D01*
X1133348Y998099D02*
X1136652D01*
X1133455Y1001699D02*
X1136545D01*
X1124468Y1079549D02*
X1136532D01*
X1124471Y1107449D02*
X1136529D01*
X1133566Y998549D02*
X1136434D01*
X1133642Y1001249D02*
X1136358D01*
X1124702Y1099799D02*
X1136298D01*
X1124705Y1087199D02*
X1136295D01*
X1131809Y1193399D02*
X1136291D01*
X1133718Y998999D02*
X1136282D01*
X1131895Y1186649D02*
X1136264D01*
X1133766Y1000799D02*
X1136234D01*
X1133810Y999449D02*
X1136190D01*
X1133834Y1000349D02*
X1136166D01*
X1133849Y999899D02*
X1136151D01*
X1132475Y1192949D02*
X1136151D01*
X1132929Y1192499D02*
X1136150D01*
X1133260Y1192049D02*
X1136150D01*
X1133502Y1191599D02*
X1136150D01*
X1133675Y1191149D02*
X1136150D01*
X1133786Y1190699D02*
X1136150D01*
X1133842Y1190249D02*
X1136150D01*
X1133845Y1189799D02*
X1136150D01*
X1133795Y1189349D02*
X1136150D01*
X1133689Y1188899D02*
X1136150D01*
X1133524Y1188449D02*
X1136150D01*
X1133289Y1187999D02*
X1136150D01*
X1132969Y1187549D02*
X1136150D01*
X1132531Y1187099D02*
X1136150D01*
X1124870Y1079999D02*
X1136130D01*
X1124873Y1106999D02*
X1136127D01*
X1125060Y1100249D02*
X1135940D01*
X1125061Y1086749D02*
X1135939D01*
X1125196Y1080449D02*
X1135804D01*
X1125197Y1106549D02*
X1135803D01*
X1125349Y1100699D02*
X1135651D01*
X1125351Y1086299D02*
X1135649D01*
X1125459Y1080899D02*
X1135541D01*
X1125461Y1106099D02*
X1135539D01*
X1125582Y1101149D02*
X1135418D01*
X1125584Y1085849D02*
X1135416D01*
X1125670Y1081349D02*
X1135330D01*
X1125671Y1105649D02*
X1135329D01*
X1125767Y1101599D02*
X1135233D01*
X1125768Y1085399D02*
X1135232D01*
X1125835Y1081799D02*
X1135165D01*
X1125836Y1105199D02*
X1135164D01*
X1125909Y1102049D02*
X1135091D01*
X1125909Y1084949D02*
X1135091D01*
X1125958Y1082249D02*
X1135042D01*
X1125959Y1104749D02*
X1135041D01*
X1126010Y1102499D02*
X1134990D01*
X1126010Y1084499D02*
X1134990D01*
X1126042Y1082699D02*
X1134958D01*
X1126043Y1104299D02*
X1134957D01*
X1126073Y1102949D02*
X1134927D01*
X1126073Y1084049D02*
X1134927D01*
X1126089Y1083149D02*
X1134911D01*
X1126089Y1103849D02*
X1134911D01*
X1126099Y1103399D02*
X1134901D01*
X1126099Y1083599D02*
X1134901D01*
X1120101Y1193849D02*
X1129899D01*
X1120611Y1186199D02*
X1129389D01*
X1121060Y996299D02*
X1128940D01*
X1124261Y1087649D02*
X1128450D01*
X1124259Y1099349D02*
X1128443D01*
X1121607Y1003499D02*
X1128393D01*
X1121809Y1193399D02*
X1128191D01*
X1121895Y1186649D02*
X1128105D01*
X1122062Y996749D02*
X1127938D01*
X1122351Y1003049D02*
X1127649D01*
X1122475Y1192949D02*
X1127525D01*
X1122531Y1187099D02*
X1127469D01*
X1123696Y1088099D02*
X1127456D01*
X1123692Y1098899D02*
X1127451D01*
X1122641Y997199D02*
X1127359D01*
X1122841Y1002599D02*
X1127159D01*
X1122929Y1192499D02*
X1127071D01*
X1122969Y1187549D02*
X1127031D01*
X1123049Y997649D02*
X1126951D01*
X1123195Y1002149D02*
X1126805D01*
X1122923Y1088549D02*
X1126768D01*
X1122918Y1098449D02*
X1126765D01*
X1123260Y1192049D02*
X1126740D01*
X1123289Y1187999D02*
X1126711D01*
X1123348Y998099D02*
X1126652D01*
X1123455Y1001699D02*
X1126545D01*
X1123502Y1191599D02*
X1126498D01*
X1123524Y1188449D02*
X1126476D01*
X1123566Y998549D02*
X1126434D01*
X1123642Y1001249D02*
X1126358D01*
X1123675Y1191149D02*
X1126325D01*
X1123689Y1188899D02*
X1126311D01*
X1123718Y998999D02*
X1126282D01*
X1121560Y1088999D02*
X1126236D01*
X1123766Y1000799D02*
X1126234D01*
X1121547Y1097999D02*
X1126234D01*
X1123786Y1190699D02*
X1126214D01*
X1123795Y1189349D02*
X1126205D01*
X1123810Y999449D02*
X1126190D01*
X1123834Y1000349D02*
X1126166D01*
X1123842Y1190249D02*
X1126158D01*
X1123845Y1189799D02*
X1126155D01*
X1123849Y999899D02*
X1126151D01*
X1101350Y1089449D02*
X1125807D01*
X1094861Y1097549D02*
X1125804D01*
X1101350Y1089899D02*
X1125453D01*
X1095311Y1097099D02*
X1125451D01*
X1101350Y1090349D02*
X1125161D01*
X1095761Y1096649D02*
X1125159D01*
X1101317Y1090799D02*
X1124919D01*
X1096211Y1096199D02*
X1124918D01*
X1101123Y1091249D02*
X1124723D01*
X1096661Y1095749D02*
X1124722D01*
X1100711Y1091699D02*
X1124567D01*
X1097111Y1095299D02*
X1124567D01*
X1100261Y1092149D02*
X1124449D01*
X1097561Y1094849D02*
X1124448D01*
X1099811Y1092599D02*
X1124366D01*
X1098011Y1094399D02*
X1124365D01*
X1099361Y1093049D02*
X1124316D01*
X1098461Y1093949D02*
X1124316D01*
X1098911Y1093499D02*
X1124300D01*
X1110861Y1070549D02*
X1124198D01*
X954919Y1066499D02*
X1124086D01*
X1111311Y1070099D02*
X1123489D01*
X945358Y1066949D02*
X1123440D01*
X934608Y1046699D02*
X1120924D01*
X1110101Y1193849D02*
X1119899D01*
X935195Y1042649D02*
X1119811D01*
X934350Y1046249D02*
X1119665D01*
X1094411Y1097999D02*
X1119453D01*
X1101350Y1088999D02*
X1119440D01*
X1110611Y1186199D02*
X1119389D01*
X935117Y1043099D02*
X1119304D01*
X934350Y1045799D02*
X1119224D01*
X934934Y1043549D02*
X1119016D01*
X934350Y1045349D02*
X1118970D01*
X1111060Y996299D02*
X1118940D01*
X934611Y1043999D02*
X1118858D01*
X934350Y1044899D02*
X1118836D01*
X934350Y1044449D02*
X1118801D01*
X1101350Y1078199D02*
X1118695D01*
X1027611Y1108799D02*
X1118688D01*
X1111607Y1003499D02*
X1118393D01*
X1111809Y1193399D02*
X1118191D01*
X1111895Y1186649D02*
X1118105D01*
X1093961Y1098449D02*
X1118082D01*
X1101350Y1088549D02*
X1118077D01*
X1112062Y996749D02*
X1117938D01*
X1101350Y1078649D02*
X1117703D01*
X1028061Y1108349D02*
X1117698D01*
X1112351Y1003049D02*
X1117649D01*
X1112475Y1192949D02*
X1117525D01*
X1112531Y1187099D02*
X1117469D01*
X1112641Y997199D02*
X1117359D01*
X1093511Y1098899D02*
X1117308D01*
X1101350Y1088099D02*
X1117304D01*
X1112841Y1002599D02*
X1117159D01*
X1112929Y1192499D02*
X1117071D01*
X1101350Y1079099D02*
X1117038D01*
X1028515Y1107899D02*
X1117034D01*
X1112969Y1187549D02*
X1117031D01*
X1113049Y997649D02*
X1116951D01*
X1113195Y1002149D02*
X1116805D01*
X1093061Y1099349D02*
X1116741D01*
X1113260Y1192049D02*
X1116740D01*
X1101350Y1087649D02*
X1116739D01*
X1113289Y1187999D02*
X1116711D01*
X1113348Y998099D02*
X1116652D01*
X1113455Y1001699D02*
X1116545D01*
X1101350Y1079549D02*
X1116532D01*
X1067961Y1107449D02*
X1116529D01*
X1113502Y1191599D02*
X1116498D01*
X1113524Y1188449D02*
X1116476D01*
X1113566Y998549D02*
X1116434D01*
X1113642Y1001249D02*
X1116358D01*
X1113675Y1191149D02*
X1116325D01*
X1113689Y1188899D02*
X1116311D01*
X1092611Y1099799D02*
X1116298D01*
X1101350Y1087199D02*
X1116295D01*
X1113718Y998999D02*
X1116282D01*
X1113766Y1000799D02*
X1116234D01*
X1113786Y1190699D02*
X1116214D01*
X1113795Y1189349D02*
X1116205D01*
X1113810Y999449D02*
X1116190D01*
X1113834Y1000349D02*
X1116166D01*
X1113842Y1190249D02*
X1116158D01*
X1113845Y1189799D02*
X1116155D01*
X1113849Y999899D02*
X1116151D01*
X1101350Y1079999D02*
X1116130D01*
X1068411Y1106999D02*
X1116127D01*
X1092161Y1100249D02*
X1115940D01*
X1101350Y1086749D02*
X1115939D01*
X1101350Y1080449D02*
X1115804D01*
X1068861Y1106549D02*
X1115803D01*
X1091711Y1100699D02*
X1115651D01*
X1101350Y1086299D02*
X1115649D01*
X1101350Y1080899D02*
X1115541D01*
X1070160Y1106099D02*
X1115539D01*
X1091261Y1101149D02*
X1115418D01*
X1101350Y1085849D02*
X1115416D01*
X1101350Y1081349D02*
X1115330D01*
X1070957Y1105649D02*
X1115329D01*
X1090811Y1101599D02*
X1115233D01*
X1101350Y1085399D02*
X1115232D01*
X1101350Y1081799D02*
X1115165D01*
X1087121Y1105199D02*
X1115164D01*
X1090361Y1102049D02*
X1115091D01*
X1101350Y1084949D02*
X1115091D01*
X1101350Y1082249D02*
X1115042D01*
X1087661Y1104749D02*
X1115041D01*
X1089911Y1102499D02*
X1114990D01*
X1101350Y1084499D02*
X1114990D01*
X1101350Y1082699D02*
X1114958D01*
X1088111Y1104299D02*
X1114957D01*
X1089461Y1102949D02*
X1114927D01*
X1101350Y1084049D02*
X1114927D01*
X1101350Y1083149D02*
X1114911D01*
X1088561Y1103849D02*
X1114911D01*
X1089011Y1103399D02*
X1114901D01*
X1101350Y1083599D02*
X1114901D01*
X945808Y1067399D02*
X1110219D01*
X1100101Y1193849D02*
X1109899D01*
X946183Y1067849D02*
X1109742D01*
X1100611Y1186199D02*
X1109389D01*
X946335Y1068299D02*
X1109292D01*
X1101060Y996299D02*
X1108940D01*
X946350Y1068749D02*
X1108842D01*
X1101607Y1003499D02*
X1108393D01*
X946350Y1069199D02*
X1108392D01*
X1101809Y1193399D02*
X1108191D01*
X1101895Y1186649D02*
X1108105D01*
X946350Y1069649D02*
X1107942D01*
X1102062Y996749D02*
X1107938D01*
X1102351Y1003049D02*
X1107649D01*
X1102475Y1192949D02*
X1107525D01*
X946350Y1070099D02*
X1107489D01*
X1102531Y1187099D02*
X1107469D01*
X1102641Y997199D02*
X1107359D01*
X1102841Y1002599D02*
X1107159D01*
X1102929Y1192499D02*
X1107071D01*
X1102969Y1187549D02*
X1107031D01*
X1103049Y997649D02*
X1106951D01*
X1103195Y1002149D02*
X1106805D01*
X1103260Y1192049D02*
X1106740D01*
X1103289Y1187999D02*
X1106711D01*
X1103348Y998099D02*
X1106652D01*
X1103455Y1001699D02*
X1106545D01*
X1103502Y1191599D02*
X1106498D01*
X1103524Y1188449D02*
X1106476D01*
X1103566Y998549D02*
X1106434D01*
X1103642Y1001249D02*
X1106358D01*
X1103675Y1191149D02*
X1106325D01*
X1103689Y1188899D02*
X1106311D01*
X1103718Y998999D02*
X1106282D01*
X1103766Y1000799D02*
X1106234D01*
X1103786Y1190699D02*
X1106214D01*
X1103795Y1189349D02*
X1106205D01*
X1103810Y999449D02*
X1106190D01*
X1103834Y1000349D02*
X1106166D01*
X1103842Y1190249D02*
X1106158D01*
X1103845Y1189799D02*
X1106155D01*
X1103849Y999899D02*
X1106151D01*
X946350Y1070549D02*
X1101542D01*
X946350Y1070999D02*
X1101092D01*
X946350Y1071449D02*
X1100642D01*
X946350Y1071899D02*
X1100192D01*
X1090101Y1193849D02*
X1099899D01*
X946350Y1072349D02*
X1099742D01*
X1090611Y1186199D02*
X1099389D01*
X946350Y1072799D02*
X1099292D01*
X1093410Y996299D02*
X1098940D01*
X946350Y1073249D02*
X1098878D01*
X946350Y1073699D02*
X1098684D01*
X946350Y1089449D02*
X1098650D01*
X946350Y1088999D02*
X1098650D01*
X946350Y1088549D02*
X1098650D01*
X946350Y1088099D02*
X1098650D01*
X946350Y1087649D02*
X1098650D01*
X946350Y1087199D02*
X1098650D01*
X946350Y1086749D02*
X1098650D01*
X946350Y1086299D02*
X1098650D01*
X946350Y1085849D02*
X1098650D01*
X946350Y1085399D02*
X1098650D01*
X946350Y1084949D02*
X1098650D01*
X946350Y1084499D02*
X1098650D01*
X946350Y1084049D02*
X1098650D01*
X946350Y1083599D02*
X1098650D01*
X946350Y1083149D02*
X1098650D01*
X946350Y1082699D02*
X1098650D01*
X946350Y1082249D02*
X1098650D01*
X946350Y1081799D02*
X1098650D01*
X946350Y1081349D02*
X1098650D01*
X946350Y1080899D02*
X1098650D01*
X946350Y1080449D02*
X1098650D01*
X946350Y1079999D02*
X1098650D01*
X946350Y1079549D02*
X1098650D01*
X946350Y1079099D02*
X1098650D01*
X946350Y1078649D02*
X1098650D01*
X946350Y1078199D02*
X1098650D01*
X946350Y1077749D02*
X1098650D01*
X946350Y1077299D02*
X1098650D01*
X946350Y1076849D02*
X1098650D01*
X946350Y1076399D02*
X1098650D01*
X946350Y1075949D02*
X1098650D01*
X946350Y1075499D02*
X1098650D01*
X946350Y1075049D02*
X1098650D01*
X946350Y1074599D02*
X1098650D01*
X946350Y1074149D02*
X1098650D01*
X946350Y1089899D02*
X1098642D01*
X1093638Y1003499D02*
X1098393D01*
X946350Y1090349D02*
X1098242D01*
X1091809Y1193399D02*
X1098191D01*
X1091895Y1186649D02*
X1098105D01*
X1093783Y996749D02*
X1097938D01*
X946350Y1090799D02*
X1097792D01*
X1093838Y1003049D02*
X1097649D01*
X1092475Y1192949D02*
X1097525D01*
X1092531Y1187099D02*
X1097469D01*
X1093850Y997199D02*
X1097359D01*
X946658Y1091249D02*
X1097342D01*
X1093850Y1002599D02*
X1097159D01*
X1092929Y1192499D02*
X1097071D01*
X1092969Y1187549D02*
X1097031D01*
X1093850Y997649D02*
X1096951D01*
X947108Y1091699D02*
X1096892D01*
X1093850Y1002149D02*
X1096805D01*
X1093260Y1192049D02*
X1096740D01*
X1093289Y1187999D02*
X1096711D01*
X1093850Y998099D02*
X1096652D01*
X1093850Y1001699D02*
X1096545D01*
X1093502Y1191599D02*
X1096498D01*
X1093524Y1188449D02*
X1096476D01*
X947558Y1092149D02*
X1096442D01*
X1093850Y998549D02*
X1096434D01*
X1093850Y1001249D02*
X1096358D01*
X1093675Y1191149D02*
X1096325D01*
X1093689Y1188899D02*
X1096311D01*
X1093850Y998999D02*
X1096282D01*
X1093850Y1000799D02*
X1096234D01*
X1093786Y1190699D02*
X1096214D01*
X1093795Y1189349D02*
X1096205D01*
X1093850Y999449D02*
X1096190D01*
X1093850Y1000349D02*
X1096166D01*
X1093842Y1190249D02*
X1096158D01*
X1093845Y1189799D02*
X1096155D01*
X1093850Y999899D02*
X1096151D01*
X948008Y1092599D02*
X1095992D01*
X948458Y1093049D02*
X1095542D01*
X948908Y1093499D02*
X1095092D01*
X949358Y1093949D02*
X1094642D01*
X949808Y1094399D02*
X1094192D01*
X950258Y1094849D02*
X1093742D01*
X950708Y1095299D02*
X1093292D01*
X951158Y1095749D02*
X1092842D01*
X951608Y1096199D02*
X1092392D01*
X952058Y1096649D02*
X1091942D01*
X952508Y1097099D02*
X1091492D01*
X952958Y1097549D02*
X1091042D01*
X953408Y1097999D02*
X1090592D01*
X953858Y1098449D02*
X1090142D01*
X1080101Y1193849D02*
X1089899D01*
X954308Y1098899D02*
X1089692D01*
X1080611Y1186199D02*
X1089389D01*
X954758Y1099349D02*
X1089242D01*
X955208Y1099799D02*
X1088792D01*
X955658Y1100249D02*
X1088342D01*
X1081809Y1193399D02*
X1088191D01*
X1081895Y1186649D02*
X1088105D01*
X956108Y1100699D02*
X1087892D01*
X1082475Y1192949D02*
X1087525D01*
X1082531Y1187099D02*
X1087469D01*
X956558Y1101149D02*
X1087442D01*
X1082929Y1192499D02*
X1087071D01*
X1082969Y1187549D02*
X1087031D01*
X957008Y1101599D02*
X1086992D01*
X1083260Y1192049D02*
X1086740D01*
X1083289Y1187999D02*
X1086711D01*
X1071060Y996299D02*
X1086590D01*
X1070516Y1102049D02*
X1086542D01*
X1083502Y1191599D02*
X1086498D01*
X1083524Y1188449D02*
X1086476D01*
X1071607Y1003499D02*
X1086362D01*
X1083675Y1191149D02*
X1086325D01*
X1083689Y1188899D02*
X1086311D01*
X1072062Y996749D02*
X1086217D01*
X1083786Y1190699D02*
X1086214D01*
X1083795Y1189349D02*
X1086205D01*
X1072351Y1003049D02*
X1086162D01*
X1083842Y1190249D02*
X1086158D01*
X1083845Y1189799D02*
X1086155D01*
X1072841Y1002599D02*
X1086150D01*
X1073195Y1002149D02*
X1086150D01*
X1073455Y1001699D02*
X1086150D01*
X1073642Y1001249D02*
X1086150D01*
X1073766Y1000799D02*
X1086150D01*
X1073834Y1000349D02*
X1086150D01*
X1073849Y999899D02*
X1086150D01*
X1073810Y999449D02*
X1086150D01*
X1073718Y998999D02*
X1086150D01*
X1073566Y998549D02*
X1086150D01*
X1073348Y998099D02*
X1086150D01*
X1073049Y997649D02*
X1086150D01*
X1072641Y997199D02*
X1086150D01*
X1071108Y1102499D02*
X1086092D01*
X1066172Y1121849D02*
X1083807D01*
X980069Y1118249D02*
X1083668D01*
X1066198Y1121399D02*
X1083302D01*
X979845Y1118699D02*
X1083226D01*
X1066130Y1120949D02*
X1083015D01*
X979457Y1119149D02*
X1082971D01*
X1065959Y1120499D02*
X1082857D01*
X1065107Y1119599D02*
X1082837D01*
X1065653Y1120049D02*
X1082801D01*
X1070101Y1193849D02*
X1079899D01*
X1070611Y1186199D02*
X1079389D01*
X1053824Y1012949D02*
X1079205D01*
X991643Y1016999D02*
X1079081D01*
X1053744Y1013399D02*
X1078491D01*
X991699Y1016549D02*
X1078437D01*
X1071809Y1193399D02*
X1078191D01*
X1053606Y1013849D02*
X1078125D01*
X1071895Y1186649D02*
X1078105D01*
X1051368Y1016099D02*
X1078094D01*
X1053404Y1014299D02*
X1077915D01*
X1052215Y1015649D02*
X1077898D01*
X1053125Y1014749D02*
X1077814D01*
X1052746Y1015199D02*
X1077809D01*
X1072475Y1192949D02*
X1077525D01*
X1072531Y1187099D02*
X1077469D01*
X1072929Y1192499D02*
X1077071D01*
X1072969Y1187549D02*
X1077031D01*
X1073260Y1192049D02*
X1076740D01*
X1073289Y1187999D02*
X1076711D01*
X1073502Y1191599D02*
X1076498D01*
X1073524Y1188449D02*
X1076476D01*
X1073675Y1191149D02*
X1076325D01*
X1073689Y1188899D02*
X1076311D01*
X1073786Y1190699D02*
X1076214D01*
X1073795Y1189349D02*
X1076205D01*
X1073842Y1190249D02*
X1076158D01*
X1073845Y1189799D02*
X1076155D01*
X1056950Y1193849D02*
X1069899D01*
X1057200Y1186199D02*
X1069389D01*
X1061060Y996299D02*
X1068940D01*
X957458Y1102049D02*
X1068484D01*
X1061607Y1003499D02*
X1068393D01*
X1057709Y1193399D02*
X1068191D01*
X1057736Y1186649D02*
X1068105D01*
X1062062Y996749D02*
X1067938D01*
X957908Y1102499D02*
X1067892D01*
X1062351Y1003049D02*
X1067649D01*
X958358Y1102949D02*
X1067567D01*
X1057849Y1192949D02*
X1067525D01*
X1057850Y1187099D02*
X1067469D01*
X958808Y1103399D02*
X1067384D01*
X1062641Y997199D02*
X1067359D01*
X959258Y1103849D02*
X1067305D01*
X959708Y1104299D02*
X1067277D01*
X1062841Y1002599D02*
X1067159D01*
X1057850Y1192499D02*
X1067071D01*
X1057850Y1187549D02*
X1067031D01*
X1063049Y997649D02*
X1066951D01*
X960158Y1104749D02*
X1066842D01*
X1063195Y1002149D02*
X1066805D01*
X1057850Y1192049D02*
X1066740D01*
X1057850Y1187999D02*
X1066711D01*
X1063348Y998099D02*
X1066652D01*
X1063455Y1001699D02*
X1066545D01*
X1057850Y1191599D02*
X1066498D01*
X1057850Y1188449D02*
X1066476D01*
X1063566Y998549D02*
X1066434D01*
X1063642Y1001249D02*
X1066358D01*
X1057850Y1191149D02*
X1066325D01*
X1057850Y1188899D02*
X1066311D01*
X1063718Y998999D02*
X1066282D01*
X1063766Y1000799D02*
X1066234D01*
X1057850Y1190699D02*
X1066214D01*
X1057850Y1189349D02*
X1066205D01*
X1063810Y999449D02*
X1066190D01*
X1063834Y1000349D02*
X1066166D01*
X1057850Y1190249D02*
X1066158D01*
X1057850Y1189799D02*
X1066155D01*
X1063849Y999899D02*
X1066151D01*
X979350Y1123649D02*
X1063528D01*
X979350Y1119599D02*
X1062893D01*
X979350Y1123199D02*
X1062602D01*
X979350Y1120049D02*
X1062347D01*
X979350Y1122749D02*
X1062189D01*
X979350Y1120499D02*
X1062041D01*
X979350Y1122299D02*
X1061950D01*
X979350Y1120949D02*
X1061870D01*
X979350Y1121849D02*
X1061828D01*
X979350Y1121399D02*
X1061802D01*
X1051060Y996299D02*
X1058940D01*
X1051607Y1003499D02*
X1058393D01*
X1052062Y996749D02*
X1057938D01*
X1052351Y1003049D02*
X1057649D01*
X1052641Y997199D02*
X1057359D01*
X1052841Y1002599D02*
X1057159D01*
X1053049Y997649D02*
X1056951D01*
X1053195Y1002149D02*
X1056805D01*
X1053348Y998099D02*
X1056652D01*
X1053455Y1001699D02*
X1056545D01*
X1053566Y998549D02*
X1056434D01*
X1053642Y1001249D02*
X1056358D01*
X1053718Y998999D02*
X1056282D01*
X1053766Y1000799D02*
X1056234D01*
X1053810Y999449D02*
X1056190D01*
X1053834Y1000349D02*
X1056166D01*
X1053849Y999899D02*
X1056151D01*
X1044611Y1186199D02*
X1050800D01*
X1045895Y1186649D02*
X1050264D01*
X1047502Y1191599D02*
X1050150D01*
X1047675Y1191149D02*
X1050150D01*
X1047786Y1190699D02*
X1050150D01*
X1047842Y1190249D02*
X1050150D01*
X1047845Y1189799D02*
X1050150D01*
X1047795Y1189349D02*
X1050150D01*
X1047689Y1188899D02*
X1050150D01*
X1047524Y1188449D02*
X1050150D01*
X1047289Y1187999D02*
X1050150D01*
X1046969Y1187549D02*
X1050150D01*
X1046531Y1187099D02*
X1050150D01*
X1047260Y1192049D02*
X1050042D01*
X1047095Y1192499D02*
X1049592D01*
X1041060Y996299D02*
X1048940D01*
X1043541Y1008899D02*
X1048639D01*
X1043544Y1016099D02*
X1048632D01*
X1041607Y1003499D02*
X1048393D01*
X1042062Y996749D02*
X1047938D01*
X1043816Y1009349D02*
X1047788D01*
X1043817Y1015649D02*
X1047785D01*
X1042351Y1003049D02*
X1047649D01*
X1042641Y997199D02*
X1047359D01*
X1043850Y1009799D02*
X1047257D01*
X1043850Y1015199D02*
X1047254D01*
X1042841Y1002599D02*
X1047159D01*
X1043049Y997649D02*
X1046951D01*
X1043850Y1010249D02*
X1046877D01*
X1043850Y1014749D02*
X1046875D01*
X1043195Y1002149D02*
X1046805D01*
X1043348Y998099D02*
X1046652D01*
X1043850Y1010699D02*
X1046597D01*
X1043850Y1014299D02*
X1046596D01*
X1043455Y1001699D02*
X1046545D01*
X1043566Y998549D02*
X1046434D01*
X1043850Y1011149D02*
X1046395D01*
X1043850Y1013849D02*
X1046394D01*
X1043642Y1001249D02*
X1046358D01*
X1043718Y998999D02*
X1046282D01*
X1043850Y1011599D02*
X1046257D01*
X1043850Y1013399D02*
X1046256D01*
X1043766Y1000799D02*
X1046234D01*
X1043810Y999449D02*
X1046190D01*
X1043850Y1012049D02*
X1046177D01*
X1043850Y1012949D02*
X1046176D01*
X1043834Y1000349D02*
X1046166D01*
X1043849Y999899D02*
X1046151D01*
X1043850Y1012499D02*
X1046150D01*
X1042108Y1186199D02*
X1043389D01*
X1030621Y1195199D02*
X1040379D01*
X1031161Y1194749D02*
X1039839D01*
X1031611Y1194299D02*
X1039389D01*
X1031060Y996299D02*
X1038940D01*
X1034101Y1193849D02*
X1038939D01*
X1035809Y1193399D02*
X1038489D01*
X1031607Y1003499D02*
X1038393D01*
X1036475Y1192949D02*
X1038040D01*
X1032062Y996749D02*
X1037938D01*
X1036929Y1192499D02*
X1037745D01*
X1032351Y1003049D02*
X1037649D01*
X1037287Y1192049D02*
X1037555D01*
X1032641Y997199D02*
X1037359D01*
X1032841Y1002599D02*
X1037159D01*
X1033049Y997649D02*
X1036951D01*
X1033195Y1002149D02*
X1036805D01*
X1033348Y998099D02*
X1036652D01*
X1033455Y1001699D02*
X1036545D01*
X899616Y1008899D02*
X1036459D01*
X991663Y1016099D02*
X1036456D01*
X1033566Y998549D02*
X1036434D01*
X1033642Y1001249D02*
X1036358D01*
X1033718Y998999D02*
X1036282D01*
X1033766Y1000799D02*
X1036234D01*
X1033810Y999449D02*
X1036190D01*
X899695Y1009349D02*
X1036184D01*
X991529Y1015649D02*
X1036183D01*
X1033834Y1000349D02*
X1036166D01*
X1033849Y999899D02*
X1036151D01*
X991274Y1015199D02*
X1036150D01*
X990832Y1014749D02*
X1036150D01*
X892250Y1014299D02*
X1036150D01*
X892250Y1013849D02*
X1036150D01*
X892250Y1013399D02*
X1036150D01*
X892250Y1012949D02*
X1036150D01*
X892250Y1012499D02*
X1036150D01*
X892250Y1012049D02*
X1036150D01*
X898160Y1011599D02*
X1036150D01*
X898957Y1011149D02*
X1036150D01*
X899345Y1010699D02*
X1036150D01*
X899569Y1010249D02*
X1036150D01*
X899680Y1009799D02*
X1036150D01*
X1032061Y1193849D02*
X1033899D01*
X1021060Y996299D02*
X1028940D01*
X1021607Y1003499D02*
X1028393D01*
X1022062Y996749D02*
X1027938D01*
X1022351Y1003049D02*
X1027649D01*
X960587Y1105199D02*
X1027641D01*
X1022641Y997199D02*
X1027359D01*
X1022841Y1002599D02*
X1027159D01*
X1023049Y997649D02*
X1026951D01*
X960804Y1105649D02*
X1026942D01*
X1023195Y1002149D02*
X1026805D01*
X1023348Y998099D02*
X1026652D01*
X1023455Y1001699D02*
X1026545D01*
X976107Y1106099D02*
X1026492D01*
X1023566Y998549D02*
X1026434D01*
X1023642Y1001249D02*
X1026358D01*
X1023718Y998999D02*
X1026282D01*
X1023766Y1000799D02*
X1026234D01*
X1023810Y999449D02*
X1026190D01*
X1023834Y1000349D02*
X1026166D01*
X1023849Y999899D02*
X1026151D01*
X976653Y1106549D02*
X1026042D01*
X976959Y1106999D02*
X1025592D01*
X977130Y1107449D02*
X1025142D01*
X977198Y1107899D02*
X1024692D01*
X977172Y1108349D02*
X1024242D01*
X977050Y1108799D02*
X1023792D01*
X976811Y1109249D02*
X1023342D01*
X1011060Y996299D02*
X1018940D01*
X1011607Y1003499D02*
X1018393D01*
X1012062Y996749D02*
X1017938D01*
X1012351Y1003049D02*
X1017649D01*
X1012641Y997199D02*
X1017359D01*
X1012841Y1002599D02*
X1017159D01*
X1013049Y997649D02*
X1016951D01*
X1013195Y1002149D02*
X1016805D01*
X1013348Y998099D02*
X1016652D01*
X1013455Y1001699D02*
X1016545D01*
X1013566Y998549D02*
X1016434D01*
X1013642Y1001249D02*
X1016358D01*
X1013718Y998999D02*
X1016282D01*
X1013766Y1000799D02*
X1016234D01*
X1013810Y999449D02*
X1016190D01*
X1013834Y1000349D02*
X1016166D01*
X1013849Y999899D02*
X1016151D01*
X1003410Y996299D02*
X1008940D01*
X1006908Y1174499D02*
X1008586D01*
X1003638Y1003499D02*
X1008393D01*
X1007358Y1174949D02*
X1007940D01*
X1003783Y996749D02*
X1007938D01*
X1003838Y1003049D02*
X1007649D01*
X1003850Y997199D02*
X1007359D01*
X1003850Y1002599D02*
X1007159D01*
X1003850Y997649D02*
X1006951D01*
X1003850Y1002149D02*
X1006805D01*
X1003850Y998099D02*
X1006652D01*
X1003850Y1001699D02*
X1006545D01*
X1003850Y998549D02*
X1006434D01*
X1003850Y1001249D02*
X1006358D01*
X1003850Y998999D02*
X1006282D01*
X1003850Y1000799D02*
X1006234D01*
X1003850Y999449D02*
X1006190D01*
X1003850Y1000349D02*
X1006166D01*
X1003850Y999899D02*
X1006151D01*
X892250Y1195199D02*
X1001379D01*
X892250Y1194749D02*
X1000839D01*
X892250Y1194299D02*
X1000389D01*
X994101Y1193849D02*
X999939D01*
X995809Y1193399D02*
X999489D01*
X996475Y1192949D02*
X999039D01*
X996929Y1192499D02*
X998589D01*
X997260Y1192049D02*
X998139D01*
X892250Y996299D02*
X996590D01*
X981608Y1154699D02*
X996424D01*
X892250Y1003499D02*
X996362D01*
X892250Y996749D02*
X996217D01*
X892250Y1003049D02*
X996162D01*
X892250Y1002599D02*
X996150D01*
X892250Y1002149D02*
X996150D01*
X892250Y1001699D02*
X996150D01*
X892250Y1001249D02*
X996150D01*
X892250Y1000799D02*
X996150D01*
X892250Y1000349D02*
X996150D01*
X892250Y999899D02*
X996150D01*
X892250Y999449D02*
X996150D01*
X892250Y998999D02*
X996150D01*
X892250Y998549D02*
X996150D01*
X892250Y998099D02*
X996150D01*
X892250Y997649D02*
X996150D01*
X892250Y997199D02*
X996150D01*
X979350Y1150649D02*
X995311D01*
X981158Y1154249D02*
X995165D01*
X979350Y1151099D02*
X994804D01*
X980708Y1153799D02*
X994724D01*
X979350Y1151549D02*
X994516D01*
X980258Y1153349D02*
X994470D01*
X979350Y1151999D02*
X994358D01*
X892250Y1185749D02*
X994337D01*
X979808Y1152899D02*
X994336D01*
X979376Y1152449D02*
X994301D01*
X984101Y1193849D02*
X993899D01*
X892250Y1185299D02*
X993889D01*
X892250Y1184849D02*
X993439D01*
X984611Y1186199D02*
X993389D01*
X892250Y1184399D02*
X992989D01*
X892250Y1183949D02*
X992539D01*
X990777Y1140749D02*
X992223D01*
X985809Y1193399D02*
X992191D01*
X985895Y1186649D02*
X992105D01*
X918117Y1183499D02*
X992089D01*
X991124Y1124549D02*
X991876D01*
X991212Y1140299D02*
X991788D01*
X918935Y1183049D02*
X991639D01*
X991436Y1124999D02*
X991564D01*
X986475Y1192949D02*
X991525D01*
X986531Y1187099D02*
X991469D01*
X986929Y1192499D02*
X991071D01*
X986969Y1187549D02*
X991031D01*
X987260Y1192049D02*
X990740D01*
X987289Y1187999D02*
X990711D01*
X987502Y1191599D02*
X990498D01*
X987524Y1188449D02*
X990476D01*
X987675Y1191149D02*
X990325D01*
X987689Y1188899D02*
X990311D01*
X987786Y1190699D02*
X990214D01*
X987795Y1189349D02*
X990205D01*
X987842Y1190249D02*
X990158D01*
X987845Y1189799D02*
X990155D01*
X892250Y1021499D02*
X988581D01*
X987834Y1160549D02*
X988198D01*
X892250Y1014749D02*
X988168D01*
X983408Y1156499D02*
X988086D01*
X892250Y1021049D02*
X987937D01*
X892250Y1017899D02*
X987791D01*
X892250Y1015199D02*
X987726D01*
X892250Y1018349D02*
X987625D01*
X892250Y1020599D02*
X987594D01*
X892250Y1017449D02*
X987515D01*
X892250Y1015649D02*
X987471D01*
X983858Y1156949D02*
X987440D01*
X892250Y1018799D02*
X987415D01*
X892250Y1020149D02*
X987398D01*
X892250Y1016999D02*
X987357D01*
X892250Y1016099D02*
X987337D01*
X892250Y1019249D02*
X987314D01*
X892250Y1019699D02*
X987309D01*
X892250Y1016549D02*
X987301D01*
X984308Y1157399D02*
X987095D01*
X986558Y1159649D02*
X986966D01*
X986108Y1159199D02*
X986914D01*
X984758Y1157849D02*
X986899D01*
X985658Y1158749D02*
X986814D01*
X985208Y1158299D02*
X986809D01*
X979350Y1124549D02*
X986776D01*
X979350Y1132649D02*
X986714D01*
X979350Y1132199D02*
X986648D01*
X979350Y1124999D02*
X986605D01*
X979350Y1133549D02*
X986600D01*
X979350Y1133099D02*
X986600D01*
X979350Y1131749D02*
X986600D01*
X979350Y1125449D02*
X986594D01*
X979350Y1133999D02*
X986576D01*
X979350Y1138949D02*
X986543D01*
X986152Y1139399D02*
X986504D01*
X979350Y1131299D02*
X986395D01*
X979350Y1125899D02*
X986197D01*
X979350Y1130849D02*
X985945D01*
X979350Y1126349D02*
X985040D01*
X979350Y1139399D02*
X984848D01*
X979350Y1134449D02*
X984705D01*
X979350Y1138499D02*
X984581D01*
X979350Y1143449D02*
X984479D01*
X979350Y1130399D02*
X984389D01*
X979350Y1126799D02*
X984105D01*
X979350Y1139849D02*
X984046D01*
X979350Y1134899D02*
X983991D01*
X979350Y1138049D02*
X983937D01*
X974101Y1193849D02*
X983899D01*
X979350Y1142999D02*
X983889D01*
X979350Y1129949D02*
X983844D01*
X979350Y1127249D02*
X983690D01*
X979350Y1140299D02*
X983657D01*
X979350Y1135349D02*
X983625D01*
X979350Y1137599D02*
X983594D01*
X979350Y1142549D02*
X983566D01*
X979350Y1129499D02*
X983540D01*
X979350Y1127699D02*
X983451D01*
X979350Y1140749D02*
X983432D01*
X979350Y1135799D02*
X983415D01*
X979350Y1137149D02*
X983398D01*
X974611Y1186199D02*
X983389D01*
X979350Y1142099D02*
X983383D01*
X979350Y1129049D02*
X983370D01*
X979350Y1128149D02*
X983328D01*
X979350Y1141199D02*
X983321D01*
X979350Y1136249D02*
X983314D01*
X979350Y1136699D02*
X983309D01*
X979350Y1141649D02*
X983305D01*
X979350Y1128599D02*
X983302D01*
X975809Y1193399D02*
X982191D01*
X975895Y1186649D02*
X982105D01*
X976475Y1192949D02*
X981525D01*
X976531Y1187099D02*
X981469D01*
X976929Y1192499D02*
X981071D01*
X976969Y1187549D02*
X981031D01*
X977260Y1192049D02*
X980740D01*
X977289Y1187999D02*
X980711D01*
X977502Y1191599D02*
X980498D01*
X977524Y1188449D02*
X980476D01*
X977675Y1191149D02*
X980325D01*
X977689Y1188899D02*
X980311D01*
X977786Y1190699D02*
X980214D01*
X977795Y1189349D02*
X980205D01*
X977842Y1190249D02*
X980158D01*
X977845Y1189799D02*
X980155D01*
X976779Y1109699D02*
X977141D01*
X974861Y1115549D02*
X976984D01*
X975958Y1151549D02*
X976650D01*
X975508Y1151099D02*
X976650D01*
X975058Y1150649D02*
X976650D01*
X974608Y1150199D02*
X976650D01*
X974158Y1149749D02*
X976650D01*
X973708Y1149299D02*
X976650D01*
X973258Y1148849D02*
X976650D01*
X972808Y1148399D02*
X976650D01*
X972358Y1147949D02*
X976650D01*
X971908Y1147499D02*
X976650D01*
X971458Y1147049D02*
X976650D01*
X971008Y1146599D02*
X976650D01*
X970558Y1146149D02*
X976650D01*
X970108Y1145699D02*
X976650D01*
X969658Y1145249D02*
X976650D01*
X969116Y1144799D02*
X976650D01*
X953118Y1144349D02*
X976650D01*
X953511Y1143899D02*
X976650D01*
X953961Y1143449D02*
X976650D01*
X954411Y1142999D02*
X976650D01*
X954861Y1142549D02*
X976650D01*
X955311Y1142099D02*
X976650D01*
X955761Y1141649D02*
X976650D01*
X956211Y1141199D02*
X976650D01*
X956661Y1140749D02*
X976650D01*
X957111Y1140299D02*
X976650D01*
X957561Y1139849D02*
X976650D01*
X958011Y1139399D02*
X976650D01*
X958461Y1138949D02*
X976650D01*
X958911Y1138499D02*
X976650D01*
X959233Y1138049D02*
X976650D01*
X959346Y1137599D02*
X976650D01*
X959350Y1137149D02*
X976650D01*
X959350Y1136699D02*
X976650D01*
X959350Y1136249D02*
X976650D01*
X959350Y1135799D02*
X976650D01*
X959350Y1135349D02*
X976650D01*
X959350Y1134899D02*
X976650D01*
X959350Y1134449D02*
X976650D01*
X959350Y1133999D02*
X976650D01*
X959350Y1133549D02*
X976650D01*
X959350Y1133099D02*
X976650D01*
X959350Y1132649D02*
X976650D01*
X959350Y1132199D02*
X976650D01*
X959350Y1131749D02*
X976650D01*
X959350Y1131299D02*
X976650D01*
X959350Y1130849D02*
X976650D01*
X959350Y1130399D02*
X976650D01*
X959350Y1129949D02*
X976650D01*
X959350Y1129499D02*
X976650D01*
X959350Y1129049D02*
X976650D01*
X959350Y1128599D02*
X976650D01*
X959350Y1128149D02*
X976650D01*
X959350Y1127699D02*
X976650D01*
X959661Y1127249D02*
X976650D01*
X960111Y1126799D02*
X976650D01*
X960561Y1126349D02*
X976650D01*
X961011Y1125899D02*
X976650D01*
X961461Y1125449D02*
X976650D01*
X965408Y1124999D02*
X976650D01*
X965861Y1124549D02*
X976650D01*
X966311Y1124099D02*
X976650D01*
X966761Y1123649D02*
X976650D01*
X967211Y1123199D02*
X976650D01*
X967661Y1122749D02*
X976650D01*
X968111Y1122299D02*
X976650D01*
X968561Y1121849D02*
X976650D01*
X969011Y1121399D02*
X976650D01*
X969461Y1120949D02*
X976650D01*
X969911Y1120499D02*
X976650D01*
X970361Y1120049D02*
X976650D01*
X970811Y1119599D02*
X976650D01*
X971261Y1119149D02*
X976543D01*
X974411Y1115999D02*
X976392D01*
X975472Y1110149D02*
X976235D01*
X971711Y1118699D02*
X976155D01*
X973961Y1116449D02*
X976067D01*
X960850Y1110599D02*
X975992D01*
X972161Y1118249D02*
X975931D01*
X973511Y1116899D02*
X975884D01*
X972611Y1117799D02*
X975820D01*
X973061Y1117349D02*
X975805D01*
X960850Y1111049D02*
X975542D01*
X960850Y1111499D02*
X975092D01*
X960850Y1111949D02*
X974642D01*
X960850Y1110149D02*
X974528D01*
X960850Y1112399D02*
X974192D01*
X964101Y1193849D02*
X973899D01*
X960850Y1106099D02*
X973893D01*
X960850Y1112849D02*
X973742D01*
X960850Y1109699D02*
X973602D01*
X964611Y1186199D02*
X973389D01*
X960850Y1106549D02*
X973347D01*
X960850Y1113299D02*
X973292D01*
X960850Y1109249D02*
X973189D01*
X960850Y1106999D02*
X973041D01*
X960850Y1108799D02*
X972950D01*
X960850Y1107449D02*
X972870D01*
X960850Y1113749D02*
X972842D01*
X960850Y1108349D02*
X972828D01*
X960850Y1107899D02*
X972802D01*
X960850Y1114199D02*
X972392D01*
X965809Y1193399D02*
X972191D01*
X965895Y1186649D02*
X972105D01*
X960850Y1114649D02*
X971942D01*
X966475Y1192949D02*
X971525D01*
X960850Y1115099D02*
X971492D01*
X966531Y1187099D02*
X971469D01*
X966929Y1192499D02*
X971071D01*
X961153Y1115549D02*
X971042D01*
X966969Y1187549D02*
X971031D01*
X967260Y1192049D02*
X970740D01*
X967289Y1187999D02*
X970711D01*
X961459Y1115999D02*
X970592D01*
X967502Y1191599D02*
X970498D01*
X967524Y1188449D02*
X970476D01*
X967675Y1191149D02*
X970325D01*
X967689Y1188899D02*
X970311D01*
X919416Y1182599D02*
X970216D01*
X967786Y1190699D02*
X970214D01*
X967795Y1189349D02*
X970205D01*
X967842Y1190249D02*
X970158D01*
X967845Y1189799D02*
X970155D01*
X961630Y1116449D02*
X970142D01*
X919743Y1182149D02*
X969739D01*
X961698Y1116899D02*
X969692D01*
X919967Y1181699D02*
X969289D01*
X961672Y1117349D02*
X969242D01*
X920111Y1181249D02*
X968839D01*
X961550Y1117799D02*
X968792D01*
X920186Y1180799D02*
X968389D01*
X961311Y1118249D02*
X968342D01*
X920196Y1180349D02*
X967939D01*
X960898Y1118699D02*
X967892D01*
X920143Y1179899D02*
X967489D01*
X959972Y1119149D02*
X967442D01*
X920022Y1179449D02*
X967039D01*
X958350Y1119599D02*
X966992D01*
X919826Y1178999D02*
X966589D01*
X958350Y1120049D02*
X966542D01*
X925078Y1178549D02*
X966139D01*
X958350Y1120499D02*
X966092D01*
X926018Y1178099D02*
X965689D01*
X958350Y1120949D02*
X965642D01*
X926674Y1177649D02*
X965239D01*
X958350Y1121399D02*
X965192D01*
X927181Y1177199D02*
X964789D01*
X958350Y1121849D02*
X964742D01*
X927588Y1176749D02*
X964339D01*
X958350Y1122299D02*
X964292D01*
X892250Y1193849D02*
X963899D01*
X927922Y1176299D02*
X963889D01*
X928195Y1175849D02*
X963439D01*
X892250Y1186199D02*
X963389D01*
X928418Y1175399D02*
X962989D01*
X928595Y1174949D02*
X962539D01*
X892250Y1193399D02*
X962191D01*
X892250Y1186649D02*
X962105D01*
X928732Y1174499D02*
X962089D01*
X928831Y1174049D02*
X961639D01*
X892250Y1192949D02*
X961525D01*
X892250Y1187099D02*
X961469D01*
X960542Y1053449D02*
X961458D01*
X960794Y1053899D02*
X961206D01*
X928895Y1173599D02*
X961189D01*
X892250Y1192499D02*
X961071D01*
X892250Y1187549D02*
X961031D01*
X892250Y1192049D02*
X960740D01*
X928923Y1173149D02*
X960739D01*
X892250Y1187999D02*
X960711D01*
X892250Y1191599D02*
X960498D01*
X958350Y1122749D02*
X960493D01*
X892250Y1188449D02*
X960476D01*
X892250Y1191149D02*
X960325D01*
X892250Y1188899D02*
X960311D01*
X928917Y1172699D02*
X960289D01*
X892250Y1190699D02*
X960214D01*
X892250Y1189349D02*
X960205D01*
X892250Y1190249D02*
X960158D01*
X892250Y1189799D02*
X960155D01*
X958350Y1123199D02*
X959892D01*
X928877Y1172249D02*
X959839D01*
X943861Y1039049D02*
X959698D01*
X958342Y1123649D02*
X959442D01*
X928802Y1171799D02*
X959389D01*
X958386Y1119149D02*
X959028D01*
X958210Y1124099D02*
X958992D01*
X944311Y1038599D02*
X958989D01*
X928690Y1171349D02*
X958939D01*
X944761Y1038149D02*
X958624D01*
X958059Y1124549D02*
X958542D01*
X928540Y1170899D02*
X958489D01*
X945211Y1037699D02*
X958414D01*
X945661Y1037249D02*
X958314D01*
X946111Y1036799D02*
X958306D01*
X928348Y1170449D02*
X958039D01*
X946561Y1036349D02*
X957939D01*
X928109Y1169999D02*
X957589D01*
X947011Y1035899D02*
X957489D01*
X939789Y1052099D02*
X957340D01*
X927816Y1169549D02*
X957139D01*
X947461Y1035449D02*
X957039D01*
X935958Y1048049D02*
X956984D01*
X927459Y1169099D02*
X956689D01*
X939548Y1051649D02*
X956543D01*
X936408Y1048499D02*
X956392D01*
X955795Y1053449D02*
X956358D01*
X927021Y1168649D02*
X956239D01*
X939108Y1051199D02*
X956155D01*
X936858Y1048949D02*
X956067D01*
X938658Y1050749D02*
X955931D01*
X937308Y1049399D02*
X955884D01*
X938208Y1050299D02*
X955820D01*
X937758Y1049849D02*
X955805D01*
X926472Y1168199D02*
X955789D01*
X925744Y1167749D02*
X955339D01*
X924613Y1167299D02*
X954889D01*
X900172Y1166849D02*
X954439D01*
X939850Y1053449D02*
X954205D01*
X939850Y1057949D02*
X954182D01*
X939850Y1057499D02*
X954081D01*
X923558Y1166399D02*
X953989D01*
X940408Y1061999D02*
X953929D01*
X925328Y1165949D02*
X953539D01*
X939850Y1058399D02*
X953491D01*
X939850Y1053899D02*
X953491D01*
X939958Y1061549D02*
X953437D01*
X939850Y1057049D02*
X953437D01*
X940858Y1062449D02*
X953205D01*
X947281Y1112399D02*
X953150D01*
X933060Y1111949D02*
X953150D01*
X932414Y1111499D02*
X953150D01*
X892250Y1111049D02*
X953150D01*
X943660Y1110599D02*
X953150D01*
X944457Y1110149D02*
X953150D01*
X944845Y1109699D02*
X953150D01*
X945069Y1109249D02*
X953150D01*
X945180Y1108799D02*
X953150D01*
X945195Y1108349D02*
X953150D01*
X945116Y1107899D02*
X953150D01*
X944933Y1107449D02*
X953150D01*
X944608Y1106999D02*
X953150D01*
X944016Y1106549D02*
X953150D01*
X892250Y1106099D02*
X953150D01*
X892250Y1105649D02*
X953150D01*
X939850Y1058849D02*
X953125D01*
X939850Y1054349D02*
X953125D01*
X952460Y1112849D02*
X953115D01*
X939850Y1061099D02*
X953094D01*
X939850Y1056599D02*
X953094D01*
X926181Y1165499D02*
X953089D01*
X944908Y1066499D02*
X953081D01*
X939850Y1059299D02*
X952915D01*
X939850Y1054799D02*
X952915D01*
X939850Y1060649D02*
X952898D01*
X939850Y1056149D02*
X952898D01*
X939850Y1059749D02*
X952814D01*
X939850Y1055249D02*
X952814D01*
X939850Y1060199D02*
X952809D01*
X939850Y1055699D02*
X952809D01*
X892250Y1105199D02*
X952789D01*
X926797Y1165049D02*
X952639D01*
X941308Y1062899D02*
X952491D01*
X944458Y1066049D02*
X952437D01*
X892250Y1118699D02*
X952414D01*
X942238Y1117349D02*
X952343D01*
X892250Y1104749D02*
X952339D01*
X892250Y1118249D02*
X952314D01*
X941767Y1117799D02*
X952309D01*
X927279Y1164599D02*
X952189D01*
X941758Y1063349D02*
X952125D01*
X944008Y1065599D02*
X952094D01*
X942208Y1063799D02*
X951915D01*
X943558Y1065149D02*
X951898D01*
X892250Y1104299D02*
X951889D01*
X942658Y1064249D02*
X951814D01*
X943108Y1064699D02*
X951809D01*
X927668Y1164149D02*
X951739D01*
X947758Y1112849D02*
X951540D01*
X892250Y1103849D02*
X951439D01*
X927987Y1163699D02*
X951289D01*
X892250Y1103399D02*
X950989D01*
X942508Y1116899D02*
X950889D01*
X928249Y1163249D02*
X950839D01*
X948208Y1113299D02*
X950605D01*
X892250Y1102949D02*
X950539D01*
X928461Y1162799D02*
X950389D01*
X942654Y1116449D02*
X950344D01*
X935419Y1102499D02*
X950089D01*
X928629Y1162349D02*
X949939D01*
X892250Y1119149D02*
X949811D01*
X936063Y1102049D02*
X949639D01*
X928758Y1161899D02*
X949489D01*
X892250Y1119599D02*
X949304D01*
X936406Y1101599D02*
X949189D01*
X928849Y1161449D02*
X949039D01*
X892250Y1120049D02*
X949016D01*
X892250Y1120499D02*
X948858D01*
X892250Y1120949D02*
X948801D01*
X936602Y1101149D02*
X948739D01*
X892250Y1121399D02*
X948692D01*
X928904Y1160999D02*
X948589D01*
X936691Y1100699D02*
X948289D01*
X892250Y1121849D02*
X948242D01*
X928925Y1160549D02*
X948139D01*
X936686Y1100249D02*
X947839D01*
X892250Y1122299D02*
X947792D01*
X928911Y1160099D02*
X947689D01*
X936585Y1099799D02*
X947389D01*
X892250Y1122749D02*
X947342D01*
X942472Y1159649D02*
X947239D01*
X942700Y1115999D02*
X947092D01*
X936375Y1099349D02*
X946939D01*
X892250Y1123199D02*
X946892D01*
X943398Y1159199D02*
X946789D01*
X942653Y1115549D02*
X946639D01*
X942810Y1032749D02*
X946493D01*
X936009Y1098899D02*
X946489D01*
X892250Y1123649D02*
X946442D01*
X943811Y1158749D02*
X946339D01*
X942529Y1115099D02*
X946189D01*
X935295Y1098449D02*
X946039D01*
X892250Y1124099D02*
X945992D01*
X943049Y1033199D02*
X945892D01*
X944050Y1158299D02*
X945889D01*
X892250Y1097999D02*
X945589D01*
X892250Y1124549D02*
X945542D01*
X943172Y1033649D02*
X945442D01*
X944172Y1157849D02*
X945439D01*
X892250Y1097549D02*
X945139D01*
X892250Y1124999D02*
X945092D01*
X943198Y1034099D02*
X944992D01*
X944198Y1157399D02*
X944989D01*
X892250Y1097099D02*
X944689D01*
X892250Y1125449D02*
X944642D01*
X943130Y1034549D02*
X944542D01*
X944380Y1156949D02*
X944481D01*
X892250Y1096649D02*
X944239D01*
X892250Y1125899D02*
X944192D01*
X942960Y1034999D02*
X944092D01*
X892250Y1096199D02*
X943789D01*
X892250Y1126349D02*
X943742D01*
X942656Y1035449D02*
X943642D01*
X892250Y1095749D02*
X943339D01*
X892250Y1126799D02*
X943292D01*
X942111Y1035899D02*
X943192D01*
X892250Y1095299D02*
X942889D01*
X892250Y1127249D02*
X942842D01*
X892250Y1036349D02*
X942742D01*
X925544Y1155149D02*
X942543D01*
X892250Y1127699D02*
X942518D01*
X892250Y1094849D02*
X942439D01*
X892250Y1128149D02*
X942404D01*
X940107Y1128599D02*
X942400D01*
X892250Y1110599D02*
X942340D01*
X940653Y1129049D02*
X942292D01*
X892250Y1036799D02*
X942292D01*
X924205Y1154699D02*
X942289D01*
X892250Y1094399D02*
X941989D01*
X892250Y1106549D02*
X941984D01*
X940959Y1129499D02*
X941842D01*
X892250Y1037249D02*
X941842D01*
X892250Y1154249D02*
X941839D01*
X892250Y1110149D02*
X941543D01*
X892250Y1093949D02*
X941539D01*
X928864Y1159649D02*
X941528D01*
X892250Y1037699D02*
X941392D01*
X892250Y1106999D02*
X941392D01*
X892250Y1153799D02*
X941389D01*
X892250Y1109699D02*
X941155D01*
X892250Y1093499D02*
X941089D01*
X892250Y1107449D02*
X941067D01*
X892250Y1038149D02*
X940942D01*
X938693Y1153349D02*
X940939D01*
X892250Y1109249D02*
X940931D01*
X926329Y1155599D02*
X940893D01*
X892250Y1107899D02*
X940884D01*
X892250Y1108799D02*
X940820D01*
X892250Y1108349D02*
X940805D01*
X892250Y1093049D02*
X940767D01*
X892250Y1092599D02*
X940654D01*
X892250Y1092149D02*
X940650D01*
X892250Y1091699D02*
X940650D01*
X892250Y1091249D02*
X940650D01*
X892250Y1090799D02*
X940650D01*
X892250Y1090349D02*
X940650D01*
X892250Y1089899D02*
X940650D01*
X892250Y1089449D02*
X940650D01*
X892250Y1088999D02*
X940650D01*
X892250Y1088549D02*
X940650D01*
X892250Y1088099D02*
X940650D01*
X892250Y1087649D02*
X940650D01*
X892250Y1087199D02*
X940650D01*
X892250Y1086749D02*
X940650D01*
X892250Y1086299D02*
X940650D01*
X892250Y1085849D02*
X940650D01*
X892250Y1085399D02*
X940650D01*
X892250Y1084949D02*
X940650D01*
X892250Y1084499D02*
X940650D01*
X892250Y1084049D02*
X940650D01*
X892250Y1083599D02*
X940650D01*
X892250Y1083149D02*
X940650D01*
X892250Y1082699D02*
X940650D01*
X892250Y1082249D02*
X940650D01*
X892250Y1081799D02*
X940650D01*
X892250Y1081349D02*
X940650D01*
X892250Y1080899D02*
X940650D01*
X892250Y1080449D02*
X940650D01*
X892250Y1079999D02*
X940650D01*
X892250Y1079549D02*
X940650D01*
X892250Y1079099D02*
X940650D01*
X892250Y1078649D02*
X940650D01*
X892250Y1078199D02*
X940650D01*
X892250Y1077749D02*
X940650D01*
X892250Y1077299D02*
X940650D01*
X892250Y1076849D02*
X940650D01*
X892250Y1076399D02*
X940650D01*
X892250Y1075949D02*
X940650D01*
X892250Y1075499D02*
X940650D01*
X892250Y1075049D02*
X940650D01*
X892250Y1074599D02*
X940650D01*
X892250Y1074149D02*
X940650D01*
X892250Y1073699D02*
X940650D01*
X892250Y1073249D02*
X940650D01*
X892250Y1072799D02*
X940650D01*
X892250Y1072349D02*
X940650D01*
X892250Y1071899D02*
X940650D01*
X938021Y1071449D02*
X940650D01*
X938611Y1070999D02*
X940650D01*
X938934Y1070549D02*
X940650D01*
X939117Y1070099D02*
X940642D01*
X928780Y1159199D02*
X940602D01*
X937530Y1031849D02*
X940540D01*
X939198Y1152899D02*
X940489D01*
X892250Y1038599D02*
X940489D01*
X926910Y1156049D02*
X940347D01*
X939195Y1069649D02*
X940239D01*
X928660Y1158749D02*
X940189D01*
X927370Y1156499D02*
X940041D01*
X939485Y1152449D02*
X940039D01*
X928501Y1158299D02*
X939950D01*
X892250Y1035899D02*
X939889D01*
X927743Y1156949D02*
X939870D01*
X928299Y1157849D02*
X939828D01*
X928049Y1157399D02*
X939802D01*
X939181Y1069199D02*
X939789D01*
X937276Y1032299D02*
X939605D01*
X892250Y1035449D02*
X939344D01*
X925767Y1117799D02*
X939233D01*
X936835Y1032749D02*
X939190D01*
X892250Y1034999D02*
X939040D01*
X935576Y1033199D02*
X938951D01*
X892250Y1034549D02*
X938870D01*
X892250Y1033649D02*
X938828D01*
X892250Y1034099D02*
X938802D01*
X926238Y1117349D02*
X938762D01*
X926508Y1116899D02*
X938492D01*
X933011Y1115099D02*
X938471D01*
X892250Y1132649D02*
X938371D01*
X932302Y1115549D02*
X938347D01*
X926654Y1116449D02*
X938346D01*
X926700Y1115999D02*
X938300D01*
X892250Y1133099D02*
X938242D01*
X892250Y1128599D02*
X937893D01*
X892250Y1133549D02*
X937792D01*
X892250Y1132199D02*
X937602D01*
X892250Y1129049D02*
X937347D01*
X892250Y1133999D02*
X937342D01*
X892250Y1131749D02*
X937189D01*
X892250Y1129499D02*
X937041D01*
X892250Y1131299D02*
X936950D01*
X892250Y1134449D02*
X936892D01*
X892250Y1129949D02*
X936870D01*
X892250Y1130849D02*
X936828D01*
X892250Y1130399D02*
X936802D01*
X892250Y1149299D02*
X936748D01*
X892250Y1134899D02*
X936442D01*
X892250Y1148849D02*
X936439D01*
X892250Y1153349D02*
X936307D01*
X892250Y1149749D02*
X936168D01*
X892250Y1135349D02*
X935992D01*
X892250Y1148399D02*
X935989D01*
X892250Y1071449D02*
X935979D01*
X892250Y1152899D02*
X935802D01*
X892250Y1150199D02*
X935726D01*
X892250Y1135799D02*
X935542D01*
X892250Y1147949D02*
X935539D01*
X892250Y1152449D02*
X935515D01*
X892250Y1150649D02*
X935471D01*
X892250Y1033199D02*
X935424D01*
X892250Y1070999D02*
X935389D01*
X892250Y1151999D02*
X935357D01*
X892250Y1151099D02*
X935337D01*
X892250Y1151549D02*
X935301D01*
X892250Y1136249D02*
X935092D01*
X892250Y1147499D02*
X935089D01*
X892250Y1136699D02*
X934642D01*
X892250Y1147049D02*
X934639D01*
X892250Y1029149D02*
X934311D01*
X892250Y1137149D02*
X934192D01*
X892250Y1146599D02*
X934189D01*
X892250Y1032749D02*
X934165D01*
X892250Y1070549D02*
X934150D01*
X892250Y1029599D02*
X933804D01*
X892250Y1137599D02*
X933742D01*
X892250Y1146149D02*
X933739D01*
X892250Y1032299D02*
X933724D01*
X892250Y1098449D02*
X933705D01*
X892250Y1070099D02*
X933689D01*
X892250Y1102499D02*
X933581D01*
X892250Y1030049D02*
X933516D01*
X892250Y1031849D02*
X933470D01*
X892250Y1030499D02*
X933358D01*
X892250Y1031399D02*
X933336D01*
X892250Y1030949D02*
X933301D01*
X892250Y1138049D02*
X933292D01*
X892250Y1145699D02*
X933289D01*
X892250Y1069649D02*
X933239D01*
X892250Y1098899D02*
X932991D01*
X892250Y1102049D02*
X932937D01*
X892250Y1138499D02*
X932878D01*
X892250Y1145249D02*
X932877D01*
X892250Y1069199D02*
X932789D01*
X892250Y1138949D02*
X932684D01*
X892250Y1144799D02*
X932683D01*
X892250Y1144349D02*
X932650D01*
X892250Y1143899D02*
X932650D01*
X892250Y1143449D02*
X932650D01*
X892250Y1142999D02*
X932650D01*
X892250Y1142549D02*
X932650D01*
X892250Y1142099D02*
X932650D01*
X892250Y1141649D02*
X932650D01*
X892250Y1141199D02*
X932650D01*
X892250Y1140749D02*
X932650D01*
X892250Y1140299D02*
X932650D01*
X892250Y1139849D02*
X932650D01*
X892250Y1139399D02*
X932650D01*
X892250Y1099349D02*
X932625D01*
X892250Y1101599D02*
X932594D01*
X892250Y1099799D02*
X932415D01*
X892250Y1101149D02*
X932398D01*
X892250Y1068749D02*
X932339D01*
X892250Y1100249D02*
X932314D01*
X892250Y1100699D02*
X932309D01*
X892250Y1068299D02*
X931889D01*
X892250Y1067849D02*
X931439D01*
X892250Y1067399D02*
X930989D01*
X926653Y1115549D02*
X930698D01*
X892250Y1111499D02*
X930586D01*
X892250Y1066949D02*
X930539D01*
X892250Y1066499D02*
X930089D01*
X926507Y1115099D02*
X929989D01*
X892250Y1111949D02*
X929940D01*
X892250Y1066049D02*
X929639D01*
X926236Y1114649D02*
X929624D01*
X892250Y1112399D02*
X929595D01*
X925763Y1114199D02*
X929414D01*
X892250Y1112849D02*
X929399D01*
X892250Y1113749D02*
X929314D01*
X892250Y1113299D02*
X929309D01*
X892250Y1065599D02*
X929189D01*
X892250Y1065149D02*
X928739D01*
X892250Y1064699D02*
X928289D01*
X892250Y1064249D02*
X927839D01*
X892250Y1063799D02*
X927389D01*
X892250Y1063349D02*
X926939D01*
X892250Y1062899D02*
X926489D01*
X892250Y1062449D02*
X926039D01*
X910919Y1061999D02*
X925589D01*
X911563Y1061549D02*
X925139D01*
X911906Y1061099D02*
X924689D01*
X912102Y1060649D02*
X924239D01*
X892250Y1039049D02*
X924042D01*
X912191Y1060199D02*
X923789D01*
X892250Y1039499D02*
X923592D01*
X912256Y1059749D02*
X923339D01*
X892250Y1114199D02*
X923237D01*
X892250Y1117799D02*
X923233D01*
X892250Y1039949D02*
X923142D01*
X913267Y1059299D02*
X922889D01*
X892250Y1114649D02*
X922764D01*
X892250Y1117349D02*
X922762D01*
X892250Y1040399D02*
X922692D01*
X892250Y1115099D02*
X922493D01*
X892250Y1116899D02*
X922492D01*
X913738Y1058849D02*
X922450D01*
X903558Y1166399D02*
X922442D01*
X892250Y1115549D02*
X922347D01*
X892250Y1116449D02*
X922346D01*
X892250Y1040849D02*
X922317D01*
X892250Y1115999D02*
X922300D01*
X914008Y1058399D02*
X922210D01*
X892250Y1041299D02*
X922165D01*
X914154Y1057949D02*
X922150D01*
X914200Y1057499D02*
X922150D01*
X914153Y1057049D02*
X922150D01*
X914007Y1056599D02*
X922150D01*
X913736Y1056149D02*
X922150D01*
X913263Y1055699D02*
X922150D01*
X892250Y1055249D02*
X922150D01*
X892250Y1054799D02*
X922150D01*
X892250Y1054349D02*
X922150D01*
X892250Y1053899D02*
X922150D01*
X892250Y1053449D02*
X922150D01*
X892250Y1052999D02*
X922150D01*
X892250Y1052549D02*
X922150D01*
X892250Y1052099D02*
X922150D01*
X892250Y1051649D02*
X922150D01*
X892250Y1051199D02*
X922150D01*
X892250Y1050749D02*
X922150D01*
X914267Y1050299D02*
X922150D01*
X914738Y1049849D02*
X922150D01*
X915008Y1049399D02*
X922150D01*
X915154Y1048949D02*
X922150D01*
X915200Y1048499D02*
X922150D01*
X915153Y1048049D02*
X922150D01*
X915007Y1047599D02*
X922150D01*
X914736Y1047149D02*
X922150D01*
X914263Y1046699D02*
X922150D01*
X892250Y1046249D02*
X922150D01*
X892250Y1045799D02*
X922150D01*
X892250Y1045349D02*
X922150D01*
X892250Y1044899D02*
X922150D01*
X892250Y1044449D02*
X922150D01*
X892250Y1043999D02*
X922150D01*
X892250Y1043549D02*
X922150D01*
X892250Y1043099D02*
X922150D01*
X892250Y1042649D02*
X922150D01*
X892250Y1042199D02*
X922150D01*
X892250Y1041749D02*
X922150D01*
X904205Y1154699D02*
X921795D01*
X904613Y1167299D02*
X921387D01*
X919536Y1178549D02*
X920922D01*
X905328Y1165949D02*
X920672D01*
X905544Y1155149D02*
X920456D01*
X905744Y1167749D02*
X920256D01*
X919150Y1178099D02*
X919982D01*
X906181Y1165499D02*
X919819D01*
X906329Y1155599D02*
X919671D01*
X906472Y1168199D02*
X919528D01*
X906797Y1165049D02*
X919203D01*
X918453Y1177649D02*
X919162D01*
X906910Y1156049D02*
X919090D01*
X907021Y1168649D02*
X918979D01*
X907181Y1177199D02*
X918819D01*
X907279Y1164599D02*
X918721D01*
X907370Y1156499D02*
X918630D01*
X907459Y1169099D02*
X918541D01*
X907588Y1176749D02*
X918412D01*
X907668Y1164149D02*
X918332D01*
X907743Y1156949D02*
X918257D01*
X907816Y1169549D02*
X918184D01*
X907922Y1176299D02*
X918078D01*
X913092Y1163699D02*
X918013D01*
X913789Y1157399D02*
X917951D01*
X908109Y1169999D02*
X917891D01*
X908195Y1175849D02*
X917805D01*
X914639Y1163249D02*
X917751D01*
X914792Y1157849D02*
X917701D01*
X908348Y1170449D02*
X917652D01*
X908418Y1175399D02*
X917582D01*
X915226Y1162799D02*
X917539D01*
X915323Y1158299D02*
X917499D01*
X908540Y1170899D02*
X917460D01*
X908595Y1174949D02*
X917405D01*
X915612Y1162349D02*
X917371D01*
X915678Y1158749D02*
X917340D01*
X908690Y1171349D02*
X917310D01*
X908732Y1174499D02*
X917268D01*
X915878Y1161899D02*
X917242D01*
X915923Y1159199D02*
X917220D01*
X908802Y1171799D02*
X917198D01*
X908831Y1174049D02*
X917169D01*
X916056Y1161449D02*
X917151D01*
X916085Y1159649D02*
X917136D01*
X908877Y1172249D02*
X917123D01*
X908895Y1173599D02*
X917105D01*
X916161Y1160999D02*
X917096D01*
X916175Y1160099D02*
X917089D01*
X908917Y1172699D02*
X917083D01*
X908923Y1173149D02*
X917077D01*
X916200Y1160549D02*
X917075D01*
X910117Y1183499D02*
X915883D01*
X910453Y1177649D02*
X915547D01*
X910935Y1183049D02*
X915065D01*
X911115Y1178099D02*
X914885D01*
X911416Y1182599D02*
X914584D01*
X911536Y1178549D02*
X914464D01*
X911743Y1182149D02*
X914257D01*
X911826Y1178999D02*
X914174D01*
X911967Y1181699D02*
X914033D01*
X912022Y1179449D02*
X913978D01*
X912111Y1181249D02*
X913889D01*
X912143Y1179899D02*
X913857D01*
X912186Y1180799D02*
X913814D01*
X912196Y1180349D02*
X913804D01*
X907987Y1163699D02*
X912908D01*
X908049Y1157399D02*
X912211D01*
X892250Y1046699D02*
X911737D01*
X892250Y1050299D02*
X911733D01*
X908249Y1163249D02*
X911361D01*
X892250Y1047149D02*
X911264D01*
X892250Y1049849D02*
X911262D01*
X908299Y1157849D02*
X911208D01*
X892250Y1047599D02*
X910993D01*
X892250Y1049399D02*
X910992D01*
X892250Y1048049D02*
X910847D01*
X892250Y1048949D02*
X910846D01*
X892250Y1048499D02*
X910800D01*
X908461Y1162799D02*
X910774D01*
X892250Y1055699D02*
X910737D01*
X908501Y1158299D02*
X910677D01*
X908629Y1162349D02*
X910388D01*
X908660Y1158749D02*
X910322D01*
X892250Y1056149D02*
X910264D01*
X908758Y1161899D02*
X910122D01*
X908780Y1159199D02*
X910077D01*
X892250Y1056599D02*
X909993D01*
X908849Y1161449D02*
X909944D01*
X908864Y1159649D02*
X909915D01*
X892250Y1057049D02*
X909847D01*
X908904Y1160999D02*
X909839D01*
X908911Y1160099D02*
X909825D01*
X908925Y1160549D02*
X909800D01*
X892250Y1057499D02*
X909800D01*
X892250Y1057949D02*
X909205D01*
X892250Y1061999D02*
X909081D01*
X892250Y1058399D02*
X908491D01*
X892250Y1061549D02*
X908437D01*
X892250Y1058849D02*
X908125D01*
X892250Y1061099D02*
X908094D01*
X892250Y1059299D02*
X907915D01*
X892250Y1060649D02*
X907898D01*
X892250Y1183499D02*
X907883D01*
X892250Y1059749D02*
X907814D01*
X892250Y1060199D02*
X907809D01*
X906838Y1177649D02*
X907547D01*
X892250Y1183049D02*
X907065D01*
X906018Y1178099D02*
X906850D01*
X892250Y1182599D02*
X906584D01*
X905078Y1178549D02*
X906464D01*
X892250Y1182149D02*
X906257D01*
X892250Y1178999D02*
X906174D01*
X892250Y1181699D02*
X906033D01*
X892250Y1179449D02*
X905978D01*
X892250Y1181249D02*
X905889D01*
X892250Y1179899D02*
X905857D01*
X892250Y1180799D02*
X905814D01*
X892250Y1180349D02*
X905804D01*
X900198Y1166399D02*
X902442D01*
X892250Y1154699D02*
X901795D01*
X900050Y1167299D02*
X901387D01*
X892250Y1178549D02*
X900922D01*
X900227Y1165949D02*
X900672D01*
X892250Y1155149D02*
X900456D01*
X892250Y1178099D02*
X899982D01*
X892250Y1155599D02*
X899671D01*
X892250Y1177649D02*
X899326D01*
X892250Y1156049D02*
X899090D01*
X892250Y1177199D02*
X898819D01*
X892250Y1156499D02*
X898630D01*
X892250Y1169099D02*
X898541D01*
X892250Y1176749D02*
X898412D01*
X892250Y1156949D02*
X898257D01*
X892250Y1169549D02*
X898184D01*
X892250Y1164149D02*
X898178D01*
X892250Y1176299D02*
X898078D01*
X892250Y1163699D02*
X898013D01*
X892250Y1157399D02*
X897951D01*
X892250Y1169999D02*
X897891D01*
X892250Y1175849D02*
X897805D01*
X892250Y1163249D02*
X897751D01*
X892250Y1157849D02*
X897701D01*
X892250Y1170449D02*
X897652D01*
X892250Y1175399D02*
X897582D01*
X892250Y1162799D02*
X897539D01*
X892250Y1168649D02*
X897528D01*
X892250Y1158299D02*
X897499D01*
X892250Y1170899D02*
X897460D01*
X892250Y1174949D02*
X897405D01*
X892250Y1162349D02*
X897371D01*
X892250Y1158749D02*
X897340D01*
X892250Y1171349D02*
X897310D01*
X892250Y1174499D02*
X897268D01*
X892250Y1161899D02*
X897242D01*
X892250Y1159199D02*
X897220D01*
X892250Y1171799D02*
X897198D01*
X892250Y1174049D02*
X897169D01*
X892250Y1161449D02*
X897151D01*
X892250Y1159649D02*
X897136D01*
X892250Y1172249D02*
X897123D01*
X892250Y1173599D02*
X897105D01*
X892250Y1160999D02*
X897096D01*
X892250Y1160099D02*
X897089D01*
X892250Y1172699D02*
X897083D01*
X892250Y1173149D02*
X897077D01*
X892250Y1160549D02*
X897075D01*
X892250Y1164599D02*
X896893D01*
X892250Y1011599D02*
X896840D01*
X892250Y1168199D02*
X896602D01*
X892250Y1007549D02*
X896484D01*
X892250Y1165049D02*
X896347D01*
X892250Y1167749D02*
X896189D01*
X892250Y1011149D02*
X896043D01*
X892250Y1165499D02*
X896041D01*
X892250Y1167299D02*
X895950D01*
X892250Y1007999D02*
X895892D01*
X892250Y1165949D02*
X895870D01*
X892250Y1166849D02*
X895828D01*
X892250Y1166399D02*
X895802D01*
X892250Y1010699D02*
X895655D01*
X892250Y1008449D02*
X895567D01*
X892250Y1010249D02*
X895431D01*
X892250Y1008899D02*
X895384D01*
X892250Y1009799D02*
X895320D01*
X892250Y1009349D02*
X895305D01*
X1017080Y1192349D02*
X1020920D01*
X1017349Y1191899D02*
X1020651D01*
X1017567Y1191449D02*
X1020433D01*
X1017454Y1188299D02*
X1020389D01*
X1017641Y1188749D02*
X1020359D01*
X1017718Y1190999D02*
X1020282D01*
X1017766Y1189199D02*
X1020234D01*
X1017811Y1190549D02*
X1020189D01*
X1017834Y1189649D02*
X1020166D01*
X1017849Y1190099D02*
X1020151D01*
X1017193Y1187849D02*
X1019939D01*
X1016838Y1187399D02*
X1019489D01*
X1016348Y1186949D02*
X1019039D01*
X1015601Y1186499D02*
X1018589D01*
X1001958Y1186049D02*
X1018139D01*
X1001508Y1185599D02*
X1017689D01*
X1001058Y1185149D02*
X1017239D01*
X1000608Y1184699D02*
X1016789D01*
X1000158Y1184249D02*
X1016339D01*
X999708Y1183799D02*
X1015889D01*
X1005601Y1186499D02*
X1012399D01*
X1006348Y1186949D02*
X1011652D01*
X1006838Y1187399D02*
X1011162D01*
X1007080Y1192349D02*
X1010920D01*
X1007193Y1187849D02*
X1010807D01*
X1007349Y1191899D02*
X1010651D01*
X1007454Y1188299D02*
X1010546D01*
X1007567Y1191449D02*
X1010433D01*
X1007641Y1188749D02*
X1010359D01*
X1007718Y1190999D02*
X1010282D01*
X1007766Y1189199D02*
X1010234D01*
X1007811Y1190549D02*
X1010189D01*
X1007834Y1189649D02*
X1010166D01*
X1007849Y1190099D02*
X1010151D01*
X988608Y1171199D02*
X991789D01*
X989138Y1171649D02*
X991662D01*
X988158Y1170749D02*
X991339D01*
X987708Y1170299D02*
X990889D01*
X987258Y1169849D02*
X990439D01*
X986808Y1169399D02*
X989989D01*
X986358Y1168949D02*
X989539D01*
X985908Y1168499D02*
X989089D01*
X985458Y1168049D02*
X988639D01*
X985008Y1167599D02*
X988189D01*
X984558Y1167149D02*
X987739D01*
X984108Y1166699D02*
X987289D01*
X983658Y1166249D02*
X986839D01*
X983208Y1165799D02*
X986389D01*
X982758Y1165349D02*
X985939D01*
X982308Y1164899D02*
X985489D01*
X981858Y1164449D02*
X985039D01*
X981408Y1163999D02*
X984589D01*
X980958Y1163549D02*
X984139D01*
X980508Y1163099D02*
X983689D01*
X980058Y1162649D02*
X983239D01*
X979608Y1162199D02*
X982789D01*
X979158Y1161749D02*
X982339D01*
X978708Y1161299D02*
X981889D01*
X978258Y1160849D02*
X981439D01*
X977808Y1160399D02*
X980989D01*
X977358Y1159949D02*
X980539D01*
X976908Y1159499D02*
X980089D01*
X976458Y1159049D02*
X979639D01*
X976008Y1158599D02*
X979189D01*
X975558Y1158149D02*
X978739D01*
X975108Y1157699D02*
X978289D01*
X974507Y1157249D02*
X977839D01*
X963208Y1156799D02*
X977389D01*
X962758Y1156349D02*
X976939D01*
X962308Y1155899D02*
X976489D01*
X961858Y1155449D02*
X976039D01*
X961408Y1154999D02*
X975589D01*
X960958Y1154549D02*
X975139D01*
X960508Y1154099D02*
X974689D01*
X960058Y1153649D02*
X974239D01*
X959608Y1153199D02*
X973789D01*
X959158Y1152749D02*
X973339D01*
X958708Y1152299D02*
X972889D01*
X958258Y1151849D02*
X972439D01*
X957808Y1151399D02*
X971989D01*
X957358Y1150949D02*
X971539D01*
X956908Y1150499D02*
X971089D01*
X956458Y1150049D02*
X970639D01*
X956008Y1149599D02*
X970189D01*
X955558Y1149149D02*
X969739D01*
X955108Y1148699D02*
X969289D01*
X954658Y1148249D02*
X968839D01*
X954208Y1147799D02*
X968389D01*
X979305Y1172837D02*
X986379D01*
X979708Y1172387D02*
X985978D01*
X979991Y1171937D02*
X985528D01*
X980145Y1171487D02*
X985078D01*
X980200Y1171037D02*
X984628D01*
X980161Y1170587D02*
X984178D01*
X980024Y1170137D02*
X983728D01*
X979765Y1169687D02*
X983278D01*
X979316Y1169237D02*
X982828D01*
X964196Y1168787D02*
X982378D01*
X963746Y1168337D02*
X981928D01*
X963296Y1167887D02*
X981478D01*
X962846Y1167437D02*
X981028D01*
X962396Y1166987D02*
X980578D01*
X961946Y1166537D02*
X980128D01*
X961496Y1166087D02*
X979678D01*
X961046Y1165637D02*
X979228D01*
X960596Y1165187D02*
X978778D01*
X960146Y1164737D02*
X978328D01*
X959696Y1164287D02*
X977878D01*
X974211Y1163837D02*
X977428D01*
X974708Y1163387D02*
X976978D01*
X968246Y1172837D02*
X976695D01*
X964646Y1169237D02*
X976684D01*
X974991Y1162937D02*
X976528D01*
X967796Y1172387D02*
X976292D01*
X965096Y1169687D02*
X976235D01*
X975145Y1162487D02*
X976078D01*
X967346Y1171937D02*
X976009D01*
X965546Y1170137D02*
X975976D01*
X966896Y1171487D02*
X975855D01*
X965996Y1170587D02*
X975839D01*
X966446Y1171037D02*
X975800D01*
X975256Y1162037D02*
X975628D01*
X959246Y1163837D02*
X971789D01*
X965063Y1160237D02*
X971662D01*
X958796Y1163387D02*
X971292D01*
X965178Y1160687D02*
X971235D01*
X964043Y1162937D02*
X971009D01*
X965196Y1161137D02*
X970976D01*
X964622Y1162487D02*
X970855D01*
X965120Y1161587D02*
X970839D01*
X964940Y1162037D02*
X970800D01*
X958346Y1162937D02*
X961957D01*
X954746Y1159337D02*
X961560D01*
X954296Y1158887D02*
X961478D01*
X957896Y1162487D02*
X961378D01*
X955196Y1159787D02*
X961165D01*
X957446Y1162037D02*
X961060D01*
X953846Y1158437D02*
X961028D01*
X955646Y1160237D02*
X960937D01*
X956996Y1161587D02*
X960880D01*
X956096Y1160687D02*
X960822D01*
X956546Y1161137D02*
X960804D01*
X953396Y1157987D02*
X960578D01*
X952946Y1157537D02*
X960128D01*
X952496Y1157087D02*
X959678D01*
X952046Y1156637D02*
X959228D01*
X951596Y1156187D02*
X958778D01*
X951146Y1155737D02*
X958328D01*
X950696Y1155287D02*
X957878D01*
X950246Y1154837D02*
X957428D01*
X949796Y1154387D02*
X956978D01*
X949346Y1153937D02*
X956528D01*
X948896Y1153487D02*
X956078D01*
X948446Y1153037D02*
X955628D01*
X947996Y1152587D02*
X955178D01*
X947546Y1152137D02*
X954728D01*
X947096Y1151687D02*
X954278D01*
X946646Y1151237D02*
X953828D01*
X946196Y1150787D02*
X953378D01*
X945746Y1150337D02*
X952928D01*
X945296Y1149887D02*
X952478D01*
X944846Y1149437D02*
X952028D01*
X944396Y1148987D02*
X951578D01*
X971958Y1178549D02*
X992838D01*
X971508Y1178099D02*
X992689D01*
X971058Y1177649D02*
X992239D01*
X970608Y1177199D02*
X991789D01*
X970158Y1176749D02*
X991339D01*
X969708Y1176299D02*
X990889D01*
X931123Y1055213D02*
X932150D01*
X930673Y1054763D02*
X932150D01*
X930223Y1054313D02*
X932150D01*
X929773Y1053863D02*
X932150D01*
X929323Y1053413D02*
X932150D01*
X928873Y1052963D02*
X932150D01*
X928423Y1052513D02*
X932150D01*
X927973Y1052063D02*
X932150D01*
X927523Y1051613D02*
X932150D01*
X927350Y1051163D02*
X932150D01*
X927350Y1050713D02*
X932150D01*
X931573Y1055663D02*
X932149D01*
X927350Y1050263D02*
X931854D01*
X927350Y1049813D02*
X931404D01*
X927350Y1049363D02*
X930954D01*
X927350Y1048913D02*
X930504D01*
X927350Y1048463D02*
X930054D01*
X927350Y1048013D02*
X929604D01*
X927350Y1047563D02*
X929154D01*
X927350Y1047113D02*
X928704D01*
X927350Y1046663D02*
X928324D01*
X927350Y1046213D02*
X928167D01*
X927350Y1045763D02*
X928150D01*
X927350Y1045313D02*
X928150D01*
X927350Y1044863D02*
X928150D01*
X927350Y1044413D02*
X928150D01*
X934471Y1067061D02*
X937556D01*
X934021Y1066611D02*
X937202D01*
X933571Y1066161D02*
X936752D01*
X933121Y1065711D02*
X936302D01*
X934921Y1067511D02*
X936059D01*
X932671Y1065261D02*
X935852D01*
X932221Y1064811D02*
X935402D01*
X931771Y1064361D02*
X934952D01*
X931321Y1063911D02*
X934502D01*
X930871Y1063461D02*
X934052D01*
X930421Y1063011D02*
X933602D01*
X929971Y1062561D02*
X933272D01*
X929521Y1062111D02*
X933155D01*
X929071Y1061661D02*
X933150D01*
X928621Y1061211D02*
X933150D01*
X928171Y1060761D02*
X932852D01*
X927721Y1060311D02*
X932402D01*
X927271Y1059861D02*
X931952D01*
X926821Y1059411D02*
X931502D01*
X926371Y1058961D02*
X931052D01*
X925921Y1058511D02*
X930602D01*
X925471Y1058061D02*
X930152D01*
X925021Y1057611D02*
X929702D01*
X924850Y1057161D02*
X929252D01*
X924850Y1056711D02*
X928802D01*
X924850Y1056261D02*
X928352D01*
X924850Y1055811D02*
X927902D01*
X924850Y1055361D02*
X927452D01*
X924850Y1054911D02*
X927002D01*
X924850Y1054461D02*
X926552D01*
X924850Y1054011D02*
X926102D01*
X924850Y1053561D02*
X925652D01*
G54D58*
X996400Y1130500D02*
X994050D01*
X996400Y1134500D02*
X994050D01*
X1047044Y649278D02*
X1043635Y643153D01*
X1048749*
X1047044Y649278D02*
Y640090D01*
X1203579Y647965D02*
X1202897Y648840D01*
X1201874Y649278*
X1200510*
X1199488Y648840*
X1198806Y647965*
Y647090*
X1199147Y646215*
X1199488Y645778*
X1200169Y645340*
X1202215Y644465*
X1202897Y644028*
X1203238Y643590*
X1203579Y642715*
Y641403*
X1202897Y640528*
X1201874Y640090*
X1200510*
X1199488Y640528*
X1198806Y641403*
X1206647Y643590D02*
X1210738D01*
Y644465*
X1210397Y645340*
X1210056Y645778*
X1209374Y646215*
X1208351*
X1207669Y645778*
X1206988Y644903*
X1206647Y643590*
Y642715*
X1206988Y641403*
X1207669Y640528*
X1208351Y640090*
X1209374*
X1210056Y640528*
X1210738Y641403*
X1217897Y644903D02*
X1217215Y645778D01*
X1216533Y646215*
X1215510*
X1214829Y645778*
X1214147Y644903*
X1213806Y643590*
Y642715*
X1214147Y641403*
X1214829Y640528*
X1215510Y640090*
X1216533*
X1217215Y640528*
X1217897Y641403*
X1222669Y646215D02*
X1221988Y645778D01*
X1221306Y644903*
X1220965Y643590*
Y642715*
X1221306Y641403*
X1221988Y640528*
X1222669Y640090*
X1223692*
X1224374Y640528*
X1225056Y641403*
X1225397Y642715*
Y643590*
X1225056Y644903*
X1224374Y645778*
X1223692Y646215*
X1222669*
X1228465D02*
Y640090D01*
Y644465D02*
X1229488Y645778D01*
X1230169Y646215*
X1231192*
X1231874Y645778*
X1232215Y644465*
Y640090*
X1239374Y649278D02*
Y640090D01*
Y644903D02*
X1238692Y645778D01*
X1238010Y646215*
X1236988*
X1236306Y645778*
X1235624Y644903*
X1235283Y643590*
Y642715*
X1235624Y641403*
X1236306Y640528*
X1236988Y640090*
X1238010*
X1238692Y640528*
X1239374Y641403*
X1246533Y646215D02*
Y640090D01*
Y644903D02*
X1245851Y645778D01*
X1245169Y646215*
X1244147*
X1243465Y645778*
X1242783Y644903*
X1242442Y643590*
Y642715*
X1242783Y641403*
X1243465Y640528*
X1244147Y640090*
X1245169*
X1245851Y640528*
X1246533Y641403*
X1249601Y646215D02*
Y640090D01*
Y643590D02*
X1249942Y644903D01*
X1250624Y645778*
X1251306Y646215*
X1252329*
X1255738D02*
X1257783Y640090D01*
X1259829Y646215D02*
X1257783Y640090D01*
X1257101Y638340*
X1256419Y637465*
X1255738Y637028*
X1255397*
X1275510Y647965D02*
X1274829Y648840D01*
X1273806Y649278*
X1272442*
X1271419Y648840*
X1270738Y647965*
Y647090*
X1271079Y646215*
X1271419Y645778*
X1272101Y645340*
X1274147Y644465*
X1274829Y644028*
X1275169Y643590*
X1275510Y642715*
Y641403*
X1274829Y640528*
X1273806Y640090*
X1272442*
X1271419Y640528*
X1270738Y641403*
X1278579Y649278D02*
X1278919Y648840D01*
X1279260Y649278*
X1278919Y649715*
X1278579Y649278*
X1278919Y646215D02*
Y640090D01*
X1286419Y649278D02*
Y640090D01*
Y644903D02*
X1285738Y645778D01*
X1285056Y646215*
X1284033*
X1283351Y645778*
X1282669Y644903*
X1282329Y643590*
Y642715*
X1282669Y641403*
X1283351Y640528*
X1284033Y640090*
X1285056*
X1285738Y640528*
X1286419Y641403*
X1289488Y643590D02*
X1293579D01*
Y644465*
X1293238Y645340*
X1292897Y645778*
X1292215Y646215*
X1291192*
X1290510Y645778*
X1289829Y644903*
X1289488Y643590*
Y642715*
X1289829Y641403*
X1290510Y640528*
X1291192Y640090*
X1292215*
X1292897Y640528*
X1293579Y641403*
X997954Y649278D02*
Y640090D01*
X1002044*
X1007840Y649278D02*
X1005113Y640090D01*
X1007840Y649278D02*
X1010567Y640090D01*
X1006135Y643153D02*
X1009544D01*
X1013635Y649278D02*
X1016363Y644903D01*
Y640090*
X1019090Y649278D02*
X1016363Y644903D01*
X1022158Y649278D02*
Y640090D01*
Y649278D02*
X1026590D01*
X1022158Y644903D02*
X1024885D01*
X1022158Y640090D02*
X1026590D01*
X1029658Y649278D02*
Y640090D01*
Y649278D02*
X1032726D01*
X1033749Y648840*
X1034090Y648403*
X1034431Y647528*
Y646653*
X1034090Y645778*
X1033749Y645340*
X1032726Y644903*
X1029658*
X1032044D02*
X1034431Y640090D01*
X965101Y820247D02*
X962374Y811059D01*
X965101Y820247D02*
X967829Y811059D01*
X963397Y814122D02*
X966806D01*
X970897Y817184D02*
Y811059D01*
Y814559D02*
X971238Y815872D01*
X971919Y816747*
X972601Y817184*
X973624*
X977715Y820247D02*
Y812809D01*
X978056Y811497*
X978738Y811059*
X979419*
X976692Y817184D02*
X979079D01*
X982488D02*
X983851Y811059D01*
X985215Y817184D02*
X983851Y811059D01*
X985215Y817184D02*
X986579Y811059D01*
X987942Y817184D02*
X986579Y811059D01*
X992715Y817184D02*
X992033Y816747D01*
X991351Y815872*
X991010Y814559*
Y813684*
X991351Y812372*
X992033Y811497*
X992715Y811059*
X993738*
X994419Y811497*
X995101Y812372*
X995442Y813684*
Y814559*
X995101Y815872*
X994419Y816747*
X993738Y817184*
X992715*
X998510D02*
Y811059D01*
Y814559D02*
X998851Y815872D01*
X999533Y816747*
X1000215Y817184*
X1001238*
X1004306Y820247D02*
Y811059D01*
X1007715Y817184D02*
X1004306Y812809D01*
X1005669Y814559D02*
X1008056Y811059D01*
X1018965Y820247D02*
Y811059D01*
Y820247D02*
X1021351D01*
X1022374Y819809*
X1023056Y818934*
X1023397Y818059*
X1023738Y816747*
Y814559*
X1023397Y813247*
X1023056Y812372*
X1022374Y811497*
X1021351Y811059*
X1018965*
X1026806Y814559D02*
X1030897D01*
Y815434*
X1030556Y816309*
X1030215Y816747*
X1029533Y817184*
X1028510*
X1027829Y816747*
X1027147Y815872*
X1026806Y814559*
Y813684*
X1027147Y812372*
X1027829Y811497*
X1028510Y811059*
X1029533*
X1030215Y811497*
X1030897Y812372*
X1037715Y815872D02*
X1037374Y816747D01*
X1036351Y817184*
X1035329*
X1034306Y816747*
X1033965Y815872*
X1034306Y814997*
X1034988Y814559*
X1036692Y814122*
X1037374Y813684*
X1037715Y812809*
Y812372*
X1037374Y811497*
X1036351Y811059*
X1035329*
X1034306Y811497*
X1033965Y812372*
X1040783Y820247D02*
X1041124Y819809D01*
X1041465Y820247*
X1041124Y820684*
X1040783Y820247*
X1041124Y817184D02*
Y811059D01*
X1048624Y817184D02*
Y810184D01*
X1048283Y808872*
X1047942Y808434*
X1047260Y807997*
X1046238*
X1045556Y808434*
X1048624Y815872D02*
X1047942Y816747D01*
X1047260Y817184*
X1046238*
X1045556Y816747*
X1044874Y815872*
X1044533Y814559*
Y813684*
X1044874Y812372*
X1045556Y811497*
X1046238Y811059*
X1047260*
X1047942Y811497*
X1048624Y812372*
X1051692Y817184D02*
Y811059D01*
Y815434D02*
X1052715Y816747D01*
X1053397Y817184*
X1054419*
X1055101Y816747*
X1055442Y815434*
Y811059*
X1058510Y814559D02*
X1062601D01*
Y815434*
X1062260Y816309*
X1061919Y816747*
X1061238Y817184*
X1060215*
X1059533Y816747*
X1058851Y815872*
X1058510Y814559*
Y813684*
X1058851Y812372*
X1059533Y811497*
X1060215Y811059*
X1061238*
X1061919Y811497*
X1062601Y812372*
X1069760Y820247D02*
Y811059D01*
Y815872D02*
X1069079Y816747D01*
X1068397Y817184*
X1067374*
X1066692Y816747*
X1066010Y815872*
X1065669Y814559*
Y813684*
X1066010Y812372*
X1066692Y811497*
X1067374Y811059*
X1068397*
X1069079Y811497*
X1069760Y812372*
X1080669Y820247D02*
Y811059D01*
Y820247D02*
X1085101D01*
X1080669Y815872D02*
X1083397D01*
X1089874Y817184D02*
X1089192Y816747D01*
X1088510Y815872*
X1088169Y814559*
Y813684*
X1088510Y812372*
X1089192Y811497*
X1089874Y811059*
X1090897*
X1091579Y811497*
X1092260Y812372*
X1092601Y813684*
Y814559*
X1092260Y815872*
X1091579Y816747*
X1090897Y817184*
X1089874*
X1095669D02*
Y811059D01*
Y814559D02*
X1096010Y815872D01*
X1096692Y816747*
X1097374Y817184*
X1098397*
X1101806D02*
X1101465Y816747D01*
X1101806Y816309*
X1102147Y816747*
X1101806Y817184*
Y811934D02*
X1101465Y811497D01*
X1101806Y811059*
X1102147Y811497*
X1101806Y811934*
X962374Y765247D02*
Y756059D01*
Y765247D02*
X965442D01*
X966465Y764809*
X966806Y764372*
X967147Y763497*
Y762622*
X966806Y761747*
X966465Y761309*
X965442Y760872*
X962374D02*
X965442D01*
X966465Y760434*
X966806Y759997*
X967147Y759122*
Y757809*
X966806Y756934*
X966465Y756497*
X965442Y756059*
X962374*
X971919Y762184D02*
X971238Y761747D01*
X970556Y760872*
X970215Y759559*
Y758684*
X970556Y757372*
X971238Y756497*
X971919Y756059*
X972942*
X973624Y756497*
X974306Y757372*
X974647Y758684*
Y759559*
X974306Y760872*
X973624Y761747*
X972942Y762184*
X971919*
X981806D02*
Y756059D01*
Y760872D02*
X981124Y761747D01*
X980442Y762184*
X979419*
X978738Y761747*
X978056Y760872*
X977715Y759559*
Y758684*
X978056Y757372*
X978738Y756497*
X979419Y756059*
X980442*
X981124Y756497*
X981806Y757372*
X984874Y762184D02*
Y756059D01*
Y759559D02*
X985215Y760872D01*
X985897Y761747*
X986579Y762184*
X987601*
X994760Y765247D02*
Y756059D01*
Y760872D02*
X994079Y761747D01*
X993397Y762184*
X992374*
X991692Y761747*
X991010Y760872*
X990669Y759559*
Y758684*
X991010Y757372*
X991692Y756497*
X992374Y756059*
X993397*
X994079Y756497*
X994760Y757372*
X1005669Y765247D02*
Y756059D01*
Y765247D02*
X1008056D01*
X1009079Y764809*
X1009760Y763934*
X1010101Y763059*
X1010442Y761747*
Y759559*
X1010101Y758247*
X1009760Y757372*
X1009079Y756497*
X1008056Y756059*
X1005669*
X1013510Y759559D02*
X1017601D01*
Y760434*
X1017260Y761309*
X1016919Y761747*
X1016238Y762184*
X1015215*
X1014533Y761747*
X1013851Y760872*
X1013510Y759559*
Y758684*
X1013851Y757372*
X1014533Y756497*
X1015215Y756059*
X1016238*
X1016919Y756497*
X1017601Y757372*
X1024419Y760872D02*
X1024079Y761747D01*
X1023056Y762184*
X1022033*
X1021010Y761747*
X1020669Y760872*
X1021010Y759997*
X1021692Y759559*
X1023397Y759122*
X1024079Y758684*
X1024419Y757809*
Y757372*
X1024079Y756497*
X1023056Y756059*
X1022033*
X1021010Y756497*
X1020669Y757372*
X1031579Y760872D02*
X1030897Y761747D01*
X1030215Y762184*
X1029192*
X1028510Y761747*
X1027829Y760872*
X1027488Y759559*
Y758684*
X1027829Y757372*
X1028510Y756497*
X1029192Y756059*
X1030215*
X1030897Y756497*
X1031579Y757372*
X1034647Y762184D02*
Y756059D01*
Y759559D02*
X1034988Y760872D01*
X1035669Y761747*
X1036351Y762184*
X1037374*
X1040442Y765247D02*
X1040783Y764809D01*
X1041124Y765247*
X1040783Y765684*
X1040442Y765247*
X1040783Y762184D02*
Y756059D01*
X1044192Y762184D02*
Y752997D01*
Y760872D02*
X1044874Y761747D01*
X1045556Y762184*
X1046579*
X1047260Y761747*
X1047942Y760872*
X1048283Y759559*
Y758684*
X1047942Y757372*
X1047260Y756497*
X1046579Y756059*
X1045556*
X1044874Y756497*
X1044192Y757372*
X1052374Y765247D02*
Y757809D01*
X1052715Y756497*
X1053397Y756059*
X1054079*
X1051351Y762184D02*
X1053738D01*
X1057147Y765247D02*
X1057488Y764809D01*
X1057829Y765247*
X1057488Y765684*
X1057147Y765247*
X1057488Y762184D02*
Y756059D01*
X1062601Y762184D02*
X1061919Y761747D01*
X1061238Y760872*
X1060897Y759559*
Y758684*
X1061238Y757372*
X1061919Y756497*
X1062601Y756059*
X1063624*
X1064306Y756497*
X1064988Y757372*
X1065329Y758684*
Y759559*
X1064988Y760872*
X1064306Y761747*
X1063624Y762184*
X1062601*
X1068397D02*
Y756059D01*
Y760434D02*
X1069419Y761747D01*
X1070101Y762184*
X1071124*
X1071806Y761747*
X1072147Y760434*
Y756059*
X1075556Y762184D02*
X1075215Y761747D01*
X1075556Y761309*
X1075897Y761747*
X1075556Y762184*
Y756934D02*
X1075215Y756497D01*
X1075556Y756059*
X1075897Y756497*
X1075556Y756934*
X962374Y695247D02*
Y686059D01*
Y695247D02*
X965442D01*
X966465Y694809*
X966806Y694372*
X967147Y693497*
Y692184*
X966806Y691309*
X966465Y690872*
X965442Y690434*
X962374*
X974306Y692184D02*
Y686059D01*
Y690872D02*
X973624Y691747D01*
X972942Y692184*
X971919*
X971238Y691747*
X970556Y690872*
X970215Y689559*
Y688684*
X970556Y687372*
X971238Y686497*
X971919Y686059*
X972942*
X973624Y686497*
X974306Y687372*
X977374Y692184D02*
Y686059D01*
Y689559D02*
X977715Y690872D01*
X978397Y691747*
X979079Y692184*
X980101*
X984192Y695247D02*
Y687809D01*
X984533Y686497*
X985215Y686059*
X985897*
X983169Y692184D02*
X985556D01*
X996806Y695247D02*
Y686059D01*
Y695247D02*
X1001579Y686059D01*
Y695247D02*
Y686059D01*
X1006351Y692184D02*
X1005669Y691747D01*
X1004988Y690872*
X1004647Y689559*
Y688684*
X1004988Y687372*
X1005669Y686497*
X1006351Y686059*
X1007374*
X1008056Y686497*
X1008738Y687372*
X1009079Y688684*
Y689559*
X1008738Y690872*
X1008056Y691747*
X1007374Y692184*
X1006351*
X1012488D02*
X1012147Y691747D01*
X1012488Y691309*
X1012829Y691747*
X1012488Y692184*
Y686934D02*
X1012147Y686497D01*
X1012488Y686059*
X1012829Y686497*
X1012488Y686934*
X1262374Y695247D02*
Y686059D01*
Y695247D02*
X1265442D01*
X1266465Y694809*
X1266806Y694372*
X1267147Y693497*
Y692622*
X1266806Y691747*
X1266465Y691309*
X1265442Y690872*
X1262374*
X1264760D02*
X1267147Y686059D01*
X1270215Y689559D02*
X1274306D01*
Y690434*
X1273965Y691309*
X1273624Y691747*
X1272942Y692184*
X1271919*
X1271238Y691747*
X1270556Y690872*
X1270215Y689559*
Y688684*
X1270556Y687372*
X1271238Y686497*
X1271919Y686059*
X1272942*
X1273624Y686497*
X1274306Y687372*
X1277374Y692184D02*
X1279419Y686059D01*
X1281465Y692184D02*
X1279419Y686059D01*
X1284533Y695247D02*
X1284874Y694809D01*
X1285215Y695247*
X1284874Y695684*
X1284533Y695247*
X1284874Y692184D02*
Y686059D01*
X1292033Y690872D02*
X1291692Y691747D01*
X1290669Y692184*
X1289647*
X1288624Y691747*
X1288283Y690872*
X1288624Y689997*
X1289306Y689559*
X1291010Y689122*
X1291692Y688684*
X1292033Y687809*
Y687372*
X1291692Y686497*
X1290669Y686059*
X1289647*
X1288624Y686497*
X1288283Y687372*
X1295101Y695247D02*
X1295442Y694809D01*
X1295783Y695247*
X1295442Y695684*
X1295101Y695247*
X1295442Y692184D02*
Y686059D01*
X1300556Y692184D02*
X1299874Y691747D01*
X1299192Y690872*
X1298851Y689559*
Y688684*
X1299192Y687372*
X1299874Y686497*
X1300556Y686059*
X1301579*
X1302260Y686497*
X1302942Y687372*
X1303283Y688684*
Y689559*
X1302942Y690872*
X1302260Y691747*
X1301579Y692184*
X1300556*
X1306351D02*
Y686059D01*
Y690434D02*
X1307374Y691747D01*
X1308056Y692184*
X1309079*
X1309760Y691747*
X1310101Y690434*
Y686059*
X1313510Y692184D02*
X1313169Y691747D01*
X1313510Y691309*
X1313851Y691747*
X1313510Y692184*
Y686934D02*
X1313169Y686497D01*
X1313510Y686059*
X1313851Y686497*
X1313510Y686934*
X1057374Y676403D02*
X1065556D01*
X1351647Y683418D02*
X1347101Y675106D01*
X1353919*
X1351647Y683418D02*
Y670950D01*
X1141419Y795606D02*
Y783137D01*
X1146874*
X1150965Y787887D02*
X1156419D01*
Y789075*
X1155965Y790262*
X1155510Y790856*
X1154601Y791450*
X1153238*
X1152329Y790856*
X1151419Y789668*
X1150965Y787887*
Y786700*
X1151419Y784918*
X1152329Y783731*
X1153238Y783137*
X1154601*
X1155510Y783731*
X1156419Y784918*
X1160510Y791450D02*
X1163238Y783137D01*
X1165965Y791450D02*
X1163238Y783137D01*
X1170056Y787887D02*
X1175510D01*
Y789075*
X1175056Y790262*
X1174601Y790856*
X1173692Y791450*
X1172329*
X1171419Y790856*
X1170510Y789668*
X1170056Y787887*
Y786700*
X1170510Y784918*
X1171419Y783731*
X1172329Y783137*
X1173692*
X1174601Y783731*
X1175510Y784918*
X1179601Y795606D02*
Y783137D01*
X1194147Y795606D02*
Y783137D01*
Y795606D02*
X1198238D01*
X1199601Y795012*
X1200056Y794418*
X1200510Y793231*
Y792043*
X1200056Y790856*
X1199601Y790262*
X1198238Y789668*
X1194147*
X1197329D02*
X1200510Y783137D01*
X1204601Y795606D02*
Y783137D01*
Y795606D02*
X1210510D01*
X1204601Y789668D02*
X1208238D01*
X1098919Y745606D02*
Y733137D01*
X1104374*
X1108465Y737887D02*
X1113919D01*
Y739075*
X1113465Y740262*
X1113010Y740856*
X1112101Y741450*
X1110738*
X1109829Y740856*
X1108919Y739668*
X1108465Y737887*
Y736700*
X1108919Y734918*
X1109829Y733731*
X1110738Y733137*
X1112101*
X1113010Y733731*
X1113919Y734918*
X1118010Y741450D02*
X1120738Y733137D01*
X1123465Y741450D02*
X1120738Y733137D01*
X1127556Y737887D02*
X1133010D01*
Y739075*
X1132556Y740262*
X1132101Y740856*
X1131192Y741450*
X1129829*
X1128919Y740856*
X1128010Y739668*
X1127556Y737887*
Y736700*
X1128010Y734918*
X1128919Y733731*
X1129829Y733137*
X1131192*
X1132101Y733731*
X1133010Y734918*
X1137101Y745606D02*
Y733137D01*
X1158010Y743825D02*
X1157101Y745012D01*
X1155738Y745606*
X1153919*
X1152556Y745012*
X1151647Y743825*
Y742637*
X1152101Y741450*
X1152556Y740856*
X1153465Y740262*
X1156192Y739075*
X1157101Y738481*
X1157556Y737887*
X1158010Y736700*
Y734918*
X1157101Y733731*
X1155738Y733137*
X1153919*
X1152556Y733731*
X1151647Y734918*
X1162101Y745606D02*
Y733137D01*
Y739075D02*
X1163465Y740856D01*
X1164374Y741450*
X1165738*
X1166647Y740856*
X1167101Y739075*
Y733137*
X1171192Y745606D02*
X1171647Y745012D01*
X1172101Y745606*
X1171647Y746200*
X1171192Y745606*
X1171647Y741450D02*
Y733137D01*
X1176192Y737887D02*
X1181647D01*
Y739075*
X1181192Y740262*
X1180738Y740856*
X1179829Y741450*
X1178465*
X1177556Y740856*
X1176647Y739668*
X1176192Y737887*
Y736700*
X1176647Y734918*
X1177556Y733731*
X1178465Y733137*
X1179829*
X1180738Y733731*
X1181647Y734918*
X1185738Y745606D02*
Y733137D01*
X1195283Y745606D02*
Y733137D01*
Y739668D02*
X1194374Y740856D01*
X1193465Y741450*
X1192101*
X1191192Y740856*
X1190283Y739668*
X1189829Y737887*
Y736700*
X1190283Y734918*
X1191192Y733731*
X1192101Y733137*
X1193465*
X1194374Y733731*
X1195283Y734918*
X1209829Y745606D02*
Y733137D01*
Y745606D02*
X1213919D01*
X1215283Y745012*
X1215738Y744418*
X1216192Y743231*
Y742043*
X1215738Y740856*
X1215283Y740262*
X1213919Y739668*
X1209829D02*
X1213919D01*
X1215283Y739075*
X1215738Y738481*
X1216192Y737293*
Y735512*
X1215738Y734325*
X1215283Y733731*
X1213919Y733137*
X1209829*
X1222556Y741450D02*
X1221647Y740856D01*
X1220738Y739668*
X1220283Y737887*
Y736700*
X1220738Y734918*
X1221647Y733731*
X1222556Y733137*
X1223919*
X1224829Y733731*
X1225738Y734918*
X1226192Y736700*
Y737887*
X1225738Y739668*
X1224829Y740856*
X1223919Y741450*
X1222556*
X1235738D02*
Y733137D01*
Y739668D02*
X1234829Y740856D01*
X1233919Y741450*
X1232556*
X1231647Y740856*
X1230738Y739668*
X1230283Y737887*
Y736700*
X1230738Y734918*
X1231647Y733731*
X1232556Y733137*
X1233919*
X1234829Y733731*
X1235738Y734918*
X1239829Y741450D02*
Y733137D01*
Y737887D02*
X1240283Y739668D01*
X1241192Y740856*
X1242101Y741450*
X1243465*
X1253010Y745606D02*
Y733137D01*
Y739668D02*
X1252101Y740856D01*
X1251192Y741450*
X1249829*
X1248919Y740856*
X1248010Y739668*
X1247556Y737887*
Y736700*
X1248010Y734918*
X1248919Y733731*
X1249829Y733137*
X1251192*
X1252101Y733731*
X1253010Y734918*
X680101Y820247D02*
X677374Y811059D01*
X680101Y820247D02*
X682829Y811059D01*
X678397Y814122D02*
X681806D01*
X685897Y817184D02*
Y811059D01*
Y814559D02*
X686238Y815872D01*
X686919Y816747*
X687601Y817184*
X688624*
X692715Y820247D02*
Y812809D01*
X693056Y811497*
X693738Y811059*
X694419*
X691692Y817184D02*
X694079D01*
X697488D02*
X698851Y811059D01*
X700215Y817184D02*
X698851Y811059D01*
X700215Y817184D02*
X701579Y811059D01*
X702942Y817184D02*
X701579Y811059D01*
X707715Y817184D02*
X707033Y816747D01*
X706351Y815872*
X706010Y814559*
Y813684*
X706351Y812372*
X707033Y811497*
X707715Y811059*
X708738*
X709419Y811497*
X710101Y812372*
X710442Y813684*
Y814559*
X710101Y815872*
X709419Y816747*
X708738Y817184*
X707715*
X713510D02*
Y811059D01*
Y814559D02*
X713851Y815872D01*
X714533Y816747*
X715215Y817184*
X716238*
X719306Y820247D02*
Y811059D01*
X722715Y817184D02*
X719306Y812809D01*
X720669Y814559D02*
X723056Y811059D01*
X733965Y820247D02*
Y811059D01*
Y820247D02*
X736351D01*
X737374Y819809*
X738056Y818934*
X738397Y818059*
X738738Y816747*
Y814559*
X738397Y813247*
X738056Y812372*
X737374Y811497*
X736351Y811059*
X733965*
X741806Y814559D02*
X745897D01*
Y815434*
X745556Y816309*
X745215Y816747*
X744533Y817184*
X743510*
X742829Y816747*
X742147Y815872*
X741806Y814559*
Y813684*
X742147Y812372*
X742829Y811497*
X743510Y811059*
X744533*
X745215Y811497*
X745897Y812372*
X752715Y815872D02*
X752374Y816747D01*
X751351Y817184*
X750329*
X749306Y816747*
X748965Y815872*
X749306Y814997*
X749988Y814559*
X751692Y814122*
X752374Y813684*
X752715Y812809*
Y812372*
X752374Y811497*
X751351Y811059*
X750329*
X749306Y811497*
X748965Y812372*
X755783Y820247D02*
X756124Y819809D01*
X756465Y820247*
X756124Y820684*
X755783Y820247*
X756124Y817184D02*
Y811059D01*
X763624Y817184D02*
Y810184D01*
X763283Y808872*
X762942Y808434*
X762260Y807997*
X761238*
X760556Y808434*
X763624Y815872D02*
X762942Y816747D01*
X762260Y817184*
X761238*
X760556Y816747*
X759874Y815872*
X759533Y814559*
Y813684*
X759874Y812372*
X760556Y811497*
X761238Y811059*
X762260*
X762942Y811497*
X763624Y812372*
X766692Y817184D02*
Y811059D01*
Y815434D02*
X767715Y816747D01*
X768397Y817184*
X769419*
X770101Y816747*
X770442Y815434*
Y811059*
X773510Y814559D02*
X777601D01*
Y815434*
X777260Y816309*
X776919Y816747*
X776238Y817184*
X775215*
X774533Y816747*
X773851Y815872*
X773510Y814559*
Y813684*
X773851Y812372*
X774533Y811497*
X775215Y811059*
X776238*
X776919Y811497*
X777601Y812372*
X784760Y820247D02*
Y811059D01*
Y815872D02*
X784079Y816747D01*
X783397Y817184*
X782374*
X781692Y816747*
X781010Y815872*
X780669Y814559*
Y813684*
X781010Y812372*
X781692Y811497*
X782374Y811059*
X783397*
X784079Y811497*
X784760Y812372*
X795669Y820247D02*
Y811059D01*
Y820247D02*
X798738D01*
X799760Y819809*
X800101Y819372*
X800442Y818497*
Y817622*
X800101Y816747*
X799760Y816309*
X798738Y815872*
X795669D02*
X798738D01*
X799760Y815434*
X800101Y814997*
X800442Y814122*
Y812809*
X800101Y811934*
X799760Y811497*
X798738Y811059*
X795669*
X803851Y817184D02*
X805897Y811059D01*
X807942Y817184D02*
X805897Y811059D01*
X805215Y809309*
X804533Y808434*
X803851Y807997*
X803510*
X811351Y817184D02*
X811010Y816747D01*
X811351Y816309*
X811692Y816747*
X811351Y817184*
Y811934D02*
X811010Y811497D01*
X811351Y811059*
X811692Y811497*
X811351Y811934*
X746306Y692950D02*
Y687043D01*
Y692950D02*
X748351D01*
X749033Y692668*
X749260Y692387*
X749488Y691825*
Y690981*
X749260Y690418*
X749033Y690137*
X748351Y689856*
X746306*
X751760Y687606D02*
X751533Y687325D01*
X751760Y687043*
X751988Y687325*
X751760Y687606*
X755397Y692950D02*
X754942Y692668D01*
X754488Y692106*
X754260Y691543*
X754033Y690700*
Y689293*
X754260Y688450*
X754488Y687887*
X754942Y687325*
X755397Y687043*
X756306*
X756760Y687325*
X757215Y687887*
X757442Y688450*
X757669Y689293*
Y690700*
X757442Y691543*
X757215Y692106*
X756760Y692668*
X756306Y692950*
X755397*
X759942Y687606D02*
X759715Y687325D01*
X759942Y687043*
X760169Y687325*
X759942Y687606*
X767442Y692950D02*
Y687043D01*
Y692950D02*
X769488D01*
X770169Y692668*
X770397Y692387*
X770624Y691825*
Y691262*
X770397Y690700*
X770169Y690418*
X769488Y690137*
X767442D02*
X769488D01*
X770169Y689856*
X770397Y689575*
X770624Y689012*
Y688168*
X770397Y687606*
X770169Y687325*
X769488Y687043*
X767442*
X773806Y690981D02*
X773351Y690700D01*
X772897Y690137*
X772669Y689293*
Y688731*
X772897Y687887*
X773351Y687325*
X773806Y687043*
X774488*
X774942Y687325*
X775397Y687887*
X775624Y688731*
Y689293*
X775397Y690137*
X774942Y690700*
X774488Y690981*
X773806*
X777669D02*
X780169Y687043D01*
Y690981D02*
X777669Y687043D01*
X790624Y692950D02*
X788351Y687043D01*
X787442Y692950D02*
X790624D01*
X792897Y691543D02*
Y691825D01*
X793124Y692387*
X793351Y692668*
X793806Y692950*
X794715*
X795169Y692668*
X795397Y692387*
X795624Y691825*
Y691262*
X795397Y690700*
X794942Y689856*
X792669Y687043*
X795851*
X808351Y692950D02*
Y687043D01*
Y692950D02*
X810397D01*
X811079Y692668*
X811306Y692387*
X811533Y691825*
Y690981*
X811306Y690418*
X811079Y690137*
X810397Y689856*
X808351*
X816306Y690981D02*
Y687043D01*
Y690137D02*
X815851Y690700D01*
X815397Y690981*
X814715*
X814260Y690700*
X813806Y690137*
X813579Y689293*
Y688731*
X813806Y687887*
X814260Y687325*
X814715Y687043*
X815397*
X815851Y687325*
X816306Y687887*
X820851Y690137D02*
X820624Y690700D01*
X819942Y690981*
X819260*
X818579Y690700*
X818351Y690137*
X818579Y689575*
X819033Y689293*
X820169Y689012*
X820624Y688731*
X820851Y688168*
Y687887*
X820624Y687325*
X819942Y687043*
X819260*
X818579Y687325*
X818351Y687887*
X825624Y690137D02*
X825169Y690700D01*
X824715Y690981*
X824033*
X823579Y690700*
X823124Y690137*
X822897Y689293*
Y688731*
X823124Y687887*
X823579Y687325*
X824033Y687043*
X824715*
X825169Y687325*
X825624Y687887*
X828806Y690981D02*
X828351Y690700D01*
X827897Y690137*
X827669Y689293*
Y688731*
X827897Y687887*
X828351Y687325*
X828806Y687043*
X829488*
X829942Y687325*
X830397Y687887*
X830624Y688731*
Y689293*
X830397Y690137*
X829942Y690700*
X829488Y690981*
X828806*
X835397D02*
Y687043D01*
Y690137D02*
X834942Y690700D01*
X834488Y690981*
X833806*
X833351Y690700*
X832897Y690137*
X832669Y689293*
Y688731*
X832897Y687887*
X833351Y687325*
X833806Y687043*
X834488*
X834942Y687325*
X835397Y687887*
X840169Y690981D02*
Y686481D01*
X839942Y685637*
X839715Y685356*
X839260Y685075*
X838579*
X838124Y685356*
X840169Y690137D02*
X839715Y690700D01*
X839260Y690981*
X838579*
X838124Y690700*
X837669Y690137*
X837442Y689293*
Y688731*
X837669Y687887*
X838124Y687325*
X838579Y687043*
X839260*
X839715Y687325*
X840169Y687887*
X842669Y687325D02*
X842442Y687043D01*
X842215Y687325*
X842442Y687606*
X842669Y687325*
Y686762*
X842442Y686200*
X842215Y685918*
X849942Y692950D02*
Y687043D01*
Y692950D02*
X851988D01*
X852669Y692668*
X852897Y692387*
X853124Y691825*
Y691262*
X852897Y690700*
X852669Y690418*
X851988Y690137*
X849942*
X851533D02*
X853124Y687043D01*
X855169Y692950D02*
Y687043D01*
X863806Y692950D02*
X863124Y692668D01*
X862669Y691825*
X862442Y690418*
Y689575*
X862669Y688168*
X863124Y687325*
X863806Y687043*
X864260*
X864942Y687325*
X865397Y688168*
X865624Y689575*
Y690418*
X865397Y691825*
X864942Y692668*
X864260Y692950*
X863806*
X867897Y691543D02*
Y691825D01*
X868124Y692387*
X868351Y692668*
X868806Y692950*
X869715*
X870169Y692668*
X870397Y692387*
X870624Y691825*
Y691262*
X870397Y690700*
X869942Y689856*
X867669Y687043*
X870851*
X874033Y692950D02*
X873351Y692668D01*
X873124Y692106*
Y691543*
X873351Y690981*
X873806Y690700*
X874715Y690418*
X875397Y690137*
X875851Y689575*
X876079Y689012*
Y688168*
X875851Y687606*
X875624Y687325*
X874942Y687043*
X874033*
X873351Y687325*
X873124Y687606*
X872897Y688168*
Y689012*
X873124Y689575*
X873579Y690137*
X874260Y690418*
X875169Y690700*
X875624Y690981*
X875851Y691543*
Y692106*
X875624Y692668*
X874942Y692950*
X874033*
X881079D02*
X878806D01*
X878579Y690418*
X878806Y690700*
X879488Y690981*
X880169*
X880851Y690700*
X881306Y690137*
X881533Y689293*
X881306Y688731*
X881079Y687887*
X880624Y687325*
X879942Y687043*
X879260*
X878579Y687325*
X878351Y687606*
X878124Y688168*
X886533Y690981D02*
X886306Y690137D01*
X885851Y689575*
X885169Y689293*
X884942*
X884260Y689575*
X883806Y690137*
X883579Y690981*
Y691262*
X883806Y692106*
X884260Y692668*
X884942Y692950*
X885169*
X885851Y692668*
X886306Y692106*
X886533Y690981*
Y689575*
X886306Y688168*
X885851Y687325*
X885169Y687043*
X884715*
X884033Y687325*
X883806Y687887*
X724715Y679075D02*
X724260Y678512D01*
X723806Y677668*
X723351Y676543*
X723124Y675137*
Y674012*
X723351Y672606*
X723806Y671481*
X724260Y670637*
X724715Y670075*
X726760Y677950D02*
X728579Y672043D01*
X730397Y677950D02*
X728579Y672043D01*
X732442Y679075D02*
X732897Y678512D01*
X733351Y677668*
X733806Y676543*
X734033Y675137*
Y674012*
X733806Y672606*
X733351Y671481*
X732897Y670637*
X732442Y670075*
X737669Y679075D02*
X737215Y678512D01*
X736760Y677668*
X736306Y676543*
X736079Y675137*
Y674012*
X736306Y672606*
X736760Y671481*
X737215Y670637*
X737669Y670075*
X741988Y677950D02*
X739715Y674012D01*
X743124*
X741988Y677950D02*
Y672043D01*
X746533Y677950D02*
X745851Y677668D01*
X745397Y676825*
X745169Y675418*
Y674575*
X745397Y673168*
X745851Y672325*
X746533Y672043*
X746988*
X747669Y672325*
X748124Y673168*
X748351Y674575*
Y675418*
X748124Y676825*
X747669Y677668*
X746988Y677950*
X746533*
X750397Y676825D02*
X750851Y677106D01*
X751533Y677950*
Y672043*
X753579Y679075D02*
X754033Y678512D01*
X754488Y677668*
X754942Y676543*
X755169Y675137*
Y674012*
X754942Y672606*
X754488Y671481*
X754033Y670637*
X753579Y670075*
X765397Y677950D02*
X763124D01*
X762897Y675418*
X763124Y675700*
X763806Y675981*
X764488*
X765169Y675700*
X765624Y675137*
X765851Y674293*
X765624Y673731*
X765397Y672887*
X764942Y672325*
X764260Y672043*
X763579*
X762897Y672325*
X762669Y672606*
X762442Y673168*
X770624Y677106D02*
X770397Y677668D01*
X769715Y677950*
X769260*
X768579Y677668*
X768124Y676825*
X767897Y675418*
Y674012*
X768124Y672887*
X768579Y672325*
X769260Y672043*
X769488*
X770169Y672325*
X770624Y672887*
X770851Y673731*
Y674012*
X770624Y674856*
X770169Y675418*
X769488Y675700*
X769260*
X768579Y675418*
X768124Y674856*
X767897Y674012*
X774033Y677950D02*
X773351Y677668D01*
X773124Y677106*
Y676543*
X773351Y675981*
X773806Y675700*
X774715Y675418*
X775397Y675137*
X775851Y674575*
X776079Y674012*
Y673168*
X775851Y672606*
X775624Y672325*
X774942Y672043*
X774033*
X773351Y672325*
X773124Y672606*
X772897Y673168*
Y674012*
X773124Y674575*
X773579Y675137*
X774260Y675418*
X775169Y675700*
X775624Y675981*
X775851Y676543*
Y677106*
X775624Y677668*
X774942Y677950*
X774033*
X783351Y674575D02*
X787442D01*
X795169Y677950D02*
X797669D01*
X796306Y675700*
X796988*
X797442Y675418*
X797669Y675137*
X797897Y674293*
Y673731*
X797669Y672887*
X797215Y672325*
X796533Y672043*
X795851*
X795169Y672325*
X794942Y672606*
X794715Y673168*
X802215Y677950D02*
X799942Y674012D01*
X803351*
X802215Y677950D02*
Y672043D01*
X805397Y676825D02*
X805851Y677106D01*
X806533Y677950*
Y672043*
X811533Y675981D02*
X811306Y675137D01*
X810851Y674575*
X810169Y674293*
X809942*
X809260Y674575*
X808806Y675137*
X808579Y675981*
Y676262*
X808806Y677106*
X809260Y677668*
X809942Y677950*
X810169*
X810851Y677668*
X811306Y677106*
X811533Y675981*
Y674575*
X811306Y673168*
X810851Y672325*
X810169Y672043*
X809715*
X809033Y672325*
X808806Y672887*
X817669Y679075D02*
X813579Y670075D01*
X821306Y679075D02*
X820851Y678512D01*
X820397Y677668*
X819942Y676543*
X819715Y675137*
Y674012*
X819942Y672606*
X820397Y671481*
X820851Y670637*
X821306Y670075*
X823351Y677950D02*
Y672043D01*
Y677950D02*
X826306D01*
X823351Y675137D02*
X825169D01*
X828351Y679075D02*
X828806Y678512D01*
X829260Y677668*
X829715Y676543*
X829942Y675137*
Y674012*
X829715Y672606*
X829260Y671481*
X828806Y670637*
X828351Y670075*
X833579Y679075D02*
X833124Y678512D01*
X832669Y677668*
X832215Y676543*
X831988Y675137*
Y674012*
X832215Y672606*
X832669Y671481*
X833124Y670637*
X833579Y670075*
X837897Y677950D02*
X835624Y674012D01*
X839033*
X837897Y677950D02*
Y672043D01*
X842442Y677950D02*
X841760Y677668D01*
X841306Y676825*
X841079Y675418*
Y674575*
X841306Y673168*
X841760Y672325*
X842442Y672043*
X842897*
X843579Y672325*
X844033Y673168*
X844260Y674575*
Y675418*
X844033Y676825*
X843579Y677668*
X842897Y677950*
X842442*
X846306Y676825D02*
X846760Y677106D01*
X847442Y677950*
Y672043*
X849488Y679075D02*
X849942Y678512D01*
X850397Y677668*
X850851Y676543*
X851079Y675137*
Y674012*
X850851Y672606*
X850397Y671481*
X849942Y670637*
X849488Y670075*
X861306Y677950D02*
X859033D01*
X858806Y675418*
X859033Y675700*
X859715Y675981*
X860397*
X861079Y675700*
X861533Y675137*
X861760Y674293*
X861533Y673731*
X861306Y672887*
X860851Y672325*
X860169Y672043*
X859488*
X858806Y672325*
X858579Y672606*
X858351Y673168*
X866533Y677106D02*
X866306Y677668D01*
X865624Y677950*
X865169*
X864488Y677668*
X864033Y676825*
X863806Y675418*
Y674012*
X864033Y672887*
X864488Y672325*
X865169Y672043*
X865397*
X866079Y672325*
X866533Y672887*
X866760Y673731*
Y674012*
X866533Y674856*
X866079Y675418*
X865397Y675700*
X865169*
X864488Y675418*
X864033Y674856*
X863806Y674012*
X869942Y677950D02*
X869260Y677668D01*
X869033Y677106*
Y676543*
X869260Y675981*
X869715Y675700*
X870624Y675418*
X871306Y675137*
X871760Y674575*
X871988Y674012*
Y673168*
X871760Y672606*
X871533Y672325*
X870851Y672043*
X869942*
X869260Y672325*
X869033Y672606*
X868806Y673168*
Y674012*
X869033Y674575*
X869488Y675137*
X870169Y675418*
X871079Y675700*
X871533Y675981*
X871760Y676543*
Y677106*
X871533Y677668*
X870851Y677950*
X869942*
X879260Y674575D02*
X883351D01*
X893579Y677950D02*
X891306D01*
X891079Y675418*
X891306Y675700*
X891988Y675981*
X892669*
X893351Y675700*
X893806Y675137*
X894033Y674293*
X893806Y673731*
X893579Y672887*
X893124Y672325*
X892442Y672043*
X891760*
X891079Y672325*
X890851Y672606*
X890624Y673168*
X899033Y675981D02*
X898806Y675137D01*
X898351Y674575*
X897669Y674293*
X897442*
X896760Y674575*
X896306Y675137*
X896079Y675981*
Y676262*
X896306Y677106*
X896760Y677668*
X897442Y677950*
X897669*
X898351Y677668*
X898806Y677106*
X899033Y675981*
Y674575*
X898806Y673168*
X898351Y672325*
X897669Y672043*
X897215*
X896533Y672325*
X896306Y672887*
X904260Y677950D02*
X901988Y672043D01*
X901079Y677950D02*
X904260D01*
X908579D02*
X906306Y674012D01*
X909715*
X908579Y677950D02*
Y672043D01*
X681760Y707090D02*
X681419Y707965D01*
X680738Y708840*
X680056Y709278*
X678692*
X678010Y708840*
X677329Y707965*
X676988Y707090*
X676647Y705778*
Y703590*
X676988Y702278*
X677329Y701403*
X678010Y700528*
X678692Y700090*
X680056*
X680738Y700528*
X681419Y701403*
X681760Y702278*
X684829Y709278D02*
Y700090D01*
X687897Y703590D02*
X691988D01*
Y704465*
X691647Y705340*
X691306Y705778*
X690624Y706215*
X689601*
X688919Y705778*
X688238Y704903*
X687897Y703590*
Y702715*
X688238Y701403*
X688919Y700528*
X689601Y700090*
X690624*
X691306Y700528*
X691988Y701403*
X699147Y706215D02*
Y700090D01*
Y704903D02*
X698465Y705778D01*
X697783Y706215*
X696760*
X696079Y705778*
X695397Y704903*
X695056Y703590*
Y702715*
X695397Y701403*
X696079Y700528*
X696760Y700090*
X697783*
X698465Y700528*
X699147Y701403*
X702215Y706215D02*
Y700090D01*
Y703590D02*
X702556Y704903D01*
X703238Y705778*
X703919Y706215*
X704942*
X715851Y709278D02*
Y700090D01*
Y709278D02*
X718919D01*
X719942Y708840*
X720283Y708403*
X720624Y707528*
Y706653*
X720283Y705778*
X719942Y705340*
X718919Y704903*
X715851*
X718238D02*
X720624Y700090D01*
X723692Y709278D02*
X724033Y708840D01*
X724374Y709278*
X724033Y709715*
X723692Y709278*
X724033Y706215D02*
Y700090D01*
X727442Y706215D02*
X729488Y700090D01*
X731533Y706215D02*
X729488Y700090D01*
X734601Y703590D02*
X738692D01*
Y704465*
X738351Y705340*
X738010Y705778*
X737329Y706215*
X736306*
X735624Y705778*
X734942Y704903*
X734601Y703590*
Y702715*
X734942Y701403*
X735624Y700528*
X736306Y700090*
X737329*
X738010Y700528*
X738692Y701403*
X741760Y706215D02*
Y700090D01*
Y703590D02*
X742101Y704903D01*
X742783Y705778*
X743465Y706215*
X744488*
X757783Y709278D02*
Y700090D01*
X755397Y709278D02*
X760169D01*
X763238Y703590D02*
X767329D01*
Y704465*
X766988Y705340*
X766647Y705778*
X765965Y706215*
X764942*
X764260Y705778*
X763579Y704903*
X763238Y703590*
Y702715*
X763579Y701403*
X764260Y700528*
X764942Y700090*
X765965*
X766647Y700528*
X767329Y701403*
X774488Y704903D02*
X773806Y705778D01*
X773124Y706215*
X772101*
X771419Y705778*
X770738Y704903*
X770397Y703590*
Y702715*
X770738Y701403*
X771419Y700528*
X772101Y700090*
X773124*
X773806Y700528*
X774488Y701403*
X777556Y709278D02*
Y700090D01*
Y704465D02*
X778579Y705778D01*
X779260Y706215*
X780283*
X780965Y705778*
X781306Y704465*
Y700090*
X784374Y706215D02*
Y700090D01*
Y704465D02*
X785397Y705778D01*
X786079Y706215*
X787101*
X787783Y705778*
X788124Y704465*
Y700090*
X791192Y709278D02*
X791533Y708840D01*
X791874Y709278*
X791533Y709715*
X791192Y709278*
X791533Y706215D02*
Y700090D01*
X799033Y704903D02*
X798351Y705778D01*
X797669Y706215*
X796647*
X795965Y705778*
X795283Y704903*
X794942Y703590*
Y702715*
X795283Y701403*
X795965Y700528*
X796647Y700090*
X797669*
X798351Y700528*
X799033Y701403*
X806192Y706215D02*
Y700090D01*
Y704903D02*
X805510Y705778D01*
X804829Y706215*
X803806*
X803124Y705778*
X802442Y704903*
X802101Y703590*
Y702715*
X802442Y701403*
X803124Y700528*
X803806Y700090*
X804829*
X805510Y700528*
X806192Y701403*
X809260Y709278D02*
Y700090D01*
X824942Y707965D02*
X824260Y708840D01*
X823238Y709278*
X821874*
X820851Y708840*
X820169Y707965*
Y707090*
X820510Y706215*
X820851Y705778*
X821533Y705340*
X823579Y704465*
X824260Y704028*
X824601Y703590*
X824942Y702715*
Y701403*
X824260Y700528*
X823238Y700090*
X821874*
X820851Y700528*
X820169Y701403*
X828010Y703590D02*
X832101D01*
Y704465*
X831760Y705340*
X831419Y705778*
X830738Y706215*
X829715*
X829033Y705778*
X828351Y704903*
X828010Y703590*
Y702715*
X828351Y701403*
X829033Y700528*
X829715Y700090*
X830738*
X831419Y700528*
X832101Y701403*
X835169Y706215D02*
Y700090D01*
Y703590D02*
X835510Y704903D01*
X836192Y705778*
X836874Y706215*
X837897*
X840965D02*
X843010Y700090D01*
X845056Y706215D02*
X843010Y700090D01*
X848124Y709278D02*
X848465Y708840D01*
X848806Y709278*
X848465Y709715*
X848124Y709278*
X848465Y706215D02*
Y700090D01*
X855965Y704903D02*
X855283Y705778D01*
X854601Y706215*
X853579*
X852897Y705778*
X852215Y704903*
X851874Y703590*
Y702715*
X852215Y701403*
X852897Y700528*
X853579Y700090*
X854601*
X855283Y700528*
X855965Y701403*
X859033Y703590D02*
X863124D01*
Y704465*
X862783Y705340*
X862442Y705778*
X861760Y706215*
X860738*
X860056Y705778*
X859374Y704903*
X859033Y703590*
Y702715*
X859374Y701403*
X860056Y700528*
X860738Y700090*
X861760*
X862442Y700528*
X863124Y701403*
X869942Y704903D02*
X869601Y705778D01*
X868579Y706215*
X867556*
X866533Y705778*
X866192Y704903*
X866533Y704028*
X867215Y703590*
X868919Y703153*
X869601Y702715*
X869942Y701840*
Y701403*
X869601Y700528*
X868579Y700090*
X867556*
X866533Y700528*
X866192Y701403*
X885965Y707090D02*
X885624Y707965D01*
X884942Y708840*
X884260Y709278*
X882897*
X882215Y708840*
X881533Y707965*
X881192Y707090*
X880851Y705778*
Y703590*
X881192Y702278*
X881533Y701403*
X882215Y700528*
X882897Y700090*
X884260*
X884942Y700528*
X885624Y701403*
X885965Y702278*
X890738Y706215D02*
X890056Y705778D01*
X889374Y704903*
X889033Y703590*
Y702715*
X889374Y701403*
X890056Y700528*
X890738Y700090*
X891760*
X892442Y700528*
X893124Y701403*
X893465Y702715*
Y703590*
X893124Y704903*
X892442Y705778*
X891760Y706215*
X890738*
X896533D02*
Y700090D01*
Y703590D02*
X896874Y704903D01*
X897556Y705778*
X898238Y706215*
X899260*
X902329D02*
Y697028D01*
Y704903D02*
X903010Y705778D01*
X903692Y706215*
X904715*
X905397Y705778*
X906079Y704903*
X906419Y703590*
Y702715*
X906079Y701403*
X905397Y700528*
X904715Y700090*
X903692*
X903010Y700528*
X902329Y701403*
X911192Y706215D02*
X910510Y705778D01*
X909829Y704903*
X909488Y703590*
Y702715*
X909829Y701403*
X910510Y700528*
X911192Y700090*
X912215*
X912897Y700528*
X913579Y701403*
X913919Y702715*
Y703590*
X913579Y704903*
X912897Y705778*
X912215Y706215*
X911192*
X916988D02*
Y700090D01*
Y703590D02*
X917329Y704903D01*
X918010Y705778*
X918692Y706215*
X919715*
X926874D02*
Y700090D01*
Y704903D02*
X926192Y705778D01*
X925510Y706215*
X924488*
X923806Y705778*
X923124Y704903*
X922783Y703590*
Y702715*
X923124Y701403*
X923806Y700528*
X924488Y700090*
X925510*
X926192Y700528*
X926874Y701403*
X930965Y709278D02*
Y701840D01*
X931306Y700528*
X931988Y700090*
X932669*
X929942Y706215D02*
X932329D01*
X935738Y709278D02*
X936079Y708840D01*
X936419Y709278*
X936079Y709715*
X935738Y709278*
X936079Y706215D02*
Y700090D01*
X941192Y706215D02*
X940510Y705778D01*
X939829Y704903*
X939488Y703590*
Y702715*
X939829Y701403*
X940510Y700528*
X941192Y700090*
X942215*
X942897Y700528*
X943579Y701403*
X943919Y702715*
Y703590*
X943579Y704903*
X942897Y705778*
X942215Y706215*
X941192*
X946988D02*
Y700090D01*
Y704465D02*
X948010Y705778D01*
X948692Y706215*
X949715*
X950397Y705778*
X950738Y704465*
Y700090*
X680783Y655247D02*
Y648247D01*
X680442Y646934*
X680101Y646497*
X679419Y646059*
X678738*
X678056Y646497*
X677715Y646934*
X677374Y648247*
Y649122*
X685556Y652184D02*
X684874Y651747D01*
X684192Y650872*
X683851Y649559*
Y648684*
X684192Y647372*
X684874Y646497*
X685556Y646059*
X686579*
X687260Y646497*
X687942Y647372*
X688283Y648684*
Y649559*
X687942Y650872*
X687260Y651747*
X686579Y652184*
X685556*
X691351Y655247D02*
Y646059D01*
Y650872D02*
X692033Y651747D01*
X692715Y652184*
X693738*
X694419Y651747*
X695101Y650872*
X695442Y649559*
Y648684*
X695101Y647372*
X694419Y646497*
X693738Y646059*
X692715*
X692033Y646497*
X691351Y647372*
X706351Y655247D02*
Y646059D01*
Y655247D02*
X711124Y646059D01*
Y655247D02*
Y646059D01*
X715897Y652184D02*
X715215Y651747D01*
X714533Y650872*
X714192Y649559*
Y648684*
X714533Y647372*
X715215Y646497*
X715897Y646059*
X716919*
X717601Y646497*
X718283Y647372*
X718624Y648684*
Y649559*
X718283Y650872*
X717601Y651747*
X716919Y652184*
X715897*
X722033D02*
X721692Y651747D01*
X722033Y651309*
X722374Y651747*
X722033Y652184*
Y646934D02*
X721692Y646497D01*
X722033Y646059*
X722374Y646497*
X722033Y646934*
X744829Y650606D02*
Y638137D01*
X750283*
X754374Y650606D02*
Y638137D01*
Y650606D02*
X758465D01*
X759829Y650012*
X760283Y649418*
X760738Y648231*
Y647043*
X760283Y645856*
X759829Y645262*
X758465Y644668*
X754374*
X757556D02*
X760738Y638137D01*
X764829Y650606D02*
Y638137D01*
Y650606D02*
X770738D01*
X764829Y644668D02*
X768465D01*
X775283Y639325D02*
X774829Y638731D01*
X775283Y638137*
X775738Y638731*
X775283Y639325*
X782556Y650606D02*
X781192Y650012D01*
X780283Y648231*
X779829Y645262*
Y643481*
X780283Y640512*
X781192Y638731*
X782556Y638137*
X783465*
X784829Y638731*
X785738Y640512*
X786192Y643481*
Y645262*
X785738Y648231*
X784829Y650012*
X783465Y650606*
X782556*
X793010D02*
X791647Y650012D01*
X790738Y648231*
X790283Y645262*
Y643481*
X790738Y640512*
X791647Y638731*
X793010Y638137*
X793919*
X795283Y638731*
X796192Y640512*
X796647Y643481*
Y645262*
X796192Y648231*
X795283Y650012*
X793919Y650606*
X793010*
X801647D02*
X806647D01*
X803919Y645856*
X805283*
X806192Y645262*
X806647Y644668*
X807101Y642887*
Y641700*
X806647Y639918*
X805738Y638731*
X804374Y638137*
X803010*
X801647Y638731*
X801192Y639325*
X800738Y640512*
X837374Y655247D02*
Y646059D01*
Y655247D02*
X839760D01*
X840783Y654809*
X841465Y653934*
X841806Y653059*
X842147Y651747*
Y649559*
X841806Y648247*
X841465Y647372*
X840783Y646497*
X839760Y646059*
X837374*
X849306Y652184D02*
Y646059D01*
Y650872D02*
X848624Y651747D01*
X847942Y652184*
X846919*
X846238Y651747*
X845556Y650872*
X845215Y649559*
Y648684*
X845556Y647372*
X846238Y646497*
X846919Y646059*
X847942*
X848624Y646497*
X849306Y647372*
X853397Y655247D02*
Y647809D01*
X853738Y646497*
X854419Y646059*
X855101*
X852374Y652184D02*
X854760D01*
X858169Y649559D02*
X862260D01*
Y650434*
X861919Y651309*
X861579Y651747*
X860897Y652184*
X859874*
X859192Y651747*
X858510Y650872*
X858169Y649559*
Y648684*
X858510Y647372*
X859192Y646497*
X859874Y646059*
X860897*
X861579Y646497*
X862260Y647372*
X865669Y652184D02*
X865329Y651747D01*
X865669Y651309*
X866010Y651747*
X865669Y652184*
Y646934D02*
X865329Y646497D01*
X865669Y646059*
X866010Y646497*
X865669Y646934*
X873692Y648231D02*
X874601Y648825D01*
X875965Y650606*
Y638137*
X880510Y647637D02*
Y648231D01*
X880965Y649418*
X881419Y650012*
X882329Y650606*
X884147*
X885056Y650012*
X885510Y649418*
X885965Y648231*
Y647043*
X885510Y645856*
X884601Y644075*
X880056Y638137*
X886419*
X898692Y652981D02*
X890510Y633981D01*
X905510Y650606D02*
X904147Y650012D01*
X903238Y648231*
X902783Y645262*
Y643481*
X903238Y640512*
X904147Y638731*
X905510Y638137*
X906419*
X907783Y638731*
X908692Y640512*
X909147Y643481*
Y645262*
X908692Y648231*
X907783Y650012*
X906419Y650606*
X905510*
X918692Y648825D02*
X918238Y650012D01*
X916874Y650606*
X915965*
X914601Y650012*
X913692Y648231*
X913238Y645262*
Y642293*
X913692Y639918*
X914601Y638731*
X915965Y638137*
X916419*
X917783Y638731*
X918692Y639918*
X919147Y641700*
Y642293*
X918692Y644075*
X917783Y645262*
X916419Y645856*
X915965*
X914601Y645262*
X913692Y644075*
X913238Y642293*
X931419Y652981D02*
X923238Y633981D01*
X935510Y648231D02*
X936419Y648825D01*
X937783Y650606*
Y638137*
X942329Y647637D02*
Y648231D01*
X942783Y649418*
X943238Y650012*
X944147Y650606*
X945965*
X946874Y650012*
X947329Y649418*
X947783Y648231*
Y647043*
X947329Y645856*
X946419Y644075*
X941874Y638137*
X948238*
G54D120*
X988950Y1138500D03*
X994050D03*
X988950Y1134500D03*
X994050D03*
X988950Y1126500D03*
X994050D03*
X988950Y1130500D03*
X994050D03*
X963550Y1059500D03*
X958450D03*
X963550Y1055500D03*
X958450D03*
G54D123*
X1130500Y1093500D03*
G54D124*
X1120500Y1103500D03*
Y1083500D03*
X1140500D03*
Y1103500D03*
G74*
X0Y0D02*
M02*
