%
T1C.012F095S3
X08935Y1005
X08935Y09935
X08935Y1015
X08975Y10095
X0898Y1
X09025Y1008
X09035Y09935
X09055Y1018
X09055Y10125
X09095Y10005
X09115Y10125
X09135Y09935
X09165Y1007
X09175Y10005
X09215Y10155
X09225Y09935
X0925Y1
X0928Y10085
X0931Y1016
X09315Y09935
X09365Y1003
X0938Y1011
X09405Y09935
X0942Y1017
X09455Y10005
X09465Y10115
X09495Y09935
X0954Y1006
X0955Y0999
X09585Y1013
X09595Y09935
X0965Y1001
X0967Y10115
X09695Y09935
X09755Y1001
X0977Y10115
X09795Y09935
X09855Y1001
X09875Y10095
X0989Y09935
X09895Y10165
X09935Y10005
X0995Y10155
X09955Y10075
X0998Y09935
X10085Y09935
X1015Y1018
X1017Y09935
X10265Y09935
X1036Y09935
X1045Y09935
X10545Y09935
X1058Y1006
X1059Y10175
X1064Y10125
X10645Y09935
X1066Y10055
X10735Y09935
X1075Y10095
X10775Y1001
X108Y1015
X10815Y09935
X1084Y10055
X1088Y09935
X1092Y10105
X10955Y10065
X10955Y09935
X1101Y10165
X1105Y09935
X1106Y1007
X1113Y10125
X11145Y09935
X11205Y10075
X1122Y10145
X11235Y09935
X11295Y1016
X1132Y09935
X1135Y10075
X1141Y09935
X11435Y1012
X11465Y0998
X11475Y1003
X11525Y1008
X1156Y10375
X1156Y10265
X1146Y1037
X1146Y10275
X114Y102
X1137Y10375
X1134Y10265
X11285Y1038
X1126Y10315
X11215Y10215
X112Y10325
X1116Y10395
X11135Y1027
X1109Y10205
X11055Y104
X1102Y10225
X1102Y1033
X10985Y10405
X1094Y1033
X10875Y10225
X10855Y10325
X10845Y104
X1083Y10225
X10775Y10325
X10775Y1041
X10755Y10215
X10675Y1024
X10675Y1034
X10645Y10415
X1058Y10265
X1056Y1037
X1052Y10205
X1048Y10305
X10425Y10365
X1042Y1023
X10395Y1043
X10335Y1032
X10315Y10415
X10255Y1036
X10215Y1043
X102Y1031
X1013Y10415
X10095Y1031
X10035Y1039
X0998Y1031
X0995Y1042
X0994Y1031
X09895Y1031
X09895Y10195
X0985Y10375
X09815Y103
X09795Y10365
X0977Y102
X0963Y10205
X09625Y10335
X09605Y1037
X09605Y1041
X09535Y102
X09495Y10285
X0949Y1037
X0949Y1041
X09465Y10235
X0942Y1029
X0941Y1034
X0937Y10235
X09355Y1031
X0933Y10425
X09295Y1031
X09295Y10425
X0926Y10425
X0925Y10235
X0922Y1034
X092Y10405
X09175Y10225
X0916Y10405
X09155Y1024
X09135Y1033
X09035Y1034
X08935Y10245
X08935Y10335
X08935Y1044
X08935Y1063
X08935Y10535
X08975Y10605
X09025Y10675
X0906Y106
X0909Y1046
X091Y106
X0912Y10575
X0913Y10485
X0915Y10655
X0919Y10655
X0931Y1061
X0931Y1051
X0936Y1056
X0941Y1061
X0941Y1051
X0948Y1046
X0954Y10645
X0955Y10555
X0955Y106
X0958Y105
X0958Y1045
X09655Y10435
X0967Y10655
X0968Y1051
X09745Y1046
X09755Y105
X09775Y1063
X09815Y1063
X09885Y105
X0992Y10655
X09935Y105
X1Y105
X1001Y106
X10065Y105
X10135Y105
X10135Y106
X1014Y1068
X102Y1063
X10225Y105
X10265Y106
X1027Y10655
X10325Y105
X1033Y1063
X10395Y106
X1041Y1068
X10415Y105
X1046Y1063
X1047Y10445
X1051Y105
X10515Y10605
X1055Y10665
X1059Y10525
X1059Y1046
X10635Y1058
X10645Y1046
X10675Y10625
X10675Y1053
X10775Y10495
X10775Y1058
X10775Y1068
X1083Y10545
X1086Y1064
X109Y10445
X10915Y1055
X1095Y1064
X1098Y105
X1105Y10635
X11055Y1048
X11055Y1056
X11155Y10515
X1116Y10615
X1121Y1049
X1121Y10445
X1121Y10535
X1121Y10585
X1125Y1065
X1137Y10645
X11385Y1058
X11395Y10505
X1147Y10555
X11475Y10635
X1148Y1045
X1156Y1068
X1156Y1048
X1156Y1058
X1156Y1087
X1156Y10775
X11505Y10915
X1149Y10825
X1149Y10725
X1141Y1072
X11355Y1077
X11345Y107
X1125Y10685
X1125Y1078
X11235Y10725
X11165Y1071
X1116Y109
X11155Y1078
X1107Y10685
X11055Y1089
X11045Y1075
X11025Y10795
X11025Y1084
X1099Y10715
X1097Y1088
X1095Y10815
X10895Y10735
X1087Y1086
X10845Y10795
X10775Y10785
X10765Y1086
X10695Y1086
X10645Y10695
X1064Y1074
X1061Y1092
X10605Y10765
X1058Y1083
X10505Y10725
X10495Y10885
X10445Y10785
X10395Y10855
X10385Y1074
X1034Y1083
X10335Y109
X10275Y10825
X1026Y1073
X10195Y10785
X10185Y10885
X1012Y10835
X10065Y1076
X10045Y10845
X10025Y1093
X1002Y10685
X09975Y1078
X0992Y1093
X09915Y1085
X09895Y1074
X0981Y10705
X0979Y10805
X0978Y10875
X09735Y1075
X097Y1089
X0968Y10815
X0961Y1084
X09605Y1093
X0957Y1073
X0954Y108
X0951Y1077
X0951Y1073
X0948Y10685
X0948Y10905
X0938Y10805
X0937Y10695
X0934Y10905
X0934Y10805
X0926Y10705
X09245Y10815
X092Y10815
X0918Y1088
X0916Y10815
X0899Y10815
X08935Y1082
X08935Y10925
X08935Y1072
X08935Y1116
X08935Y1104
X09Y11095
X09005Y10975
X0907Y1103
X0908Y1114
X0908Y10935
X09135Y1097
X0914Y11125
X0918Y11155
X092Y11065
X0924Y10945
X09245Y1116
X09275Y1108
X09285Y10965
X09315Y11135
X09345Y11005
X09345Y11045
X09405Y1116
X0943Y11005
X0943Y11085
X09475Y1107
X09515Y11115
X0952Y1106
X0952Y1115
X09545Y1118
X0957Y1099
X09595Y1117
X0965Y10985
X0966Y1115
X0966Y1111
X09695Y1104
X0972Y10955
X0975Y1108
X09775Y1104
X0978Y11175
X09805Y1115
X09805Y10955
X0987Y1099
X09985Y1099
X1002Y1105
X10025Y1118
X1009Y11145
X10115Y1095
X1012Y11055
X1017Y1116
X1021Y10985
X10215Y11075
X10255Y10935
X10265Y11175
X10265Y1104
X1038Y1109
X10475Y1109
X1056Y1109
X1064Y1109
X1064Y11125
X1064Y1117
X1066Y1104
X10695Y1104
X10745Y10965
X1077Y1117
X1077Y11125
X1079Y11065
X1082Y1097
X10865Y1099
X10895Y11115
X10925Y11035
X10925Y1118
X11005Y10955
X11025Y11125
X11025Y1102
X11055Y1097
X11055Y11085
X11055Y11165
X11155Y1109
X11155Y10975
X1122Y1094
X1123Y1113
X113Y11045
X11325Y11135
X11385Y1094
X11425Y11125
X1143Y1095
X1149Y1102
X1149Y1116
X1156Y11155
X1156Y1106
X1156Y1097
X1151Y11395
X11465Y1143
X11415Y11345
X1141Y1123
X11375Y11415
X11345Y11305
X11315Y1122
X11275Y11385
X11265Y1127
X11235Y11215
X1121Y1134
X11155Y11275
X11155Y11185
X11155Y11365
X11055Y11245
X11055Y11325
X11025Y1121
X11025Y11385
X11025Y11295
X10925Y11355
X10925Y1143
X10895Y11235
X10895Y1128
X1085Y112
X10845Y11425
X10845Y11255
X1083Y11335
X1078Y1143
X1076Y11355
X10755Y11255
X107Y11305
X10665Y11405
X1064Y11215
X10605Y11285
X1058Y11385
X10535Y11255
X1049Y1142
X1048Y11285
X10435Y11255
X10415Y114
X10345Y1136
X1028Y11265
X10255Y1137
X102Y11255
X1015Y11335
X10125Y11225
X10095Y1143
X1008Y1128
X1003Y11405
X1003Y11245
X09975Y1119
X0997Y11365
X0997Y114
X0997Y11285
X09855Y11365
X09855Y11415
X09855Y11285
X0975Y1141
X0975Y1128
X09685Y11345
X0962Y1141
X0962Y1128
X0951Y1121
X09505Y1129
X09495Y11385
X09495Y1126
X09485Y1119
X09475Y1136
X09475Y1141
X0946Y11225
X09445Y1143
X0942Y11225
X0939Y11305
X09365Y11255
X09365Y11405
X0923Y1126
X09105Y11385
X09105Y11305
X09105Y1122
X0906Y1124
X0901Y1131
X09005Y11215
X09005Y1141
X08935Y11265
X08935Y11365
X08935Y1157
X08935Y1147
X08935Y1167
X0898Y11665
X09035Y11505
X0909Y11445
X0916Y11495
X0925Y11435
X09305Y1163
X09305Y1155
X09335Y1148
X09345Y1167
X09375Y11515
X0938Y11585
X0942Y11575
X0944Y11615
X09495Y11435
X09505Y115
X09505Y11645
X0951Y1154
X0955Y1158
X0955Y1154
X0963Y1161
X0967Y1167
X0968Y1162
X09685Y1152
X0973Y1162
X09765Y1167
X09855Y1157
X0989Y11585
X09945Y11585
X09955Y1166
X09965Y11525
X0997Y1144
X10015Y11575
X10025Y11475
X10075Y11525
X10095Y11655
X10225Y1153
X1028Y11655
X10385Y11655
X10435Y1155
X10495Y11655
X105Y11605
X1054Y11555
X1056Y11455
X1059Y1165
X10645Y1161
X10655Y1152
X1069Y1151
X10735Y11525
X10755Y1161
X1082Y1157
X1082Y11645
X109Y115
X109Y1157
X1095Y1166
X1096Y11485
X10995Y116
X1105Y1148
X1106Y11665
X1113Y11435
X11135Y1151
X11135Y1161
X11205Y11555
X11215Y1165
X11215Y11445
X11265Y1166
X1129Y1149
X1129Y11605
X1136Y11665
X1138Y11575
X1139Y11485
X11465Y1163
X11465Y11535
X11465Y1173
X11465Y1183
X1139Y1176
X1135Y1185
X11295Y1175
X11255Y1185
X11185Y11755
X11145Y1186
X1109Y11785
X11035Y1185
X1101Y11755
X10935Y11835
X1089Y1175
X1083Y11835
X10755Y1169
X10745Y11845
X1069Y11755
X10655Y1179
X1062Y11895
X1058Y11755
X1053Y11805
X1049Y11755
X10425Y1183
X104Y11755
X1033Y11755
X10255Y11815
X10245Y11755
X10165Y11725
X1011Y11845
X10095Y11765
X10035Y11765
X10035Y11695
X10025Y11845
X0989Y1184
X0989Y117
X0985Y11775
X09795Y11845
X0978Y1177
X0978Y1171
X09695Y11855
X0956Y11885
X0953Y11795
X0951Y11725
X09415Y11865
X0939Y1192
X09335Y1186
X09315Y11765
X0929Y1192
X09285Y1181
X09225Y118
X0916Y1191
X09045Y1187
X08935Y1177
X08935Y1187
X08935Y11965
X0904Y11965
X09145Y11965
X09235Y11965
X0933Y11965
X09425Y11965
X09515Y11965
X09605Y11965
X09705Y11965
X09795Y11965
X0989Y11965
X0998Y11965
X10075Y11965
X1017Y11965
X10245Y11965
X10335Y11965
X10425Y11965
X10525Y11965
X1062Y11965
X1071Y11965
X108Y11965
X1089Y11965
X1099Y11965
X1108Y11965
X1118Y11965
X1127Y11965
X11355Y11965
X11465Y11965
T2C.038F197S55
X1Y1
X101Y1
X102Y1
X103Y1
X104Y1
X104Y10125
X105Y1
X105Y10125
X106Y1
X107Y1
X109Y1
X11Y1
X111Y1
X112Y1
X113Y1
X114Y1
X114Y119
X113Y119
X112Y119
X111Y119
X11Y119
X109Y119
X108Y119
X107Y119
X1054Y119
X1044Y119
X1034Y119
X1024Y119
X1014Y119
X1004Y119
X0994Y119
X0984Y119
X0974Y119
X0964Y119
T3C.039F197S55
X0909Y11805
X0913Y11605
X0917Y11805
T4C.059F107S55
X11305Y10935
T5C.063F089S55
X11205Y10835
X11205Y11035
X11405Y10835
X11405Y11035
T6C.0935F066S55
X0903Y11605
X0923Y11605
X0923Y1173
X0903Y1173
T7C.125F035S794
X115181Y101756
X115181Y11278
M30
