*
*
G04 PADS9.1 Build Number: 384028 generated Gerber (RS-274-X) file*
G04 PC Version=2.1*
*
%IN "{LRF003}LevelShield_4.p"*%
*
%MOIN*%
*
%FSLAX35Y35*%
*
*
*
*
G04 PC Standard Apertures*
*
*
G04 Thermal Relief Aperture macro.*
%AMTER*
1,1,$1,0,0*
1,0,$1-$2,0,0*
21,0,$3,$4,0,0,45*
21,0,$3,$4,0,0,135*
%
*
*
G04 Annular Aperture macro.*
%AMANN*
1,1,$1,0,0*
1,0,$2,0,0*
%
*
*
G04 Odd Aperture macro.*
%AMODD*
1,1,$1,0,0*
1,0,$1-0.005,0,0*
%
*
*
G04 PC Custom Aperture Macros*
*
*
*
*
*
*
G04 PC Aperture Table*
*
%ADD010C,0.001*%
%ADD052C,0.008*%
%ADD058C,0.01*%
%ADD061C,0.006*%
*
*
*
*
G04 PC Circuitry*
G04 Layer Name {LRF003}LevelShield_4.p - circuitry*
%LPD*%
*
*
G04 PC Custom Flashes*
G04 Layer Name {LRF003}LevelShield_4.p - flashes*
%LPD*%
*
*
G04 PC Circuitry*
G04 Layer Name {LRF003}LevelShield_4.p - circuitry*
%LPD*%
*
G54D10*
G01X798097Y794887D02*
X801507D01*
Y788945*
X807449*
Y785315*
X801507*
Y779373*
X798097*
Y785315*
X792155*
Y788945*
X798097*
Y794887*
X829453Y800388D02*
X828903Y800278D01*
X828463Y800058*
X827913Y799288*
X827583Y798628*
X827363Y798407*
X827143Y798297*
X827033Y798407*
X826923Y798738*
Y799288*
X827033Y800388*
X827253Y801598*
X827693Y802588*
X828023Y802808*
X828353Y802918*
X828133*
X835945*
X836275Y802698*
X836385Y802258*
X836275Y801378*
X836165Y800828*
X835945Y800168*
X835725Y799288*
X835175Y798077*
X834625Y796537*
X833854Y794667*
X833304Y793566*
X832864Y792356*
X832534Y791146*
X832424Y789826*
X832534Y788945*
X832644Y788285*
X832754Y787625*
X832864Y787075*
X832754Y786855*
X832314Y786745*
X831654Y786525*
X830664Y786415*
X830004Y786635*
X829564Y787185*
X829453Y788505*
X829564Y789936*
X830004Y791256*
X831324Y793676*
X832864Y795877*
X834075Y797857*
X834735Y799068*
X834955Y800168*
X834845Y800388*
X833854*
X833634Y800608*
X829453*
Y800388*
X841336Y800608D02*
X841886Y800718D01*
X842216Y800938*
X842546Y801378*
X842766*
X842546Y800828*
X842326Y800388*
X842216Y800058*
X841886Y799948*
X838916*
Y800058*
X839136Y800278*
X839466Y800718*
X840016Y801598*
X840896Y802588*
X841226Y803249*
X841336Y803799*
X841226Y804239*
X841006Y804459*
X840676Y804679*
X840236Y804789*
X839796Y804679*
X839356Y804349*
X839136*
X839246Y804569*
X839576Y805009*
X840126Y805339*
X840896Y805449*
X841446Y805339*
X841776Y805119*
X841996Y804679*
X842106Y804129*
X841776Y803139*
X841116Y802148*
X840346Y801268*
X840126Y800938*
X840016Y800828*
Y800608*
X840236*
Y800828*
X841336*
Y800608*
X757497Y770791D02*
X756837Y770681D01*
X756397Y770351*
X755957Y769911*
X755847Y769251*
X755957Y768481*
X756397Y767711*
X756947Y767161*
X757718Y766940*
X758268Y767050*
X758268D02*
X758598Y767491D01*
X758818Y768591*
X758708Y769361*
X758488Y770131*
X758048Y770571*
X757497Y770791*
X757277*
X757938Y771561*
X758158*
X759038Y771341*
X759698Y770791*
X760138Y770021*
X760248Y769251*
X760028Y768151*
X759478Y767271*
X758488Y766720*
X757277Y766500*
X756177Y766720*
X755407Y767381*
X754857Y768371*
X754747Y769691*
X754857Y770791*
X755297Y771782*
X755847Y772552*
X756617Y773212*
X758158Y774092*
X758818Y774202*
X759368Y774312*
X759588*
X759258Y774092*
X758928Y773872*
X758378Y773542*
X757497Y773102*
X756947Y772442*
X756507Y771672*
X756397Y771121*
Y770791*
X756617Y771011*
X756837Y771341*
X757387Y771451*
X758158Y771561*
X757938*
X757277Y770791*
X757497*
X762559Y767601D02*
X762449Y767381D01*
X762229Y767050*
X762229D02*
X761568Y766720D01*
X761348Y766830*
X760908Y767050*
X760908D02*
X760578Y767381D01*
X760468Y767601*
X760578Y767931*
X761348Y768701*
X761568Y768811*
X761898Y768701*
X762229Y768261*
X762449Y767931*
X762559Y767601*
Y767821*
Y767601*
X765749Y767821D02*
X765859Y767381D01*
X765969Y767161*
X766409Y766940*
X766850*
X767070Y766720*
X766960Y766610*
X766409Y766720*
X763439*
X763659Y766940*
X764099*
X764429Y767161*
X764649Y767601*
Y772772*
X764429Y772882*
X763439*
Y773102*
X763549Y773322*
X763879*
X764649Y773652*
X765199Y773872*
X765749Y774312*
X765969*
Y774092*
X765859Y773542*
X765749Y772882*
Y773102*
Y767821*
X768940Y774092D02*
Y774312D01*
X771691*
X772131Y774532*
X772351Y774752*
Y774312*
Y774532*
X771911Y773542*
X772131Y773322*
X772021Y773102*
X769600*
X769820*
X769380Y772992*
X769160Y772662*
X768940Y771782*
Y771451*
X769160Y771341*
X769490Y771561*
X770150*
X771141Y771451*
X771911Y771011*
X772351Y770351*
X772571Y769471*
X772351Y768591*
X771801Y767601*
X770810Y766830*
X770150Y766610*
X769380Y766500*
X769050*
X768500Y766610*
X768060Y766830*
X767840Y767161*
X768390Y767050*
X768390D02*
X769160Y766940D01*
X770040Y767050*
X770040D02*
X770810Y767491D01*
X771251Y768151*
X771471Y769031*
X771361Y769691*
X770920Y770131*
X770260Y770351*
X768500*
Y770791*
X768280Y771121*
X768940Y774312*
Y774092*
X779502Y774312D02*
X780163D01*
X775872Y766720*
X775321*
X779502Y774312*
X775101Y773872D02*
X774771Y773762D01*
X774551Y773432*
X774441Y772442*
Y771782*
X774661Y771121*
X774991Y770571*
X775652Y770351*
X776202Y770461*
X776422Y770901*
X776532Y772002*
Y772552*
X776312Y773212*
X775872Y773652*
X775101Y773872*
Y774312*
X775321*
X776202Y774092*
X776862Y773652*
X777302Y772992*
X777412Y772222*
X777302Y771451*
X776862Y770791*
X776202Y770351*
X775321Y770131*
X774551Y770351*
X774001Y770791*
X773671Y771451*
X773561Y772222*
X773671Y772992*
X774001Y773652*
X774551Y774092*
X775321Y774312*
X775101*
Y773872*
X780163Y770351D02*
X779722Y770241D01*
X779502Y769801*
X779282Y769031*
X779392Y768261*
X779612Y767601*
X780052Y767161*
X780603Y766940*
X781043Y767050*
X781043D02*
X781263Y767491D01*
X781373Y768371*
X781153Y769691*
X780823Y770131*
X780163Y770351*
Y770791*
X780383Y770571*
X781153Y770461*
X781813Y770021*
X782143Y769471*
X782253Y768591*
X782143Y767821*
X781813Y767161*
X781153Y766830*
X780383Y766720*
X779612Y766830*
X778952Y767271*
X778512Y767931*
X778402Y768811*
X778512Y769581*
X778952Y770131*
X779612Y770461*
X780383Y770571*
X780163Y770791*
Y770351*
X852119Y783004D02*
Y786635D01*
X873023*
Y783004*
X852119*
X859050Y777723D02*
X859160Y778493D01*
X859380Y779153*
X860260Y780363*
X861361Y781134*
X862681Y781354*
X864111Y781134*
X865321Y780363*
X866092Y779153*
X866312Y778493*
X866422Y777723*
X866312Y776953*
X866092Y776293*
X865321Y775082*
X864111Y774312*
X862681Y774092*
X861361Y774312*
X860260Y775082*
X859380Y776293*
X859160Y776953*
X859050Y777723*
Y777943*
Y777723*
X866422Y791696D02*
X866312Y790926D01*
X866092Y790266*
X865321Y789055*
X864111Y788285*
X862681Y788065*
X861361Y788285*
X860260Y789055*
X859380Y790266*
X859160Y790926*
X859050Y791696*
X859160Y792466*
X859380Y793126*
X860260Y794337*
X861361Y795107*
X862681Y795327*
X864111Y795107*
X865321Y794337*
X866092Y793126*
X866312Y792466*
X866422Y791696*
X760688Y760999D02*
X760248Y760669D01*
X759808Y760339*
X758048Y758799*
X756287Y757478*
X754307Y756488*
X753317Y756268*
X752216Y756158*
Y745156*
X875114*
Y754288*
Y754068*
X874784*
X874343Y754288*
X872583Y754948*
X870823Y755938*
X869172Y757148*
X867522Y758689*
X866862Y759349*
X866312Y759789*
X865652Y760339*
X864991Y760999*
X862571Y762760*
X861251Y763420*
X859930Y763750*
X859600Y763860*
X859270Y763970*
X857840Y763750*
X856519Y763090*
X855089Y762099*
X853549Y760999*
X852889Y760339*
X852559Y760229*
X851458Y759129*
X848268Y756048*
X846617Y754618*
X844857Y753407*
X844527Y753077*
X843867Y752967*
Y752747*
X843647*
X842216Y752087*
X840676Y751867*
X839356Y752087*
X837925Y752747*
X837485Y753077*
X837045Y753628*
X836385Y754288*
X835395Y755498*
X834405Y756928*
X833414Y758579*
X832424Y760339*
X832204Y760999*
X830884Y764520*
X829453Y768041*
X829233Y768591*
Y768811*
X828573Y770571*
X827803Y773102*
X826923Y775632*
X826813Y775962*
X826703Y776293*
X825713Y779703*
X824392Y783224*
X824172Y783884*
X823072Y787515*
X821642Y790816*
X820982Y792356*
X819331Y795877*
X818451Y797417*
X817571Y798628*
X817241Y798958*
X816581Y799288*
X815480Y800058*
X814160Y800388*
X813390*
X812730Y800278*
X812180Y800058*
X811079Y799288*
X810419Y798628*
X809429Y797307*
X808439Y795657*
X807339Y793896*
X806348Y791916*
X806128Y791146*
X805908Y790376*
X804588Y787185*
X804038Y785535*
X803378Y783884*
X803268Y783554*
X803158Y783224*
X801947Y779813*
X800847Y776293*
X800627Y775632*
X799637Y773102*
X799197Y771782*
X798757Y770571*
X798427Y769251*
X797876Y768041*
X796556Y764520*
X795126Y760999*
X794906Y760339*
X793145Y756708*
X792155Y755168*
X791165Y753848*
X790065Y752747*
X788414Y751537*
X787644Y751207*
X786874Y751097*
X785884Y751207*
X785114Y751317*
X784343Y751647*
X783573Y751867*
X783243Y752087*
X782913Y752307*
X782583Y752527*
X782253Y752747*
X781373Y753407*
X779942Y754948*
X778622Y756598*
X777302Y758359*
X775872Y760119*
X775431Y760559*
X774881Y760999*
X773451Y762209*
X771911Y763200*
X770260Y763860*
X768280Y764190*
X767620*
X765639Y763970*
X763879Y763310*
X762229Y762319*
X760688Y760999*
X760468Y761219*
X760688Y760999*
X875114Y745156D02*
X752216D01*
Y756158*
X753207Y756268*
X754197Y756488*
X756067Y757368*
X757828Y758689*
X759588Y760119*
X761348Y761659*
X763219Y762980*
X765309Y763860*
X766409Y764080*
X767620Y764190*
X769380Y764080*
X770920Y763640*
X772351Y762980*
X773561Y762099*
X775762Y760009*
X777742Y757588*
X779502Y755278*
X781593Y753187*
X782693Y752307*
X783903Y751647*
X785334Y751207*
X786874Y751097*
X787864Y751207*
X788854Y751647*
X789845Y752307*
X790725Y753187*
X791715Y754288*
X792595Y755608*
X793475Y757148*
X794246Y758799*
X795896Y762539*
X797546Y766720*
X800627Y775742*
X803708Y784764*
X805248Y788945*
X806898Y792686*
X807669Y794337*
X808439Y795877*
X809319Y797197*
X810199Y798297*
X811079Y799178*
X811960Y799838*
X812840Y800278*
X813830Y800388*
X814820Y800278*
X815700Y799838*
X816691Y799178*
X817571Y798297*
X818341Y797197*
X819221Y795877*
X819991Y794447*
X820872Y792796*
X822412Y789165*
X823842Y784984*
X826813Y776072*
X826813D02*
X829894Y767271D01*
X831434Y763090*
X833084Y759459*
X833854Y757808*
X834735Y756378*
X835725Y755058*
X836605Y753958*
X837595Y753077*
X838586Y752417*
X839576Y751977*
X840676Y751867*
X841886Y751977*
X843097Y752417*
X844307Y752967*
X845517Y753738*
X847828Y755718*
X850138Y757918*
X852449Y760119*
X854759Y762099*
X855859Y762870*
X857070Y763420*
X858170Y763860*
X859270Y763970*
X860370Y763860*
X861361Y763530*
X863231Y762539*
X865101Y760999*
X866862Y759349*
X868732Y757588*
X870713Y755938*
X872803Y754728*
X873903Y754288*
X875114Y754068*
Y754288*
Y745156*
X873463Y746586*
Y753187*
X873683*
X872693Y753297*
X871813Y753628*
X869942Y754728*
X868072Y756268*
X866202Y758028*
X866202D02*
X864441Y759789D01*
X862681Y761329*
X860920Y762429*
X860150Y762760*
X859270Y762870*
X858390Y762760*
X857400Y762319*
X856409Y761769*
X855419Y760999*
X854429Y760119*
X853329Y759129*
X851128Y756818*
X848708Y754618*
X846177Y752747*
X844857Y751977*
X843537Y751427*
X842106Y750987*
X840676Y750877*
X839466Y750987*
X838365Y751427*
X837265Y752087*
X836275Y752967*
X835175Y754068*
X834295Y755388*
X833304Y756818*
X832424Y758469*
X830664Y762209*
X829013Y766280*
X827473Y770681*
X825933Y775192*
X823072Y784104*
X821532Y788175*
X820101Y791916*
X818671Y794997*
X817901Y796317*
X817131Y797417*
X816361Y798297*
X815480Y798958*
X814710Y799398*
X813830Y799508*
X812950Y799398*
X812070Y798958*
X811299Y798297*
X810529Y797417*
X809649Y796317*
X808879Y794997*
X808109Y793456*
X807449Y791806*
X805908Y788065*
X804478Y783884*
X801507Y774862*
X799967Y770241*
X798317Y765840*
X796666Y761659*
X795016Y757918*
X794026Y756268*
X793145Y754728*
X792155Y753407*
X791165Y752307*
X790175Y751427*
X789075Y750767*
X787974Y750327*
X786874Y750217*
X785114Y750327*
X783573Y750767*
X782143Y751427*
X780933Y752307*
X778732Y754398*
X776862Y756708*
X774991Y759129*
X773011Y761219*
X771911Y762099*
X770590Y762760*
X769160Y763200*
X767620Y763310*
X766519Y763200*
X765529Y762980*
X763659Y761989*
X761898Y760669*
X760248Y759129*
X758708Y757698*
X757057Y756378*
X755297Y755388*
X754307Y755168*
X753317Y755058*
Y755278*
Y746586*
X873463*
X875114Y745156*
X844637Y753187D02*
Y745156D01*
X843867*
Y752967*
X844637Y753187*
X874343Y754288D02*
X874784Y754068D01*
X875114*
Y754288*
Y745156*
X874343*
Y754288*
X867522Y758689D02*
X866862Y759349D01*
X866642*
Y745156*
X867522*
Y758689*
X859270Y763970D02*
X859600Y763860D01*
X859930Y763750*
X859710Y763970*
Y745156*
X859050*
Y763970*
X859270*
X864771Y761219D02*
X853549D01*
Y760999*
X852889Y760339*
X852669Y760559*
X865431*
X865652Y760339*
X864771Y761219*
X852119Y759789D02*
X851458Y759129D01*
Y759349*
Y745156*
X852119*
Y760119*
Y759789*
X844857Y753407D02*
X844527Y753077D01*
X843867Y752967*
Y752747*
X843647*
X844857Y753407*
X829233Y768811D02*
Y768591D01*
X829453Y768041*
X797876*
X798427Y769251*
X798757Y770571*
Y745156*
X798097*
Y768041*
X798317Y768811*
X829013*
X829233Y768371*
Y745156*
X828573*
Y770571*
X829233Y768811*
Y768591*
Y768811*
X820982Y791036D02*
X806128D01*
X806348Y791696*
X820982*
Y791036*
Y792576D02*
Y745156D01*
X821642*
Y791036*
Y790816*
X820982Y792356*
Y792576*
X814160Y800388D02*
X813390D01*
X813170Y800608*
Y745156*
X813830*
Y800608*
X814160Y800388*
X816581Y799288D02*
X810859D01*
Y799508*
X811079Y799288*
X810419Y798628*
X810199*
X817571*
X817241Y798958*
X816581Y799288*
Y799508*
Y799288*
X806348Y791916D02*
X806128Y791146D01*
X805908Y790376*
X805578*
Y745156*
X806348*
Y791916*
X824172Y784104D02*
X803378D01*
Y783884*
X803268Y783554*
X803158Y783224*
Y783444*
X824392*
Y783224*
X824172Y783884*
Y784104*
X826923Y775852D02*
X800407D01*
Y775632*
X800627*
X800847Y776293*
X800627Y776623*
X826703*
Y776293*
X826813Y775962*
X826923Y775632*
Y775852*
X832204Y761219D02*
X795126D01*
Y760999*
X794906Y760339*
Y760559*
X832424*
Y760339*
X832204Y760999*
Y761219*
X783573Y751867D02*
X783243Y752087D01*
X782913Y752307*
X782693Y752527*
Y745156*
X783353*
Y752087*
X783573Y751867*
X781373Y753407D02*
X782253Y752747D01*
X782033Y752967*
X752216*
Y753628*
X781153*
X781373Y753407*
X775872Y760119D02*
X775431Y760559D01*
X774881Y760999*
X774661Y761219*
X760468*
X760688Y760999*
X760248Y760669*
X759808Y760339*
Y760559*
Y745156*
X760468*
Y760559*
X775101*
Y745156*
X775872*
Y760119*
X768280Y764190D02*
X767620D01*
X767400Y764410*
Y745156*
X768060*
Y764410*
X768280Y764190*
X836605Y753628D02*
X790945D01*
X790285Y752967*
Y745156*
X790945*
Y754068*
X791165Y753848*
X790065Y752747*
Y752967*
X837925*
Y752747*
X837485Y753077*
X837045Y753628*
X836825*
X837045*
X836385Y754288*
X836165*
Y745156*
X836825*
Y753187*
X836605Y753628*
X843647Y752747D02*
X843867D01*
Y752967*
X844527Y753077*
X844857Y753407*
Y753628*
X875114*
Y752967*
X843647*
Y752747*
X824612Y772442D02*
X825052Y772332D01*
X825163Y772002*
X824832*
Y769691*
X825163*
Y769251*
X825052Y769031*
X824832Y768811*
X825933*
X826263Y768921*
X826483Y769031*
Y772222*
Y772002*
X826703Y772442*
X827363*
X827803Y772662*
X828023Y773102*
X828133Y774312*
Y774532*
X827913*
X827803Y774422*
X827693Y774202*
X827583Y773982*
X827363Y773872*
X826483*
Y779043*
X826703Y779593*
X826483Y779813*
X826153Y779703*
X825823Y779263*
X825603Y778933*
X825383Y778603*
X825163Y778823*
X822412Y775192*
X821972Y774752*
X821422Y773982*
X820982Y773322*
X820762Y772662*
X821092Y772442*
X821642*
X821422*
X824612*
Y773872*
X822632*
X822852*
X822082*
X822302Y774092*
X822412Y774312*
X824612Y777283*
Y777063*
X824832Y777503*
X825163Y777393*
Y777063*
X824832Y777283*
Y774312*
X825163*
X825052Y773982*
X824612Y773872*
Y772442*
X819111Y760339D02*
X814160D01*
Y761659*
X819111*
Y760339*
X832864Y754838D02*
X810859D01*
Y756158*
X832864*
Y754838*
X824172Y762099D02*
X823952D01*
Y762319*
X824282Y762760*
X825052Y763200*
X825713Y763860*
X825933Y764300*
X826043Y764850*
X825933Y765510*
X825603Y766060*
X825052Y766390*
X824392Y766500*
X823732Y766390*
X823182Y766060*
X822742Y765730*
X822412Y765620*
X822632Y766060*
X823182Y766610*
X824062Y767161*
X825163Y767381*
X825933Y767271*
X826703Y766940*
X827143Y766390*
X827363Y765620*
X827143Y764850*
X826703Y764190*
X826043Y763530*
X826373Y763420*
X827143Y763090*
X827473Y762870*
X827803Y762429*
X828023Y761879*
X828133Y760999*
X828023Y760229*
X827803Y759569*
X827033Y758359*
X825713Y757588*
X824172Y757368*
X823182Y757478*
X822302Y757698*
X821862Y758139*
X821642Y758469*
X821862Y758689*
X822192Y758579*
X822632Y758249*
X823182Y757918*
X823952Y757808*
X825052Y758028*
X825052D02*
X825823Y758579D01*
X826373Y759459*
X826483Y760559*
X826373Y761329*
X826153Y761879*
X825603Y762209*
X824832Y762319*
X824502*
X824172Y762099*
X823952Y762319*
X824172Y762099*
X787094Y793786D02*
X802828Y742845D01*
X802718Y742075*
X802497Y741305*
X801507Y739874*
X800077Y738664*
X798317Y737674*
X796116Y736794*
X793696Y736134*
X791055Y735694*
X788304Y735363*
X785554*
X782913Y735583*
X780273Y735914*
X777962Y736574*
X775872Y737454*
X774221Y738664*
X772901Y740095*
X772461Y740865*
X772131Y741745*
X771911Y741965*
X787094Y793786*
Y789826D02*
X801287Y742405D01*
X800737Y741085*
X799637Y739874*
X798097Y738884*
X796336Y738114*
X794246Y737564*
X791935Y737124*
X789515Y736904*
X787094*
Y789826*
X773341Y741745D02*
X773781Y740865D01*
X774441Y740095*
X775431Y739434*
X776532Y738774*
Y738994*
X785444Y784104*
X773121Y741965*
X773341Y741745*
X787094Y789826D02*
Y736904D01*
X784343*
X784123Y737124*
X787094Y789826*
X741874Y757808D02*
X764649Y759569D01*
X777852Y754068*
Y729532*
X753097Y726561*
X741874Y736244*
Y757808*
X744625Y757038D02*
X764319Y758469D01*
X774661Y754068*
X753647Y752527*
X744625Y757038*
X754307Y750877D02*
X776532Y752747D01*
Y730962*
X754307Y727992*
Y750877*
X863341Y740865D02*
X862241Y741965D01*
X861471Y743065*
X860920Y744275*
X860480Y745486*
X860370Y746916*
X860260Y748236*
X860370Y749887*
X860590Y751537*
X860370Y751867*
X856960Y766940*
X863891*
Y768591*
X856740*
X853109Y784324*
X851458Y782344*
Y795107*
X852339Y795877*
Y802478*
X848928*
Y795877*
X849918Y795107*
Y782344*
X848488Y784324*
X844857Y768591*
X837485*
Y766940*
X844417*
X840896Y751867*
Y751537*
X841116Y749887*
X841226Y748236*
Y746916*
X841006Y745486*
X840676Y744275*
X840126Y743065*
X839356Y741965*
X838365Y740865*
X838145*
Y727772*
X838916Y730962*
X839356*
X847387Y766940*
X849918*
Y763310*
X851678*
Y772222*
X849918*
Y768591*
X847608*
X850138Y779373*
X851458*
X853769Y768591*
X851678*
Y766940*
X854209*
X862021Y730962*
X862461*
X863121Y727772*
Y740865*
X861801Y740095*
X862021Y739874*
X861801Y739434*
X861361Y739214*
X860810Y739434*
X860590Y739874*
X860810Y740315*
X861361Y740535*
X861801Y740315*
X862021Y739874*
X861801Y740095*
X863121Y740865*
X863341*
X850798Y791696D02*
X849918Y791586D01*
X849038Y791366*
X848268Y790926*
X847497Y790266*
X846947Y789606*
X846507Y788725*
X846287Y787845*
X846177Y786855*
X846287Y785975*
X846507Y785095*
X846947Y784324*
X847497Y783664*
X848268Y783114*
X849038Y782674*
X849918Y782454*
X850798Y782344*
X851788Y782454*
X852669Y782674*
X853549Y783114*
X854209Y783664*
X854869Y784324*
X855309Y785095*
X855529Y785975*
X855639Y786855*
X855529Y787845*
X855309Y788725*
X854869Y789606*
X853549Y790926*
X852669Y791366*
X851788Y791586*
X850798Y791696*
Y793346*
X852008Y793236*
X853219Y792906*
X854319Y792246*
X855309Y791476*
X856079Y790596*
X856630Y789495*
X857070Y788175*
X857180Y786855*
X857070Y785645*
X856630Y784434*
X856079Y783444*
X855309Y782454*
X854319Y781794*
X853219Y781134*
X852008Y780804*
X850798Y780694*
X849588Y780804*
X848378Y781134*
X847387Y781794*
X846397Y782454*
X845737Y783444*
X845077Y784434*
X844747Y785645*
X844637Y786855*
X844747Y788175*
X845077Y789495*
X845737Y790596*
X846397Y791476*
X847387Y792246*
X848378Y792906*
X849588Y793236*
X850798Y793346*
Y791696*
X846177Y766940D02*
X846507Y767050D01*
X846507D02*
X846617Y767381D01*
X846507Y767821*
X846177Y768041*
X845737Y767821*
X845517Y767381*
X845737Y767050*
X845737D02*
X846177Y766940D01*
X845957*
X846177*
X855639D02*
X856079Y767050D01*
X856079D02*
X856299Y767381D01*
X856079Y767821*
X855639Y768041*
X855089Y767821*
X854869Y767381*
X855089Y767050*
X855089D02*
X855639Y766940D01*
X855419*
X855639*
X809759Y715559D02*
X811630Y715669D01*
X813500Y715889*
X815370Y716439*
X817021Y716989*
X818671Y717870*
X820211Y718750*
X821752Y719850*
X823072Y721060*
X824282Y722381*
X825383Y723921*
X826263Y725461*
X827143Y727112*
X827693Y728762*
X828243Y730632*
X828463Y732503*
X828573Y734373*
X828463Y736354*
X828243Y738224*
X827693Y740095*
X827143Y741855*
X826263Y743505*
X825383Y745046*
X824282Y746476*
X823072Y747796*
X821752Y749117*
X820211Y750217*
X818671Y751097*
X817021Y751867*
X815370Y752527*
X813500Y753077*
X811630Y753297*
X809759Y753407*
X807779Y753297*
X805908Y753077*
X804148Y752527*
X802387Y751867*
X800737Y751097*
X799197Y750217*
X797766Y749117*
X796446Y747796*
X795236Y746476*
X794136Y745046*
X793145Y743505*
X792375Y741855*
X791825Y740095*
X791275Y738224*
X791055Y736354*
X790945Y734373*
X791055Y732503*
X791275Y730632*
X791825Y728762*
X792375Y727112*
X793145Y725461*
X794136Y723921*
X795236Y722381*
X796446Y721060*
X797766Y719850*
X799197Y718750*
X800737Y717870*
X802387Y716989*
X804148Y716439*
X805908Y715889*
X807779Y715669*
X809759Y715559*
X809539Y715779*
X809759Y715559*
Y717429D02*
X812290Y717650D01*
X814710Y718200*
X816911Y719080*
X819111Y720180*
X820982Y721720*
X822632Y723371*
X824062Y725241*
X825163Y727332*
X825823Y728982*
X826373Y730742*
X826593Y732503*
X826703Y734373*
X826593Y736134*
X826373Y737894*
X825933Y739544*
X825383Y741085*
X824612Y742625*
X823842Y744055*
X821752Y746586*
X820541Y747686*
X819221Y748676*
X817791Y749557*
X816361Y750217*
X814820Y750767*
X813170Y751207*
X811519Y751427*
X809759Y751537*
X807008Y751317*
X804258Y750657*
X801837Y749557*
X799637Y748236*
X797656Y746476*
X796006Y744495*
X794576Y742295*
X793475Y739764*
X792815Y737124*
X792595Y734373*
X792705Y732613*
X792925Y730962*
X793365Y729312*
X793916Y727772*
X794686Y726341*
X795566Y724911*
X797656Y722381*
X800187Y720290*
X801617Y719520*
X803158Y718750*
X804698Y718200*
X806348Y717760*
X807999Y717539*
X809759Y717429*
X809539*
X809759*
X801287Y748126D02*
X800297Y745926D01*
X799637Y743505*
X799417Y740975*
X799637Y738334*
X800077Y735914*
X800737Y733603*
X801727Y731513*
X802828Y729862*
X803928Y728652*
X805468Y727222*
X807229Y725901*
X809539Y724691*
X812070Y723811*
X813500Y723591*
X815040Y723371*
X816691*
X818341Y723481*
X820211Y723811*
X822082Y724361*
X820211Y722601*
X817791Y721060*
X815040Y719850*
X812070Y719190*
X810419Y718970*
X808769Y719080*
X807119Y719190*
X805468Y719630*
X803818Y720290*
X802167Y721170*
X800517Y722271*
X798977Y723591*
X797656Y725021*
X796666Y726451*
X795786Y728102*
X795236Y729752*
X794796Y731623*
X794576Y733383*
Y735253*
X794686Y737014*
X795016Y738774*
X795456Y740535*
X796116Y742075*
X796886Y743615*
X797766Y745046*
X798867Y746256*
X799967Y747246*
X801287Y748126*
X825163Y727332D02*
X824062Y725241D01*
X822632Y723371*
X820982Y721720*
X819111Y720180*
X816911Y719080*
X814710Y718200*
X812290Y717650*
X809759Y717429*
X807999Y717539*
X806348Y717760*
X804698Y718200*
X803158Y718750*
X801617Y719520*
X800187Y720290*
X797656Y722381*
X795566Y724911*
X794686Y726341*
X793916Y727772*
X793365Y729312*
X792925Y730962*
X792705Y732613*
X792595Y734373*
X792815Y737124*
X793475Y739764*
X794576Y742295*
X796006Y744495*
X797656Y746476*
X799637Y748236*
X801837Y749557*
X804258Y750657*
X803488Y750217*
X802718Y749447*
X801947Y748786*
X801287Y748126*
X799967Y747246*
X798867Y746256*
X797766Y745046*
X796886Y743615*
X796116Y742075*
X795456Y740535*
X795016Y738774*
X794686Y737014*
X794576Y735253*
Y733383*
X794796Y731623*
X795236Y729752*
X795786Y728102*
X796666Y726451*
X797656Y725021*
X798977Y723591*
X800517Y722271*
X802167Y721170*
X803818Y720290*
X805468Y719630*
X807119Y719190*
X808769Y719080*
X810419Y718970*
X812070Y719190*
X815040Y719850*
X817791Y721060*
X820211Y722601*
X822082Y724361*
X823842Y725901*
X824612Y726672*
X825163Y727332*
X824612Y726672*
X823842Y725901*
X822852Y725131*
X822082Y724361*
X820211Y723811*
X818341Y723481*
X816691Y723371*
X815040*
X813500Y723591*
X812070Y723811*
X809539Y724691*
X807229Y725901*
X805468Y727222*
X803928Y728652*
X802828Y729862*
X801727Y731513*
X800737Y733603*
X800077Y735914*
X799637Y738334*
X799417Y740975*
X799637Y743505*
X800297Y745926*
X801287Y748126*
X801947Y748786*
X802718Y749447*
X803488Y750217*
X804258Y750657*
X803048Y748786*
X802167Y746476*
X801617Y743835*
X801507Y741085*
X801617Y738224*
X802167Y735473*
X803158Y732943*
X804478Y730742*
X806238Y728982*
X808329Y727442*
X810639Y726231*
X813280Y725461*
X816030Y725131*
X818891Y725241*
X821972Y726011*
X823512Y726561*
X825163Y727332*
G54D52*
X671874Y630559D02*
X1391874D01*
Y1325559*
X671874*
Y630559*
X1391874*
Y825559*
X671874*
Y630559*
X956874Y770559D02*
X1391874D01*
Y630559*
X956874*
Y770559*
Y660559D02*
X1391874D01*
Y630559*
X956874*
Y660559*
X1116874*
Y630559*
X956874*
Y660559*
Y770559D02*
X1391874D01*
Y825559*
X956874*
Y770559*
Y700559D02*
X1391874D01*
Y770559*
X956874*
Y700559*
X1256874Y660559D02*
X1391874D01*
Y700559*
X1256874*
Y660559*
X671874D02*
X831874D01*
Y630559*
X671874*
Y660559*
X831874Y630559D02*
X956874D01*
Y660559*
X831874*
Y630559*
G54D58*
X1059000Y1195000D02*
X959000D01*
Y1185000*
X1056500*
X1059000Y1187500*
Y1195000*
X997954Y649278D02*
Y640090D01*
X1002044*
X1007840Y649278D02*
X1005113Y640090D01*
X1007840Y649278D02*
X1010567Y640090D01*
X1006135Y643153D02*
X1009544D01*
X1013635Y649278D02*
X1016363Y644903D01*
Y640090*
X1019090Y649278D02*
X1016363Y644903D01*
X1022158Y649278D02*
Y640090D01*
Y649278D02*
X1026590D01*
X1022158Y644903D02*
X1024885D01*
X1022158Y640090D02*
X1026590D01*
X1029658Y649278D02*
Y640090D01*
Y649278D02*
X1032726D01*
X1033749Y648840*
X1034090Y648403*
X1034431Y647528*
Y646653*
X1034090Y645778*
X1033749Y645340*
X1032726Y644903*
X1029658*
X1032044D02*
X1034431Y640090D01*
X965101Y820247D02*
X962374Y811059D01*
X965101Y820247D02*
X967829Y811059D01*
X963397Y814122D02*
X966806D01*
X970897Y817184D02*
Y811059D01*
Y814559D02*
X971238Y815872D01*
X971919Y816747*
X972601Y817184*
X973624*
X977715Y820247D02*
Y812809D01*
X978056Y811497*
X978738Y811059*
X979419*
X976692Y817184D02*
X979079D01*
X982488D02*
X983851Y811059D01*
X985215Y817184D02*
X983851Y811059D01*
X985215Y817184D02*
X986579Y811059D01*
X987942Y817184D02*
X986579Y811059D01*
X992715Y817184D02*
X992033Y816747D01*
X991351Y815872*
X991010Y814559*
Y813684*
X991351Y812372*
X992033Y811497*
X992715Y811059*
X993738*
X994419Y811497*
X995101Y812372*
X995442Y813684*
Y814559*
X995101Y815872*
X994419Y816747*
X993738Y817184*
X992715*
X998510D02*
Y811059D01*
Y814559D02*
X998851Y815872D01*
X999533Y816747*
X1000215Y817184*
X1001238*
X1004306Y820247D02*
Y811059D01*
X1007715Y817184D02*
X1004306Y812809D01*
X1005669Y814559D02*
X1008056Y811059D01*
X1018965Y820247D02*
Y811059D01*
Y820247D02*
X1021351D01*
X1022374Y819809*
X1023056Y818934*
X1023397Y818059*
X1023738Y816747*
Y814559*
X1023397Y813247*
X1023056Y812372*
X1022374Y811497*
X1021351Y811059*
X1018965*
X1026806Y814559D02*
X1030897D01*
Y815434*
X1030556Y816309*
X1030215Y816747*
X1029533Y817184*
X1028510*
X1027829Y816747*
X1027147Y815872*
X1026806Y814559*
Y813684*
X1027147Y812372*
X1027829Y811497*
X1028510Y811059*
X1029533*
X1030215Y811497*
X1030897Y812372*
X1037715Y815872D02*
X1037374Y816747D01*
X1036351Y817184*
X1035329*
X1034306Y816747*
X1033965Y815872*
X1034306Y814997*
X1034988Y814559*
X1036692Y814122*
X1037374Y813684*
X1037715Y812809*
Y812372*
X1037374Y811497*
X1036351Y811059*
X1035329*
X1034306Y811497*
X1033965Y812372*
X1040783Y820247D02*
X1041124Y819809D01*
X1041465Y820247*
X1041124Y820684*
X1040783Y820247*
X1041124Y817184D02*
Y811059D01*
X1048624Y817184D02*
Y810184D01*
X1048283Y808872*
X1047942Y808434*
X1047260Y807997*
X1046238*
X1045556Y808434*
X1048624Y815872D02*
X1047942Y816747D01*
X1047260Y817184*
X1046238*
X1045556Y816747*
X1044874Y815872*
X1044533Y814559*
Y813684*
X1044874Y812372*
X1045556Y811497*
X1046238Y811059*
X1047260*
X1047942Y811497*
X1048624Y812372*
X1051692Y817184D02*
Y811059D01*
Y815434D02*
X1052715Y816747D01*
X1053397Y817184*
X1054419*
X1055101Y816747*
X1055442Y815434*
Y811059*
X1058510Y814559D02*
X1062601D01*
Y815434*
X1062260Y816309*
X1061919Y816747*
X1061238Y817184*
X1060215*
X1059533Y816747*
X1058851Y815872*
X1058510Y814559*
Y813684*
X1058851Y812372*
X1059533Y811497*
X1060215Y811059*
X1061238*
X1061919Y811497*
X1062601Y812372*
X1069760Y820247D02*
Y811059D01*
Y815872D02*
X1069079Y816747D01*
X1068397Y817184*
X1067374*
X1066692Y816747*
X1066010Y815872*
X1065669Y814559*
Y813684*
X1066010Y812372*
X1066692Y811497*
X1067374Y811059*
X1068397*
X1069079Y811497*
X1069760Y812372*
X1080669Y820247D02*
Y811059D01*
Y820247D02*
X1085101D01*
X1080669Y815872D02*
X1083397D01*
X1089874Y817184D02*
X1089192Y816747D01*
X1088510Y815872*
X1088169Y814559*
Y813684*
X1088510Y812372*
X1089192Y811497*
X1089874Y811059*
X1090897*
X1091579Y811497*
X1092260Y812372*
X1092601Y813684*
Y814559*
X1092260Y815872*
X1091579Y816747*
X1090897Y817184*
X1089874*
X1095669D02*
Y811059D01*
Y814559D02*
X1096010Y815872D01*
X1096692Y816747*
X1097374Y817184*
X1098397*
X1101806D02*
X1101465Y816747D01*
X1101806Y816309*
X1102147Y816747*
X1101806Y817184*
Y811934D02*
X1101465Y811497D01*
X1101806Y811059*
X1102147Y811497*
X1101806Y811934*
X962374Y765247D02*
Y756059D01*
Y765247D02*
X965442D01*
X966465Y764809*
X966806Y764372*
X967147Y763497*
Y762622*
X966806Y761747*
X966465Y761309*
X965442Y760872*
X962374D02*
X965442D01*
X966465Y760434*
X966806Y759997*
X967147Y759122*
Y757809*
X966806Y756934*
X966465Y756497*
X965442Y756059*
X962374*
X971919Y762184D02*
X971238Y761747D01*
X970556Y760872*
X970215Y759559*
Y758684*
X970556Y757372*
X971238Y756497*
X971919Y756059*
X972942*
X973624Y756497*
X974306Y757372*
X974647Y758684*
Y759559*
X974306Y760872*
X973624Y761747*
X972942Y762184*
X971919*
X981806D02*
Y756059D01*
Y760872D02*
X981124Y761747D01*
X980442Y762184*
X979419*
X978738Y761747*
X978056Y760872*
X977715Y759559*
Y758684*
X978056Y757372*
X978738Y756497*
X979419Y756059*
X980442*
X981124Y756497*
X981806Y757372*
X984874Y762184D02*
Y756059D01*
Y759559D02*
X985215Y760872D01*
X985897Y761747*
X986579Y762184*
X987601*
X994760Y765247D02*
Y756059D01*
Y760872D02*
X994079Y761747D01*
X993397Y762184*
X992374*
X991692Y761747*
X991010Y760872*
X990669Y759559*
Y758684*
X991010Y757372*
X991692Y756497*
X992374Y756059*
X993397*
X994079Y756497*
X994760Y757372*
X1005669Y765247D02*
Y756059D01*
Y765247D02*
X1008056D01*
X1009079Y764809*
X1009760Y763934*
X1010101Y763059*
X1010442Y761747*
Y759559*
X1010101Y758247*
X1009760Y757372*
X1009079Y756497*
X1008056Y756059*
X1005669*
X1013510Y759559D02*
X1017601D01*
Y760434*
X1017260Y761309*
X1016919Y761747*
X1016238Y762184*
X1015215*
X1014533Y761747*
X1013851Y760872*
X1013510Y759559*
Y758684*
X1013851Y757372*
X1014533Y756497*
X1015215Y756059*
X1016238*
X1016919Y756497*
X1017601Y757372*
X1024419Y760872D02*
X1024079Y761747D01*
X1023056Y762184*
X1022033*
X1021010Y761747*
X1020669Y760872*
X1021010Y759997*
X1021692Y759559*
X1023397Y759122*
X1024079Y758684*
X1024419Y757809*
Y757372*
X1024079Y756497*
X1023056Y756059*
X1022033*
X1021010Y756497*
X1020669Y757372*
X1031579Y760872D02*
X1030897Y761747D01*
X1030215Y762184*
X1029192*
X1028510Y761747*
X1027829Y760872*
X1027488Y759559*
Y758684*
X1027829Y757372*
X1028510Y756497*
X1029192Y756059*
X1030215*
X1030897Y756497*
X1031579Y757372*
X1034647Y762184D02*
Y756059D01*
Y759559D02*
X1034988Y760872D01*
X1035669Y761747*
X1036351Y762184*
X1037374*
X1040442Y765247D02*
X1040783Y764809D01*
X1041124Y765247*
X1040783Y765684*
X1040442Y765247*
X1040783Y762184D02*
Y756059D01*
X1044192Y762184D02*
Y752997D01*
Y760872D02*
X1044874Y761747D01*
X1045556Y762184*
X1046579*
X1047260Y761747*
X1047942Y760872*
X1048283Y759559*
Y758684*
X1047942Y757372*
X1047260Y756497*
X1046579Y756059*
X1045556*
X1044874Y756497*
X1044192Y757372*
X1052374Y765247D02*
Y757809D01*
X1052715Y756497*
X1053397Y756059*
X1054079*
X1051351Y762184D02*
X1053738D01*
X1057147Y765247D02*
X1057488Y764809D01*
X1057829Y765247*
X1057488Y765684*
X1057147Y765247*
X1057488Y762184D02*
Y756059D01*
X1062601Y762184D02*
X1061919Y761747D01*
X1061238Y760872*
X1060897Y759559*
Y758684*
X1061238Y757372*
X1061919Y756497*
X1062601Y756059*
X1063624*
X1064306Y756497*
X1064988Y757372*
X1065329Y758684*
Y759559*
X1064988Y760872*
X1064306Y761747*
X1063624Y762184*
X1062601*
X1068397D02*
Y756059D01*
Y760434D02*
X1069419Y761747D01*
X1070101Y762184*
X1071124*
X1071806Y761747*
X1072147Y760434*
Y756059*
X1075556Y762184D02*
X1075215Y761747D01*
X1075556Y761309*
X1075897Y761747*
X1075556Y762184*
Y756934D02*
X1075215Y756497D01*
X1075556Y756059*
X1075897Y756497*
X1075556Y756934*
X962374Y695247D02*
Y686059D01*
Y695247D02*
X965442D01*
X966465Y694809*
X966806Y694372*
X967147Y693497*
Y692184*
X966806Y691309*
X966465Y690872*
X965442Y690434*
X962374*
X974306Y692184D02*
Y686059D01*
Y690872D02*
X973624Y691747D01*
X972942Y692184*
X971919*
X971238Y691747*
X970556Y690872*
X970215Y689559*
Y688684*
X970556Y687372*
X971238Y686497*
X971919Y686059*
X972942*
X973624Y686497*
X974306Y687372*
X977374Y692184D02*
Y686059D01*
Y689559D02*
X977715Y690872D01*
X978397Y691747*
X979079Y692184*
X980101*
X984192Y695247D02*
Y687809D01*
X984533Y686497*
X985215Y686059*
X985897*
X983169Y692184D02*
X985556D01*
X996806Y695247D02*
Y686059D01*
Y695247D02*
X1001579Y686059D01*
Y695247D02*
Y686059D01*
X1006351Y692184D02*
X1005669Y691747D01*
X1004988Y690872*
X1004647Y689559*
Y688684*
X1004988Y687372*
X1005669Y686497*
X1006351Y686059*
X1007374*
X1008056Y686497*
X1008738Y687372*
X1009079Y688684*
Y689559*
X1008738Y690872*
X1008056Y691747*
X1007374Y692184*
X1006351*
X1012488D02*
X1012147Y691747D01*
X1012488Y691309*
X1012829Y691747*
X1012488Y692184*
Y686934D02*
X1012147Y686497D01*
X1012488Y686059*
X1012829Y686497*
X1012488Y686934*
X1262374Y695247D02*
Y686059D01*
Y695247D02*
X1265442D01*
X1266465Y694809*
X1266806Y694372*
X1267147Y693497*
Y692622*
X1266806Y691747*
X1266465Y691309*
X1265442Y690872*
X1262374*
X1264760D02*
X1267147Y686059D01*
X1270215Y689559D02*
X1274306D01*
Y690434*
X1273965Y691309*
X1273624Y691747*
X1272942Y692184*
X1271919*
X1271238Y691747*
X1270556Y690872*
X1270215Y689559*
Y688684*
X1270556Y687372*
X1271238Y686497*
X1271919Y686059*
X1272942*
X1273624Y686497*
X1274306Y687372*
X1277374Y692184D02*
X1279419Y686059D01*
X1281465Y692184D02*
X1279419Y686059D01*
X1284533Y695247D02*
X1284874Y694809D01*
X1285215Y695247*
X1284874Y695684*
X1284533Y695247*
X1284874Y692184D02*
Y686059D01*
X1292033Y690872D02*
X1291692Y691747D01*
X1290669Y692184*
X1289647*
X1288624Y691747*
X1288283Y690872*
X1288624Y689997*
X1289306Y689559*
X1291010Y689122*
X1291692Y688684*
X1292033Y687809*
Y687372*
X1291692Y686497*
X1290669Y686059*
X1289647*
X1288624Y686497*
X1288283Y687372*
X1295101Y695247D02*
X1295442Y694809D01*
X1295783Y695247*
X1295442Y695684*
X1295101Y695247*
X1295442Y692184D02*
Y686059D01*
X1300556Y692184D02*
X1299874Y691747D01*
X1299192Y690872*
X1298851Y689559*
Y688684*
X1299192Y687372*
X1299874Y686497*
X1300556Y686059*
X1301579*
X1302260Y686497*
X1302942Y687372*
X1303283Y688684*
Y689559*
X1302942Y690872*
X1302260Y691747*
X1301579Y692184*
X1300556*
X1306351D02*
Y686059D01*
Y690434D02*
X1307374Y691747D01*
X1308056Y692184*
X1309079*
X1309760Y691747*
X1310101Y690434*
Y686059*
X1313510Y692184D02*
X1313169Y691747D01*
X1313510Y691309*
X1313851Y691747*
X1313510Y692184*
Y686934D02*
X1313169Y686497D01*
X1313510Y686059*
X1313851Y686497*
X1313510Y686934*
X1057374Y676403D02*
X1065556D01*
X1351647Y683418D02*
X1347101Y675106D01*
X1353919*
X1351647Y683418D02*
Y670950D01*
X1141419Y795606D02*
Y783137D01*
X1146874*
X1150965Y787887D02*
X1156419D01*
Y789075*
X1155965Y790262*
X1155510Y790856*
X1154601Y791450*
X1153238*
X1152329Y790856*
X1151419Y789668*
X1150965Y787887*
Y786700*
X1151419Y784918*
X1152329Y783731*
X1153238Y783137*
X1154601*
X1155510Y783731*
X1156419Y784918*
X1160510Y791450D02*
X1163238Y783137D01*
X1165965Y791450D02*
X1163238Y783137D01*
X1170056Y787887D02*
X1175510D01*
Y789075*
X1175056Y790262*
X1174601Y790856*
X1173692Y791450*
X1172329*
X1171419Y790856*
X1170510Y789668*
X1170056Y787887*
Y786700*
X1170510Y784918*
X1171419Y783731*
X1172329Y783137*
X1173692*
X1174601Y783731*
X1175510Y784918*
X1179601Y795606D02*
Y783137D01*
X1194147Y795606D02*
Y783137D01*
Y795606D02*
X1198238D01*
X1199601Y795012*
X1200056Y794418*
X1200510Y793231*
Y792043*
X1200056Y790856*
X1199601Y790262*
X1198238Y789668*
X1194147*
X1197329D02*
X1200510Y783137D01*
X1204601Y795606D02*
Y783137D01*
Y795606D02*
X1210510D01*
X1204601Y789668D02*
X1208238D01*
X1098919Y745606D02*
Y733137D01*
X1104374*
X1108465Y737887D02*
X1113919D01*
Y739075*
X1113465Y740262*
X1113010Y740856*
X1112101Y741450*
X1110738*
X1109829Y740856*
X1108919Y739668*
X1108465Y737887*
Y736700*
X1108919Y734918*
X1109829Y733731*
X1110738Y733137*
X1112101*
X1113010Y733731*
X1113919Y734918*
X1118010Y741450D02*
X1120738Y733137D01*
X1123465Y741450D02*
X1120738Y733137D01*
X1127556Y737887D02*
X1133010D01*
Y739075*
X1132556Y740262*
X1132101Y740856*
X1131192Y741450*
X1129829*
X1128919Y740856*
X1128010Y739668*
X1127556Y737887*
Y736700*
X1128010Y734918*
X1128919Y733731*
X1129829Y733137*
X1131192*
X1132101Y733731*
X1133010Y734918*
X1137101Y745606D02*
Y733137D01*
X1158010Y743825D02*
X1157101Y745012D01*
X1155738Y745606*
X1153919*
X1152556Y745012*
X1151647Y743825*
Y742637*
X1152101Y741450*
X1152556Y740856*
X1153465Y740262*
X1156192Y739075*
X1157101Y738481*
X1157556Y737887*
X1158010Y736700*
Y734918*
X1157101Y733731*
X1155738Y733137*
X1153919*
X1152556Y733731*
X1151647Y734918*
X1162101Y745606D02*
Y733137D01*
Y739075D02*
X1163465Y740856D01*
X1164374Y741450*
X1165738*
X1166647Y740856*
X1167101Y739075*
Y733137*
X1171192Y745606D02*
X1171647Y745012D01*
X1172101Y745606*
X1171647Y746200*
X1171192Y745606*
X1171647Y741450D02*
Y733137D01*
X1176192Y737887D02*
X1181647D01*
Y739075*
X1181192Y740262*
X1180738Y740856*
X1179829Y741450*
X1178465*
X1177556Y740856*
X1176647Y739668*
X1176192Y737887*
Y736700*
X1176647Y734918*
X1177556Y733731*
X1178465Y733137*
X1179829*
X1180738Y733731*
X1181647Y734918*
X1185738Y745606D02*
Y733137D01*
X1195283Y745606D02*
Y733137D01*
Y739668D02*
X1194374Y740856D01*
X1193465Y741450*
X1192101*
X1191192Y740856*
X1190283Y739668*
X1189829Y737887*
Y736700*
X1190283Y734918*
X1191192Y733731*
X1192101Y733137*
X1193465*
X1194374Y733731*
X1195283Y734918*
X1209829Y745606D02*
Y733137D01*
Y745606D02*
X1213919D01*
X1215283Y745012*
X1215738Y744418*
X1216192Y743231*
Y742043*
X1215738Y740856*
X1215283Y740262*
X1213919Y739668*
X1209829D02*
X1213919D01*
X1215283Y739075*
X1215738Y738481*
X1216192Y737293*
Y735512*
X1215738Y734325*
X1215283Y733731*
X1213919Y733137*
X1209829*
X1222556Y741450D02*
X1221647Y740856D01*
X1220738Y739668*
X1220283Y737887*
Y736700*
X1220738Y734918*
X1221647Y733731*
X1222556Y733137*
X1223919*
X1224829Y733731*
X1225738Y734918*
X1226192Y736700*
Y737887*
X1225738Y739668*
X1224829Y740856*
X1223919Y741450*
X1222556*
X1235738D02*
Y733137D01*
Y739668D02*
X1234829Y740856D01*
X1233919Y741450*
X1232556*
X1231647Y740856*
X1230738Y739668*
X1230283Y737887*
Y736700*
X1230738Y734918*
X1231647Y733731*
X1232556Y733137*
X1233919*
X1234829Y733731*
X1235738Y734918*
X1239829Y741450D02*
Y733137D01*
Y737887D02*
X1240283Y739668D01*
X1241192Y740856*
X1242101Y741450*
X1243465*
X1253010Y745606D02*
Y733137D01*
Y739668D02*
X1252101Y740856D01*
X1251192Y741450*
X1249829*
X1248919Y740856*
X1248010Y739668*
X1247556Y737887*
Y736700*
X1248010Y734918*
X1248919Y733731*
X1249829Y733137*
X1251192*
X1252101Y733731*
X1253010Y734918*
X680101Y820247D02*
X677374Y811059D01*
X680101Y820247D02*
X682829Y811059D01*
X678397Y814122D02*
X681806D01*
X685897Y817184D02*
Y811059D01*
Y814559D02*
X686238Y815872D01*
X686919Y816747*
X687601Y817184*
X688624*
X692715Y820247D02*
Y812809D01*
X693056Y811497*
X693738Y811059*
X694419*
X691692Y817184D02*
X694079D01*
X697488D02*
X698851Y811059D01*
X700215Y817184D02*
X698851Y811059D01*
X700215Y817184D02*
X701579Y811059D01*
X702942Y817184D02*
X701579Y811059D01*
X707715Y817184D02*
X707033Y816747D01*
X706351Y815872*
X706010Y814559*
Y813684*
X706351Y812372*
X707033Y811497*
X707715Y811059*
X708738*
X709419Y811497*
X710101Y812372*
X710442Y813684*
Y814559*
X710101Y815872*
X709419Y816747*
X708738Y817184*
X707715*
X713510D02*
Y811059D01*
Y814559D02*
X713851Y815872D01*
X714533Y816747*
X715215Y817184*
X716238*
X719306Y820247D02*
Y811059D01*
X722715Y817184D02*
X719306Y812809D01*
X720669Y814559D02*
X723056Y811059D01*
X733965Y820247D02*
Y811059D01*
Y820247D02*
X736351D01*
X737374Y819809*
X738056Y818934*
X738397Y818059*
X738738Y816747*
Y814559*
X738397Y813247*
X738056Y812372*
X737374Y811497*
X736351Y811059*
X733965*
X741806Y814559D02*
X745897D01*
Y815434*
X745556Y816309*
X745215Y816747*
X744533Y817184*
X743510*
X742829Y816747*
X742147Y815872*
X741806Y814559*
Y813684*
X742147Y812372*
X742829Y811497*
X743510Y811059*
X744533*
X745215Y811497*
X745897Y812372*
X752715Y815872D02*
X752374Y816747D01*
X751351Y817184*
X750329*
X749306Y816747*
X748965Y815872*
X749306Y814997*
X749988Y814559*
X751692Y814122*
X752374Y813684*
X752715Y812809*
Y812372*
X752374Y811497*
X751351Y811059*
X750329*
X749306Y811497*
X748965Y812372*
X755783Y820247D02*
X756124Y819809D01*
X756465Y820247*
X756124Y820684*
X755783Y820247*
X756124Y817184D02*
Y811059D01*
X763624Y817184D02*
Y810184D01*
X763283Y808872*
X762942Y808434*
X762260Y807997*
X761238*
X760556Y808434*
X763624Y815872D02*
X762942Y816747D01*
X762260Y817184*
X761238*
X760556Y816747*
X759874Y815872*
X759533Y814559*
Y813684*
X759874Y812372*
X760556Y811497*
X761238Y811059*
X762260*
X762942Y811497*
X763624Y812372*
X766692Y817184D02*
Y811059D01*
Y815434D02*
X767715Y816747D01*
X768397Y817184*
X769419*
X770101Y816747*
X770442Y815434*
Y811059*
X773510Y814559D02*
X777601D01*
Y815434*
X777260Y816309*
X776919Y816747*
X776238Y817184*
X775215*
X774533Y816747*
X773851Y815872*
X773510Y814559*
Y813684*
X773851Y812372*
X774533Y811497*
X775215Y811059*
X776238*
X776919Y811497*
X777601Y812372*
X784760Y820247D02*
Y811059D01*
Y815872D02*
X784079Y816747D01*
X783397Y817184*
X782374*
X781692Y816747*
X781010Y815872*
X780669Y814559*
Y813684*
X781010Y812372*
X781692Y811497*
X782374Y811059*
X783397*
X784079Y811497*
X784760Y812372*
X795669Y820247D02*
Y811059D01*
Y820247D02*
X798738D01*
X799760Y819809*
X800101Y819372*
X800442Y818497*
Y817622*
X800101Y816747*
X799760Y816309*
X798738Y815872*
X795669D02*
X798738D01*
X799760Y815434*
X800101Y814997*
X800442Y814122*
Y812809*
X800101Y811934*
X799760Y811497*
X798738Y811059*
X795669*
X803851Y817184D02*
X805897Y811059D01*
X807942Y817184D02*
X805897Y811059D01*
X805215Y809309*
X804533Y808434*
X803851Y807997*
X803510*
X811351Y817184D02*
X811010Y816747D01*
X811351Y816309*
X811692Y816747*
X811351Y817184*
Y811934D02*
X811010Y811497D01*
X811351Y811059*
X811692Y811497*
X811351Y811934*
X746306Y692950D02*
Y687043D01*
Y692950D02*
X748351D01*
X749033Y692668*
X749260Y692387*
X749488Y691825*
Y690981*
X749260Y690418*
X749033Y690137*
X748351Y689856*
X746306*
X751760Y687606D02*
X751533Y687325D01*
X751760Y687043*
X751988Y687325*
X751760Y687606*
X755397Y692950D02*
X754942Y692668D01*
X754488Y692106*
X754260Y691543*
X754033Y690700*
Y689293*
X754260Y688450*
X754488Y687887*
X754942Y687325*
X755397Y687043*
X756306*
X756760Y687325*
X757215Y687887*
X757442Y688450*
X757669Y689293*
Y690700*
X757442Y691543*
X757215Y692106*
X756760Y692668*
X756306Y692950*
X755397*
X759942Y687606D02*
X759715Y687325D01*
X759942Y687043*
X760169Y687325*
X759942Y687606*
X767442Y692950D02*
Y687043D01*
Y692950D02*
X769488D01*
X770169Y692668*
X770397Y692387*
X770624Y691825*
Y691262*
X770397Y690700*
X770169Y690418*
X769488Y690137*
X767442D02*
X769488D01*
X770169Y689856*
X770397Y689575*
X770624Y689012*
Y688168*
X770397Y687606*
X770169Y687325*
X769488Y687043*
X767442*
X773806Y690981D02*
X773351Y690700D01*
X772897Y690137*
X772669Y689293*
Y688731*
X772897Y687887*
X773351Y687325*
X773806Y687043*
X774488*
X774942Y687325*
X775397Y687887*
X775624Y688731*
Y689293*
X775397Y690137*
X774942Y690700*
X774488Y690981*
X773806*
X777669D02*
X780169Y687043D01*
Y690981D02*
X777669Y687043D01*
X790624Y692950D02*
X788351Y687043D01*
X787442Y692950D02*
X790624D01*
X792897Y691543D02*
Y691825D01*
X793124Y692387*
X793351Y692668*
X793806Y692950*
X794715*
X795169Y692668*
X795397Y692387*
X795624Y691825*
Y691262*
X795397Y690700*
X794942Y689856*
X792669Y687043*
X795851*
X808351Y692950D02*
Y687043D01*
Y692950D02*
X810397D01*
X811079Y692668*
X811306Y692387*
X811533Y691825*
Y690981*
X811306Y690418*
X811079Y690137*
X810397Y689856*
X808351*
X816306Y690981D02*
Y687043D01*
Y690137D02*
X815851Y690700D01*
X815397Y690981*
X814715*
X814260Y690700*
X813806Y690137*
X813579Y689293*
Y688731*
X813806Y687887*
X814260Y687325*
X814715Y687043*
X815397*
X815851Y687325*
X816306Y687887*
X820851Y690137D02*
X820624Y690700D01*
X819942Y690981*
X819260*
X818579Y690700*
X818351Y690137*
X818579Y689575*
X819033Y689293*
X820169Y689012*
X820624Y688731*
X820851Y688168*
Y687887*
X820624Y687325*
X819942Y687043*
X819260*
X818579Y687325*
X818351Y687887*
X825624Y690137D02*
X825169Y690700D01*
X824715Y690981*
X824033*
X823579Y690700*
X823124Y690137*
X822897Y689293*
Y688731*
X823124Y687887*
X823579Y687325*
X824033Y687043*
X824715*
X825169Y687325*
X825624Y687887*
X828806Y690981D02*
X828351Y690700D01*
X827897Y690137*
X827669Y689293*
Y688731*
X827897Y687887*
X828351Y687325*
X828806Y687043*
X829488*
X829942Y687325*
X830397Y687887*
X830624Y688731*
Y689293*
X830397Y690137*
X829942Y690700*
X829488Y690981*
X828806*
X835397D02*
Y687043D01*
Y690137D02*
X834942Y690700D01*
X834488Y690981*
X833806*
X833351Y690700*
X832897Y690137*
X832669Y689293*
Y688731*
X832897Y687887*
X833351Y687325*
X833806Y687043*
X834488*
X834942Y687325*
X835397Y687887*
X840169Y690981D02*
Y686481D01*
X839942Y685637*
X839715Y685356*
X839260Y685075*
X838579*
X838124Y685356*
X840169Y690137D02*
X839715Y690700D01*
X839260Y690981*
X838579*
X838124Y690700*
X837669Y690137*
X837442Y689293*
Y688731*
X837669Y687887*
X838124Y687325*
X838579Y687043*
X839260*
X839715Y687325*
X840169Y687887*
X842669Y687325D02*
X842442Y687043D01*
X842215Y687325*
X842442Y687606*
X842669Y687325*
Y686762*
X842442Y686200*
X842215Y685918*
X849942Y692950D02*
Y687043D01*
Y692950D02*
X851988D01*
X852669Y692668*
X852897Y692387*
X853124Y691825*
Y691262*
X852897Y690700*
X852669Y690418*
X851988Y690137*
X849942*
X851533D02*
X853124Y687043D01*
X855169Y692950D02*
Y687043D01*
X863806Y692950D02*
X863124Y692668D01*
X862669Y691825*
X862442Y690418*
Y689575*
X862669Y688168*
X863124Y687325*
X863806Y687043*
X864260*
X864942Y687325*
X865397Y688168*
X865624Y689575*
Y690418*
X865397Y691825*
X864942Y692668*
X864260Y692950*
X863806*
X867897Y691543D02*
Y691825D01*
X868124Y692387*
X868351Y692668*
X868806Y692950*
X869715*
X870169Y692668*
X870397Y692387*
X870624Y691825*
Y691262*
X870397Y690700*
X869942Y689856*
X867669Y687043*
X870851*
X874033Y692950D02*
X873351Y692668D01*
X873124Y692106*
Y691543*
X873351Y690981*
X873806Y690700*
X874715Y690418*
X875397Y690137*
X875851Y689575*
X876079Y689012*
Y688168*
X875851Y687606*
X875624Y687325*
X874942Y687043*
X874033*
X873351Y687325*
X873124Y687606*
X872897Y688168*
Y689012*
X873124Y689575*
X873579Y690137*
X874260Y690418*
X875169Y690700*
X875624Y690981*
X875851Y691543*
Y692106*
X875624Y692668*
X874942Y692950*
X874033*
X881079D02*
X878806D01*
X878579Y690418*
X878806Y690700*
X879488Y690981*
X880169*
X880851Y690700*
X881306Y690137*
X881533Y689293*
X881306Y688731*
X881079Y687887*
X880624Y687325*
X879942Y687043*
X879260*
X878579Y687325*
X878351Y687606*
X878124Y688168*
X886533Y690981D02*
X886306Y690137D01*
X885851Y689575*
X885169Y689293*
X884942*
X884260Y689575*
X883806Y690137*
X883579Y690981*
Y691262*
X883806Y692106*
X884260Y692668*
X884942Y692950*
X885169*
X885851Y692668*
X886306Y692106*
X886533Y690981*
Y689575*
X886306Y688168*
X885851Y687325*
X885169Y687043*
X884715*
X884033Y687325*
X883806Y687887*
X724715Y679075D02*
X724260Y678512D01*
X723806Y677668*
X723351Y676543*
X723124Y675137*
Y674012*
X723351Y672606*
X723806Y671481*
X724260Y670637*
X724715Y670075*
X726760Y677950D02*
X728579Y672043D01*
X730397Y677950D02*
X728579Y672043D01*
X732442Y679075D02*
X732897Y678512D01*
X733351Y677668*
X733806Y676543*
X734033Y675137*
Y674012*
X733806Y672606*
X733351Y671481*
X732897Y670637*
X732442Y670075*
X737669Y679075D02*
X737215Y678512D01*
X736760Y677668*
X736306Y676543*
X736079Y675137*
Y674012*
X736306Y672606*
X736760Y671481*
X737215Y670637*
X737669Y670075*
X741988Y677950D02*
X739715Y674012D01*
X743124*
X741988Y677950D02*
Y672043D01*
X746533Y677950D02*
X745851Y677668D01*
X745397Y676825*
X745169Y675418*
Y674575*
X745397Y673168*
X745851Y672325*
X746533Y672043*
X746988*
X747669Y672325*
X748124Y673168*
X748351Y674575*
Y675418*
X748124Y676825*
X747669Y677668*
X746988Y677950*
X746533*
X750397Y676825D02*
X750851Y677106D01*
X751533Y677950*
Y672043*
X753579Y679075D02*
X754033Y678512D01*
X754488Y677668*
X754942Y676543*
X755169Y675137*
Y674012*
X754942Y672606*
X754488Y671481*
X754033Y670637*
X753579Y670075*
X765397Y677950D02*
X763124D01*
X762897Y675418*
X763124Y675700*
X763806Y675981*
X764488*
X765169Y675700*
X765624Y675137*
X765851Y674293*
X765624Y673731*
X765397Y672887*
X764942Y672325*
X764260Y672043*
X763579*
X762897Y672325*
X762669Y672606*
X762442Y673168*
X770624Y677106D02*
X770397Y677668D01*
X769715Y677950*
X769260*
X768579Y677668*
X768124Y676825*
X767897Y675418*
Y674012*
X768124Y672887*
X768579Y672325*
X769260Y672043*
X769488*
X770169Y672325*
X770624Y672887*
X770851Y673731*
Y674012*
X770624Y674856*
X770169Y675418*
X769488Y675700*
X769260*
X768579Y675418*
X768124Y674856*
X767897Y674012*
X774033Y677950D02*
X773351Y677668D01*
X773124Y677106*
Y676543*
X773351Y675981*
X773806Y675700*
X774715Y675418*
X775397Y675137*
X775851Y674575*
X776079Y674012*
Y673168*
X775851Y672606*
X775624Y672325*
X774942Y672043*
X774033*
X773351Y672325*
X773124Y672606*
X772897Y673168*
Y674012*
X773124Y674575*
X773579Y675137*
X774260Y675418*
X775169Y675700*
X775624Y675981*
X775851Y676543*
Y677106*
X775624Y677668*
X774942Y677950*
X774033*
X783351Y674575D02*
X787442D01*
X795169Y677950D02*
X797669D01*
X796306Y675700*
X796988*
X797442Y675418*
X797669Y675137*
X797897Y674293*
Y673731*
X797669Y672887*
X797215Y672325*
X796533Y672043*
X795851*
X795169Y672325*
X794942Y672606*
X794715Y673168*
X802215Y677950D02*
X799942Y674012D01*
X803351*
X802215Y677950D02*
Y672043D01*
X805397Y676825D02*
X805851Y677106D01*
X806533Y677950*
Y672043*
X811533Y675981D02*
X811306Y675137D01*
X810851Y674575*
X810169Y674293*
X809942*
X809260Y674575*
X808806Y675137*
X808579Y675981*
Y676262*
X808806Y677106*
X809260Y677668*
X809942Y677950*
X810169*
X810851Y677668*
X811306Y677106*
X811533Y675981*
Y674575*
X811306Y673168*
X810851Y672325*
X810169Y672043*
X809715*
X809033Y672325*
X808806Y672887*
X817669Y679075D02*
X813579Y670075D01*
X821306Y679075D02*
X820851Y678512D01*
X820397Y677668*
X819942Y676543*
X819715Y675137*
Y674012*
X819942Y672606*
X820397Y671481*
X820851Y670637*
X821306Y670075*
X823351Y677950D02*
Y672043D01*
Y677950D02*
X826306D01*
X823351Y675137D02*
X825169D01*
X828351Y679075D02*
X828806Y678512D01*
X829260Y677668*
X829715Y676543*
X829942Y675137*
Y674012*
X829715Y672606*
X829260Y671481*
X828806Y670637*
X828351Y670075*
X833579Y679075D02*
X833124Y678512D01*
X832669Y677668*
X832215Y676543*
X831988Y675137*
Y674012*
X832215Y672606*
X832669Y671481*
X833124Y670637*
X833579Y670075*
X837897Y677950D02*
X835624Y674012D01*
X839033*
X837897Y677950D02*
Y672043D01*
X842442Y677950D02*
X841760Y677668D01*
X841306Y676825*
X841079Y675418*
Y674575*
X841306Y673168*
X841760Y672325*
X842442Y672043*
X842897*
X843579Y672325*
X844033Y673168*
X844260Y674575*
Y675418*
X844033Y676825*
X843579Y677668*
X842897Y677950*
X842442*
X846306Y676825D02*
X846760Y677106D01*
X847442Y677950*
Y672043*
X849488Y679075D02*
X849942Y678512D01*
X850397Y677668*
X850851Y676543*
X851079Y675137*
Y674012*
X850851Y672606*
X850397Y671481*
X849942Y670637*
X849488Y670075*
X861306Y677950D02*
X859033D01*
X858806Y675418*
X859033Y675700*
X859715Y675981*
X860397*
X861079Y675700*
X861533Y675137*
X861760Y674293*
X861533Y673731*
X861306Y672887*
X860851Y672325*
X860169Y672043*
X859488*
X858806Y672325*
X858579Y672606*
X858351Y673168*
X866533Y677106D02*
X866306Y677668D01*
X865624Y677950*
X865169*
X864488Y677668*
X864033Y676825*
X863806Y675418*
Y674012*
X864033Y672887*
X864488Y672325*
X865169Y672043*
X865397*
X866079Y672325*
X866533Y672887*
X866760Y673731*
Y674012*
X866533Y674856*
X866079Y675418*
X865397Y675700*
X865169*
X864488Y675418*
X864033Y674856*
X863806Y674012*
X869942Y677950D02*
X869260Y677668D01*
X869033Y677106*
Y676543*
X869260Y675981*
X869715Y675700*
X870624Y675418*
X871306Y675137*
X871760Y674575*
X871988Y674012*
Y673168*
X871760Y672606*
X871533Y672325*
X870851Y672043*
X869942*
X869260Y672325*
X869033Y672606*
X868806Y673168*
Y674012*
X869033Y674575*
X869488Y675137*
X870169Y675418*
X871079Y675700*
X871533Y675981*
X871760Y676543*
Y677106*
X871533Y677668*
X870851Y677950*
X869942*
X879260Y674575D02*
X883351D01*
X893579Y677950D02*
X891306D01*
X891079Y675418*
X891306Y675700*
X891988Y675981*
X892669*
X893351Y675700*
X893806Y675137*
X894033Y674293*
X893806Y673731*
X893579Y672887*
X893124Y672325*
X892442Y672043*
X891760*
X891079Y672325*
X890851Y672606*
X890624Y673168*
X899033Y675981D02*
X898806Y675137D01*
X898351Y674575*
X897669Y674293*
X897442*
X896760Y674575*
X896306Y675137*
X896079Y675981*
Y676262*
X896306Y677106*
X896760Y677668*
X897442Y677950*
X897669*
X898351Y677668*
X898806Y677106*
X899033Y675981*
Y674575*
X898806Y673168*
X898351Y672325*
X897669Y672043*
X897215*
X896533Y672325*
X896306Y672887*
X904260Y677950D02*
X901988Y672043D01*
X901079Y677950D02*
X904260D01*
X908579D02*
X906306Y674012D01*
X909715*
X908579Y677950D02*
Y672043D01*
X681760Y707090D02*
X681419Y707965D01*
X680738Y708840*
X680056Y709278*
X678692*
X678010Y708840*
X677329Y707965*
X676988Y707090*
X676647Y705778*
Y703590*
X676988Y702278*
X677329Y701403*
X678010Y700528*
X678692Y700090*
X680056*
X680738Y700528*
X681419Y701403*
X681760Y702278*
X684829Y709278D02*
Y700090D01*
X687897Y703590D02*
X691988D01*
Y704465*
X691647Y705340*
X691306Y705778*
X690624Y706215*
X689601*
X688919Y705778*
X688238Y704903*
X687897Y703590*
Y702715*
X688238Y701403*
X688919Y700528*
X689601Y700090*
X690624*
X691306Y700528*
X691988Y701403*
X699147Y706215D02*
Y700090D01*
Y704903D02*
X698465Y705778D01*
X697783Y706215*
X696760*
X696079Y705778*
X695397Y704903*
X695056Y703590*
Y702715*
X695397Y701403*
X696079Y700528*
X696760Y700090*
X697783*
X698465Y700528*
X699147Y701403*
X702215Y706215D02*
Y700090D01*
Y703590D02*
X702556Y704903D01*
X703238Y705778*
X703919Y706215*
X704942*
X715851Y709278D02*
Y700090D01*
Y709278D02*
X718919D01*
X719942Y708840*
X720283Y708403*
X720624Y707528*
Y706653*
X720283Y705778*
X719942Y705340*
X718919Y704903*
X715851*
X718238D02*
X720624Y700090D01*
X723692Y709278D02*
X724033Y708840D01*
X724374Y709278*
X724033Y709715*
X723692Y709278*
X724033Y706215D02*
Y700090D01*
X727442Y706215D02*
X729488Y700090D01*
X731533Y706215D02*
X729488Y700090D01*
X734601Y703590D02*
X738692D01*
Y704465*
X738351Y705340*
X738010Y705778*
X737329Y706215*
X736306*
X735624Y705778*
X734942Y704903*
X734601Y703590*
Y702715*
X734942Y701403*
X735624Y700528*
X736306Y700090*
X737329*
X738010Y700528*
X738692Y701403*
X741760Y706215D02*
Y700090D01*
Y703590D02*
X742101Y704903D01*
X742783Y705778*
X743465Y706215*
X744488*
X757783Y709278D02*
Y700090D01*
X755397Y709278D02*
X760169D01*
X763238Y703590D02*
X767329D01*
Y704465*
X766988Y705340*
X766647Y705778*
X765965Y706215*
X764942*
X764260Y705778*
X763579Y704903*
X763238Y703590*
Y702715*
X763579Y701403*
X764260Y700528*
X764942Y700090*
X765965*
X766647Y700528*
X767329Y701403*
X774488Y704903D02*
X773806Y705778D01*
X773124Y706215*
X772101*
X771419Y705778*
X770738Y704903*
X770397Y703590*
Y702715*
X770738Y701403*
X771419Y700528*
X772101Y700090*
X773124*
X773806Y700528*
X774488Y701403*
X777556Y709278D02*
Y700090D01*
Y704465D02*
X778579Y705778D01*
X779260Y706215*
X780283*
X780965Y705778*
X781306Y704465*
Y700090*
X784374Y706215D02*
Y700090D01*
Y704465D02*
X785397Y705778D01*
X786079Y706215*
X787101*
X787783Y705778*
X788124Y704465*
Y700090*
X791192Y709278D02*
X791533Y708840D01*
X791874Y709278*
X791533Y709715*
X791192Y709278*
X791533Y706215D02*
Y700090D01*
X799033Y704903D02*
X798351Y705778D01*
X797669Y706215*
X796647*
X795965Y705778*
X795283Y704903*
X794942Y703590*
Y702715*
X795283Y701403*
X795965Y700528*
X796647Y700090*
X797669*
X798351Y700528*
X799033Y701403*
X806192Y706215D02*
Y700090D01*
Y704903D02*
X805510Y705778D01*
X804829Y706215*
X803806*
X803124Y705778*
X802442Y704903*
X802101Y703590*
Y702715*
X802442Y701403*
X803124Y700528*
X803806Y700090*
X804829*
X805510Y700528*
X806192Y701403*
X809260Y709278D02*
Y700090D01*
X824942Y707965D02*
X824260Y708840D01*
X823238Y709278*
X821874*
X820851Y708840*
X820169Y707965*
Y707090*
X820510Y706215*
X820851Y705778*
X821533Y705340*
X823579Y704465*
X824260Y704028*
X824601Y703590*
X824942Y702715*
Y701403*
X824260Y700528*
X823238Y700090*
X821874*
X820851Y700528*
X820169Y701403*
X828010Y703590D02*
X832101D01*
Y704465*
X831760Y705340*
X831419Y705778*
X830738Y706215*
X829715*
X829033Y705778*
X828351Y704903*
X828010Y703590*
Y702715*
X828351Y701403*
X829033Y700528*
X829715Y700090*
X830738*
X831419Y700528*
X832101Y701403*
X835169Y706215D02*
Y700090D01*
Y703590D02*
X835510Y704903D01*
X836192Y705778*
X836874Y706215*
X837897*
X840965D02*
X843010Y700090D01*
X845056Y706215D02*
X843010Y700090D01*
X848124Y709278D02*
X848465Y708840D01*
X848806Y709278*
X848465Y709715*
X848124Y709278*
X848465Y706215D02*
Y700090D01*
X855965Y704903D02*
X855283Y705778D01*
X854601Y706215*
X853579*
X852897Y705778*
X852215Y704903*
X851874Y703590*
Y702715*
X852215Y701403*
X852897Y700528*
X853579Y700090*
X854601*
X855283Y700528*
X855965Y701403*
X859033Y703590D02*
X863124D01*
Y704465*
X862783Y705340*
X862442Y705778*
X861760Y706215*
X860738*
X860056Y705778*
X859374Y704903*
X859033Y703590*
Y702715*
X859374Y701403*
X860056Y700528*
X860738Y700090*
X861760*
X862442Y700528*
X863124Y701403*
X869942Y704903D02*
X869601Y705778D01*
X868579Y706215*
X867556*
X866533Y705778*
X866192Y704903*
X866533Y704028*
X867215Y703590*
X868919Y703153*
X869601Y702715*
X869942Y701840*
Y701403*
X869601Y700528*
X868579Y700090*
X867556*
X866533Y700528*
X866192Y701403*
X885965Y707090D02*
X885624Y707965D01*
X884942Y708840*
X884260Y709278*
X882897*
X882215Y708840*
X881533Y707965*
X881192Y707090*
X880851Y705778*
Y703590*
X881192Y702278*
X881533Y701403*
X882215Y700528*
X882897Y700090*
X884260*
X884942Y700528*
X885624Y701403*
X885965Y702278*
X890738Y706215D02*
X890056Y705778D01*
X889374Y704903*
X889033Y703590*
Y702715*
X889374Y701403*
X890056Y700528*
X890738Y700090*
X891760*
X892442Y700528*
X893124Y701403*
X893465Y702715*
Y703590*
X893124Y704903*
X892442Y705778*
X891760Y706215*
X890738*
X896533D02*
Y700090D01*
Y703590D02*
X896874Y704903D01*
X897556Y705778*
X898238Y706215*
X899260*
X902329D02*
Y697028D01*
Y704903D02*
X903010Y705778D01*
X903692Y706215*
X904715*
X905397Y705778*
X906079Y704903*
X906419Y703590*
Y702715*
X906079Y701403*
X905397Y700528*
X904715Y700090*
X903692*
X903010Y700528*
X902329Y701403*
X911192Y706215D02*
X910510Y705778D01*
X909829Y704903*
X909488Y703590*
Y702715*
X909829Y701403*
X910510Y700528*
X911192Y700090*
X912215*
X912897Y700528*
X913579Y701403*
X913919Y702715*
Y703590*
X913579Y704903*
X912897Y705778*
X912215Y706215*
X911192*
X916988D02*
Y700090D01*
Y703590D02*
X917329Y704903D01*
X918010Y705778*
X918692Y706215*
X919715*
X926874D02*
Y700090D01*
Y704903D02*
X926192Y705778D01*
X925510Y706215*
X924488*
X923806Y705778*
X923124Y704903*
X922783Y703590*
Y702715*
X923124Y701403*
X923806Y700528*
X924488Y700090*
X925510*
X926192Y700528*
X926874Y701403*
X930965Y709278D02*
Y701840D01*
X931306Y700528*
X931988Y700090*
X932669*
X929942Y706215D02*
X932329D01*
X935738Y709278D02*
X936079Y708840D01*
X936419Y709278*
X936079Y709715*
X935738Y709278*
X936079Y706215D02*
Y700090D01*
X941192Y706215D02*
X940510Y705778D01*
X939829Y704903*
X939488Y703590*
Y702715*
X939829Y701403*
X940510Y700528*
X941192Y700090*
X942215*
X942897Y700528*
X943579Y701403*
X943919Y702715*
Y703590*
X943579Y704903*
X942897Y705778*
X942215Y706215*
X941192*
X946988D02*
Y700090D01*
Y704465D02*
X948010Y705778D01*
X948692Y706215*
X949715*
X950397Y705778*
X950738Y704465*
Y700090*
X680783Y655247D02*
Y648247D01*
X680442Y646934*
X680101Y646497*
X679419Y646059*
X678738*
X678056Y646497*
X677715Y646934*
X677374Y648247*
Y649122*
X685556Y652184D02*
X684874Y651747D01*
X684192Y650872*
X683851Y649559*
Y648684*
X684192Y647372*
X684874Y646497*
X685556Y646059*
X686579*
X687260Y646497*
X687942Y647372*
X688283Y648684*
Y649559*
X687942Y650872*
X687260Y651747*
X686579Y652184*
X685556*
X691351Y655247D02*
Y646059D01*
Y650872D02*
X692033Y651747D01*
X692715Y652184*
X693738*
X694419Y651747*
X695101Y650872*
X695442Y649559*
Y648684*
X695101Y647372*
X694419Y646497*
X693738Y646059*
X692715*
X692033Y646497*
X691351Y647372*
X706351Y655247D02*
Y646059D01*
Y655247D02*
X711124Y646059D01*
Y655247D02*
Y646059D01*
X715897Y652184D02*
X715215Y651747D01*
X714533Y650872*
X714192Y649559*
Y648684*
X714533Y647372*
X715215Y646497*
X715897Y646059*
X716919*
X717601Y646497*
X718283Y647372*
X718624Y648684*
Y649559*
X718283Y650872*
X717601Y651747*
X716919Y652184*
X715897*
X722033D02*
X721692Y651747D01*
X722033Y651309*
X722374Y651747*
X722033Y652184*
Y646934D02*
X721692Y646497D01*
X722033Y646059*
X722374Y646497*
X722033Y646934*
X744829Y650606D02*
Y638137D01*
X750283*
X754374Y650606D02*
Y638137D01*
Y650606D02*
X758465D01*
X759829Y650012*
X760283Y649418*
X760738Y648231*
Y647043*
X760283Y645856*
X759829Y645262*
X758465Y644668*
X754374*
X757556D02*
X760738Y638137D01*
X764829Y650606D02*
Y638137D01*
Y650606D02*
X770738D01*
X764829Y644668D02*
X768465D01*
X775283Y639325D02*
X774829Y638731D01*
X775283Y638137*
X775738Y638731*
X775283Y639325*
X782556Y650606D02*
X781192Y650012D01*
X780283Y648231*
X779829Y645262*
Y643481*
X780283Y640512*
X781192Y638731*
X782556Y638137*
X783465*
X784829Y638731*
X785738Y640512*
X786192Y643481*
Y645262*
X785738Y648231*
X784829Y650012*
X783465Y650606*
X782556*
X793010D02*
X791647Y650012D01*
X790738Y648231*
X790283Y645262*
Y643481*
X790738Y640512*
X791647Y638731*
X793010Y638137*
X793919*
X795283Y638731*
X796192Y640512*
X796647Y643481*
Y645262*
X796192Y648231*
X795283Y650012*
X793919Y650606*
X793010*
X801647D02*
X806647D01*
X803919Y645856*
X805283*
X806192Y645262*
X806647Y644668*
X807101Y642887*
Y641700*
X806647Y639918*
X805738Y638731*
X804374Y638137*
X803010*
X801647Y638731*
X801192Y639325*
X800738Y640512*
X837374Y655247D02*
Y646059D01*
Y655247D02*
X839760D01*
X840783Y654809*
X841465Y653934*
X841806Y653059*
X842147Y651747*
Y649559*
X841806Y648247*
X841465Y647372*
X840783Y646497*
X839760Y646059*
X837374*
X849306Y652184D02*
Y646059D01*
Y650872D02*
X848624Y651747D01*
X847942Y652184*
X846919*
X846238Y651747*
X845556Y650872*
X845215Y649559*
Y648684*
X845556Y647372*
X846238Y646497*
X846919Y646059*
X847942*
X848624Y646497*
X849306Y647372*
X853397Y655247D02*
Y647809D01*
X853738Y646497*
X854419Y646059*
X855101*
X852374Y652184D02*
X854760D01*
X858169Y649559D02*
X862260D01*
Y650434*
X861919Y651309*
X861579Y651747*
X860897Y652184*
X859874*
X859192Y651747*
X858510Y650872*
X858169Y649559*
Y648684*
X858510Y647372*
X859192Y646497*
X859874Y646059*
X860897*
X861579Y646497*
X862260Y647372*
X865669Y652184D02*
X865329Y651747D01*
X865669Y651309*
X866010Y651747*
X865669Y652184*
Y646934D02*
X865329Y646497D01*
X865669Y646059*
X866010Y646497*
X865669Y646934*
X873692Y648231D02*
X874601Y648825D01*
X875965Y650606*
Y638137*
X880510Y647637D02*
Y648231D01*
X880965Y649418*
X881419Y650012*
X882329Y650606*
X884147*
X885056Y650012*
X885510Y649418*
X885965Y648231*
Y647043*
X885510Y645856*
X884601Y644075*
X880056Y638137*
X886419*
X898692Y652981D02*
X890510Y633981D01*
X905510Y650606D02*
X904147Y650012D01*
X903238Y648231*
X902783Y645262*
Y643481*
X903238Y640512*
X904147Y638731*
X905510Y638137*
X906419*
X907783Y638731*
X908692Y640512*
X909147Y643481*
Y645262*
X908692Y648231*
X907783Y650012*
X906419Y650606*
X905510*
X918692Y648825D02*
X918238Y650012D01*
X916874Y650606*
X915965*
X914601Y650012*
X913692Y648231*
X913238Y645262*
Y642293*
X913692Y639918*
X914601Y638731*
X915965Y638137*
X916419*
X917783Y638731*
X918692Y639918*
X919147Y641700*
Y642293*
X918692Y644075*
X917783Y645262*
X916419Y645856*
X915965*
X914601Y645262*
X913692Y644075*
X913238Y642293*
X931419Y652981D02*
X923238Y633981D01*
X935510Y648231D02*
X936419Y648825D01*
X937783Y650606*
Y638137*
X942329Y647637D02*
Y648231D01*
X942783Y649418*
X943238Y650012*
X944147Y650606*
X945965*
X946874Y650012*
X947329Y649418*
X947783Y648231*
Y647043*
X947329Y645856*
X946419Y644075*
X941874Y638137*
X948238*
X1168465Y647965D02*
X1167783Y648840D01*
X1166760Y649278*
X1165397*
X1164374Y648840*
X1163692Y647965*
Y647090*
X1164033Y646215*
X1164374Y645778*
X1165056Y645340*
X1167101Y644465*
X1167783Y644028*
X1168124Y643590*
X1168465Y642715*
Y641403*
X1167783Y640528*
X1166760Y640090*
X1165397*
X1164374Y640528*
X1163692Y641403*
X1171533Y643590D02*
X1175624D01*
Y644465*
X1175283Y645340*
X1174942Y645778*
X1174260Y646215*
X1173238*
X1172556Y645778*
X1171874Y644903*
X1171533Y643590*
Y642715*
X1171874Y641403*
X1172556Y640528*
X1173238Y640090*
X1174260*
X1174942Y640528*
X1175624Y641403*
X1182783Y644903D02*
X1182101Y645778D01*
X1181419Y646215*
X1180397*
X1179715Y645778*
X1179033Y644903*
X1178692Y643590*
Y642715*
X1179033Y641403*
X1179715Y640528*
X1180397Y640090*
X1181419*
X1182101Y640528*
X1182783Y641403*
X1187556Y646215D02*
X1186874Y645778D01*
X1186192Y644903*
X1185851Y643590*
Y642715*
X1186192Y641403*
X1186874Y640528*
X1187556Y640090*
X1188579*
X1189260Y640528*
X1189942Y641403*
X1190283Y642715*
Y643590*
X1189942Y644903*
X1189260Y645778*
X1188579Y646215*
X1187556*
X1193351D02*
Y640090D01*
Y644465D02*
X1194374Y645778D01*
X1195056Y646215*
X1196079*
X1196760Y645778*
X1197101Y644465*
Y640090*
X1204260Y649278D02*
Y640090D01*
Y644903D02*
X1203579Y645778D01*
X1202897Y646215*
X1201874*
X1201192Y645778*
X1200510Y644903*
X1200169Y643590*
Y642715*
X1200510Y641403*
X1201192Y640528*
X1201874Y640090*
X1202897*
X1203579Y640528*
X1204260Y641403*
X1211419Y646215D02*
Y640090D01*
Y644903D02*
X1210738Y645778D01*
X1210056Y646215*
X1209033*
X1208351Y645778*
X1207669Y644903*
X1207329Y643590*
Y642715*
X1207669Y641403*
X1208351Y640528*
X1209033Y640090*
X1210056*
X1210738Y640528*
X1211419Y641403*
X1214488Y646215D02*
Y640090D01*
Y643590D02*
X1214829Y644903D01*
X1215510Y645778*
X1216192Y646215*
X1217215*
X1220624D02*
X1222669Y640090D01*
X1224715Y646215D02*
X1222669Y640090D01*
X1221988Y638340*
X1221306Y637465*
X1220624Y637028*
X1220283*
X1240397Y647965D02*
X1239715Y648840D01*
X1238692Y649278*
X1237329*
X1236306Y648840*
X1235624Y647965*
Y647090*
X1235965Y646215*
X1236306Y645778*
X1236988Y645340*
X1239033Y644465*
X1239715Y644028*
X1240056Y643590*
X1240397Y642715*
Y641403*
X1239715Y640528*
X1238692Y640090*
X1237329*
X1236306Y640528*
X1235624Y641403*
X1243465Y649278D02*
X1243806Y648840D01*
X1244147Y649278*
X1243806Y649715*
X1243465Y649278*
X1243806Y646215D02*
Y640090D01*
X1251306Y649278D02*
Y640090D01*
Y644903D02*
X1250624Y645778D01*
X1249942Y646215*
X1248919*
X1248238Y645778*
X1247556Y644903*
X1247215Y643590*
Y642715*
X1247556Y641403*
X1248238Y640528*
X1248919Y640090*
X1249942*
X1250624Y640528*
X1251306Y641403*
X1254374Y643590D02*
X1258465D01*
Y644465*
X1258124Y645340*
X1257783Y645778*
X1257101Y646215*
X1256079*
X1255397Y645778*
X1254715Y644903*
X1254374Y643590*
Y642715*
X1254715Y641403*
X1255397Y640528*
X1256079Y640090*
X1257101*
X1257783Y640528*
X1258465Y641403*
X1274147Y647965D02*
X1273465Y648840D01*
X1272442Y649278*
X1271079*
X1270056Y648840*
X1269374Y647965*
Y647090*
X1269715Y646215*
X1270056Y645778*
X1270738Y645340*
X1272783Y644465*
X1273465Y644028*
X1273806Y643590*
X1274147Y642715*
Y641403*
X1273465Y640528*
X1272442Y640090*
X1271079*
X1270056Y640528*
X1269374Y641403*
X1277215Y649278D02*
X1277556Y648840D01*
X1277897Y649278*
X1277556Y649715*
X1277215Y649278*
X1277556Y646215D02*
Y640090D01*
X1280965Y649278D02*
Y640090D01*
X1284033Y649278D02*
Y640090D01*
X1287442Y646215D02*
X1284033Y641840D01*
X1285397Y643590D02*
X1287783Y640090D01*
X1294601Y644903D02*
X1294260Y645778D01*
X1293238Y646215*
X1292215*
X1291192Y645778*
X1290851Y644903*
X1291192Y644028*
X1291874Y643590*
X1293579Y643153*
X1294260Y642715*
X1294601Y641840*
Y641403*
X1294260Y640528*
X1293238Y640090*
X1292215*
X1291192Y640528*
X1290851Y641403*
X1301760Y644903D02*
X1301079Y645778D01*
X1300397Y646215*
X1299374*
X1298692Y645778*
X1298010Y644903*
X1297669Y643590*
Y642715*
X1298010Y641403*
X1298692Y640528*
X1299374Y640090*
X1300397*
X1301079Y640528*
X1301760Y641403*
X1304829Y646215D02*
Y640090D01*
Y643590D02*
X1305169Y644903D01*
X1305851Y645778*
X1306533Y646215*
X1307556*
X1310624Y643590D02*
X1314715D01*
Y644465*
X1314374Y645340*
X1314033Y645778*
X1313351Y646215*
X1312329*
X1311647Y645778*
X1310965Y644903*
X1310624Y643590*
Y642715*
X1310965Y641403*
X1311647Y640528*
X1312329Y640090*
X1313351*
X1314033Y640528*
X1314715Y641403*
X1317783Y643590D02*
X1321874D01*
Y644465*
X1321533Y645340*
X1321192Y645778*
X1320510Y646215*
X1319488*
X1318806Y645778*
X1318124Y644903*
X1317783Y643590*
Y642715*
X1318124Y641403*
X1318806Y640528*
X1319488Y640090*
X1320510*
X1321192Y640528*
X1321874Y641403*
X1324942Y646215D02*
Y640090D01*
Y644465D02*
X1325965Y645778D01*
X1326647Y646215*
X1327669*
X1328351Y645778*
X1328692Y644465*
Y640090*
G54D61*
X995000Y995000D02*
X1075000D01*
Y1005000*
X997500*
X995000Y1002500*
Y995000*
X1145000Y1195000D02*
X1065000D01*
Y1185000*
X1142500*
X1145000Y1187500*
Y1195000*
X1085000Y995000D02*
X1145000D01*
Y1005000*
X1087500*
X1085000Y1002500*
Y995000*
X986500Y1140500D02*
X996500D01*
Y1136500*
X986500*
Y1140500*
Y1136500D02*
X996500D01*
Y1132500*
X986500*
Y1136500*
Y1128500D02*
X996500D01*
Y1124500*
X986500*
Y1128500*
Y1132500D02*
X996500D01*
Y1128500*
X986500*
Y1132500*
X966000Y1057500D02*
X956000D01*
Y1061500*
X966000*
Y1057500*
Y1053500D02*
X956000D01*
Y1057500*
X966000*
Y1053500*
X1039182Y1182434D02*
Y1178891D01*
X1037273Y1182434D02*
Y1178891D01*
X1039182Y1180747D02*
X1037273D01*
X1036045Y1181759D02*
X1035773Y1181928D01*
X1035364Y1182434*
Y1178891*
X1022311Y1010434D02*
Y1006891D01*
X1020402Y1010434D02*
Y1006891D01*
X1022311Y1008747D02*
X1020402D01*
X1019039Y1009591D02*
Y1009759D01*
X1018902Y1010097*
X1018766Y1010266*
X1018493Y1010434*
X1017948*
X1017675Y1010266*
X1017539Y1010097*
X1017402Y1009759*
Y1009422*
X1017539Y1009084*
X1017811Y1008578*
X1019175Y1006891*
X1017266*
X1123732Y1182115D02*
Y1178572D01*
X1121823Y1182115D02*
Y1178572D01*
X1123732Y1180428D02*
X1121823D01*
X1120323Y1182115D02*
X1118823D01*
X1119642Y1180765*
X1119232*
X1118960Y1180597*
X1118823Y1180428*
X1118687Y1179922*
Y1179584*
X1118823Y1179078*
X1119096Y1178740*
X1119505Y1178572*
X1119914*
X1120323Y1178740*
X1120460Y1178909*
X1120596Y1179247*
X1116301Y1010434D02*
Y1006891D01*
X1114392Y1010434D02*
Y1006891D01*
X1116301Y1008747D02*
X1114392D01*
X1111801Y1010434D02*
X1113164Y1008072D01*
X1111119*
X1111801Y1010434D02*
Y1006891D01*
X993386Y1144591D02*
X993523Y1144928D01*
X993795Y1145266*
X994068Y1145434*
X994614*
X994886Y1145266*
X995159Y1144928*
X995295Y1144591*
X995432Y1144084*
Y1143241*
X995295Y1142734*
X995159Y1142397*
X994886Y1142059*
X994614Y1141891*
X994068*
X993795Y1142059*
X993523Y1142397*
X993386Y1142734*
X992023Y1144591D02*
Y1144759D01*
X991886Y1145097*
X991750Y1145266*
X991477Y1145434*
X990932*
X990659Y1145266*
X990523Y1145097*
X990386Y1144759*
Y1144422*
X990523Y1144084*
X990795Y1143578*
X992159Y1141891*
X990250*
X988750Y1145434D02*
X987250D01*
X988068Y1144084*
X987659*
X987386Y1143916*
X987250Y1143747*
X987114Y1143241*
Y1142903*
X987250Y1142397*
X987523Y1142059*
X987932Y1141891*
X988341*
X988750Y1142059*
X988886Y1142228*
X989023Y1142566*
X1004455Y1136591D02*
X1004591Y1136928D01*
X1004864Y1137266*
X1005136Y1137434*
X1005682*
X1005955Y1137266*
X1006227Y1136928*
X1006364Y1136591*
X1006500Y1136084*
Y1135241*
X1006364Y1134734*
X1006227Y1134397*
X1005955Y1134059*
X1005682Y1133891*
X1005136*
X1004864Y1134059*
X1004591Y1134397*
X1004455Y1134734*
X1003091Y1136591D02*
Y1136759D01*
X1002955Y1137097*
X1002818Y1137266*
X1002545Y1137434*
X1002000*
X1001727Y1137266*
X1001591Y1137097*
X1001455Y1136759*
Y1136422*
X1001591Y1136084*
X1001864Y1135578*
X1003227Y1133891*
X1001318*
X998727Y1137434D02*
X1000091Y1135072D01*
X998045*
X998727Y1137434D02*
Y1133891D01*
X992250Y1122591D02*
X992386Y1122928D01*
X992659Y1123266*
X992932Y1123434*
X993477*
X993750Y1123266*
X994023Y1122928*
X994159Y1122591*
X994295Y1122084*
Y1121241*
X994159Y1120734*
X994023Y1120397*
X993750Y1120059*
X993477Y1119891*
X992932*
X992659Y1120059*
X992386Y1120397*
X992250Y1120734*
X989386Y1122928D02*
X989523Y1123266D01*
X989932Y1123434*
X990205*
X990614Y1123266*
X990886Y1122759*
X991023Y1121916*
Y1121072*
X990886Y1120397*
X990614Y1120059*
X990205Y1119891*
X990068*
X989659Y1120059*
X989386Y1120397*
X989250Y1120903*
Y1121072*
X989386Y1121578*
X989659Y1121916*
X990068Y1122084*
X990205*
X990614Y1121916*
X990886Y1121578*
X991023Y1121072*
X1001318Y1131091D02*
X1001455Y1131428D01*
X1001727Y1131766*
X1002000Y1131934*
X1002545*
X1002818Y1131766*
X1003091Y1131428*
X1003227Y1131091*
X1003364Y1130584*
Y1129741*
X1003227Y1129234*
X1003091Y1128897*
X1002818Y1128559*
X1002545Y1128391*
X1002000*
X1001727Y1128559*
X1001455Y1128897*
X1001318Y1129234*
X998182Y1131934D02*
X999545Y1128391D01*
X1000091Y1131934D02*
X998182D01*
X964000Y1066234D02*
Y1062691D01*
X962364*
X961136Y1065559D02*
X960864Y1065728D01*
X960455Y1066234*
Y1062691*
X959227Y1065559D02*
X958955Y1065728D01*
X958545Y1066234*
Y1062691*
X973614Y1057434D02*
Y1053891D01*
X971977*
X970750Y1056759D02*
X970477Y1056928D01*
X970068Y1057434*
Y1053891*
X968705Y1056591D02*
Y1056759D01*
X968568Y1057097*
X968432Y1057266*
X968159Y1057434*
X967614*
X967341Y1057266*
X967205Y1057097*
X967068Y1056759*
Y1056422*
X967205Y1056084*
X967477Y1055578*
X968841Y1053891*
X966932*
X0Y0D02*
M02*
