%FSLAX24Y24*%
%MOIN*%
G70*
G01*
G75*
%ADD10C,0.0310*%
%ADD11C,0.0340*%
%ADD12C,0.0920*%
%ADD13C,0.0079*%
%ADD14C,0.0100*%
%ADD15C,0.0390*%
%ADD16C,0.0420*%
%ADD17C,0.1000*%
%ADD18C,0.0067*%
D13*
X100751Y77210D02*
Y77610D01*
X101151D01*
Y77210D01*
X100751D01*
X102751Y77610D02*
Y78010D01*
X103151D01*
Y77610D01*
X102751D01*
Y76810D02*
Y77210D01*
X103151D01*
Y76810D01*
X102751D01*
D18*
X92401Y76410D02*
X92378Y76503D01*
X92315Y76575D01*
X92225Y76609D01*
X92130Y76597D01*
X92052Y76543D01*
X92007Y76458D01*
Y76363D01*
X92052Y76278D01*
X92130Y76223D01*
X92225Y76212D01*
X92315Y76246D01*
X92378Y76317D01*
X92401Y76410D01*
Y78410D02*
X92378Y78503D01*
X92315Y78575D01*
X92225Y78609D01*
X92130Y78597D01*
X92052Y78543D01*
X92007Y78458D01*
Y78363D01*
X92052Y78278D01*
X92130Y78223D01*
X92225Y78212D01*
X92315Y78246D01*
X92378Y78317D01*
X92401Y78410D01*
X91151D02*
X91128Y78503D01*
X91065Y78575D01*
X90975Y78609D01*
X90880Y78597D01*
X90802Y78543D01*
X90757Y78458D01*
Y78363D01*
X90802Y78278D01*
X90880Y78223D01*
X90975Y78212D01*
X91065Y78246D01*
X91128Y78317D01*
X91151Y78410D01*
Y76410D02*
X91128Y76503D01*
X91065Y76575D01*
X90975Y76609D01*
X90880Y76597D01*
X90802Y76543D01*
X90757Y76458D01*
Y76363D01*
X90802Y76278D01*
X90880Y76223D01*
X90975Y76212D01*
X91065Y76246D01*
X91128Y76317D01*
X91151Y76410D01*
X92751Y76810D02*
Y77210D01*
X93151D01*
Y76810D01*
X92751D01*
Y77610D02*
Y78010D01*
X93151D01*
Y77610D01*
X92751D01*
X90751Y77210D02*
Y77610D01*
X91151D01*
Y77210D01*
X90751D01*
M02*
