M48
;Layer_Color=9474304
;FILE_FORMAT=4:4
METRIC,LZ
;TYPE=NON_PLATED
T1F00S00C0.9906
T2F00S00C2.3750
%
T01
X0029464Y0034163
X0034544Y0035179
Y0033147
X0037084Y0034036
X0042164Y003302
Y0035052
X0045212Y0034036
X0052832Y0035051
Y0033021
X0055372Y0034036
X0062992Y0035052
Y003302
T02
X0029464Y0031623
X0032639
Y0036703
X0029464
X0045212Y0036576
Y0031496
X0050927
Y0036576
M30
