*
*
G04 PADS9.1 Build Number: 384028 generated Gerber (RS-274-X) file*
G04 PC Version=2.1*
*
%IN "{LRF003}LevelShield_4.p"*%
*
%MOIN*%
*
%FSLAX35Y35*%
*
*
*
*
G04 PC Standard Apertures*
*
*
G04 Thermal Relief Aperture macro.*
%AMTER*
1,1,$1,0,0*
1,0,$1-$2,0,0*
21,0,$3,$4,0,0,45*
21,0,$3,$4,0,0,135*
%
*
*
G04 Annular Aperture macro.*
%AMANN*
1,1,$1,0,0*
1,0,$2,0,0*
%
*
*
G04 Odd Aperture macro.*
%AMODD*
1,1,$1,0,0*
1,0,$1-0.005,0,0*
%
*
*
G04 PC Custom Aperture Macros*
*
*
*
*
*
*
G04 PC Aperture Table*
*
%ADD010C,0.001*%
%ADD052C,0.008*%
%ADD058C,0.01*%
%ADD102R,0.04X0.016*%
%ADD105R,0.08X0.04*%
%ADD106R,0.08X0.126*%
%ADD120R,0.028X0.028*%
%ADD121R,0.01378X0.03937*%
%ADD122R,0.06299X0.02165*%
%ADD125R,0.065X0.1*%
%ADD126R,0.012X0.027*%
%ADD127R,0.027X0.012*%
%ADD129R,0.016X0.04*%
%ADD130R,0.02913X0.01181*%
%ADD131R,0.01181X0.02913*%
%ADD133R,0.05118X0.06299*%
%ADD134R,0.055X0.047*%
%ADD136R,0.0315X0.0374*%
%ADD139R,0.038X0.03*%
%ADD147R,0.016X0.031*%
%ADD161R,0.01969X0.0374*%
%ADD162R,0.065X0.03*%
%ADD163R,0.02362X0.04331*%
%ADD164R,0.07X0.055*%
%ADD165R,0.05X0.07*%
*
*
*
*
G04 PC Circuitry*
G04 Layer Name {LRF003}LevelShield_4.p - circuitry*
%LPD*%
*
*
G04 PC Custom Flashes*
G04 Layer Name {LRF003}LevelShield_4.p - flashes*
%LPD*%
*
*
G04 PC Circuitry*
G04 Layer Name {LRF003}LevelShield_4.p - circuitry*
%LPD*%
*
G54D10*
G01X1031695Y1152202D02*
X1037408Y1148332D01*
X1040437Y1152803*
X1034724Y1156673*
X1031695Y1152202*
X1037308Y1148400D02*
X1037454D01*
X1037160Y1148500D02*
X1037522D01*
X1037013Y1148600D02*
X1037590D01*
X1036865Y1148700D02*
X1037657D01*
X1036718Y1148800D02*
X1037725D01*
X1036570Y1148900D02*
X1037793D01*
X1036422Y1149000D02*
X1037861D01*
X1036275Y1149100D02*
X1037928D01*
X1036127Y1149200D02*
X1037996D01*
X1035979Y1149300D02*
X1038064D01*
X1035832Y1149400D02*
X1038132D01*
X1035684Y1149500D02*
X1038199D01*
X1035537Y1149600D02*
X1038267D01*
X1035389Y1149700D02*
X1038335D01*
X1035241Y1149800D02*
X1038402D01*
X1035094Y1149900D02*
X1038470D01*
X1034946Y1150000D02*
X1038538D01*
X1034798Y1150100D02*
X1038606D01*
X1034651Y1150200D02*
X1038673D01*
X1034503Y1150300D02*
X1038741D01*
X1034356Y1150400D02*
X1038809D01*
X1034208Y1150500D02*
X1038877D01*
X1034060Y1150600D02*
X1038944D01*
X1033913Y1150700D02*
X1039012D01*
X1033765Y1150800D02*
X1039080D01*
X1033617Y1150900D02*
X1039148D01*
X1033470Y1151000D02*
X1039215D01*
X1033322Y1151100D02*
X1039283D01*
X1033175Y1151200D02*
X1039351D01*
X1033027Y1151300D02*
X1039419D01*
X1032879Y1151400D02*
X1039486D01*
X1032732Y1151500D02*
X1039554D01*
X1032584Y1151600D02*
X1039622D01*
X1032436Y1151700D02*
X1039690D01*
X1032289Y1151800D02*
X1039757D01*
X1032141Y1151900D02*
X1039825D01*
X1031994Y1152000D02*
X1039893D01*
X1031846Y1152100D02*
X1039961D01*
X1031698Y1152200D02*
X1040028D01*
X1031762Y1152300D02*
X1040096D01*
X1031830Y1152400D02*
X1040164D01*
X1031897Y1152500D02*
X1040231D01*
X1031965Y1152600D02*
X1040299D01*
X1032033Y1152700D02*
X1040367D01*
X1032101Y1152800D02*
X1040435D01*
X1032168Y1152900D02*
X1040293D01*
X1032236Y1153000D02*
X1040146D01*
X1032304Y1153100D02*
X1039998D01*
X1032372Y1153200D02*
X1039851D01*
X1032439Y1153300D02*
X1039703D01*
X1032507Y1153400D02*
X1039555D01*
X1032575Y1153500D02*
X1039408D01*
X1032643Y1153600D02*
X1039260D01*
X1032710Y1153700D02*
X1039112D01*
X1032778Y1153800D02*
X1038965D01*
X1032846Y1153900D02*
X1038817D01*
X1032914Y1154000D02*
X1038670D01*
X1032981Y1154100D02*
X1038522D01*
X1033049Y1154200D02*
X1038374D01*
X1033117Y1154300D02*
X1038227D01*
X1033184Y1154400D02*
X1038079D01*
X1033252Y1154500D02*
X1037931D01*
X1033320Y1154600D02*
X1037784D01*
X1033388Y1154700D02*
X1037636D01*
X1033455Y1154800D02*
X1037489D01*
X1033523Y1154900D02*
X1037341D01*
X1033591Y1155000D02*
X1037193D01*
X1033659Y1155100D02*
X1037046D01*
X1033726Y1155200D02*
X1036898D01*
X1033794Y1155300D02*
X1036750D01*
X1033862Y1155400D02*
X1036603D01*
X1033930Y1155500D02*
X1036455D01*
X1033997Y1155600D02*
X1036308D01*
X1034065Y1155700D02*
X1036160D01*
X1034133Y1155800D02*
X1036012D01*
X1034201Y1155900D02*
X1035865D01*
X1034268Y1156000D02*
X1035717D01*
X1034336Y1156100D02*
X1035570D01*
X1034404Y1156200D02*
X1035422D01*
X1034472Y1156300D02*
X1035274D01*
X1034539Y1156400D02*
X1035127D01*
X1034607Y1156500D02*
X1034979D01*
X1034675Y1156600D02*
X1034831D01*
X1031700Y1152199D02*
Y1152209D01*
X1031800Y1152131D02*
Y1152356D01*
X1031900Y1152063D02*
Y1152504D01*
X1032000Y1151996D02*
Y1152651D01*
X1032100Y1151928D02*
Y1152799D01*
X1032200Y1151860D02*
Y1152947D01*
X1032300Y1151792D02*
Y1153094D01*
X1032400Y1151725D02*
Y1153242D01*
X1032500Y1151657D02*
Y1153390D01*
X1032600Y1151589D02*
Y1153537D01*
X1032700Y1151521D02*
Y1153685D01*
X1032800Y1151454D02*
Y1153832D01*
X1032900Y1151386D02*
Y1153980D01*
X1033000Y1151318D02*
Y1154128D01*
X1033100Y1151251D02*
Y1154275D01*
X1033200Y1151183D02*
Y1154423D01*
X1033300Y1151115D02*
Y1154571D01*
X1033400Y1151047D02*
Y1154718D01*
X1033500Y1150980D02*
Y1154866D01*
X1033600Y1150912D02*
Y1155013D01*
X1033700Y1150844D02*
Y1155161D01*
X1033800Y1150776D02*
Y1155309D01*
X1033900Y1150709D02*
Y1155456D01*
X1034000Y1150641D02*
Y1155604D01*
X1034100Y1150573D02*
Y1155752D01*
X1034200Y1150505D02*
Y1155899D01*
X1034300Y1150438D02*
Y1156047D01*
X1034400Y1150370D02*
Y1156194D01*
X1034500Y1150302D02*
Y1156342D01*
X1034600Y1150234D02*
Y1156490D01*
X1034700Y1150167D02*
Y1156637D01*
X1034800Y1150099D02*
Y1156621D01*
X1034900Y1150031D02*
Y1156554D01*
X1035000Y1149963D02*
Y1156486D01*
X1035100Y1149896D02*
Y1156418D01*
X1035200Y1149828D02*
Y1156350D01*
X1035300Y1149760D02*
Y1156283D01*
X1035400Y1149692D02*
Y1156215D01*
X1035500Y1149625D02*
Y1156147D01*
X1035600Y1149557D02*
Y1156079D01*
X1035700Y1149489D02*
Y1156012D01*
X1035800Y1149422D02*
Y1155944D01*
X1035900Y1149354D02*
Y1155876D01*
X1036000Y1149286D02*
Y1155808D01*
X1036100Y1149218D02*
Y1155741D01*
X1036200Y1149151D02*
Y1155673D01*
X1036300Y1149083D02*
Y1155605D01*
X1036400Y1149015D02*
Y1155537D01*
X1036500Y1148947D02*
Y1155470D01*
X1036600Y1148880D02*
Y1155402D01*
X1036700Y1148812D02*
Y1155334D01*
X1036800Y1148744D02*
Y1155266D01*
X1036900Y1148676D02*
Y1155199D01*
X1037000Y1148609D02*
Y1155131D01*
X1037100Y1148541D02*
Y1155063D01*
X1037200Y1148473D02*
Y1154995D01*
X1037300Y1148405D02*
Y1154928D01*
X1037400Y1148338D02*
Y1154860D01*
X1037500Y1148468D02*
Y1154792D01*
X1037600Y1148615D02*
Y1154725D01*
X1037700Y1148763D02*
Y1154657D01*
X1037800Y1148911D02*
Y1154589D01*
X1037900Y1149058D02*
Y1154521D01*
X1038000Y1149206D02*
Y1154454D01*
X1038100Y1149353D02*
Y1154386D01*
X1038200Y1149501D02*
Y1154318D01*
X1038300Y1149649D02*
Y1154250D01*
X1038400Y1149796D02*
Y1154183D01*
X1038500Y1149944D02*
Y1154115D01*
X1038600Y1150092D02*
Y1154047D01*
X1038700Y1150239D02*
Y1153979D01*
X1038800Y1150387D02*
Y1153912D01*
X1038900Y1150534D02*
Y1153844D01*
X1039000Y1150682D02*
Y1153776D01*
X1039100Y1150830D02*
Y1153708D01*
X1039200Y1150977D02*
Y1153641D01*
X1039300Y1151125D02*
Y1153573D01*
X1039400Y1151273D02*
Y1153505D01*
X1039500Y1151420D02*
Y1153437D01*
X1039600Y1151568D02*
Y1153370D01*
X1039700Y1151715D02*
Y1153302D01*
X1039800Y1151863D02*
Y1153234D01*
X1039900Y1152011D02*
Y1153166D01*
X1040000Y1152158D02*
Y1153099D01*
X1040100Y1152306D02*
Y1153031D01*
X1040200Y1152454D02*
Y1152963D01*
X1040300Y1152601D02*
Y1152896D01*
X1040400Y1152749D02*
Y1152828D01*
X1023563Y1140197D02*
X1029276Y1136327D01*
X1032305Y1140798*
X1026592Y1144668*
X1023563Y1140197*
X1029169Y1136400D02*
X1029325D01*
X1029021Y1136500D02*
X1029393D01*
X1028873Y1136600D02*
X1029461D01*
X1028726Y1136700D02*
X1029528D01*
X1028578Y1136800D02*
X1029596D01*
X1028430Y1136900D02*
X1029664D01*
X1028283Y1137000D02*
X1029732D01*
X1028135Y1137100D02*
X1029799D01*
X1027988Y1137200D02*
X1029867D01*
X1027840Y1137300D02*
X1029935D01*
X1027692Y1137400D02*
X1030003D01*
X1027545Y1137500D02*
X1030070D01*
X1027397Y1137600D02*
X1030138D01*
X1027250Y1137700D02*
X1030206D01*
X1027102Y1137800D02*
X1030274D01*
X1026954Y1137900D02*
X1030341D01*
X1026807Y1138000D02*
X1030409D01*
X1026659Y1138100D02*
X1030477D01*
X1026511Y1138200D02*
X1030545D01*
X1026364Y1138300D02*
X1030612D01*
X1026216Y1138400D02*
X1030680D01*
X1026069Y1138500D02*
X1030748D01*
X1025921Y1138600D02*
X1030816D01*
X1025773Y1138700D02*
X1030883D01*
X1025626Y1138800D02*
X1030951D01*
X1025478Y1138900D02*
X1031019D01*
X1025330Y1139000D02*
X1031087D01*
X1025183Y1139100D02*
X1031154D01*
X1025035Y1139200D02*
X1031222D01*
X1024888Y1139300D02*
X1031290D01*
X1024740Y1139400D02*
X1031357D01*
X1024592Y1139500D02*
X1031425D01*
X1024445Y1139600D02*
X1031493D01*
X1024297Y1139700D02*
X1031561D01*
X1024149Y1139800D02*
X1031628D01*
X1024002Y1139900D02*
X1031696D01*
X1023854Y1140000D02*
X1031764D01*
X1023707Y1140100D02*
X1031832D01*
X1023565Y1140200D02*
X1031899D01*
X1023633Y1140300D02*
X1031967D01*
X1023701Y1140400D02*
X1032035D01*
X1023769Y1140500D02*
X1032103D01*
X1023836Y1140600D02*
X1032170D01*
X1023904Y1140700D02*
X1032238D01*
X1023972Y1140800D02*
X1032302D01*
X1024039Y1140900D02*
X1032154D01*
X1024107Y1141000D02*
X1032006D01*
X1024175Y1141100D02*
X1031859D01*
X1024243Y1141200D02*
X1031711D01*
X1024310Y1141300D02*
X1031564D01*
X1024378Y1141400D02*
X1031416D01*
X1024446Y1141500D02*
X1031268D01*
X1024514Y1141600D02*
X1031121D01*
X1024581Y1141700D02*
X1030973D01*
X1024649Y1141800D02*
X1030825D01*
X1024717Y1141900D02*
X1030678D01*
X1024785Y1142000D02*
X1030530D01*
X1024852Y1142100D02*
X1030383D01*
X1024920Y1142200D02*
X1030235D01*
X1024988Y1142300D02*
X1030087D01*
X1025056Y1142400D02*
X1029940D01*
X1025123Y1142500D02*
X1029792D01*
X1025191Y1142600D02*
X1029644D01*
X1025259Y1142700D02*
X1029497D01*
X1025327Y1142800D02*
X1029349D01*
X1025394Y1142900D02*
X1029202D01*
X1025462Y1143000D02*
X1029054D01*
X1025530Y1143100D02*
X1028906D01*
X1025598Y1143200D02*
X1028759D01*
X1025665Y1143300D02*
X1028611D01*
X1025733Y1143400D02*
X1028463D01*
X1025801Y1143500D02*
X1028316D01*
X1025868Y1143600D02*
X1028168D01*
X1025936Y1143700D02*
X1028021D01*
X1026004Y1143800D02*
X1027873D01*
X1026072Y1143900D02*
X1027725D01*
X1026139Y1144000D02*
X1027578D01*
X1026207Y1144100D02*
X1027430D01*
X1026275Y1144200D02*
X1027282D01*
X1026343Y1144300D02*
X1027135D01*
X1026410Y1144400D02*
X1026987D01*
X1026478Y1144500D02*
X1026840D01*
X1026546Y1144600D02*
X1026692D01*
X1023600Y1140172D02*
Y1140251D01*
X1023700Y1140104D02*
Y1140399D01*
X1023800Y1140037D02*
Y1140546D01*
X1023900Y1139969D02*
Y1140694D01*
X1024000Y1139901D02*
Y1140842D01*
X1024100Y1139833D02*
Y1140989D01*
X1024200Y1139766D02*
Y1141137D01*
X1024300Y1139698D02*
Y1141285D01*
X1024400Y1139630D02*
Y1141432D01*
X1024500Y1139563D02*
Y1141580D01*
X1024600Y1139495D02*
Y1141727D01*
X1024700Y1139427D02*
Y1141875D01*
X1024800Y1139359D02*
Y1142023D01*
X1024900Y1139292D02*
Y1142170D01*
X1025000Y1139224D02*
Y1142318D01*
X1025100Y1139156D02*
Y1142466D01*
X1025200Y1139088D02*
Y1142613D01*
X1025300Y1139021D02*
Y1142761D01*
X1025400Y1138953D02*
Y1142908D01*
X1025500Y1138885D02*
Y1143056D01*
X1025600Y1138817D02*
Y1143204D01*
X1025700Y1138750D02*
Y1143351D01*
X1025800Y1138682D02*
Y1143499D01*
X1025900Y1138614D02*
Y1143647D01*
X1026000Y1138546D02*
Y1143794D01*
X1026100Y1138479D02*
Y1143942D01*
X1026200Y1138411D02*
Y1144089D01*
X1026300Y1138343D02*
Y1144237D01*
X1026400Y1138275D02*
Y1144385D01*
X1026500Y1138208D02*
Y1144532D01*
X1026600Y1138140D02*
Y1144662D01*
X1026700Y1138072D02*
Y1144595D01*
X1026800Y1138004D02*
Y1144527D01*
X1026900Y1137937D02*
Y1144459D01*
X1027000Y1137869D02*
Y1144391D01*
X1027100Y1137801D02*
Y1144324D01*
X1027200Y1137734D02*
Y1144256D01*
X1027300Y1137666D02*
Y1144188D01*
X1027400Y1137598D02*
Y1144120D01*
X1027500Y1137530D02*
Y1144053D01*
X1027600Y1137463D02*
Y1143985D01*
X1027700Y1137395D02*
Y1143917D01*
X1027800Y1137327D02*
Y1143849D01*
X1027900Y1137259D02*
Y1143782D01*
X1028000Y1137192D02*
Y1143714D01*
X1028100Y1137124D02*
Y1143646D01*
X1028200Y1137056D02*
Y1143578D01*
X1028300Y1136988D02*
Y1143511D01*
X1028400Y1136921D02*
Y1143443D01*
X1028500Y1136853D02*
Y1143375D01*
X1028600Y1136785D02*
Y1143308D01*
X1028700Y1136717D02*
Y1143240D01*
X1028800Y1136650D02*
Y1143172D01*
X1028900Y1136582D02*
Y1143104D01*
X1029000Y1136514D02*
Y1143037D01*
X1029100Y1136446D02*
Y1142969D01*
X1029200Y1136379D02*
Y1142901D01*
X1029300Y1136363D02*
Y1142833D01*
X1029400Y1136510D02*
Y1142766D01*
X1029500Y1136658D02*
Y1142698D01*
X1029600Y1136806D02*
Y1142630D01*
X1029700Y1136953D02*
Y1142562D01*
X1029800Y1137101D02*
Y1142495D01*
X1029900Y1137248D02*
Y1142427D01*
X1030000Y1137396D02*
Y1142359D01*
X1030100Y1137544D02*
Y1142291D01*
X1030200Y1137691D02*
Y1142224D01*
X1030300Y1137839D02*
Y1142156D01*
X1030400Y1137987D02*
Y1142088D01*
X1030500Y1138134D02*
Y1142020D01*
X1030600Y1138282D02*
Y1141953D01*
X1030700Y1138429D02*
Y1141885D01*
X1030800Y1138577D02*
Y1141817D01*
X1030900Y1138725D02*
Y1141749D01*
X1031000Y1138872D02*
Y1141682D01*
X1031100Y1139020D02*
Y1141614D01*
X1031200Y1139168D02*
Y1141546D01*
X1031300Y1139315D02*
Y1141479D01*
X1031400Y1139463D02*
Y1141411D01*
X1031500Y1139610D02*
Y1141343D01*
X1031600Y1139758D02*
Y1141275D01*
X1031700Y1139906D02*
Y1141208D01*
X1031800Y1140053D02*
Y1141140D01*
X1031900Y1140201D02*
Y1141072D01*
X1032000Y1140349D02*
Y1141004D01*
X1032100Y1140496D02*
Y1140937D01*
X1032200Y1140644D02*
Y1140869D01*
X1032300Y1140791D02*
Y1140801D01*
X1038303Y1138063D02*
X1042173Y1143776D01*
X1038116Y1146524*
X1034246Y1140811*
X1038303Y1138063*
X1038249Y1138100D02*
X1038328D01*
X1038101Y1138200D02*
X1038396D01*
X1037954Y1138300D02*
X1038463D01*
X1037806Y1138400D02*
X1038531D01*
X1037658Y1138500D02*
X1038599D01*
X1037511Y1138600D02*
X1038667D01*
X1037363Y1138700D02*
X1038734D01*
X1037215Y1138800D02*
X1038802D01*
X1037068Y1138900D02*
X1038870D01*
X1036920Y1139000D02*
X1038937D01*
X1036773Y1139100D02*
X1039005D01*
X1036625Y1139200D02*
X1039073D01*
X1036477Y1139300D02*
X1039141D01*
X1036330Y1139400D02*
X1039208D01*
X1036182Y1139500D02*
X1039276D01*
X1036034Y1139600D02*
X1039344D01*
X1035887Y1139700D02*
X1039412D01*
X1035739Y1139800D02*
X1039479D01*
X1035592Y1139900D02*
X1039547D01*
X1035444Y1140000D02*
X1039615D01*
X1035296Y1140100D02*
X1039683D01*
X1035149Y1140200D02*
X1039750D01*
X1035001Y1140300D02*
X1039818D01*
X1034853Y1140400D02*
X1039886D01*
X1034706Y1140500D02*
X1039954D01*
X1034558Y1140600D02*
X1040021D01*
X1034411Y1140700D02*
X1040089D01*
X1034263Y1140800D02*
X1040157D01*
X1034306Y1140900D02*
X1040225D01*
X1034374Y1141000D02*
X1040292D01*
X1034442Y1141100D02*
X1040360D01*
X1034509Y1141200D02*
X1040428D01*
X1034577Y1141300D02*
X1040496D01*
X1034645Y1141400D02*
X1040563D01*
X1034713Y1141500D02*
X1040631D01*
X1034780Y1141600D02*
X1040699D01*
X1034848Y1141700D02*
X1040766D01*
X1034916Y1141800D02*
X1040834D01*
X1034984Y1141900D02*
X1040902D01*
X1035051Y1142000D02*
X1040970D01*
X1035119Y1142100D02*
X1041037D01*
X1035187Y1142200D02*
X1041105D01*
X1035254Y1142300D02*
X1041173D01*
X1035322Y1142400D02*
X1041241D01*
X1035390Y1142500D02*
X1041308D01*
X1035458Y1142600D02*
X1041376D01*
X1035525Y1142700D02*
X1041444D01*
X1035593Y1142800D02*
X1041512D01*
X1035661Y1142900D02*
X1041579D01*
X1035729Y1143000D02*
X1041647D01*
X1035796Y1143100D02*
X1041715D01*
X1035864Y1143200D02*
X1041783D01*
X1035932Y1143300D02*
X1041850D01*
X1036000Y1143400D02*
X1041918D01*
X1036067Y1143500D02*
X1041986D01*
X1036135Y1143600D02*
X1042054D01*
X1036203Y1143700D02*
X1042121D01*
X1036271Y1143800D02*
X1042137D01*
X1036338Y1143900D02*
X1041990D01*
X1036406Y1144000D02*
X1041842D01*
X1036474Y1144100D02*
X1041694D01*
X1036542Y1144200D02*
X1041547D01*
X1036609Y1144300D02*
X1041399D01*
X1036677Y1144400D02*
X1041252D01*
X1036745Y1144500D02*
X1041104D01*
X1036813Y1144600D02*
X1040956D01*
X1036880Y1144700D02*
X1040809D01*
X1036948Y1144800D02*
X1040661D01*
X1037016Y1144900D02*
X1040513D01*
X1037083Y1145000D02*
X1040366D01*
X1037151Y1145100D02*
X1040218D01*
X1037219Y1145200D02*
X1040071D01*
X1037287Y1145300D02*
X1039923D01*
X1037354Y1145400D02*
X1039775D01*
X1037422Y1145500D02*
X1039628D01*
X1037490Y1145600D02*
X1039480D01*
X1037558Y1145700D02*
X1039332D01*
X1037625Y1145800D02*
X1039185D01*
X1037693Y1145900D02*
X1039037D01*
X1037761Y1146000D02*
X1038890D01*
X1037829Y1146100D02*
X1038742D01*
X1037896Y1146200D02*
X1038594D01*
X1037964Y1146300D02*
X1038447D01*
X1038032Y1146400D02*
X1038299D01*
X1038100Y1146500D02*
X1038151D01*
X1034300Y1140775D02*
Y1140891D01*
X1034400Y1140707D02*
Y1141039D01*
X1034500Y1140639D02*
Y1141186D01*
X1034600Y1140572D02*
Y1141334D01*
X1034700Y1140504D02*
Y1141481D01*
X1034800Y1140436D02*
Y1141629D01*
X1034900Y1140368D02*
Y1141777D01*
X1035000Y1140301D02*
Y1141924D01*
X1035100Y1140233D02*
Y1142072D01*
X1035200Y1140165D02*
Y1142220D01*
X1035300Y1140098D02*
Y1142367D01*
X1035400Y1140030D02*
Y1142515D01*
X1035500Y1139962D02*
Y1142662D01*
X1035600Y1139894D02*
Y1142810D01*
X1035700Y1139827D02*
Y1142958D01*
X1035800Y1139759D02*
Y1143105D01*
X1035900Y1139691D02*
Y1143253D01*
X1036000Y1139623D02*
Y1143401D01*
X1036100Y1139556D02*
Y1143548D01*
X1036200Y1139488D02*
Y1143696D01*
X1036300Y1139420D02*
Y1143843D01*
X1036400Y1139352D02*
Y1143991D01*
X1036500Y1139285D02*
Y1144139D01*
X1036600Y1139217D02*
Y1144286D01*
X1036700Y1139149D02*
Y1144434D01*
X1036800Y1139081D02*
Y1144582D01*
X1036900Y1139014D02*
Y1144729D01*
X1037000Y1138946D02*
Y1144877D01*
X1037100Y1138878D02*
Y1145024D01*
X1037200Y1138810D02*
Y1145172D01*
X1037300Y1138743D02*
Y1145320D01*
X1037400Y1138675D02*
Y1145467D01*
X1037500Y1138607D02*
Y1145615D01*
X1037600Y1138539D02*
Y1145762D01*
X1037700Y1138472D02*
Y1145910D01*
X1037800Y1138404D02*
Y1146058D01*
X1037900Y1138336D02*
Y1146205D01*
X1038000Y1138269D02*
Y1146353D01*
X1038100Y1138201D02*
Y1146501D01*
X1038200Y1138133D02*
Y1146467D01*
X1038300Y1138065D02*
Y1146399D01*
X1038400Y1138207D02*
Y1146332D01*
X1038500Y1138354D02*
Y1146264D01*
X1038600Y1138502D02*
Y1146196D01*
X1038700Y1138649D02*
Y1146128D01*
X1038800Y1138797D02*
Y1146061D01*
X1038900Y1138945D02*
Y1145993D01*
X1039000Y1139092D02*
Y1145925D01*
X1039100Y1139240D02*
Y1145857D01*
X1039200Y1139388D02*
Y1145790D01*
X1039300Y1139535D02*
Y1145722D01*
X1039400Y1139683D02*
Y1145654D01*
X1039500Y1139830D02*
Y1145586D01*
X1039600Y1139978D02*
Y1145519D01*
X1039700Y1140126D02*
Y1145451D01*
X1039800Y1140273D02*
Y1145383D01*
X1039900Y1140421D02*
Y1145316D01*
X1040000Y1140569D02*
Y1145248D01*
X1040100Y1140716D02*
Y1145180D01*
X1040200Y1140864D02*
Y1145112D01*
X1040300Y1141011D02*
Y1145045D01*
X1040400Y1141159D02*
Y1144977D01*
X1040500Y1141307D02*
Y1144909D01*
X1040600Y1141454D02*
Y1144841D01*
X1040700Y1141602D02*
Y1144774D01*
X1040800Y1141750D02*
Y1144706D01*
X1040900Y1141897D02*
Y1144638D01*
X1041000Y1142045D02*
Y1144570D01*
X1041100Y1142192D02*
Y1144503D01*
X1041200Y1142340D02*
Y1144435D01*
X1041300Y1142488D02*
Y1144367D01*
X1041400Y1142635D02*
Y1144299D01*
X1041500Y1142783D02*
Y1144232D01*
X1041600Y1142930D02*
Y1144164D01*
X1041700Y1143078D02*
Y1144096D01*
X1041800Y1143226D02*
Y1144028D01*
X1041900Y1143373D02*
Y1143961D01*
X1042000Y1143521D02*
Y1143893D01*
X1042100Y1143669D02*
Y1143825D01*
X1025884Y1146476D02*
X1029754Y1152189D01*
X1025697Y1154937*
X1021827Y1149224*
X1025884Y1146476*
X1025849Y1146500D02*
X1025900D01*
X1025701Y1146600D02*
X1025968D01*
X1025553Y1146700D02*
X1026036D01*
X1025406Y1146800D02*
X1026104D01*
X1025258Y1146900D02*
X1026171D01*
X1025110Y1147000D02*
X1026239D01*
X1024963Y1147100D02*
X1026307D01*
X1024815Y1147200D02*
X1026375D01*
X1024668Y1147300D02*
X1026442D01*
X1024520Y1147400D02*
X1026510D01*
X1024372Y1147500D02*
X1026578D01*
X1024225Y1147600D02*
X1026646D01*
X1024077Y1147700D02*
X1026713D01*
X1023929Y1147800D02*
X1026781D01*
X1023782Y1147900D02*
X1026849D01*
X1023634Y1148000D02*
X1026917D01*
X1023487Y1148100D02*
X1026984D01*
X1023339Y1148200D02*
X1027052D01*
X1023191Y1148300D02*
X1027120D01*
X1023044Y1148400D02*
X1027187D01*
X1022896Y1148500D02*
X1027255D01*
X1022748Y1148600D02*
X1027323D01*
X1022601Y1148700D02*
X1027391D01*
X1022453Y1148800D02*
X1027458D01*
X1022306Y1148900D02*
X1027526D01*
X1022158Y1149000D02*
X1027594D01*
X1022010Y1149100D02*
X1027662D01*
X1021863Y1149200D02*
X1027729D01*
X1021879Y1149300D02*
X1027797D01*
X1021946Y1149400D02*
X1027865D01*
X1022014Y1149500D02*
X1027933D01*
X1022082Y1149600D02*
X1028000D01*
X1022150Y1149700D02*
X1028068D01*
X1022217Y1149800D02*
X1028136D01*
X1022285Y1149900D02*
X1028204D01*
X1022353Y1150000D02*
X1028271D01*
X1022421Y1150100D02*
X1028339D01*
X1022488Y1150200D02*
X1028407D01*
X1022556Y1150300D02*
X1028475D01*
X1022624Y1150400D02*
X1028542D01*
X1022692Y1150500D02*
X1028610D01*
X1022759Y1150600D02*
X1028678D01*
X1022827Y1150700D02*
X1028746D01*
X1022895Y1150800D02*
X1028813D01*
X1022963Y1150900D02*
X1028881D01*
X1023030Y1151000D02*
X1028949D01*
X1023098Y1151100D02*
X1029016D01*
X1023166Y1151200D02*
X1029084D01*
X1023234Y1151300D02*
X1029152D01*
X1023301Y1151400D02*
X1029220D01*
X1023369Y1151500D02*
X1029287D01*
X1023437Y1151600D02*
X1029355D01*
X1023505Y1151700D02*
X1029423D01*
X1023572Y1151800D02*
X1029491D01*
X1023640Y1151900D02*
X1029558D01*
X1023708Y1152000D02*
X1029626D01*
X1023775Y1152100D02*
X1029694D01*
X1023843Y1152200D02*
X1029737D01*
X1023911Y1152300D02*
X1029589D01*
X1023979Y1152400D02*
X1029442D01*
X1024046Y1152500D02*
X1029294D01*
X1024114Y1152600D02*
X1029147D01*
X1024182Y1152700D02*
X1028999D01*
X1024250Y1152800D02*
X1028851D01*
X1024317Y1152900D02*
X1028704D01*
X1024385Y1153000D02*
X1028556D01*
X1024453Y1153100D02*
X1028408D01*
X1024521Y1153200D02*
X1028261D01*
X1024588Y1153300D02*
X1028113D01*
X1024656Y1153400D02*
X1027966D01*
X1024724Y1153500D02*
X1027818D01*
X1024792Y1153600D02*
X1027670D01*
X1024859Y1153700D02*
X1027523D01*
X1024927Y1153800D02*
X1027375D01*
X1024995Y1153900D02*
X1027227D01*
X1025063Y1154000D02*
X1027080D01*
X1025130Y1154100D02*
X1026932D01*
X1025198Y1154200D02*
X1026785D01*
X1025266Y1154300D02*
X1026637D01*
X1025334Y1154400D02*
X1026489D01*
X1025401Y1154500D02*
X1026342D01*
X1025469Y1154600D02*
X1026194D01*
X1025537Y1154700D02*
X1026046D01*
X1025604Y1154800D02*
X1025899D01*
X1025672Y1154900D02*
X1025751D01*
X1021900Y1149175D02*
Y1149331D01*
X1022000Y1149107D02*
Y1149479D01*
X1022100Y1149039D02*
Y1149627D01*
X1022200Y1148972D02*
Y1149774D01*
X1022300Y1148904D02*
Y1149922D01*
X1022400Y1148836D02*
Y1150070D01*
X1022500Y1148768D02*
Y1150217D01*
X1022600Y1148701D02*
Y1150365D01*
X1022700Y1148633D02*
Y1150512D01*
X1022800Y1148565D02*
Y1150660D01*
X1022900Y1148497D02*
Y1150808D01*
X1023000Y1148430D02*
Y1150955D01*
X1023100Y1148362D02*
Y1151103D01*
X1023200Y1148294D02*
Y1151250D01*
X1023300Y1148226D02*
Y1151398D01*
X1023400Y1148159D02*
Y1151546D01*
X1023500Y1148091D02*
Y1151693D01*
X1023600Y1148023D02*
Y1151841D01*
X1023700Y1147955D02*
Y1151989D01*
X1023800Y1147888D02*
Y1152136D01*
X1023900Y1147820D02*
Y1152284D01*
X1024000Y1147752D02*
Y1152431D01*
X1024100Y1147684D02*
Y1152579D01*
X1024200Y1147617D02*
Y1152727D01*
X1024300Y1147549D02*
Y1152874D01*
X1024400Y1147481D02*
Y1153022D01*
X1024500Y1147414D02*
Y1153170D01*
X1024600Y1147346D02*
Y1153317D01*
X1024700Y1147278D02*
Y1153465D01*
X1024800Y1147210D02*
Y1153612D01*
X1024900Y1147143D02*
Y1153760D01*
X1025000Y1147075D02*
Y1153908D01*
X1025100Y1147007D02*
Y1154055D01*
X1025200Y1146939D02*
Y1154203D01*
X1025300Y1146872D02*
Y1154351D01*
X1025400Y1146804D02*
Y1154498D01*
X1025500Y1146736D02*
Y1154646D01*
X1025600Y1146668D02*
Y1154793D01*
X1025700Y1146601D02*
Y1154935D01*
X1025800Y1146533D02*
Y1154867D01*
X1025900Y1146499D02*
Y1154799D01*
X1026000Y1146647D02*
Y1154731D01*
X1026100Y1146795D02*
Y1154664D01*
X1026200Y1146942D02*
Y1154596D01*
X1026300Y1147090D02*
Y1154528D01*
X1026400Y1147238D02*
Y1154461D01*
X1026500Y1147385D02*
Y1154393D01*
X1026600Y1147533D02*
Y1154325D01*
X1026700Y1147680D02*
Y1154257D01*
X1026800Y1147828D02*
Y1154190D01*
X1026900Y1147976D02*
Y1154122D01*
X1027000Y1148123D02*
Y1154054D01*
X1027100Y1148271D02*
Y1153986D01*
X1027200Y1148418D02*
Y1153919D01*
X1027300Y1148566D02*
Y1153851D01*
X1027400Y1148714D02*
Y1153783D01*
X1027500Y1148861D02*
Y1153715D01*
X1027600Y1149009D02*
Y1153648D01*
X1027700Y1149157D02*
Y1153580D01*
X1027800Y1149304D02*
Y1153512D01*
X1027900Y1149452D02*
Y1153444D01*
X1028000Y1149599D02*
Y1153377D01*
X1028100Y1149747D02*
Y1153309D01*
X1028200Y1149895D02*
Y1153241D01*
X1028300Y1150042D02*
Y1153173D01*
X1028400Y1150190D02*
Y1153106D01*
X1028500Y1150338D02*
Y1153038D01*
X1028600Y1150485D02*
Y1152970D01*
X1028700Y1150633D02*
Y1152902D01*
X1028800Y1150780D02*
Y1152835D01*
X1028900Y1150928D02*
Y1152767D01*
X1029000Y1151076D02*
Y1152699D01*
X1029100Y1151223D02*
Y1152632D01*
X1029200Y1151371D02*
Y1152564D01*
X1029300Y1151519D02*
Y1152496D01*
X1029400Y1151666D02*
Y1152428D01*
X1029500Y1151814D02*
Y1152361D01*
X1029600Y1151961D02*
Y1152293D01*
X1029700Y1152109D02*
Y1152225D01*
X939593Y1062249D02*
Y1059593D01*
X942249*
Y1062249*
X939593*
X939600Y1059593D02*
Y1062249D01*
X939650Y1059593D02*
Y1062249D01*
X939700Y1059593D02*
Y1062249D01*
X939750Y1059593D02*
Y1062249D01*
X939800Y1059593D02*
Y1062249D01*
X939850Y1059593D02*
Y1062249D01*
X939900Y1059593D02*
Y1062249D01*
X939950Y1059593D02*
Y1062249D01*
X940000Y1059593D02*
Y1062249D01*
X940050Y1059593D02*
Y1062249D01*
X940100Y1059593D02*
Y1062249D01*
X940150Y1059593D02*
Y1062249D01*
X940200Y1059593D02*
Y1062249D01*
X940250Y1059593D02*
Y1062249D01*
X940300Y1059593D02*
Y1062249D01*
X940350Y1059593D02*
Y1062249D01*
X940400Y1059593D02*
Y1062249D01*
X940450Y1059593D02*
Y1062249D01*
X940500Y1059593D02*
Y1062249D01*
X940550Y1059593D02*
Y1062249D01*
X940600Y1059593D02*
Y1062249D01*
X940650Y1059593D02*
Y1062249D01*
X940700Y1059593D02*
Y1062249D01*
X940750Y1059593D02*
Y1062249D01*
X940800Y1059593D02*
Y1062249D01*
X940850Y1059593D02*
Y1062249D01*
X940900Y1059593D02*
Y1062249D01*
X940950Y1059593D02*
Y1062249D01*
X941000Y1059593D02*
Y1062249D01*
X941050Y1059593D02*
Y1062249D01*
X941100Y1059593D02*
Y1062249D01*
X941150Y1059593D02*
Y1062249D01*
X941200Y1059593D02*
Y1062249D01*
X941250Y1059593D02*
Y1062249D01*
X941300Y1059593D02*
Y1062249D01*
X941350Y1059593D02*
Y1062249D01*
X941400Y1059593D02*
Y1062249D01*
X941450Y1059593D02*
Y1062249D01*
X941500Y1059593D02*
Y1062249D01*
X941550Y1059593D02*
Y1062249D01*
X941600Y1059593D02*
Y1062249D01*
X941650Y1059593D02*
Y1062249D01*
X941700Y1059593D02*
Y1062249D01*
X941750Y1059593D02*
Y1062249D01*
X941800Y1059593D02*
Y1062249D01*
X941850Y1059593D02*
Y1062249D01*
X941900Y1059593D02*
Y1062249D01*
X941950Y1059593D02*
Y1062249D01*
X942000Y1059593D02*
Y1062249D01*
X942050Y1059593D02*
Y1062249D01*
X942100Y1059593D02*
Y1062249D01*
X942150Y1059593D02*
Y1062249D01*
X942200Y1059593D02*
Y1062249D01*
X939593Y1052407D02*
Y1049751D01*
X942249*
Y1052407*
X939593*
X939600Y1049751D02*
Y1052407D01*
X939650Y1049751D02*
Y1052407D01*
X939700Y1049751D02*
Y1052407D01*
X939750Y1049751D02*
Y1052407D01*
X939800Y1049751D02*
Y1052407D01*
X939850Y1049751D02*
Y1052407D01*
X939900Y1049751D02*
Y1052407D01*
X939950Y1049751D02*
Y1052407D01*
X940000Y1049751D02*
Y1052407D01*
X940050Y1049751D02*
Y1052407D01*
X940100Y1049751D02*
Y1052407D01*
X940150Y1049751D02*
Y1052407D01*
X940200Y1049751D02*
Y1052407D01*
X940250Y1049751D02*
Y1052407D01*
X940300Y1049751D02*
Y1052407D01*
X940350Y1049751D02*
Y1052407D01*
X940400Y1049751D02*
Y1052407D01*
X940450Y1049751D02*
Y1052407D01*
X940500Y1049751D02*
Y1052407D01*
X940550Y1049751D02*
Y1052407D01*
X940600Y1049751D02*
Y1052407D01*
X940650Y1049751D02*
Y1052407D01*
X940700Y1049751D02*
Y1052407D01*
X940750Y1049751D02*
Y1052407D01*
X940800Y1049751D02*
Y1052407D01*
X940850Y1049751D02*
Y1052407D01*
X940900Y1049751D02*
Y1052407D01*
X940950Y1049751D02*
Y1052407D01*
X941000Y1049751D02*
Y1052407D01*
X941050Y1049751D02*
Y1052407D01*
X941100Y1049751D02*
Y1052407D01*
X941150Y1049751D02*
Y1052407D01*
X941200Y1049751D02*
Y1052407D01*
X941250Y1049751D02*
Y1052407D01*
X941300Y1049751D02*
Y1052407D01*
X941350Y1049751D02*
Y1052407D01*
X941400Y1049751D02*
Y1052407D01*
X941450Y1049751D02*
Y1052407D01*
X941500Y1049751D02*
Y1052407D01*
X941550Y1049751D02*
Y1052407D01*
X941600Y1049751D02*
Y1052407D01*
X941650Y1049751D02*
Y1052407D01*
X941700Y1049751D02*
Y1052407D01*
X941750Y1049751D02*
Y1052407D01*
X941800Y1049751D02*
Y1052407D01*
X941850Y1049751D02*
Y1052407D01*
X941900Y1049751D02*
Y1052407D01*
X941950Y1049751D02*
Y1052407D01*
X942000Y1049751D02*
Y1052407D01*
X942050Y1049751D02*
Y1052407D01*
X942100Y1049751D02*
Y1052407D01*
X942150Y1049751D02*
Y1052407D01*
X942200Y1049751D02*
Y1052407D01*
X939593Y1057328D02*
Y1054672D01*
X942249*
Y1057328*
X939593*
X939600Y1054672D02*
Y1057328D01*
X939650Y1054672D02*
Y1057328D01*
X939700Y1054672D02*
Y1057328D01*
X939750Y1054672D02*
Y1057328D01*
X939800Y1054672D02*
Y1057328D01*
X939850Y1054672D02*
Y1057328D01*
X939900Y1054672D02*
Y1057328D01*
X939950Y1054672D02*
Y1057328D01*
X940000Y1054672D02*
Y1057328D01*
X940050Y1054672D02*
Y1057328D01*
X940100Y1054672D02*
Y1057328D01*
X940150Y1054672D02*
Y1057328D01*
X940200Y1054672D02*
Y1057328D01*
X940250Y1054672D02*
Y1057328D01*
X940300Y1054672D02*
Y1057328D01*
X940350Y1054672D02*
Y1057328D01*
X940400Y1054672D02*
Y1057328D01*
X940450Y1054672D02*
Y1057328D01*
X940500Y1054672D02*
Y1057328D01*
X940550Y1054672D02*
Y1057328D01*
X940600Y1054672D02*
Y1057328D01*
X940650Y1054672D02*
Y1057328D01*
X940700Y1054672D02*
Y1057328D01*
X940750Y1054672D02*
Y1057328D01*
X940800Y1054672D02*
Y1057328D01*
X940850Y1054672D02*
Y1057328D01*
X940900Y1054672D02*
Y1057328D01*
X940950Y1054672D02*
Y1057328D01*
X941000Y1054672D02*
Y1057328D01*
X941050Y1054672D02*
Y1057328D01*
X941100Y1054672D02*
Y1057328D01*
X941150Y1054672D02*
Y1057328D01*
X941200Y1054672D02*
Y1057328D01*
X941250Y1054672D02*
Y1057328D01*
X941300Y1054672D02*
Y1057328D01*
X941350Y1054672D02*
Y1057328D01*
X941400Y1054672D02*
Y1057328D01*
X941450Y1054672D02*
Y1057328D01*
X941500Y1054672D02*
Y1057328D01*
X941550Y1054672D02*
Y1057328D01*
X941600Y1054672D02*
Y1057328D01*
X941650Y1054672D02*
Y1057328D01*
X941700Y1054672D02*
Y1057328D01*
X941750Y1054672D02*
Y1057328D01*
X941800Y1054672D02*
Y1057328D01*
X941850Y1054672D02*
Y1057328D01*
X941900Y1054672D02*
Y1057328D01*
X941950Y1054672D02*
Y1057328D01*
X942000Y1054672D02*
Y1057328D01*
X942050Y1054672D02*
Y1057328D01*
X942100Y1054672D02*
Y1057328D01*
X942150Y1054672D02*
Y1057328D01*
X942200Y1054672D02*
Y1057328D01*
X929751Y1062249D02*
Y1059593D01*
X932407*
Y1062249*
X929751*
X929800Y1059593D02*
Y1062249D01*
X929850Y1059593D02*
Y1062249D01*
X929900Y1059593D02*
Y1062249D01*
X929950Y1059593D02*
Y1062249D01*
X930000Y1059593D02*
Y1062249D01*
X930050Y1059593D02*
Y1062249D01*
X930100Y1059593D02*
Y1062249D01*
X930150Y1059593D02*
Y1062249D01*
X930200Y1059593D02*
Y1062249D01*
X930250Y1059593D02*
Y1062249D01*
X930300Y1059593D02*
Y1062249D01*
X930350Y1059593D02*
Y1062249D01*
X930400Y1059593D02*
Y1062249D01*
X930450Y1059593D02*
Y1062249D01*
X930500Y1059593D02*
Y1062249D01*
X930550Y1059593D02*
Y1062249D01*
X930600Y1059593D02*
Y1062249D01*
X930650Y1059593D02*
Y1062249D01*
X930700Y1059593D02*
Y1062249D01*
X930750Y1059593D02*
Y1062249D01*
X930800Y1059593D02*
Y1062249D01*
X930850Y1059593D02*
Y1062249D01*
X930900Y1059593D02*
Y1062249D01*
X930950Y1059593D02*
Y1062249D01*
X931000Y1059593D02*
Y1062249D01*
X931050Y1059593D02*
Y1062249D01*
X931100Y1059593D02*
Y1062249D01*
X931150Y1059593D02*
Y1062249D01*
X931200Y1059593D02*
Y1062249D01*
X931250Y1059593D02*
Y1062249D01*
X931300Y1059593D02*
Y1062249D01*
X931350Y1059593D02*
Y1062249D01*
X931400Y1059593D02*
Y1062249D01*
X931450Y1059593D02*
Y1062249D01*
X931500Y1059593D02*
Y1062249D01*
X931550Y1059593D02*
Y1062249D01*
X931600Y1059593D02*
Y1062249D01*
X931650Y1059593D02*
Y1062249D01*
X931700Y1059593D02*
Y1062249D01*
X931750Y1059593D02*
Y1062249D01*
X931800Y1059593D02*
Y1062249D01*
X931850Y1059593D02*
Y1062249D01*
X931900Y1059593D02*
Y1062249D01*
X931950Y1059593D02*
Y1062249D01*
X932000Y1059593D02*
Y1062249D01*
X932050Y1059593D02*
Y1062249D01*
X932100Y1059593D02*
Y1062249D01*
X932150Y1059593D02*
Y1062249D01*
X932200Y1059593D02*
Y1062249D01*
X932250Y1059593D02*
Y1062249D01*
X932300Y1059593D02*
Y1062249D01*
X932350Y1059593D02*
Y1062249D01*
X932400Y1059593D02*
Y1062249D01*
X929751Y1052407D02*
Y1049751D01*
X932407*
Y1052407*
X929751*
X929800Y1049751D02*
Y1052407D01*
X929850Y1049751D02*
Y1052407D01*
X929900Y1049751D02*
Y1052407D01*
X929950Y1049751D02*
Y1052407D01*
X930000Y1049751D02*
Y1052407D01*
X930050Y1049751D02*
Y1052407D01*
X930100Y1049751D02*
Y1052407D01*
X930150Y1049751D02*
Y1052407D01*
X930200Y1049751D02*
Y1052407D01*
X930250Y1049751D02*
Y1052407D01*
X930300Y1049751D02*
Y1052407D01*
X930350Y1049751D02*
Y1052407D01*
X930400Y1049751D02*
Y1052407D01*
X930450Y1049751D02*
Y1052407D01*
X930500Y1049751D02*
Y1052407D01*
X930550Y1049751D02*
Y1052407D01*
X930600Y1049751D02*
Y1052407D01*
X930650Y1049751D02*
Y1052407D01*
X930700Y1049751D02*
Y1052407D01*
X930750Y1049751D02*
Y1052407D01*
X930800Y1049751D02*
Y1052407D01*
X930850Y1049751D02*
Y1052407D01*
X930900Y1049751D02*
Y1052407D01*
X930950Y1049751D02*
Y1052407D01*
X931000Y1049751D02*
Y1052407D01*
X931050Y1049751D02*
Y1052407D01*
X931100Y1049751D02*
Y1052407D01*
X931150Y1049751D02*
Y1052407D01*
X931200Y1049751D02*
Y1052407D01*
X931250Y1049751D02*
Y1052407D01*
X931300Y1049751D02*
Y1052407D01*
X931350Y1049751D02*
Y1052407D01*
X931400Y1049751D02*
Y1052407D01*
X931450Y1049751D02*
Y1052407D01*
X931500Y1049751D02*
Y1052407D01*
X931550Y1049751D02*
Y1052407D01*
X931600Y1049751D02*
Y1052407D01*
X931650Y1049751D02*
Y1052407D01*
X931700Y1049751D02*
Y1052407D01*
X931750Y1049751D02*
Y1052407D01*
X931800Y1049751D02*
Y1052407D01*
X931850Y1049751D02*
Y1052407D01*
X931900Y1049751D02*
Y1052407D01*
X931950Y1049751D02*
Y1052407D01*
X932000Y1049751D02*
Y1052407D01*
X932050Y1049751D02*
Y1052407D01*
X932100Y1049751D02*
Y1052407D01*
X932150Y1049751D02*
Y1052407D01*
X932200Y1049751D02*
Y1052407D01*
X932250Y1049751D02*
Y1052407D01*
X932300Y1049751D02*
Y1052407D01*
X932350Y1049751D02*
Y1052407D01*
X932400Y1049751D02*
Y1052407D01*
X929751Y1057328D02*
Y1054672D01*
X932407*
Y1057328*
X929751*
X929800Y1054672D02*
Y1057328D01*
X929850Y1054672D02*
Y1057328D01*
X929900Y1054672D02*
Y1057328D01*
X929950Y1054672D02*
Y1057328D01*
X930000Y1054672D02*
Y1057328D01*
X930050Y1054672D02*
Y1057328D01*
X930100Y1054672D02*
Y1057328D01*
X930150Y1054672D02*
Y1057328D01*
X930200Y1054672D02*
Y1057328D01*
X930250Y1054672D02*
Y1057328D01*
X930300Y1054672D02*
Y1057328D01*
X930350Y1054672D02*
Y1057328D01*
X930400Y1054672D02*
Y1057328D01*
X930450Y1054672D02*
Y1057328D01*
X930500Y1054672D02*
Y1057328D01*
X930550Y1054672D02*
Y1057328D01*
X930600Y1054672D02*
Y1057328D01*
X930650Y1054672D02*
Y1057328D01*
X930700Y1054672D02*
Y1057328D01*
X930750Y1054672D02*
Y1057328D01*
X930800Y1054672D02*
Y1057328D01*
X930850Y1054672D02*
Y1057328D01*
X930900Y1054672D02*
Y1057328D01*
X930950Y1054672D02*
Y1057328D01*
X931000Y1054672D02*
Y1057328D01*
X931050Y1054672D02*
Y1057328D01*
X931100Y1054672D02*
Y1057328D01*
X931150Y1054672D02*
Y1057328D01*
X931200Y1054672D02*
Y1057328D01*
X931250Y1054672D02*
Y1057328D01*
X931300Y1054672D02*
Y1057328D01*
X931350Y1054672D02*
Y1057328D01*
X931400Y1054672D02*
Y1057328D01*
X931450Y1054672D02*
Y1057328D01*
X931500Y1054672D02*
Y1057328D01*
X931550Y1054672D02*
Y1057328D01*
X931600Y1054672D02*
Y1057328D01*
X931650Y1054672D02*
Y1057328D01*
X931700Y1054672D02*
Y1057328D01*
X931750Y1054672D02*
Y1057328D01*
X931800Y1054672D02*
Y1057328D01*
X931850Y1054672D02*
Y1057328D01*
X931900Y1054672D02*
Y1057328D01*
X931950Y1054672D02*
Y1057328D01*
X932000Y1054672D02*
Y1057328D01*
X932050Y1054672D02*
Y1057328D01*
X932100Y1054672D02*
Y1057328D01*
X932150Y1054672D02*
Y1057328D01*
X932200Y1054672D02*
Y1057328D01*
X932250Y1054672D02*
Y1057328D01*
X932300Y1054672D02*
Y1057328D01*
X932350Y1054672D02*
Y1057328D01*
X932400Y1054672D02*
Y1057328D01*
X934672Y1062249D02*
Y1059593D01*
X937328*
Y1062249*
X934672*
X934700Y1059593D02*
Y1062249D01*
X934750Y1059593D02*
Y1062249D01*
X934800Y1059593D02*
Y1062249D01*
X934850Y1059593D02*
Y1062249D01*
X934900Y1059593D02*
Y1062249D01*
X934950Y1059593D02*
Y1062249D01*
X935000Y1059593D02*
Y1062249D01*
X935050Y1059593D02*
Y1062249D01*
X935100Y1059593D02*
Y1062249D01*
X935150Y1059593D02*
Y1062249D01*
X935200Y1059593D02*
Y1062249D01*
X935250Y1059593D02*
Y1062249D01*
X935300Y1059593D02*
Y1062249D01*
X935350Y1059593D02*
Y1062249D01*
X935400Y1059593D02*
Y1062249D01*
X935450Y1059593D02*
Y1062249D01*
X935500Y1059593D02*
Y1062249D01*
X935550Y1059593D02*
Y1062249D01*
X935600Y1059593D02*
Y1062249D01*
X935650Y1059593D02*
Y1062249D01*
X935700Y1059593D02*
Y1062249D01*
X935750Y1059593D02*
Y1062249D01*
X935800Y1059593D02*
Y1062249D01*
X935850Y1059593D02*
Y1062249D01*
X935900Y1059593D02*
Y1062249D01*
X935950Y1059593D02*
Y1062249D01*
X936000Y1059593D02*
Y1062249D01*
X936050Y1059593D02*
Y1062249D01*
X936100Y1059593D02*
Y1062249D01*
X936150Y1059593D02*
Y1062249D01*
X936200Y1059593D02*
Y1062249D01*
X936250Y1059593D02*
Y1062249D01*
X936300Y1059593D02*
Y1062249D01*
X936350Y1059593D02*
Y1062249D01*
X936400Y1059593D02*
Y1062249D01*
X936450Y1059593D02*
Y1062249D01*
X936500Y1059593D02*
Y1062249D01*
X936550Y1059593D02*
Y1062249D01*
X936600Y1059593D02*
Y1062249D01*
X936650Y1059593D02*
Y1062249D01*
X936700Y1059593D02*
Y1062249D01*
X936750Y1059593D02*
Y1062249D01*
X936800Y1059593D02*
Y1062249D01*
X936850Y1059593D02*
Y1062249D01*
X936900Y1059593D02*
Y1062249D01*
X936950Y1059593D02*
Y1062249D01*
X937000Y1059593D02*
Y1062249D01*
X937050Y1059593D02*
Y1062249D01*
X937100Y1059593D02*
Y1062249D01*
X937150Y1059593D02*
Y1062249D01*
X937200Y1059593D02*
Y1062249D01*
X937250Y1059593D02*
Y1062249D01*
X937300Y1059593D02*
Y1062249D01*
X934672Y1052407D02*
Y1049751D01*
X937328*
Y1052407*
X934672*
X934700Y1049751D02*
Y1052407D01*
X934750Y1049751D02*
Y1052407D01*
X934800Y1049751D02*
Y1052407D01*
X934850Y1049751D02*
Y1052407D01*
X934900Y1049751D02*
Y1052407D01*
X934950Y1049751D02*
Y1052407D01*
X935000Y1049751D02*
Y1052407D01*
X935050Y1049751D02*
Y1052407D01*
X935100Y1049751D02*
Y1052407D01*
X935150Y1049751D02*
Y1052407D01*
X935200Y1049751D02*
Y1052407D01*
X935250Y1049751D02*
Y1052407D01*
X935300Y1049751D02*
Y1052407D01*
X935350Y1049751D02*
Y1052407D01*
X935400Y1049751D02*
Y1052407D01*
X935450Y1049751D02*
Y1052407D01*
X935500Y1049751D02*
Y1052407D01*
X935550Y1049751D02*
Y1052407D01*
X935600Y1049751D02*
Y1052407D01*
X935650Y1049751D02*
Y1052407D01*
X935700Y1049751D02*
Y1052407D01*
X935750Y1049751D02*
Y1052407D01*
X935800Y1049751D02*
Y1052407D01*
X935850Y1049751D02*
Y1052407D01*
X935900Y1049751D02*
Y1052407D01*
X935950Y1049751D02*
Y1052407D01*
X936000Y1049751D02*
Y1052407D01*
X936050Y1049751D02*
Y1052407D01*
X936100Y1049751D02*
Y1052407D01*
X936150Y1049751D02*
Y1052407D01*
X936200Y1049751D02*
Y1052407D01*
X936250Y1049751D02*
Y1052407D01*
X936300Y1049751D02*
Y1052407D01*
X936350Y1049751D02*
Y1052407D01*
X936400Y1049751D02*
Y1052407D01*
X936450Y1049751D02*
Y1052407D01*
X936500Y1049751D02*
Y1052407D01*
X936550Y1049751D02*
Y1052407D01*
X936600Y1049751D02*
Y1052407D01*
X936650Y1049751D02*
Y1052407D01*
X936700Y1049751D02*
Y1052407D01*
X936750Y1049751D02*
Y1052407D01*
X936800Y1049751D02*
Y1052407D01*
X936850Y1049751D02*
Y1052407D01*
X936900Y1049751D02*
Y1052407D01*
X936950Y1049751D02*
Y1052407D01*
X937000Y1049751D02*
Y1052407D01*
X937050Y1049751D02*
Y1052407D01*
X937100Y1049751D02*
Y1052407D01*
X937150Y1049751D02*
Y1052407D01*
X937200Y1049751D02*
Y1052407D01*
X937250Y1049751D02*
Y1052407D01*
X937300Y1049751D02*
Y1052407D01*
X934672Y1057328D02*
Y1054672D01*
X937328*
Y1057328*
X934672*
X934700Y1054672D02*
Y1057328D01*
X934750Y1054672D02*
Y1057328D01*
X934800Y1054672D02*
Y1057328D01*
X934850Y1054672D02*
Y1057328D01*
X934900Y1054672D02*
Y1057328D01*
X934950Y1054672D02*
Y1057328D01*
X935000Y1054672D02*
Y1057328D01*
X935050Y1054672D02*
Y1057328D01*
X935100Y1054672D02*
Y1057328D01*
X935150Y1054672D02*
Y1057328D01*
X935200Y1054672D02*
Y1057328D01*
X935250Y1054672D02*
Y1057328D01*
X935300Y1054672D02*
Y1057328D01*
X935350Y1054672D02*
Y1057328D01*
X935400Y1054672D02*
Y1057328D01*
X935450Y1054672D02*
Y1057328D01*
X935500Y1054672D02*
Y1057328D01*
X935550Y1054672D02*
Y1057328D01*
X935600Y1054672D02*
Y1057328D01*
X935650Y1054672D02*
Y1057328D01*
X935700Y1054672D02*
Y1057328D01*
X935750Y1054672D02*
Y1057328D01*
X935800Y1054672D02*
Y1057328D01*
X935850Y1054672D02*
Y1057328D01*
X935900Y1054672D02*
Y1057328D01*
X935950Y1054672D02*
Y1057328D01*
X936000Y1054672D02*
Y1057328D01*
X936050Y1054672D02*
Y1057328D01*
X936100Y1054672D02*
Y1057328D01*
X936150Y1054672D02*
Y1057328D01*
X936200Y1054672D02*
Y1057328D01*
X936250Y1054672D02*
Y1057328D01*
X936300Y1054672D02*
Y1057328D01*
X936350Y1054672D02*
Y1057328D01*
X936400Y1054672D02*
Y1057328D01*
X936450Y1054672D02*
Y1057328D01*
X936500Y1054672D02*
Y1057328D01*
X936550Y1054672D02*
Y1057328D01*
X936600Y1054672D02*
Y1057328D01*
X936650Y1054672D02*
Y1057328D01*
X936700Y1054672D02*
Y1057328D01*
X936750Y1054672D02*
Y1057328D01*
X936800Y1054672D02*
Y1057328D01*
X936850Y1054672D02*
Y1057328D01*
X936900Y1054672D02*
Y1057328D01*
X936950Y1054672D02*
Y1057328D01*
X937000Y1054672D02*
Y1057328D01*
X937050Y1054672D02*
Y1057328D01*
X937100Y1054672D02*
Y1057328D01*
X937150Y1054672D02*
Y1057328D01*
X937200Y1054672D02*
Y1057328D01*
X937250Y1054672D02*
Y1057328D01*
X937300Y1054672D02*
Y1057328D01*
X964710Y1142521D02*
X960479D01*
Y1138290*
X964710*
Y1142521*
X960500Y1138290D02*
Y1142521D01*
X960550Y1138290D02*
Y1142521D01*
X960600Y1138290D02*
Y1142521D01*
X960650Y1138290D02*
Y1142521D01*
X960700Y1138290D02*
Y1142521D01*
X960750Y1138290D02*
Y1142521D01*
X960800Y1138290D02*
Y1142521D01*
X960850Y1138290D02*
Y1142521D01*
X960900Y1138290D02*
Y1142521D01*
X960950Y1138290D02*
Y1142521D01*
X961000Y1138290D02*
Y1142521D01*
X961050Y1138290D02*
Y1142521D01*
X961100Y1138290D02*
Y1142521D01*
X961150Y1138290D02*
Y1142521D01*
X961200Y1138290D02*
Y1142521D01*
X961250Y1138290D02*
Y1142521D01*
X961300Y1138290D02*
Y1142521D01*
X961350Y1138290D02*
Y1142521D01*
X961400Y1138290D02*
Y1142521D01*
X961450Y1138290D02*
Y1142521D01*
X961500Y1138290D02*
Y1142521D01*
X961550Y1138290D02*
Y1142521D01*
X961600Y1138290D02*
Y1142521D01*
X961650Y1138290D02*
Y1142521D01*
X961700Y1138290D02*
Y1142521D01*
X961750Y1138290D02*
Y1142521D01*
X961800Y1138290D02*
Y1142521D01*
X961850Y1138290D02*
Y1142521D01*
X961900Y1138290D02*
Y1142521D01*
X961950Y1138290D02*
Y1142521D01*
X962000Y1138290D02*
Y1142521D01*
X962050Y1138290D02*
Y1142521D01*
X962100Y1138290D02*
Y1142521D01*
X962150Y1138290D02*
Y1142521D01*
X962200Y1138290D02*
Y1142521D01*
X962250Y1138290D02*
Y1142521D01*
X962300Y1138290D02*
Y1142521D01*
X962350Y1138290D02*
Y1142521D01*
X962400Y1138290D02*
Y1142521D01*
X962450Y1138290D02*
Y1142521D01*
X962500Y1138290D02*
Y1142521D01*
X962550Y1138290D02*
Y1142521D01*
X962600Y1138290D02*
Y1142521D01*
X962650Y1138290D02*
Y1142521D01*
X962700Y1138290D02*
Y1142521D01*
X962750Y1138290D02*
Y1142521D01*
X962800Y1138290D02*
Y1142521D01*
X962850Y1138290D02*
Y1142521D01*
X962900Y1138290D02*
Y1142521D01*
X962950Y1138290D02*
Y1142521D01*
X963000Y1138290D02*
Y1142521D01*
X963050Y1138290D02*
Y1142521D01*
X963100Y1138290D02*
Y1142521D01*
X963150Y1138290D02*
Y1142521D01*
X963200Y1138290D02*
Y1142521D01*
X963250Y1138290D02*
Y1142521D01*
X963300Y1138290D02*
Y1142521D01*
X963350Y1138290D02*
Y1142521D01*
X963400Y1138290D02*
Y1142521D01*
X963450Y1138290D02*
Y1142521D01*
X963500Y1138290D02*
Y1142521D01*
X963550Y1138290D02*
Y1142521D01*
X963600Y1138290D02*
Y1142521D01*
X963650Y1138290D02*
Y1142521D01*
X963700Y1138290D02*
Y1142521D01*
X963750Y1138290D02*
Y1142521D01*
X963800Y1138290D02*
Y1142521D01*
X963850Y1138290D02*
Y1142521D01*
X963900Y1138290D02*
Y1142521D01*
X963950Y1138290D02*
Y1142521D01*
X964000Y1138290D02*
Y1142521D01*
X964050Y1138290D02*
Y1142521D01*
X964100Y1138290D02*
Y1142521D01*
X964150Y1138290D02*
Y1142521D01*
X964200Y1138290D02*
Y1142521D01*
X964250Y1138290D02*
Y1142521D01*
X964300Y1138290D02*
Y1142521D01*
X964350Y1138290D02*
Y1142521D01*
X964400Y1138290D02*
Y1142521D01*
X964450Y1138290D02*
Y1142521D01*
X964500Y1138290D02*
Y1142521D01*
X964550Y1138290D02*
Y1142521D01*
X964600Y1138290D02*
Y1142521D01*
X964650Y1138290D02*
Y1142521D01*
X964700Y1138290D02*
Y1142521D01*
X976521D02*
X972290D01*
Y1138290*
X976521*
Y1142521*
X972300Y1138290D02*
Y1142521D01*
X972350Y1138290D02*
Y1142521D01*
X972400Y1138290D02*
Y1142521D01*
X972450Y1138290D02*
Y1142521D01*
X972500Y1138290D02*
Y1142521D01*
X972550Y1138290D02*
Y1142521D01*
X972600Y1138290D02*
Y1142521D01*
X972650Y1138290D02*
Y1142521D01*
X972700Y1138290D02*
Y1142521D01*
X972750Y1138290D02*
Y1142521D01*
X972800Y1138290D02*
Y1142521D01*
X972850Y1138290D02*
Y1142521D01*
X972900Y1138290D02*
Y1142521D01*
X972950Y1138290D02*
Y1142521D01*
X973000Y1138290D02*
Y1142521D01*
X973050Y1138290D02*
Y1142521D01*
X973100Y1138290D02*
Y1142521D01*
X973150Y1138290D02*
Y1142521D01*
X973200Y1138290D02*
Y1142521D01*
X973250Y1138290D02*
Y1142521D01*
X973300Y1138290D02*
Y1142521D01*
X973350Y1138290D02*
Y1142521D01*
X973400Y1138290D02*
Y1142521D01*
X973450Y1138290D02*
Y1142521D01*
X973500Y1138290D02*
Y1142521D01*
X973550Y1138290D02*
Y1142521D01*
X973600Y1138290D02*
Y1142521D01*
X973650Y1138290D02*
Y1142521D01*
X973700Y1138290D02*
Y1142521D01*
X973750Y1138290D02*
Y1142521D01*
X973800Y1138290D02*
Y1142521D01*
X973850Y1138290D02*
Y1142521D01*
X973900Y1138290D02*
Y1142521D01*
X973950Y1138290D02*
Y1142521D01*
X974000Y1138290D02*
Y1142521D01*
X974050Y1138290D02*
Y1142521D01*
X974100Y1138290D02*
Y1142521D01*
X974150Y1138290D02*
Y1142521D01*
X974200Y1138290D02*
Y1142521D01*
X974250Y1138290D02*
Y1142521D01*
X974300Y1138290D02*
Y1142521D01*
X974350Y1138290D02*
Y1142521D01*
X974400Y1138290D02*
Y1142521D01*
X974450Y1138290D02*
Y1142521D01*
X974500Y1138290D02*
Y1142521D01*
X974550Y1138290D02*
Y1142521D01*
X974600Y1138290D02*
Y1142521D01*
X974650Y1138290D02*
Y1142521D01*
X974700Y1138290D02*
Y1142521D01*
X974750Y1138290D02*
Y1142521D01*
X974800Y1138290D02*
Y1142521D01*
X974850Y1138290D02*
Y1142521D01*
X974900Y1138290D02*
Y1142521D01*
X974950Y1138290D02*
Y1142521D01*
X975000Y1138290D02*
Y1142521D01*
X975050Y1138290D02*
Y1142521D01*
X975100Y1138290D02*
Y1142521D01*
X975150Y1138290D02*
Y1142521D01*
X975200Y1138290D02*
Y1142521D01*
X975250Y1138290D02*
Y1142521D01*
X975300Y1138290D02*
Y1142521D01*
X975350Y1138290D02*
Y1142521D01*
X975400Y1138290D02*
Y1142521D01*
X975450Y1138290D02*
Y1142521D01*
X975500Y1138290D02*
Y1142521D01*
X975550Y1138290D02*
Y1142521D01*
X975600Y1138290D02*
Y1142521D01*
X975650Y1138290D02*
Y1142521D01*
X975700Y1138290D02*
Y1142521D01*
X975750Y1138290D02*
Y1142521D01*
X975800Y1138290D02*
Y1142521D01*
X975850Y1138290D02*
Y1142521D01*
X975900Y1138290D02*
Y1142521D01*
X975950Y1138290D02*
Y1142521D01*
X976000Y1138290D02*
Y1142521D01*
X976050Y1138290D02*
Y1142521D01*
X976100Y1138290D02*
Y1142521D01*
X976150Y1138290D02*
Y1142521D01*
X976200Y1138290D02*
Y1142521D01*
X976250Y1138290D02*
Y1142521D01*
X976300Y1138290D02*
Y1142521D01*
X976350Y1138290D02*
Y1142521D01*
X976400Y1138290D02*
Y1142521D01*
X976450Y1138290D02*
Y1142521D01*
X976500Y1138290D02*
Y1142521D01*
X970615D02*
X966385D01*
Y1138290*
X970615*
Y1142521*
X966400Y1138290D02*
Y1142521D01*
X966450Y1138290D02*
Y1142521D01*
X966500Y1138290D02*
Y1142521D01*
X966550Y1138290D02*
Y1142521D01*
X966600Y1138290D02*
Y1142521D01*
X966650Y1138290D02*
Y1142521D01*
X966700Y1138290D02*
Y1142521D01*
X966750Y1138290D02*
Y1142521D01*
X966800Y1138290D02*
Y1142521D01*
X966850Y1138290D02*
Y1142521D01*
X966900Y1138290D02*
Y1142521D01*
X966950Y1138290D02*
Y1142521D01*
X967000Y1138290D02*
Y1142521D01*
X967050Y1138290D02*
Y1142521D01*
X967100Y1138290D02*
Y1142521D01*
X967150Y1138290D02*
Y1142521D01*
X967200Y1138290D02*
Y1142521D01*
X967250Y1138290D02*
Y1142521D01*
X967300Y1138290D02*
Y1142521D01*
X967350Y1138290D02*
Y1142521D01*
X967400Y1138290D02*
Y1142521D01*
X967450Y1138290D02*
Y1142521D01*
X967500Y1138290D02*
Y1142521D01*
X967550Y1138290D02*
Y1142521D01*
X967600Y1138290D02*
Y1142521D01*
X967650Y1138290D02*
Y1142521D01*
X967700Y1138290D02*
Y1142521D01*
X967750Y1138290D02*
Y1142521D01*
X967800Y1138290D02*
Y1142521D01*
X967850Y1138290D02*
Y1142521D01*
X967900Y1138290D02*
Y1142521D01*
X967950Y1138290D02*
Y1142521D01*
X968000Y1138290D02*
Y1142521D01*
X968050Y1138290D02*
Y1142521D01*
X968100Y1138290D02*
Y1142521D01*
X968150Y1138290D02*
Y1142521D01*
X968200Y1138290D02*
Y1142521D01*
X968250Y1138290D02*
Y1142521D01*
X968300Y1138290D02*
Y1142521D01*
X968350Y1138290D02*
Y1142521D01*
X968400Y1138290D02*
Y1142521D01*
X968450Y1138290D02*
Y1142521D01*
X968500Y1138290D02*
Y1142521D01*
X968550Y1138290D02*
Y1142521D01*
X968600Y1138290D02*
Y1142521D01*
X968650Y1138290D02*
Y1142521D01*
X968700Y1138290D02*
Y1142521D01*
X968750Y1138290D02*
Y1142521D01*
X968800Y1138290D02*
Y1142521D01*
X968850Y1138290D02*
Y1142521D01*
X968900Y1138290D02*
Y1142521D01*
X968950Y1138290D02*
Y1142521D01*
X969000Y1138290D02*
Y1142521D01*
X969050Y1138290D02*
Y1142521D01*
X969100Y1138290D02*
Y1142521D01*
X969150Y1138290D02*
Y1142521D01*
X969200Y1138290D02*
Y1142521D01*
X969250Y1138290D02*
Y1142521D01*
X969300Y1138290D02*
Y1142521D01*
X969350Y1138290D02*
Y1142521D01*
X969400Y1138290D02*
Y1142521D01*
X969450Y1138290D02*
Y1142521D01*
X969500Y1138290D02*
Y1142521D01*
X969550Y1138290D02*
Y1142521D01*
X969600Y1138290D02*
Y1142521D01*
X969650Y1138290D02*
Y1142521D01*
X969700Y1138290D02*
Y1142521D01*
X969750Y1138290D02*
Y1142521D01*
X969800Y1138290D02*
Y1142521D01*
X969850Y1138290D02*
Y1142521D01*
X969900Y1138290D02*
Y1142521D01*
X969950Y1138290D02*
Y1142521D01*
X970000Y1138290D02*
Y1142521D01*
X970050Y1138290D02*
Y1142521D01*
X970100Y1138290D02*
Y1142521D01*
X970150Y1138290D02*
Y1142521D01*
X970200Y1138290D02*
Y1142521D01*
X970250Y1138290D02*
Y1142521D01*
X970300Y1138290D02*
Y1142521D01*
X970350Y1138290D02*
Y1142521D01*
X970400Y1138290D02*
Y1142521D01*
X970450Y1138290D02*
Y1142521D01*
X970500Y1138290D02*
Y1142521D01*
X970550Y1138290D02*
Y1142521D01*
X970600Y1138290D02*
Y1142521D01*
X964710Y1130710D02*
X960479D01*
Y1126479*
X964710*
Y1130710*
X960500Y1126479D02*
Y1130710D01*
X960550Y1126479D02*
Y1130710D01*
X960600Y1126479D02*
Y1130710D01*
X960650Y1126479D02*
Y1130710D01*
X960700Y1126479D02*
Y1130710D01*
X960750Y1126479D02*
Y1130710D01*
X960800Y1126479D02*
Y1130710D01*
X960850Y1126479D02*
Y1130710D01*
X960900Y1126479D02*
Y1130710D01*
X960950Y1126479D02*
Y1130710D01*
X961000Y1126479D02*
Y1130710D01*
X961050Y1126479D02*
Y1130710D01*
X961100Y1126479D02*
Y1130710D01*
X961150Y1126479D02*
Y1130710D01*
X961200Y1126479D02*
Y1130710D01*
X961250Y1126479D02*
Y1130710D01*
X961300Y1126479D02*
Y1130710D01*
X961350Y1126479D02*
Y1130710D01*
X961400Y1126479D02*
Y1130710D01*
X961450Y1126479D02*
Y1130710D01*
X961500Y1126479D02*
Y1130710D01*
X961550Y1126479D02*
Y1130710D01*
X961600Y1126479D02*
Y1130710D01*
X961650Y1126479D02*
Y1130710D01*
X961700Y1126479D02*
Y1130710D01*
X961750Y1126479D02*
Y1130710D01*
X961800Y1126479D02*
Y1130710D01*
X961850Y1126479D02*
Y1130710D01*
X961900Y1126479D02*
Y1130710D01*
X961950Y1126479D02*
Y1130710D01*
X962000Y1126479D02*
Y1130710D01*
X962050Y1126479D02*
Y1130710D01*
X962100Y1126479D02*
Y1130710D01*
X962150Y1126479D02*
Y1130710D01*
X962200Y1126479D02*
Y1130710D01*
X962250Y1126479D02*
Y1130710D01*
X962300Y1126479D02*
Y1130710D01*
X962350Y1126479D02*
Y1130710D01*
X962400Y1126479D02*
Y1130710D01*
X962450Y1126479D02*
Y1130710D01*
X962500Y1126479D02*
Y1130710D01*
X962550Y1126479D02*
Y1130710D01*
X962600Y1126479D02*
Y1130710D01*
X962650Y1126479D02*
Y1130710D01*
X962700Y1126479D02*
Y1130710D01*
X962750Y1126479D02*
Y1130710D01*
X962800Y1126479D02*
Y1130710D01*
X962850Y1126479D02*
Y1130710D01*
X962900Y1126479D02*
Y1130710D01*
X962950Y1126479D02*
Y1130710D01*
X963000Y1126479D02*
Y1130710D01*
X963050Y1126479D02*
Y1130710D01*
X963100Y1126479D02*
Y1130710D01*
X963150Y1126479D02*
Y1130710D01*
X963200Y1126479D02*
Y1130710D01*
X963250Y1126479D02*
Y1130710D01*
X963300Y1126479D02*
Y1130710D01*
X963350Y1126479D02*
Y1130710D01*
X963400Y1126479D02*
Y1130710D01*
X963450Y1126479D02*
Y1130710D01*
X963500Y1126479D02*
Y1130710D01*
X963550Y1126479D02*
Y1130710D01*
X963600Y1126479D02*
Y1130710D01*
X963650Y1126479D02*
Y1130710D01*
X963700Y1126479D02*
Y1130710D01*
X963750Y1126479D02*
Y1130710D01*
X963800Y1126479D02*
Y1130710D01*
X963850Y1126479D02*
Y1130710D01*
X963900Y1126479D02*
Y1130710D01*
X963950Y1126479D02*
Y1130710D01*
X964000Y1126479D02*
Y1130710D01*
X964050Y1126479D02*
Y1130710D01*
X964100Y1126479D02*
Y1130710D01*
X964150Y1126479D02*
Y1130710D01*
X964200Y1126479D02*
Y1130710D01*
X964250Y1126479D02*
Y1130710D01*
X964300Y1126479D02*
Y1130710D01*
X964350Y1126479D02*
Y1130710D01*
X964400Y1126479D02*
Y1130710D01*
X964450Y1126479D02*
Y1130710D01*
X964500Y1126479D02*
Y1130710D01*
X964550Y1126479D02*
Y1130710D01*
X964600Y1126479D02*
Y1130710D01*
X964650Y1126479D02*
Y1130710D01*
X964700Y1126479D02*
Y1130710D01*
X976521D02*
X972290D01*
Y1126479*
X976521*
Y1130710*
X972300Y1126479D02*
Y1130710D01*
X972350Y1126479D02*
Y1130710D01*
X972400Y1126479D02*
Y1130710D01*
X972450Y1126479D02*
Y1130710D01*
X972500Y1126479D02*
Y1130710D01*
X972550Y1126479D02*
Y1130710D01*
X972600Y1126479D02*
Y1130710D01*
X972650Y1126479D02*
Y1130710D01*
X972700Y1126479D02*
Y1130710D01*
X972750Y1126479D02*
Y1130710D01*
X972800Y1126479D02*
Y1130710D01*
X972850Y1126479D02*
Y1130710D01*
X972900Y1126479D02*
Y1130710D01*
X972950Y1126479D02*
Y1130710D01*
X973000Y1126479D02*
Y1130710D01*
X973050Y1126479D02*
Y1130710D01*
X973100Y1126479D02*
Y1130710D01*
X973150Y1126479D02*
Y1130710D01*
X973200Y1126479D02*
Y1130710D01*
X973250Y1126479D02*
Y1130710D01*
X973300Y1126479D02*
Y1130710D01*
X973350Y1126479D02*
Y1130710D01*
X973400Y1126479D02*
Y1130710D01*
X973450Y1126479D02*
Y1130710D01*
X973500Y1126479D02*
Y1130710D01*
X973550Y1126479D02*
Y1130710D01*
X973600Y1126479D02*
Y1130710D01*
X973650Y1126479D02*
Y1130710D01*
X973700Y1126479D02*
Y1130710D01*
X973750Y1126479D02*
Y1130710D01*
X973800Y1126479D02*
Y1130710D01*
X973850Y1126479D02*
Y1130710D01*
X973900Y1126479D02*
Y1130710D01*
X973950Y1126479D02*
Y1130710D01*
X974000Y1126479D02*
Y1130710D01*
X974050Y1126479D02*
Y1130710D01*
X974100Y1126479D02*
Y1130710D01*
X974150Y1126479D02*
Y1130710D01*
X974200Y1126479D02*
Y1130710D01*
X974250Y1126479D02*
Y1130710D01*
X974300Y1126479D02*
Y1130710D01*
X974350Y1126479D02*
Y1130710D01*
X974400Y1126479D02*
Y1130710D01*
X974450Y1126479D02*
Y1130710D01*
X974500Y1126479D02*
Y1130710D01*
X974550Y1126479D02*
Y1130710D01*
X974600Y1126479D02*
Y1130710D01*
X974650Y1126479D02*
Y1130710D01*
X974700Y1126479D02*
Y1130710D01*
X974750Y1126479D02*
Y1130710D01*
X974800Y1126479D02*
Y1130710D01*
X974850Y1126479D02*
Y1130710D01*
X974900Y1126479D02*
Y1130710D01*
X974950Y1126479D02*
Y1130710D01*
X975000Y1126479D02*
Y1130710D01*
X975050Y1126479D02*
Y1130710D01*
X975100Y1126479D02*
Y1130710D01*
X975150Y1126479D02*
Y1130710D01*
X975200Y1126479D02*
Y1130710D01*
X975250Y1126479D02*
Y1130710D01*
X975300Y1126479D02*
Y1130710D01*
X975350Y1126479D02*
Y1130710D01*
X975400Y1126479D02*
Y1130710D01*
X975450Y1126479D02*
Y1130710D01*
X975500Y1126479D02*
Y1130710D01*
X975550Y1126479D02*
Y1130710D01*
X975600Y1126479D02*
Y1130710D01*
X975650Y1126479D02*
Y1130710D01*
X975700Y1126479D02*
Y1130710D01*
X975750Y1126479D02*
Y1130710D01*
X975800Y1126479D02*
Y1130710D01*
X975850Y1126479D02*
Y1130710D01*
X975900Y1126479D02*
Y1130710D01*
X975950Y1126479D02*
Y1130710D01*
X976000Y1126479D02*
Y1130710D01*
X976050Y1126479D02*
Y1130710D01*
X976100Y1126479D02*
Y1130710D01*
X976150Y1126479D02*
Y1130710D01*
X976200Y1126479D02*
Y1130710D01*
X976250Y1126479D02*
Y1130710D01*
X976300Y1126479D02*
Y1130710D01*
X976350Y1126479D02*
Y1130710D01*
X976400Y1126479D02*
Y1130710D01*
X976450Y1126479D02*
Y1130710D01*
X976500Y1126479D02*
Y1130710D01*
X970615D02*
X966385D01*
Y1126479*
X970615*
Y1130710*
X966400Y1126479D02*
Y1130710D01*
X966450Y1126479D02*
Y1130710D01*
X966500Y1126479D02*
Y1130710D01*
X966550Y1126479D02*
Y1130710D01*
X966600Y1126479D02*
Y1130710D01*
X966650Y1126479D02*
Y1130710D01*
X966700Y1126479D02*
Y1130710D01*
X966750Y1126479D02*
Y1130710D01*
X966800Y1126479D02*
Y1130710D01*
X966850Y1126479D02*
Y1130710D01*
X966900Y1126479D02*
Y1130710D01*
X966950Y1126479D02*
Y1130710D01*
X967000Y1126479D02*
Y1130710D01*
X967050Y1126479D02*
Y1130710D01*
X967100Y1126479D02*
Y1130710D01*
X967150Y1126479D02*
Y1130710D01*
X967200Y1126479D02*
Y1130710D01*
X967250Y1126479D02*
Y1130710D01*
X967300Y1126479D02*
Y1130710D01*
X967350Y1126479D02*
Y1130710D01*
X967400Y1126479D02*
Y1130710D01*
X967450Y1126479D02*
Y1130710D01*
X967500Y1126479D02*
Y1130710D01*
X967550Y1126479D02*
Y1130710D01*
X967600Y1126479D02*
Y1130710D01*
X967650Y1126479D02*
Y1130710D01*
X967700Y1126479D02*
Y1130710D01*
X967750Y1126479D02*
Y1130710D01*
X967800Y1126479D02*
Y1130710D01*
X967850Y1126479D02*
Y1130710D01*
X967900Y1126479D02*
Y1130710D01*
X967950Y1126479D02*
Y1130710D01*
X968000Y1126479D02*
Y1130710D01*
X968050Y1126479D02*
Y1130710D01*
X968100Y1126479D02*
Y1130710D01*
X968150Y1126479D02*
Y1130710D01*
X968200Y1126479D02*
Y1130710D01*
X968250Y1126479D02*
Y1130710D01*
X968300Y1126479D02*
Y1130710D01*
X968350Y1126479D02*
Y1130710D01*
X968400Y1126479D02*
Y1130710D01*
X968450Y1126479D02*
Y1130710D01*
X968500Y1126479D02*
Y1130710D01*
X968550Y1126479D02*
Y1130710D01*
X968600Y1126479D02*
Y1130710D01*
X968650Y1126479D02*
Y1130710D01*
X968700Y1126479D02*
Y1130710D01*
X968750Y1126479D02*
Y1130710D01*
X968800Y1126479D02*
Y1130710D01*
X968850Y1126479D02*
Y1130710D01*
X968900Y1126479D02*
Y1130710D01*
X968950Y1126479D02*
Y1130710D01*
X969000Y1126479D02*
Y1130710D01*
X969050Y1126479D02*
Y1130710D01*
X969100Y1126479D02*
Y1130710D01*
X969150Y1126479D02*
Y1130710D01*
X969200Y1126479D02*
Y1130710D01*
X969250Y1126479D02*
Y1130710D01*
X969300Y1126479D02*
Y1130710D01*
X969350Y1126479D02*
Y1130710D01*
X969400Y1126479D02*
Y1130710D01*
X969450Y1126479D02*
Y1130710D01*
X969500Y1126479D02*
Y1130710D01*
X969550Y1126479D02*
Y1130710D01*
X969600Y1126479D02*
Y1130710D01*
X969650Y1126479D02*
Y1130710D01*
X969700Y1126479D02*
Y1130710D01*
X969750Y1126479D02*
Y1130710D01*
X969800Y1126479D02*
Y1130710D01*
X969850Y1126479D02*
Y1130710D01*
X969900Y1126479D02*
Y1130710D01*
X969950Y1126479D02*
Y1130710D01*
X970000Y1126479D02*
Y1130710D01*
X970050Y1126479D02*
Y1130710D01*
X970100Y1126479D02*
Y1130710D01*
X970150Y1126479D02*
Y1130710D01*
X970200Y1126479D02*
Y1130710D01*
X970250Y1126479D02*
Y1130710D01*
X970300Y1126479D02*
Y1130710D01*
X970350Y1126479D02*
Y1130710D01*
X970400Y1126479D02*
Y1130710D01*
X970450Y1126479D02*
Y1130710D01*
X970500Y1126479D02*
Y1130710D01*
X970550Y1126479D02*
Y1130710D01*
X970600Y1126479D02*
Y1130710D01*
X964710Y1136615D02*
X960479D01*
Y1132385*
X964710*
Y1136615*
X960500Y1132385D02*
Y1136615D01*
X960550Y1132385D02*
Y1136615D01*
X960600Y1132385D02*
Y1136615D01*
X960650Y1132385D02*
Y1136615D01*
X960700Y1132385D02*
Y1136615D01*
X960750Y1132385D02*
Y1136615D01*
X960800Y1132385D02*
Y1136615D01*
X960850Y1132385D02*
Y1136615D01*
X960900Y1132385D02*
Y1136615D01*
X960950Y1132385D02*
Y1136615D01*
X961000Y1132385D02*
Y1136615D01*
X961050Y1132385D02*
Y1136615D01*
X961100Y1132385D02*
Y1136615D01*
X961150Y1132385D02*
Y1136615D01*
X961200Y1132385D02*
Y1136615D01*
X961250Y1132385D02*
Y1136615D01*
X961300Y1132385D02*
Y1136615D01*
X961350Y1132385D02*
Y1136615D01*
X961400Y1132385D02*
Y1136615D01*
X961450Y1132385D02*
Y1136615D01*
X961500Y1132385D02*
Y1136615D01*
X961550Y1132385D02*
Y1136615D01*
X961600Y1132385D02*
Y1136615D01*
X961650Y1132385D02*
Y1136615D01*
X961700Y1132385D02*
Y1136615D01*
X961750Y1132385D02*
Y1136615D01*
X961800Y1132385D02*
Y1136615D01*
X961850Y1132385D02*
Y1136615D01*
X961900Y1132385D02*
Y1136615D01*
X961950Y1132385D02*
Y1136615D01*
X962000Y1132385D02*
Y1136615D01*
X962050Y1132385D02*
Y1136615D01*
X962100Y1132385D02*
Y1136615D01*
X962150Y1132385D02*
Y1136615D01*
X962200Y1132385D02*
Y1136615D01*
X962250Y1132385D02*
Y1136615D01*
X962300Y1132385D02*
Y1136615D01*
X962350Y1132385D02*
Y1136615D01*
X962400Y1132385D02*
Y1136615D01*
X962450Y1132385D02*
Y1136615D01*
X962500Y1132385D02*
Y1136615D01*
X962550Y1132385D02*
Y1136615D01*
X962600Y1132385D02*
Y1136615D01*
X962650Y1132385D02*
Y1136615D01*
X962700Y1132385D02*
Y1136615D01*
X962750Y1132385D02*
Y1136615D01*
X962800Y1132385D02*
Y1136615D01*
X962850Y1132385D02*
Y1136615D01*
X962900Y1132385D02*
Y1136615D01*
X962950Y1132385D02*
Y1136615D01*
X963000Y1132385D02*
Y1136615D01*
X963050Y1132385D02*
Y1136615D01*
X963100Y1132385D02*
Y1136615D01*
X963150Y1132385D02*
Y1136615D01*
X963200Y1132385D02*
Y1136615D01*
X963250Y1132385D02*
Y1136615D01*
X963300Y1132385D02*
Y1136615D01*
X963350Y1132385D02*
Y1136615D01*
X963400Y1132385D02*
Y1136615D01*
X963450Y1132385D02*
Y1136615D01*
X963500Y1132385D02*
Y1136615D01*
X963550Y1132385D02*
Y1136615D01*
X963600Y1132385D02*
Y1136615D01*
X963650Y1132385D02*
Y1136615D01*
X963700Y1132385D02*
Y1136615D01*
X963750Y1132385D02*
Y1136615D01*
X963800Y1132385D02*
Y1136615D01*
X963850Y1132385D02*
Y1136615D01*
X963900Y1132385D02*
Y1136615D01*
X963950Y1132385D02*
Y1136615D01*
X964000Y1132385D02*
Y1136615D01*
X964050Y1132385D02*
Y1136615D01*
X964100Y1132385D02*
Y1136615D01*
X964150Y1132385D02*
Y1136615D01*
X964200Y1132385D02*
Y1136615D01*
X964250Y1132385D02*
Y1136615D01*
X964300Y1132385D02*
Y1136615D01*
X964350Y1132385D02*
Y1136615D01*
X964400Y1132385D02*
Y1136615D01*
X964450Y1132385D02*
Y1136615D01*
X964500Y1132385D02*
Y1136615D01*
X964550Y1132385D02*
Y1136615D01*
X964600Y1132385D02*
Y1136615D01*
X964650Y1132385D02*
Y1136615D01*
X964700Y1132385D02*
Y1136615D01*
X976521D02*
X972290D01*
Y1132385*
X976521*
Y1136615*
X972300Y1132385D02*
Y1136615D01*
X972350Y1132385D02*
Y1136615D01*
X972400Y1132385D02*
Y1136615D01*
X972450Y1132385D02*
Y1136615D01*
X972500Y1132385D02*
Y1136615D01*
X972550Y1132385D02*
Y1136615D01*
X972600Y1132385D02*
Y1136615D01*
X972650Y1132385D02*
Y1136615D01*
X972700Y1132385D02*
Y1136615D01*
X972750Y1132385D02*
Y1136615D01*
X972800Y1132385D02*
Y1136615D01*
X972850Y1132385D02*
Y1136615D01*
X972900Y1132385D02*
Y1136615D01*
X972950Y1132385D02*
Y1136615D01*
X973000Y1132385D02*
Y1136615D01*
X973050Y1132385D02*
Y1136615D01*
X973100Y1132385D02*
Y1136615D01*
X973150Y1132385D02*
Y1136615D01*
X973200Y1132385D02*
Y1136615D01*
X973250Y1132385D02*
Y1136615D01*
X973300Y1132385D02*
Y1136615D01*
X973350Y1132385D02*
Y1136615D01*
X973400Y1132385D02*
Y1136615D01*
X973450Y1132385D02*
Y1136615D01*
X973500Y1132385D02*
Y1136615D01*
X973550Y1132385D02*
Y1136615D01*
X973600Y1132385D02*
Y1136615D01*
X973650Y1132385D02*
Y1136615D01*
X973700Y1132385D02*
Y1136615D01*
X973750Y1132385D02*
Y1136615D01*
X973800Y1132385D02*
Y1136615D01*
X973850Y1132385D02*
Y1136615D01*
X973900Y1132385D02*
Y1136615D01*
X973950Y1132385D02*
Y1136615D01*
X974000Y1132385D02*
Y1136615D01*
X974050Y1132385D02*
Y1136615D01*
X974100Y1132385D02*
Y1136615D01*
X974150Y1132385D02*
Y1136615D01*
X974200Y1132385D02*
Y1136615D01*
X974250Y1132385D02*
Y1136615D01*
X974300Y1132385D02*
Y1136615D01*
X974350Y1132385D02*
Y1136615D01*
X974400Y1132385D02*
Y1136615D01*
X974450Y1132385D02*
Y1136615D01*
X974500Y1132385D02*
Y1136615D01*
X974550Y1132385D02*
Y1136615D01*
X974600Y1132385D02*
Y1136615D01*
X974650Y1132385D02*
Y1136615D01*
X974700Y1132385D02*
Y1136615D01*
X974750Y1132385D02*
Y1136615D01*
X974800Y1132385D02*
Y1136615D01*
X974850Y1132385D02*
Y1136615D01*
X974900Y1132385D02*
Y1136615D01*
X974950Y1132385D02*
Y1136615D01*
X975000Y1132385D02*
Y1136615D01*
X975050Y1132385D02*
Y1136615D01*
X975100Y1132385D02*
Y1136615D01*
X975150Y1132385D02*
Y1136615D01*
X975200Y1132385D02*
Y1136615D01*
X975250Y1132385D02*
Y1136615D01*
X975300Y1132385D02*
Y1136615D01*
X975350Y1132385D02*
Y1136615D01*
X975400Y1132385D02*
Y1136615D01*
X975450Y1132385D02*
Y1136615D01*
X975500Y1132385D02*
Y1136615D01*
X975550Y1132385D02*
Y1136615D01*
X975600Y1132385D02*
Y1136615D01*
X975650Y1132385D02*
Y1136615D01*
X975700Y1132385D02*
Y1136615D01*
X975750Y1132385D02*
Y1136615D01*
X975800Y1132385D02*
Y1136615D01*
X975850Y1132385D02*
Y1136615D01*
X975900Y1132385D02*
Y1136615D01*
X975950Y1132385D02*
Y1136615D01*
X976000Y1132385D02*
Y1136615D01*
X976050Y1132385D02*
Y1136615D01*
X976100Y1132385D02*
Y1136615D01*
X976150Y1132385D02*
Y1136615D01*
X976200Y1132385D02*
Y1136615D01*
X976250Y1132385D02*
Y1136615D01*
X976300Y1132385D02*
Y1136615D01*
X976350Y1132385D02*
Y1136615D01*
X976400Y1132385D02*
Y1136615D01*
X976450Y1132385D02*
Y1136615D01*
X976500Y1132385D02*
Y1136615D01*
X970615D02*
X966385D01*
Y1132385*
X970615*
Y1136615*
X966400Y1132385D02*
Y1136615D01*
X966450Y1132385D02*
Y1136615D01*
X966500Y1132385D02*
Y1136615D01*
X966550Y1132385D02*
Y1136615D01*
X966600Y1132385D02*
Y1136615D01*
X966650Y1132385D02*
Y1136615D01*
X966700Y1132385D02*
Y1136615D01*
X966750Y1132385D02*
Y1136615D01*
X966800Y1132385D02*
Y1136615D01*
X966850Y1132385D02*
Y1136615D01*
X966900Y1132385D02*
Y1136615D01*
X966950Y1132385D02*
Y1136615D01*
X967000Y1132385D02*
Y1136615D01*
X967050Y1132385D02*
Y1136615D01*
X967100Y1132385D02*
Y1136615D01*
X967150Y1132385D02*
Y1136615D01*
X967200Y1132385D02*
Y1136615D01*
X967250Y1132385D02*
Y1136615D01*
X967300Y1132385D02*
Y1136615D01*
X967350Y1132385D02*
Y1136615D01*
X967400Y1132385D02*
Y1136615D01*
X967450Y1132385D02*
Y1136615D01*
X967500Y1132385D02*
Y1136615D01*
X967550Y1132385D02*
Y1136615D01*
X967600Y1132385D02*
Y1136615D01*
X967650Y1132385D02*
Y1136615D01*
X967700Y1132385D02*
Y1136615D01*
X967750Y1132385D02*
Y1136615D01*
X967800Y1132385D02*
Y1136615D01*
X967850Y1132385D02*
Y1136615D01*
X967900Y1132385D02*
Y1136615D01*
X967950Y1132385D02*
Y1136615D01*
X968000Y1132385D02*
Y1136615D01*
X968050Y1132385D02*
Y1136615D01*
X968100Y1132385D02*
Y1136615D01*
X968150Y1132385D02*
Y1136615D01*
X968200Y1132385D02*
Y1136615D01*
X968250Y1132385D02*
Y1136615D01*
X968300Y1132385D02*
Y1136615D01*
X968350Y1132385D02*
Y1136615D01*
X968400Y1132385D02*
Y1136615D01*
X968450Y1132385D02*
Y1136615D01*
X968500Y1132385D02*
Y1136615D01*
X968550Y1132385D02*
Y1136615D01*
X968600Y1132385D02*
Y1136615D01*
X968650Y1132385D02*
Y1136615D01*
X968700Y1132385D02*
Y1136615D01*
X968750Y1132385D02*
Y1136615D01*
X968800Y1132385D02*
Y1136615D01*
X968850Y1132385D02*
Y1136615D01*
X968900Y1132385D02*
Y1136615D01*
X968950Y1132385D02*
Y1136615D01*
X969000Y1132385D02*
Y1136615D01*
X969050Y1132385D02*
Y1136615D01*
X969100Y1132385D02*
Y1136615D01*
X969150Y1132385D02*
Y1136615D01*
X969200Y1132385D02*
Y1136615D01*
X969250Y1132385D02*
Y1136615D01*
X969300Y1132385D02*
Y1136615D01*
X969350Y1132385D02*
Y1136615D01*
X969400Y1132385D02*
Y1136615D01*
X969450Y1132385D02*
Y1136615D01*
X969500Y1132385D02*
Y1136615D01*
X969550Y1132385D02*
Y1136615D01*
X969600Y1132385D02*
Y1136615D01*
X969650Y1132385D02*
Y1136615D01*
X969700Y1132385D02*
Y1136615D01*
X969750Y1132385D02*
Y1136615D01*
X969800Y1132385D02*
Y1136615D01*
X969850Y1132385D02*
Y1136615D01*
X969900Y1132385D02*
Y1136615D01*
X969950Y1132385D02*
Y1136615D01*
X970000Y1132385D02*
Y1136615D01*
X970050Y1132385D02*
Y1136615D01*
X970100Y1132385D02*
Y1136615D01*
X970150Y1132385D02*
Y1136615D01*
X970200Y1132385D02*
Y1136615D01*
X970250Y1132385D02*
Y1136615D01*
X970300Y1132385D02*
Y1136615D01*
X970350Y1132385D02*
Y1136615D01*
X970400Y1132385D02*
Y1136615D01*
X970450Y1132385D02*
Y1136615D01*
X970500Y1132385D02*
Y1136615D01*
X970550Y1132385D02*
Y1136615D01*
X970600Y1132385D02*
Y1136615D01*
X798097Y794887D02*
X801507D01*
Y788945*
X807449*
Y785315*
X801507*
Y779373*
X798097*
Y785315*
X792155*
Y788945*
X798097*
Y794887*
X829453Y800388D02*
X828903Y800278D01*
X828463Y800058*
X827913Y799288*
X827583Y798628*
X827363Y798407*
X827143Y798297*
X827033Y798407*
X826923Y798738*
Y799288*
X827033Y800388*
X827253Y801598*
X827693Y802588*
X828023Y802808*
X828353Y802918*
X828133*
X835945*
X836275Y802698*
X836385Y802258*
X836275Y801378*
X836165Y800828*
X835945Y800168*
X835725Y799288*
X835175Y798077*
X834625Y796537*
X833854Y794667*
X833304Y793566*
X832864Y792356*
X832534Y791146*
X832424Y789826*
X832534Y788945*
X832644Y788285*
X832754Y787625*
X832864Y787075*
X832754Y786855*
X832314Y786745*
X831654Y786525*
X830664Y786415*
X830004Y786635*
X829564Y787185*
X829453Y788505*
X829564Y789936*
X830004Y791256*
X831324Y793676*
X832864Y795877*
X834075Y797857*
X834735Y799068*
X834955Y800168*
X834845Y800388*
X833854*
X833634Y800608*
X829453*
Y800388*
X841336Y800608D02*
X841886Y800718D01*
X842216Y800938*
X842546Y801378*
X842766*
X842546Y800828*
X842326Y800388*
X842216Y800058*
X841886Y799948*
X838916*
Y800058*
X839136Y800278*
X839466Y800718*
X840016Y801598*
X840896Y802588*
X841226Y803249*
X841336Y803799*
X841226Y804239*
X841006Y804459*
X840676Y804679*
X840236Y804789*
X839796Y804679*
X839356Y804349*
X839136*
X839246Y804569*
X839576Y805009*
X840126Y805339*
X840896Y805449*
X841446Y805339*
X841776Y805119*
X841996Y804679*
X842106Y804129*
X841776Y803139*
X841116Y802148*
X840346Y801268*
X840126Y800938*
X840016Y800828*
Y800608*
X840236*
Y800828*
X841336*
Y800608*
X757497Y770791D02*
X756837Y770681D01*
X756397Y770351*
X755957Y769911*
X755847Y769251*
X755957Y768481*
X756397Y767711*
X756947Y767161*
X757718Y766940*
X758268Y767050*
X758268D02*
X758598Y767491D01*
X758818Y768591*
X758708Y769361*
X758488Y770131*
X758048Y770571*
X757497Y770791*
X757277*
X757938Y771561*
X758158*
X759038Y771341*
X759698Y770791*
X760138Y770021*
X760248Y769251*
X760028Y768151*
X759478Y767271*
X758488Y766720*
X757277Y766500*
X756177Y766720*
X755407Y767381*
X754857Y768371*
X754747Y769691*
X754857Y770791*
X755297Y771782*
X755847Y772552*
X756617Y773212*
X758158Y774092*
X758818Y774202*
X759368Y774312*
X759588*
X759258Y774092*
X758928Y773872*
X758378Y773542*
X757497Y773102*
X756947Y772442*
X756507Y771672*
X756397Y771121*
Y770791*
X756617Y771011*
X756837Y771341*
X757387Y771451*
X758158Y771561*
X757938*
X757277Y770791*
X757497*
X762559Y767601D02*
X762449Y767381D01*
X762229Y767050*
X762229D02*
X761568Y766720D01*
X761348Y766830*
X760908Y767050*
X760908D02*
X760578Y767381D01*
X760468Y767601*
X760578Y767931*
X761348Y768701*
X761568Y768811*
X761898Y768701*
X762229Y768261*
X762449Y767931*
X762559Y767601*
Y767821*
Y767601*
X765749Y767821D02*
X765859Y767381D01*
X765969Y767161*
X766409Y766940*
X766850*
X767070Y766720*
X766960Y766610*
X766409Y766720*
X763439*
X763659Y766940*
X764099*
X764429Y767161*
X764649Y767601*
Y772772*
X764429Y772882*
X763439*
Y773102*
X763549Y773322*
X763879*
X764649Y773652*
X765199Y773872*
X765749Y774312*
X765969*
Y774092*
X765859Y773542*
X765749Y772882*
Y773102*
Y767821*
X768940Y774092D02*
Y774312D01*
X771691*
X772131Y774532*
X772351Y774752*
Y774312*
Y774532*
X771911Y773542*
X772131Y773322*
X772021Y773102*
X769600*
X769820*
X769380Y772992*
X769160Y772662*
X768940Y771782*
Y771451*
X769160Y771341*
X769490Y771561*
X770150*
X771141Y771451*
X771911Y771011*
X772351Y770351*
X772571Y769471*
X772351Y768591*
X771801Y767601*
X770810Y766830*
X770150Y766610*
X769380Y766500*
X769050*
X768500Y766610*
X768060Y766830*
X767840Y767161*
X768390Y767050*
X768390D02*
X769160Y766940D01*
X770040Y767050*
X770040D02*
X770810Y767491D01*
X771251Y768151*
X771471Y769031*
X771361Y769691*
X770920Y770131*
X770260Y770351*
X768500*
Y770791*
X768280Y771121*
X768940Y774312*
Y774092*
X779502Y774312D02*
X780163D01*
X775872Y766720*
X775321*
X779502Y774312*
X775101Y773872D02*
X774771Y773762D01*
X774551Y773432*
X774441Y772442*
Y771782*
X774661Y771121*
X774991Y770571*
X775652Y770351*
X776202Y770461*
X776422Y770901*
X776532Y772002*
Y772552*
X776312Y773212*
X775872Y773652*
X775101Y773872*
Y774312*
X775321*
X776202Y774092*
X776862Y773652*
X777302Y772992*
X777412Y772222*
X777302Y771451*
X776862Y770791*
X776202Y770351*
X775321Y770131*
X774551Y770351*
X774001Y770791*
X773671Y771451*
X773561Y772222*
X773671Y772992*
X774001Y773652*
X774551Y774092*
X775321Y774312*
X775101*
Y773872*
X780163Y770351D02*
X779722Y770241D01*
X779502Y769801*
X779282Y769031*
X779392Y768261*
X779612Y767601*
X780052Y767161*
X780603Y766940*
X781043Y767050*
X781043D02*
X781263Y767491D01*
X781373Y768371*
X781153Y769691*
X780823Y770131*
X780163Y770351*
Y770791*
X780383Y770571*
X781153Y770461*
X781813Y770021*
X782143Y769471*
X782253Y768591*
X782143Y767821*
X781813Y767161*
X781153Y766830*
X780383Y766720*
X779612Y766830*
X778952Y767271*
X778512Y767931*
X778402Y768811*
X778512Y769581*
X778952Y770131*
X779612Y770461*
X780383Y770571*
X780163Y770791*
Y770351*
X852119Y783004D02*
Y786635D01*
X873023*
Y783004*
X852119*
X859050Y777723D02*
X859160Y778493D01*
X859380Y779153*
X860260Y780363*
X861361Y781134*
X862681Y781354*
X864111Y781134*
X865321Y780363*
X866092Y779153*
X866312Y778493*
X866422Y777723*
X866312Y776953*
X866092Y776293*
X865321Y775082*
X864111Y774312*
X862681Y774092*
X861361Y774312*
X860260Y775082*
X859380Y776293*
X859160Y776953*
X859050Y777723*
Y777943*
Y777723*
X866422Y791696D02*
X866312Y790926D01*
X866092Y790266*
X865321Y789055*
X864111Y788285*
X862681Y788065*
X861361Y788285*
X860260Y789055*
X859380Y790266*
X859160Y790926*
X859050Y791696*
X859160Y792466*
X859380Y793126*
X860260Y794337*
X861361Y795107*
X862681Y795327*
X864111Y795107*
X865321Y794337*
X866092Y793126*
X866312Y792466*
X866422Y791696*
X760688Y760999D02*
X760248Y760669D01*
X759808Y760339*
X758048Y758799*
X756287Y757478*
X754307Y756488*
X753317Y756268*
X752216Y756158*
Y745156*
X875114*
Y754288*
Y754068*
X874784*
X874343Y754288*
X872583Y754948*
X870823Y755938*
X869172Y757148*
X867522Y758689*
X866862Y759349*
X866312Y759789*
X865652Y760339*
X864991Y760999*
X862571Y762760*
X861251Y763420*
X859930Y763750*
X859600Y763860*
X859270Y763970*
X857840Y763750*
X856519Y763090*
X855089Y762099*
X853549Y760999*
X852889Y760339*
X852559Y760229*
X851458Y759129*
X848268Y756048*
X846617Y754618*
X844857Y753407*
X844527Y753077*
X843867Y752967*
Y752747*
X843647*
X842216Y752087*
X840676Y751867*
X839356Y752087*
X837925Y752747*
X837485Y753077*
X837045Y753628*
X836385Y754288*
X835395Y755498*
X834405Y756928*
X833414Y758579*
X832424Y760339*
X832204Y760999*
X830884Y764520*
X829453Y768041*
X829233Y768591*
Y768811*
X828573Y770571*
X827803Y773102*
X826923Y775632*
X826813Y775962*
X826703Y776293*
X825713Y779703*
X824392Y783224*
X824172Y783884*
X823072Y787515*
X821642Y790816*
X820982Y792356*
X819331Y795877*
X818451Y797417*
X817571Y798628*
X817241Y798958*
X816581Y799288*
X815480Y800058*
X814160Y800388*
X813390*
X812730Y800278*
X812180Y800058*
X811079Y799288*
X810419Y798628*
X809429Y797307*
X808439Y795657*
X807339Y793896*
X806348Y791916*
X806128Y791146*
X805908Y790376*
X804588Y787185*
X804038Y785535*
X803378Y783884*
X803268Y783554*
X803158Y783224*
X801947Y779813*
X800847Y776293*
X800627Y775632*
X799637Y773102*
X799197Y771782*
X798757Y770571*
X798427Y769251*
X797876Y768041*
X796556Y764520*
X795126Y760999*
X794906Y760339*
X793145Y756708*
X792155Y755168*
X791165Y753848*
X790065Y752747*
X788414Y751537*
X787644Y751207*
X786874Y751097*
X785884Y751207*
X785114Y751317*
X784343Y751647*
X783573Y751867*
X783243Y752087*
X782913Y752307*
X782583Y752527*
X782253Y752747*
X781373Y753407*
X779942Y754948*
X778622Y756598*
X777302Y758359*
X775872Y760119*
X775431Y760559*
X774881Y760999*
X773451Y762209*
X771911Y763200*
X770260Y763860*
X768280Y764190*
X767620*
X765639Y763970*
X763879Y763310*
X762229Y762319*
X760688Y760999*
X760468Y761219*
X760688Y760999*
X875114Y745156D02*
X752216D01*
Y756158*
X753207Y756268*
X754197Y756488*
X756067Y757368*
X757828Y758689*
X759588Y760119*
X761348Y761659*
X763219Y762980*
X765309Y763860*
X766409Y764080*
X767620Y764190*
X769380Y764080*
X770920Y763640*
X772351Y762980*
X773561Y762099*
X775762Y760009*
X777742Y757588*
X779502Y755278*
X781593Y753187*
X782693Y752307*
X783903Y751647*
X785334Y751207*
X786874Y751097*
X787864Y751207*
X788854Y751647*
X789845Y752307*
X790725Y753187*
X791715Y754288*
X792595Y755608*
X793475Y757148*
X794246Y758799*
X795896Y762539*
X797546Y766720*
X800627Y775742*
X803708Y784764*
X805248Y788945*
X806898Y792686*
X807669Y794337*
X808439Y795877*
X809319Y797197*
X810199Y798297*
X811079Y799178*
X811960Y799838*
X812840Y800278*
X813830Y800388*
X814820Y800278*
X815700Y799838*
X816691Y799178*
X817571Y798297*
X818341Y797197*
X819221Y795877*
X819991Y794447*
X820872Y792796*
X822412Y789165*
X823842Y784984*
X826813Y776072*
X826813D02*
X829894Y767271D01*
X831434Y763090*
X833084Y759459*
X833854Y757808*
X834735Y756378*
X835725Y755058*
X836605Y753958*
X837595Y753077*
X838586Y752417*
X839576Y751977*
X840676Y751867*
X841886Y751977*
X843097Y752417*
X844307Y752967*
X845517Y753738*
X847828Y755718*
X850138Y757918*
X852449Y760119*
X854759Y762099*
X855859Y762870*
X857070Y763420*
X858170Y763860*
X859270Y763970*
X860370Y763860*
X861361Y763530*
X863231Y762539*
X865101Y760999*
X866862Y759349*
X868732Y757588*
X870713Y755938*
X872803Y754728*
X873903Y754288*
X875114Y754068*
Y754288*
Y745156*
X873463Y746586*
Y753187*
X873683*
X872693Y753297*
X871813Y753628*
X869942Y754728*
X868072Y756268*
X866202Y758028*
X866202D02*
X864441Y759789D01*
X862681Y761329*
X860920Y762429*
X860150Y762760*
X859270Y762870*
X858390Y762760*
X857400Y762319*
X856409Y761769*
X855419Y760999*
X854429Y760119*
X853329Y759129*
X851128Y756818*
X848708Y754618*
X846177Y752747*
X844857Y751977*
X843537Y751427*
X842106Y750987*
X840676Y750877*
X839466Y750987*
X838365Y751427*
X837265Y752087*
X836275Y752967*
X835175Y754068*
X834295Y755388*
X833304Y756818*
X832424Y758469*
X830664Y762209*
X829013Y766280*
X827473Y770681*
X825933Y775192*
X823072Y784104*
X821532Y788175*
X820101Y791916*
X818671Y794997*
X817901Y796317*
X817131Y797417*
X816361Y798297*
X815480Y798958*
X814710Y799398*
X813830Y799508*
X812950Y799398*
X812070Y798958*
X811299Y798297*
X810529Y797417*
X809649Y796317*
X808879Y794997*
X808109Y793456*
X807449Y791806*
X805908Y788065*
X804478Y783884*
X801507Y774862*
X799967Y770241*
X798317Y765840*
X796666Y761659*
X795016Y757918*
X794026Y756268*
X793145Y754728*
X792155Y753407*
X791165Y752307*
X790175Y751427*
X789075Y750767*
X787974Y750327*
X786874Y750217*
X785114Y750327*
X783573Y750767*
X782143Y751427*
X780933Y752307*
X778732Y754398*
X776862Y756708*
X774991Y759129*
X773011Y761219*
X771911Y762099*
X770590Y762760*
X769160Y763200*
X767620Y763310*
X766519Y763200*
X765529Y762980*
X763659Y761989*
X761898Y760669*
X760248Y759129*
X758708Y757698*
X757057Y756378*
X755297Y755388*
X754307Y755168*
X753317Y755058*
Y755278*
Y746586*
X873463*
X875114Y745156*
X844637Y753187D02*
Y745156D01*
X843867*
Y752967*
X844637Y753187*
X874343Y754288D02*
X874784Y754068D01*
X875114*
Y754288*
Y745156*
X874343*
Y754288*
X867522Y758689D02*
X866862Y759349D01*
X866642*
Y745156*
X867522*
Y758689*
X859270Y763970D02*
X859600Y763860D01*
X859930Y763750*
X859710Y763970*
Y745156*
X859050*
Y763970*
X859270*
X864771Y761219D02*
X853549D01*
Y760999*
X852889Y760339*
X852669Y760559*
X865431*
X865652Y760339*
X864771Y761219*
X852119Y759789D02*
X851458Y759129D01*
Y759349*
Y745156*
X852119*
Y760119*
Y759789*
X844857Y753407D02*
X844527Y753077D01*
X843867Y752967*
Y752747*
X843647*
X844857Y753407*
X829233Y768811D02*
Y768591D01*
X829453Y768041*
X797876*
X798427Y769251*
X798757Y770571*
Y745156*
X798097*
Y768041*
X798317Y768811*
X829013*
X829233Y768371*
Y745156*
X828573*
Y770571*
X829233Y768811*
Y768591*
Y768811*
X820982Y791036D02*
X806128D01*
X806348Y791696*
X820982*
Y791036*
Y792576D02*
Y745156D01*
X821642*
Y791036*
Y790816*
X820982Y792356*
Y792576*
X814160Y800388D02*
X813390D01*
X813170Y800608*
Y745156*
X813830*
Y800608*
X814160Y800388*
X816581Y799288D02*
X810859D01*
Y799508*
X811079Y799288*
X810419Y798628*
X810199*
X817571*
X817241Y798958*
X816581Y799288*
Y799508*
Y799288*
X806348Y791916D02*
X806128Y791146D01*
X805908Y790376*
X805578*
Y745156*
X806348*
Y791916*
X824172Y784104D02*
X803378D01*
Y783884*
X803268Y783554*
X803158Y783224*
Y783444*
X824392*
Y783224*
X824172Y783884*
Y784104*
X826923Y775852D02*
X800407D01*
Y775632*
X800627*
X800847Y776293*
X800627Y776623*
X826703*
Y776293*
X826813Y775962*
X826923Y775632*
Y775852*
X832204Y761219D02*
X795126D01*
Y760999*
X794906Y760339*
Y760559*
X832424*
Y760339*
X832204Y760999*
Y761219*
X783573Y751867D02*
X783243Y752087D01*
X782913Y752307*
X782693Y752527*
Y745156*
X783353*
Y752087*
X783573Y751867*
X781373Y753407D02*
X782253Y752747D01*
X782033Y752967*
X752216*
Y753628*
X781153*
X781373Y753407*
X775872Y760119D02*
X775431Y760559D01*
X774881Y760999*
X774661Y761219*
X760468*
X760688Y760999*
X760248Y760669*
X759808Y760339*
Y760559*
Y745156*
X760468*
Y760559*
X775101*
Y745156*
X775872*
Y760119*
X768280Y764190D02*
X767620D01*
X767400Y764410*
Y745156*
X768060*
Y764410*
X768280Y764190*
X836605Y753628D02*
X790945D01*
X790285Y752967*
Y745156*
X790945*
Y754068*
X791165Y753848*
X790065Y752747*
Y752967*
X837925*
Y752747*
X837485Y753077*
X837045Y753628*
X836825*
X837045*
X836385Y754288*
X836165*
Y745156*
X836825*
Y753187*
X836605Y753628*
X843647Y752747D02*
X843867D01*
Y752967*
X844527Y753077*
X844857Y753407*
Y753628*
X875114*
Y752967*
X843647*
Y752747*
X824612Y772442D02*
X825052Y772332D01*
X825163Y772002*
X824832*
Y769691*
X825163*
Y769251*
X825052Y769031*
X824832Y768811*
X825933*
X826263Y768921*
X826483Y769031*
Y772222*
Y772002*
X826703Y772442*
X827363*
X827803Y772662*
X828023Y773102*
X828133Y774312*
Y774532*
X827913*
X827803Y774422*
X827693Y774202*
X827583Y773982*
X827363Y773872*
X826483*
Y779043*
X826703Y779593*
X826483Y779813*
X826153Y779703*
X825823Y779263*
X825603Y778933*
X825383Y778603*
X825163Y778823*
X822412Y775192*
X821972Y774752*
X821422Y773982*
X820982Y773322*
X820762Y772662*
X821092Y772442*
X821642*
X821422*
X824612*
Y773872*
X822632*
X822852*
X822082*
X822302Y774092*
X822412Y774312*
X824612Y777283*
Y777063*
X824832Y777503*
X825163Y777393*
Y777063*
X824832Y777283*
Y774312*
X825163*
X825052Y773982*
X824612Y773872*
Y772442*
X819111Y760339D02*
X814160D01*
Y761659*
X819111*
Y760339*
X832864Y754838D02*
X810859D01*
Y756158*
X832864*
Y754838*
X824172Y762099D02*
X823952D01*
Y762319*
X824282Y762760*
X825052Y763200*
X825713Y763860*
X825933Y764300*
X826043Y764850*
X825933Y765510*
X825603Y766060*
X825052Y766390*
X824392Y766500*
X823732Y766390*
X823182Y766060*
X822742Y765730*
X822412Y765620*
X822632Y766060*
X823182Y766610*
X824062Y767161*
X825163Y767381*
X825933Y767271*
X826703Y766940*
X827143Y766390*
X827363Y765620*
X827143Y764850*
X826703Y764190*
X826043Y763530*
X826373Y763420*
X827143Y763090*
X827473Y762870*
X827803Y762429*
X828023Y761879*
X828133Y760999*
X828023Y760229*
X827803Y759569*
X827033Y758359*
X825713Y757588*
X824172Y757368*
X823182Y757478*
X822302Y757698*
X821862Y758139*
X821642Y758469*
X821862Y758689*
X822192Y758579*
X822632Y758249*
X823182Y757918*
X823952Y757808*
X825052Y758028*
X825052D02*
X825823Y758579D01*
X826373Y759459*
X826483Y760559*
X826373Y761329*
X826153Y761879*
X825603Y762209*
X824832Y762319*
X824502*
X824172Y762099*
X823952Y762319*
X824172Y762099*
X787094Y793786D02*
X802828Y742845D01*
X802718Y742075*
X802497Y741305*
X801507Y739874*
X800077Y738664*
X798317Y737674*
X796116Y736794*
X793696Y736134*
X791055Y735694*
X788304Y735363*
X785554*
X782913Y735583*
X780273Y735914*
X777962Y736574*
X775872Y737454*
X774221Y738664*
X772901Y740095*
X772461Y740865*
X772131Y741745*
X771911Y741965*
X787094Y793786*
Y789826D02*
X801287Y742405D01*
X800737Y741085*
X799637Y739874*
X798097Y738884*
X796336Y738114*
X794246Y737564*
X791935Y737124*
X789515Y736904*
X787094*
Y789826*
X773341Y741745D02*
X773781Y740865D01*
X774441Y740095*
X775431Y739434*
X776532Y738774*
Y738994*
X785444Y784104*
X773121Y741965*
X773341Y741745*
X787094Y789826D02*
Y736904D01*
X784343*
X784123Y737124*
X787094Y789826*
X741874Y757808D02*
X764649Y759569D01*
X777852Y754068*
Y729532*
X753097Y726561*
X741874Y736244*
Y757808*
X744625Y757038D02*
X764319Y758469D01*
X774661Y754068*
X753647Y752527*
X744625Y757038*
X754307Y750877D02*
X776532Y752747D01*
Y730962*
X754307Y727992*
Y750877*
X863341Y740865D02*
X862241Y741965D01*
X861471Y743065*
X860920Y744275*
X860480Y745486*
X860370Y746916*
X860260Y748236*
X860370Y749887*
X860590Y751537*
X860370Y751867*
X856960Y766940*
X863891*
Y768591*
X856740*
X853109Y784324*
X851458Y782344*
Y795107*
X852339Y795877*
Y802478*
X848928*
Y795877*
X849918Y795107*
Y782344*
X848488Y784324*
X844857Y768591*
X837485*
Y766940*
X844417*
X840896Y751867*
Y751537*
X841116Y749887*
X841226Y748236*
Y746916*
X841006Y745486*
X840676Y744275*
X840126Y743065*
X839356Y741965*
X838365Y740865*
X838145*
Y727772*
X838916Y730962*
X839356*
X847387Y766940*
X849918*
Y763310*
X851678*
Y772222*
X849918*
Y768591*
X847608*
X850138Y779373*
X851458*
X853769Y768591*
X851678*
Y766940*
X854209*
X862021Y730962*
X862461*
X863121Y727772*
Y740865*
X861801Y740095*
X862021Y739874*
X861801Y739434*
X861361Y739214*
X860810Y739434*
X860590Y739874*
X860810Y740315*
X861361Y740535*
X861801Y740315*
X862021Y739874*
X861801Y740095*
X863121Y740865*
X863341*
X850798Y791696D02*
X849918Y791586D01*
X849038Y791366*
X848268Y790926*
X847497Y790266*
X846947Y789606*
X846507Y788725*
X846287Y787845*
X846177Y786855*
X846287Y785975*
X846507Y785095*
X846947Y784324*
X847497Y783664*
X848268Y783114*
X849038Y782674*
X849918Y782454*
X850798Y782344*
X851788Y782454*
X852669Y782674*
X853549Y783114*
X854209Y783664*
X854869Y784324*
X855309Y785095*
X855529Y785975*
X855639Y786855*
X855529Y787845*
X855309Y788725*
X854869Y789606*
X853549Y790926*
X852669Y791366*
X851788Y791586*
X850798Y791696*
Y793346*
X852008Y793236*
X853219Y792906*
X854319Y792246*
X855309Y791476*
X856079Y790596*
X856630Y789495*
X857070Y788175*
X857180Y786855*
X857070Y785645*
X856630Y784434*
X856079Y783444*
X855309Y782454*
X854319Y781794*
X853219Y781134*
X852008Y780804*
X850798Y780694*
X849588Y780804*
X848378Y781134*
X847387Y781794*
X846397Y782454*
X845737Y783444*
X845077Y784434*
X844747Y785645*
X844637Y786855*
X844747Y788175*
X845077Y789495*
X845737Y790596*
X846397Y791476*
X847387Y792246*
X848378Y792906*
X849588Y793236*
X850798Y793346*
Y791696*
X846177Y766940D02*
X846507Y767050D01*
X846507D02*
X846617Y767381D01*
X846507Y767821*
X846177Y768041*
X845737Y767821*
X845517Y767381*
X845737Y767050*
X845737D02*
X846177Y766940D01*
X845957*
X846177*
X855639D02*
X856079Y767050D01*
X856079D02*
X856299Y767381D01*
X856079Y767821*
X855639Y768041*
X855089Y767821*
X854869Y767381*
X855089Y767050*
X855089D02*
X855639Y766940D01*
X855419*
X855639*
X809759Y715559D02*
X811630Y715669D01*
X813500Y715889*
X815370Y716439*
X817021Y716989*
X818671Y717870*
X820211Y718750*
X821752Y719850*
X823072Y721060*
X824282Y722381*
X825383Y723921*
X826263Y725461*
X827143Y727112*
X827693Y728762*
X828243Y730632*
X828463Y732503*
X828573Y734373*
X828463Y736354*
X828243Y738224*
X827693Y740095*
X827143Y741855*
X826263Y743505*
X825383Y745046*
X824282Y746476*
X823072Y747796*
X821752Y749117*
X820211Y750217*
X818671Y751097*
X817021Y751867*
X815370Y752527*
X813500Y753077*
X811630Y753297*
X809759Y753407*
X807779Y753297*
X805908Y753077*
X804148Y752527*
X802387Y751867*
X800737Y751097*
X799197Y750217*
X797766Y749117*
X796446Y747796*
X795236Y746476*
X794136Y745046*
X793145Y743505*
X792375Y741855*
X791825Y740095*
X791275Y738224*
X791055Y736354*
X790945Y734373*
X791055Y732503*
X791275Y730632*
X791825Y728762*
X792375Y727112*
X793145Y725461*
X794136Y723921*
X795236Y722381*
X796446Y721060*
X797766Y719850*
X799197Y718750*
X800737Y717870*
X802387Y716989*
X804148Y716439*
X805908Y715889*
X807779Y715669*
X809759Y715559*
X809539Y715779*
X809759Y715559*
Y717429D02*
X812290Y717650D01*
X814710Y718200*
X816911Y719080*
X819111Y720180*
X820982Y721720*
X822632Y723371*
X824062Y725241*
X825163Y727332*
X825823Y728982*
X826373Y730742*
X826593Y732503*
X826703Y734373*
X826593Y736134*
X826373Y737894*
X825933Y739544*
X825383Y741085*
X824612Y742625*
X823842Y744055*
X821752Y746586*
X820541Y747686*
X819221Y748676*
X817791Y749557*
X816361Y750217*
X814820Y750767*
X813170Y751207*
X811519Y751427*
X809759Y751537*
X807008Y751317*
X804258Y750657*
X801837Y749557*
X799637Y748236*
X797656Y746476*
X796006Y744495*
X794576Y742295*
X793475Y739764*
X792815Y737124*
X792595Y734373*
X792705Y732613*
X792925Y730962*
X793365Y729312*
X793916Y727772*
X794686Y726341*
X795566Y724911*
X797656Y722381*
X800187Y720290*
X801617Y719520*
X803158Y718750*
X804698Y718200*
X806348Y717760*
X807999Y717539*
X809759Y717429*
X809539*
X809759*
X801287Y748126D02*
X800297Y745926D01*
X799637Y743505*
X799417Y740975*
X799637Y738334*
X800077Y735914*
X800737Y733603*
X801727Y731513*
X802828Y729862*
X803928Y728652*
X805468Y727222*
X807229Y725901*
X809539Y724691*
X812070Y723811*
X813500Y723591*
X815040Y723371*
X816691*
X818341Y723481*
X820211Y723811*
X822082Y724361*
X820211Y722601*
X817791Y721060*
X815040Y719850*
X812070Y719190*
X810419Y718970*
X808769Y719080*
X807119Y719190*
X805468Y719630*
X803818Y720290*
X802167Y721170*
X800517Y722271*
X798977Y723591*
X797656Y725021*
X796666Y726451*
X795786Y728102*
X795236Y729752*
X794796Y731623*
X794576Y733383*
Y735253*
X794686Y737014*
X795016Y738774*
X795456Y740535*
X796116Y742075*
X796886Y743615*
X797766Y745046*
X798867Y746256*
X799967Y747246*
X801287Y748126*
X825163Y727332D02*
X824062Y725241D01*
X822632Y723371*
X820982Y721720*
X819111Y720180*
X816911Y719080*
X814710Y718200*
X812290Y717650*
X809759Y717429*
X807999Y717539*
X806348Y717760*
X804698Y718200*
X803158Y718750*
X801617Y719520*
X800187Y720290*
X797656Y722381*
X795566Y724911*
X794686Y726341*
X793916Y727772*
X793365Y729312*
X792925Y730962*
X792705Y732613*
X792595Y734373*
X792815Y737124*
X793475Y739764*
X794576Y742295*
X796006Y744495*
X797656Y746476*
X799637Y748236*
X801837Y749557*
X804258Y750657*
X803488Y750217*
X802718Y749447*
X801947Y748786*
X801287Y748126*
X799967Y747246*
X798867Y746256*
X797766Y745046*
X796886Y743615*
X796116Y742075*
X795456Y740535*
X795016Y738774*
X794686Y737014*
X794576Y735253*
Y733383*
X794796Y731623*
X795236Y729752*
X795786Y728102*
X796666Y726451*
X797656Y725021*
X798977Y723591*
X800517Y722271*
X802167Y721170*
X803818Y720290*
X805468Y719630*
X807119Y719190*
X808769Y719080*
X810419Y718970*
X812070Y719190*
X815040Y719850*
X817791Y721060*
X820211Y722601*
X822082Y724361*
X823842Y725901*
X824612Y726672*
X825163Y727332*
X824612Y726672*
X823842Y725901*
X822852Y725131*
X822082Y724361*
X820211Y723811*
X818341Y723481*
X816691Y723371*
X815040*
X813500Y723591*
X812070Y723811*
X809539Y724691*
X807229Y725901*
X805468Y727222*
X803928Y728652*
X802828Y729862*
X801727Y731513*
X800737Y733603*
X800077Y735914*
X799637Y738334*
X799417Y740975*
X799637Y743505*
X800297Y745926*
X801287Y748126*
X801947Y748786*
X802718Y749447*
X803488Y750217*
X804258Y750657*
X803048Y748786*
X802167Y746476*
X801617Y743835*
X801507Y741085*
X801617Y738224*
X802167Y735473*
X803158Y732943*
X804478Y730742*
X806238Y728982*
X808329Y727442*
X810639Y726231*
X813280Y725461*
X816030Y725131*
X818891Y725241*
X821972Y726011*
X823512Y726561*
X825163Y727332*
G54D52*
X671874Y630559D02*
X1391874D01*
Y1325559*
X671874*
Y630559*
X1391874*
Y825559*
X671874*
Y630559*
X956874Y770559D02*
X1391874D01*
Y630559*
X956874*
Y770559*
Y660559D02*
X1391874D01*
Y630559*
X956874*
Y660559*
X1116874*
Y630559*
X956874*
Y660559*
Y770559D02*
X1391874D01*
Y825559*
X956874*
Y770559*
Y700559D02*
X1391874D01*
Y770559*
X956874*
Y700559*
X1256874Y660559D02*
X1391874D01*
Y700559*
X1256874*
Y660559*
X671874D02*
X831874D01*
Y630559*
X671874*
Y660559*
X831874Y630559D02*
X956874D01*
Y660559*
X831874*
Y630559*
G54D58*
X997954Y649278D02*
Y640090D01*
X1002044*
X1007840Y649278D02*
X1005113Y640090D01*
X1007840Y649278D02*
X1010567Y640090D01*
X1006135Y643153D02*
X1009544D01*
X1013635Y649278D02*
X1016363Y644903D01*
Y640090*
X1019090Y649278D02*
X1016363Y644903D01*
X1022158Y649278D02*
Y640090D01*
Y649278D02*
X1026590D01*
X1022158Y644903D02*
X1024885D01*
X1022158Y640090D02*
X1026590D01*
X1029658Y649278D02*
Y640090D01*
Y649278D02*
X1032726D01*
X1033749Y648840*
X1034090Y648403*
X1034431Y647528*
Y646653*
X1034090Y645778*
X1033749Y645340*
X1032726Y644903*
X1029658*
X1032044D02*
X1034431Y640090D01*
X965101Y820247D02*
X962374Y811059D01*
X965101Y820247D02*
X967829Y811059D01*
X963397Y814122D02*
X966806D01*
X970897Y817184D02*
Y811059D01*
Y814559D02*
X971238Y815872D01*
X971919Y816747*
X972601Y817184*
X973624*
X977715Y820247D02*
Y812809D01*
X978056Y811497*
X978738Y811059*
X979419*
X976692Y817184D02*
X979079D01*
X982488D02*
X983851Y811059D01*
X985215Y817184D02*
X983851Y811059D01*
X985215Y817184D02*
X986579Y811059D01*
X987942Y817184D02*
X986579Y811059D01*
X992715Y817184D02*
X992033Y816747D01*
X991351Y815872*
X991010Y814559*
Y813684*
X991351Y812372*
X992033Y811497*
X992715Y811059*
X993738*
X994419Y811497*
X995101Y812372*
X995442Y813684*
Y814559*
X995101Y815872*
X994419Y816747*
X993738Y817184*
X992715*
X998510D02*
Y811059D01*
Y814559D02*
X998851Y815872D01*
X999533Y816747*
X1000215Y817184*
X1001238*
X1004306Y820247D02*
Y811059D01*
X1007715Y817184D02*
X1004306Y812809D01*
X1005669Y814559D02*
X1008056Y811059D01*
X1018965Y820247D02*
Y811059D01*
Y820247D02*
X1021351D01*
X1022374Y819809*
X1023056Y818934*
X1023397Y818059*
X1023738Y816747*
Y814559*
X1023397Y813247*
X1023056Y812372*
X1022374Y811497*
X1021351Y811059*
X1018965*
X1026806Y814559D02*
X1030897D01*
Y815434*
X1030556Y816309*
X1030215Y816747*
X1029533Y817184*
X1028510*
X1027829Y816747*
X1027147Y815872*
X1026806Y814559*
Y813684*
X1027147Y812372*
X1027829Y811497*
X1028510Y811059*
X1029533*
X1030215Y811497*
X1030897Y812372*
X1037715Y815872D02*
X1037374Y816747D01*
X1036351Y817184*
X1035329*
X1034306Y816747*
X1033965Y815872*
X1034306Y814997*
X1034988Y814559*
X1036692Y814122*
X1037374Y813684*
X1037715Y812809*
Y812372*
X1037374Y811497*
X1036351Y811059*
X1035329*
X1034306Y811497*
X1033965Y812372*
X1040783Y820247D02*
X1041124Y819809D01*
X1041465Y820247*
X1041124Y820684*
X1040783Y820247*
X1041124Y817184D02*
Y811059D01*
X1048624Y817184D02*
Y810184D01*
X1048283Y808872*
X1047942Y808434*
X1047260Y807997*
X1046238*
X1045556Y808434*
X1048624Y815872D02*
X1047942Y816747D01*
X1047260Y817184*
X1046238*
X1045556Y816747*
X1044874Y815872*
X1044533Y814559*
Y813684*
X1044874Y812372*
X1045556Y811497*
X1046238Y811059*
X1047260*
X1047942Y811497*
X1048624Y812372*
X1051692Y817184D02*
Y811059D01*
Y815434D02*
X1052715Y816747D01*
X1053397Y817184*
X1054419*
X1055101Y816747*
X1055442Y815434*
Y811059*
X1058510Y814559D02*
X1062601D01*
Y815434*
X1062260Y816309*
X1061919Y816747*
X1061238Y817184*
X1060215*
X1059533Y816747*
X1058851Y815872*
X1058510Y814559*
Y813684*
X1058851Y812372*
X1059533Y811497*
X1060215Y811059*
X1061238*
X1061919Y811497*
X1062601Y812372*
X1069760Y820247D02*
Y811059D01*
Y815872D02*
X1069079Y816747D01*
X1068397Y817184*
X1067374*
X1066692Y816747*
X1066010Y815872*
X1065669Y814559*
Y813684*
X1066010Y812372*
X1066692Y811497*
X1067374Y811059*
X1068397*
X1069079Y811497*
X1069760Y812372*
X1080669Y820247D02*
Y811059D01*
Y820247D02*
X1085101D01*
X1080669Y815872D02*
X1083397D01*
X1089874Y817184D02*
X1089192Y816747D01*
X1088510Y815872*
X1088169Y814559*
Y813684*
X1088510Y812372*
X1089192Y811497*
X1089874Y811059*
X1090897*
X1091579Y811497*
X1092260Y812372*
X1092601Y813684*
Y814559*
X1092260Y815872*
X1091579Y816747*
X1090897Y817184*
X1089874*
X1095669D02*
Y811059D01*
Y814559D02*
X1096010Y815872D01*
X1096692Y816747*
X1097374Y817184*
X1098397*
X1101806D02*
X1101465Y816747D01*
X1101806Y816309*
X1102147Y816747*
X1101806Y817184*
Y811934D02*
X1101465Y811497D01*
X1101806Y811059*
X1102147Y811497*
X1101806Y811934*
X962374Y765247D02*
Y756059D01*
Y765247D02*
X965442D01*
X966465Y764809*
X966806Y764372*
X967147Y763497*
Y762622*
X966806Y761747*
X966465Y761309*
X965442Y760872*
X962374D02*
X965442D01*
X966465Y760434*
X966806Y759997*
X967147Y759122*
Y757809*
X966806Y756934*
X966465Y756497*
X965442Y756059*
X962374*
X971919Y762184D02*
X971238Y761747D01*
X970556Y760872*
X970215Y759559*
Y758684*
X970556Y757372*
X971238Y756497*
X971919Y756059*
X972942*
X973624Y756497*
X974306Y757372*
X974647Y758684*
Y759559*
X974306Y760872*
X973624Y761747*
X972942Y762184*
X971919*
X981806D02*
Y756059D01*
Y760872D02*
X981124Y761747D01*
X980442Y762184*
X979419*
X978738Y761747*
X978056Y760872*
X977715Y759559*
Y758684*
X978056Y757372*
X978738Y756497*
X979419Y756059*
X980442*
X981124Y756497*
X981806Y757372*
X984874Y762184D02*
Y756059D01*
Y759559D02*
X985215Y760872D01*
X985897Y761747*
X986579Y762184*
X987601*
X994760Y765247D02*
Y756059D01*
Y760872D02*
X994079Y761747D01*
X993397Y762184*
X992374*
X991692Y761747*
X991010Y760872*
X990669Y759559*
Y758684*
X991010Y757372*
X991692Y756497*
X992374Y756059*
X993397*
X994079Y756497*
X994760Y757372*
X1005669Y765247D02*
Y756059D01*
Y765247D02*
X1008056D01*
X1009079Y764809*
X1009760Y763934*
X1010101Y763059*
X1010442Y761747*
Y759559*
X1010101Y758247*
X1009760Y757372*
X1009079Y756497*
X1008056Y756059*
X1005669*
X1013510Y759559D02*
X1017601D01*
Y760434*
X1017260Y761309*
X1016919Y761747*
X1016238Y762184*
X1015215*
X1014533Y761747*
X1013851Y760872*
X1013510Y759559*
Y758684*
X1013851Y757372*
X1014533Y756497*
X1015215Y756059*
X1016238*
X1016919Y756497*
X1017601Y757372*
X1024419Y760872D02*
X1024079Y761747D01*
X1023056Y762184*
X1022033*
X1021010Y761747*
X1020669Y760872*
X1021010Y759997*
X1021692Y759559*
X1023397Y759122*
X1024079Y758684*
X1024419Y757809*
Y757372*
X1024079Y756497*
X1023056Y756059*
X1022033*
X1021010Y756497*
X1020669Y757372*
X1031579Y760872D02*
X1030897Y761747D01*
X1030215Y762184*
X1029192*
X1028510Y761747*
X1027829Y760872*
X1027488Y759559*
Y758684*
X1027829Y757372*
X1028510Y756497*
X1029192Y756059*
X1030215*
X1030897Y756497*
X1031579Y757372*
X1034647Y762184D02*
Y756059D01*
Y759559D02*
X1034988Y760872D01*
X1035669Y761747*
X1036351Y762184*
X1037374*
X1040442Y765247D02*
X1040783Y764809D01*
X1041124Y765247*
X1040783Y765684*
X1040442Y765247*
X1040783Y762184D02*
Y756059D01*
X1044192Y762184D02*
Y752997D01*
Y760872D02*
X1044874Y761747D01*
X1045556Y762184*
X1046579*
X1047260Y761747*
X1047942Y760872*
X1048283Y759559*
Y758684*
X1047942Y757372*
X1047260Y756497*
X1046579Y756059*
X1045556*
X1044874Y756497*
X1044192Y757372*
X1052374Y765247D02*
Y757809D01*
X1052715Y756497*
X1053397Y756059*
X1054079*
X1051351Y762184D02*
X1053738D01*
X1057147Y765247D02*
X1057488Y764809D01*
X1057829Y765247*
X1057488Y765684*
X1057147Y765247*
X1057488Y762184D02*
Y756059D01*
X1062601Y762184D02*
X1061919Y761747D01*
X1061238Y760872*
X1060897Y759559*
Y758684*
X1061238Y757372*
X1061919Y756497*
X1062601Y756059*
X1063624*
X1064306Y756497*
X1064988Y757372*
X1065329Y758684*
Y759559*
X1064988Y760872*
X1064306Y761747*
X1063624Y762184*
X1062601*
X1068397D02*
Y756059D01*
Y760434D02*
X1069419Y761747D01*
X1070101Y762184*
X1071124*
X1071806Y761747*
X1072147Y760434*
Y756059*
X1075556Y762184D02*
X1075215Y761747D01*
X1075556Y761309*
X1075897Y761747*
X1075556Y762184*
Y756934D02*
X1075215Y756497D01*
X1075556Y756059*
X1075897Y756497*
X1075556Y756934*
X962374Y695247D02*
Y686059D01*
Y695247D02*
X965442D01*
X966465Y694809*
X966806Y694372*
X967147Y693497*
Y692184*
X966806Y691309*
X966465Y690872*
X965442Y690434*
X962374*
X974306Y692184D02*
Y686059D01*
Y690872D02*
X973624Y691747D01*
X972942Y692184*
X971919*
X971238Y691747*
X970556Y690872*
X970215Y689559*
Y688684*
X970556Y687372*
X971238Y686497*
X971919Y686059*
X972942*
X973624Y686497*
X974306Y687372*
X977374Y692184D02*
Y686059D01*
Y689559D02*
X977715Y690872D01*
X978397Y691747*
X979079Y692184*
X980101*
X984192Y695247D02*
Y687809D01*
X984533Y686497*
X985215Y686059*
X985897*
X983169Y692184D02*
X985556D01*
X996806Y695247D02*
Y686059D01*
Y695247D02*
X1001579Y686059D01*
Y695247D02*
Y686059D01*
X1006351Y692184D02*
X1005669Y691747D01*
X1004988Y690872*
X1004647Y689559*
Y688684*
X1004988Y687372*
X1005669Y686497*
X1006351Y686059*
X1007374*
X1008056Y686497*
X1008738Y687372*
X1009079Y688684*
Y689559*
X1008738Y690872*
X1008056Y691747*
X1007374Y692184*
X1006351*
X1012488D02*
X1012147Y691747D01*
X1012488Y691309*
X1012829Y691747*
X1012488Y692184*
Y686934D02*
X1012147Y686497D01*
X1012488Y686059*
X1012829Y686497*
X1012488Y686934*
X1262374Y695247D02*
Y686059D01*
Y695247D02*
X1265442D01*
X1266465Y694809*
X1266806Y694372*
X1267147Y693497*
Y692622*
X1266806Y691747*
X1266465Y691309*
X1265442Y690872*
X1262374*
X1264760D02*
X1267147Y686059D01*
X1270215Y689559D02*
X1274306D01*
Y690434*
X1273965Y691309*
X1273624Y691747*
X1272942Y692184*
X1271919*
X1271238Y691747*
X1270556Y690872*
X1270215Y689559*
Y688684*
X1270556Y687372*
X1271238Y686497*
X1271919Y686059*
X1272942*
X1273624Y686497*
X1274306Y687372*
X1277374Y692184D02*
X1279419Y686059D01*
X1281465Y692184D02*
X1279419Y686059D01*
X1284533Y695247D02*
X1284874Y694809D01*
X1285215Y695247*
X1284874Y695684*
X1284533Y695247*
X1284874Y692184D02*
Y686059D01*
X1292033Y690872D02*
X1291692Y691747D01*
X1290669Y692184*
X1289647*
X1288624Y691747*
X1288283Y690872*
X1288624Y689997*
X1289306Y689559*
X1291010Y689122*
X1291692Y688684*
X1292033Y687809*
Y687372*
X1291692Y686497*
X1290669Y686059*
X1289647*
X1288624Y686497*
X1288283Y687372*
X1295101Y695247D02*
X1295442Y694809D01*
X1295783Y695247*
X1295442Y695684*
X1295101Y695247*
X1295442Y692184D02*
Y686059D01*
X1300556Y692184D02*
X1299874Y691747D01*
X1299192Y690872*
X1298851Y689559*
Y688684*
X1299192Y687372*
X1299874Y686497*
X1300556Y686059*
X1301579*
X1302260Y686497*
X1302942Y687372*
X1303283Y688684*
Y689559*
X1302942Y690872*
X1302260Y691747*
X1301579Y692184*
X1300556*
X1306351D02*
Y686059D01*
Y690434D02*
X1307374Y691747D01*
X1308056Y692184*
X1309079*
X1309760Y691747*
X1310101Y690434*
Y686059*
X1313510Y692184D02*
X1313169Y691747D01*
X1313510Y691309*
X1313851Y691747*
X1313510Y692184*
Y686934D02*
X1313169Y686497D01*
X1313510Y686059*
X1313851Y686497*
X1313510Y686934*
X1057374Y676403D02*
X1065556D01*
X1351647Y683418D02*
X1347101Y675106D01*
X1353919*
X1351647Y683418D02*
Y670950D01*
X1141419Y795606D02*
Y783137D01*
X1146874*
X1150965Y787887D02*
X1156419D01*
Y789075*
X1155965Y790262*
X1155510Y790856*
X1154601Y791450*
X1153238*
X1152329Y790856*
X1151419Y789668*
X1150965Y787887*
Y786700*
X1151419Y784918*
X1152329Y783731*
X1153238Y783137*
X1154601*
X1155510Y783731*
X1156419Y784918*
X1160510Y791450D02*
X1163238Y783137D01*
X1165965Y791450D02*
X1163238Y783137D01*
X1170056Y787887D02*
X1175510D01*
Y789075*
X1175056Y790262*
X1174601Y790856*
X1173692Y791450*
X1172329*
X1171419Y790856*
X1170510Y789668*
X1170056Y787887*
Y786700*
X1170510Y784918*
X1171419Y783731*
X1172329Y783137*
X1173692*
X1174601Y783731*
X1175510Y784918*
X1179601Y795606D02*
Y783137D01*
X1194147Y795606D02*
Y783137D01*
Y795606D02*
X1198238D01*
X1199601Y795012*
X1200056Y794418*
X1200510Y793231*
Y792043*
X1200056Y790856*
X1199601Y790262*
X1198238Y789668*
X1194147*
X1197329D02*
X1200510Y783137D01*
X1204601Y795606D02*
Y783137D01*
Y795606D02*
X1210510D01*
X1204601Y789668D02*
X1208238D01*
X1098919Y745606D02*
Y733137D01*
X1104374*
X1108465Y737887D02*
X1113919D01*
Y739075*
X1113465Y740262*
X1113010Y740856*
X1112101Y741450*
X1110738*
X1109829Y740856*
X1108919Y739668*
X1108465Y737887*
Y736700*
X1108919Y734918*
X1109829Y733731*
X1110738Y733137*
X1112101*
X1113010Y733731*
X1113919Y734918*
X1118010Y741450D02*
X1120738Y733137D01*
X1123465Y741450D02*
X1120738Y733137D01*
X1127556Y737887D02*
X1133010D01*
Y739075*
X1132556Y740262*
X1132101Y740856*
X1131192Y741450*
X1129829*
X1128919Y740856*
X1128010Y739668*
X1127556Y737887*
Y736700*
X1128010Y734918*
X1128919Y733731*
X1129829Y733137*
X1131192*
X1132101Y733731*
X1133010Y734918*
X1137101Y745606D02*
Y733137D01*
X1158010Y743825D02*
X1157101Y745012D01*
X1155738Y745606*
X1153919*
X1152556Y745012*
X1151647Y743825*
Y742637*
X1152101Y741450*
X1152556Y740856*
X1153465Y740262*
X1156192Y739075*
X1157101Y738481*
X1157556Y737887*
X1158010Y736700*
Y734918*
X1157101Y733731*
X1155738Y733137*
X1153919*
X1152556Y733731*
X1151647Y734918*
X1162101Y745606D02*
Y733137D01*
Y739075D02*
X1163465Y740856D01*
X1164374Y741450*
X1165738*
X1166647Y740856*
X1167101Y739075*
Y733137*
X1171192Y745606D02*
X1171647Y745012D01*
X1172101Y745606*
X1171647Y746200*
X1171192Y745606*
X1171647Y741450D02*
Y733137D01*
X1176192Y737887D02*
X1181647D01*
Y739075*
X1181192Y740262*
X1180738Y740856*
X1179829Y741450*
X1178465*
X1177556Y740856*
X1176647Y739668*
X1176192Y737887*
Y736700*
X1176647Y734918*
X1177556Y733731*
X1178465Y733137*
X1179829*
X1180738Y733731*
X1181647Y734918*
X1185738Y745606D02*
Y733137D01*
X1195283Y745606D02*
Y733137D01*
Y739668D02*
X1194374Y740856D01*
X1193465Y741450*
X1192101*
X1191192Y740856*
X1190283Y739668*
X1189829Y737887*
Y736700*
X1190283Y734918*
X1191192Y733731*
X1192101Y733137*
X1193465*
X1194374Y733731*
X1195283Y734918*
X1209829Y745606D02*
Y733137D01*
Y745606D02*
X1213919D01*
X1215283Y745012*
X1215738Y744418*
X1216192Y743231*
Y742043*
X1215738Y740856*
X1215283Y740262*
X1213919Y739668*
X1209829D02*
X1213919D01*
X1215283Y739075*
X1215738Y738481*
X1216192Y737293*
Y735512*
X1215738Y734325*
X1215283Y733731*
X1213919Y733137*
X1209829*
X1222556Y741450D02*
X1221647Y740856D01*
X1220738Y739668*
X1220283Y737887*
Y736700*
X1220738Y734918*
X1221647Y733731*
X1222556Y733137*
X1223919*
X1224829Y733731*
X1225738Y734918*
X1226192Y736700*
Y737887*
X1225738Y739668*
X1224829Y740856*
X1223919Y741450*
X1222556*
X1235738D02*
Y733137D01*
Y739668D02*
X1234829Y740856D01*
X1233919Y741450*
X1232556*
X1231647Y740856*
X1230738Y739668*
X1230283Y737887*
Y736700*
X1230738Y734918*
X1231647Y733731*
X1232556Y733137*
X1233919*
X1234829Y733731*
X1235738Y734918*
X1239829Y741450D02*
Y733137D01*
Y737887D02*
X1240283Y739668D01*
X1241192Y740856*
X1242101Y741450*
X1243465*
X1253010Y745606D02*
Y733137D01*
Y739668D02*
X1252101Y740856D01*
X1251192Y741450*
X1249829*
X1248919Y740856*
X1248010Y739668*
X1247556Y737887*
Y736700*
X1248010Y734918*
X1248919Y733731*
X1249829Y733137*
X1251192*
X1252101Y733731*
X1253010Y734918*
X680101Y820247D02*
X677374Y811059D01*
X680101Y820247D02*
X682829Y811059D01*
X678397Y814122D02*
X681806D01*
X685897Y817184D02*
Y811059D01*
Y814559D02*
X686238Y815872D01*
X686919Y816747*
X687601Y817184*
X688624*
X692715Y820247D02*
Y812809D01*
X693056Y811497*
X693738Y811059*
X694419*
X691692Y817184D02*
X694079D01*
X697488D02*
X698851Y811059D01*
X700215Y817184D02*
X698851Y811059D01*
X700215Y817184D02*
X701579Y811059D01*
X702942Y817184D02*
X701579Y811059D01*
X707715Y817184D02*
X707033Y816747D01*
X706351Y815872*
X706010Y814559*
Y813684*
X706351Y812372*
X707033Y811497*
X707715Y811059*
X708738*
X709419Y811497*
X710101Y812372*
X710442Y813684*
Y814559*
X710101Y815872*
X709419Y816747*
X708738Y817184*
X707715*
X713510D02*
Y811059D01*
Y814559D02*
X713851Y815872D01*
X714533Y816747*
X715215Y817184*
X716238*
X719306Y820247D02*
Y811059D01*
X722715Y817184D02*
X719306Y812809D01*
X720669Y814559D02*
X723056Y811059D01*
X733965Y820247D02*
Y811059D01*
Y820247D02*
X736351D01*
X737374Y819809*
X738056Y818934*
X738397Y818059*
X738738Y816747*
Y814559*
X738397Y813247*
X738056Y812372*
X737374Y811497*
X736351Y811059*
X733965*
X741806Y814559D02*
X745897D01*
Y815434*
X745556Y816309*
X745215Y816747*
X744533Y817184*
X743510*
X742829Y816747*
X742147Y815872*
X741806Y814559*
Y813684*
X742147Y812372*
X742829Y811497*
X743510Y811059*
X744533*
X745215Y811497*
X745897Y812372*
X752715Y815872D02*
X752374Y816747D01*
X751351Y817184*
X750329*
X749306Y816747*
X748965Y815872*
X749306Y814997*
X749988Y814559*
X751692Y814122*
X752374Y813684*
X752715Y812809*
Y812372*
X752374Y811497*
X751351Y811059*
X750329*
X749306Y811497*
X748965Y812372*
X755783Y820247D02*
X756124Y819809D01*
X756465Y820247*
X756124Y820684*
X755783Y820247*
X756124Y817184D02*
Y811059D01*
X763624Y817184D02*
Y810184D01*
X763283Y808872*
X762942Y808434*
X762260Y807997*
X761238*
X760556Y808434*
X763624Y815872D02*
X762942Y816747D01*
X762260Y817184*
X761238*
X760556Y816747*
X759874Y815872*
X759533Y814559*
Y813684*
X759874Y812372*
X760556Y811497*
X761238Y811059*
X762260*
X762942Y811497*
X763624Y812372*
X766692Y817184D02*
Y811059D01*
Y815434D02*
X767715Y816747D01*
X768397Y817184*
X769419*
X770101Y816747*
X770442Y815434*
Y811059*
X773510Y814559D02*
X777601D01*
Y815434*
X777260Y816309*
X776919Y816747*
X776238Y817184*
X775215*
X774533Y816747*
X773851Y815872*
X773510Y814559*
Y813684*
X773851Y812372*
X774533Y811497*
X775215Y811059*
X776238*
X776919Y811497*
X777601Y812372*
X784760Y820247D02*
Y811059D01*
Y815872D02*
X784079Y816747D01*
X783397Y817184*
X782374*
X781692Y816747*
X781010Y815872*
X780669Y814559*
Y813684*
X781010Y812372*
X781692Y811497*
X782374Y811059*
X783397*
X784079Y811497*
X784760Y812372*
X795669Y820247D02*
Y811059D01*
Y820247D02*
X798738D01*
X799760Y819809*
X800101Y819372*
X800442Y818497*
Y817622*
X800101Y816747*
X799760Y816309*
X798738Y815872*
X795669D02*
X798738D01*
X799760Y815434*
X800101Y814997*
X800442Y814122*
Y812809*
X800101Y811934*
X799760Y811497*
X798738Y811059*
X795669*
X803851Y817184D02*
X805897Y811059D01*
X807942Y817184D02*
X805897Y811059D01*
X805215Y809309*
X804533Y808434*
X803851Y807997*
X803510*
X811351Y817184D02*
X811010Y816747D01*
X811351Y816309*
X811692Y816747*
X811351Y817184*
Y811934D02*
X811010Y811497D01*
X811351Y811059*
X811692Y811497*
X811351Y811934*
X746306Y692950D02*
Y687043D01*
Y692950D02*
X748351D01*
X749033Y692668*
X749260Y692387*
X749488Y691825*
Y690981*
X749260Y690418*
X749033Y690137*
X748351Y689856*
X746306*
X751760Y687606D02*
X751533Y687325D01*
X751760Y687043*
X751988Y687325*
X751760Y687606*
X755397Y692950D02*
X754942Y692668D01*
X754488Y692106*
X754260Y691543*
X754033Y690700*
Y689293*
X754260Y688450*
X754488Y687887*
X754942Y687325*
X755397Y687043*
X756306*
X756760Y687325*
X757215Y687887*
X757442Y688450*
X757669Y689293*
Y690700*
X757442Y691543*
X757215Y692106*
X756760Y692668*
X756306Y692950*
X755397*
X759942Y687606D02*
X759715Y687325D01*
X759942Y687043*
X760169Y687325*
X759942Y687606*
X767442Y692950D02*
Y687043D01*
Y692950D02*
X769488D01*
X770169Y692668*
X770397Y692387*
X770624Y691825*
Y691262*
X770397Y690700*
X770169Y690418*
X769488Y690137*
X767442D02*
X769488D01*
X770169Y689856*
X770397Y689575*
X770624Y689012*
Y688168*
X770397Y687606*
X770169Y687325*
X769488Y687043*
X767442*
X773806Y690981D02*
X773351Y690700D01*
X772897Y690137*
X772669Y689293*
Y688731*
X772897Y687887*
X773351Y687325*
X773806Y687043*
X774488*
X774942Y687325*
X775397Y687887*
X775624Y688731*
Y689293*
X775397Y690137*
X774942Y690700*
X774488Y690981*
X773806*
X777669D02*
X780169Y687043D01*
Y690981D02*
X777669Y687043D01*
X790624Y692950D02*
X788351Y687043D01*
X787442Y692950D02*
X790624D01*
X792897Y691543D02*
Y691825D01*
X793124Y692387*
X793351Y692668*
X793806Y692950*
X794715*
X795169Y692668*
X795397Y692387*
X795624Y691825*
Y691262*
X795397Y690700*
X794942Y689856*
X792669Y687043*
X795851*
X808351Y692950D02*
Y687043D01*
Y692950D02*
X810397D01*
X811079Y692668*
X811306Y692387*
X811533Y691825*
Y690981*
X811306Y690418*
X811079Y690137*
X810397Y689856*
X808351*
X816306Y690981D02*
Y687043D01*
Y690137D02*
X815851Y690700D01*
X815397Y690981*
X814715*
X814260Y690700*
X813806Y690137*
X813579Y689293*
Y688731*
X813806Y687887*
X814260Y687325*
X814715Y687043*
X815397*
X815851Y687325*
X816306Y687887*
X820851Y690137D02*
X820624Y690700D01*
X819942Y690981*
X819260*
X818579Y690700*
X818351Y690137*
X818579Y689575*
X819033Y689293*
X820169Y689012*
X820624Y688731*
X820851Y688168*
Y687887*
X820624Y687325*
X819942Y687043*
X819260*
X818579Y687325*
X818351Y687887*
X825624Y690137D02*
X825169Y690700D01*
X824715Y690981*
X824033*
X823579Y690700*
X823124Y690137*
X822897Y689293*
Y688731*
X823124Y687887*
X823579Y687325*
X824033Y687043*
X824715*
X825169Y687325*
X825624Y687887*
X828806Y690981D02*
X828351Y690700D01*
X827897Y690137*
X827669Y689293*
Y688731*
X827897Y687887*
X828351Y687325*
X828806Y687043*
X829488*
X829942Y687325*
X830397Y687887*
X830624Y688731*
Y689293*
X830397Y690137*
X829942Y690700*
X829488Y690981*
X828806*
X835397D02*
Y687043D01*
Y690137D02*
X834942Y690700D01*
X834488Y690981*
X833806*
X833351Y690700*
X832897Y690137*
X832669Y689293*
Y688731*
X832897Y687887*
X833351Y687325*
X833806Y687043*
X834488*
X834942Y687325*
X835397Y687887*
X840169Y690981D02*
Y686481D01*
X839942Y685637*
X839715Y685356*
X839260Y685075*
X838579*
X838124Y685356*
X840169Y690137D02*
X839715Y690700D01*
X839260Y690981*
X838579*
X838124Y690700*
X837669Y690137*
X837442Y689293*
Y688731*
X837669Y687887*
X838124Y687325*
X838579Y687043*
X839260*
X839715Y687325*
X840169Y687887*
X842669Y687325D02*
X842442Y687043D01*
X842215Y687325*
X842442Y687606*
X842669Y687325*
Y686762*
X842442Y686200*
X842215Y685918*
X849942Y692950D02*
Y687043D01*
Y692950D02*
X851988D01*
X852669Y692668*
X852897Y692387*
X853124Y691825*
Y691262*
X852897Y690700*
X852669Y690418*
X851988Y690137*
X849942*
X851533D02*
X853124Y687043D01*
X855169Y692950D02*
Y687043D01*
X863806Y692950D02*
X863124Y692668D01*
X862669Y691825*
X862442Y690418*
Y689575*
X862669Y688168*
X863124Y687325*
X863806Y687043*
X864260*
X864942Y687325*
X865397Y688168*
X865624Y689575*
Y690418*
X865397Y691825*
X864942Y692668*
X864260Y692950*
X863806*
X867897Y691543D02*
Y691825D01*
X868124Y692387*
X868351Y692668*
X868806Y692950*
X869715*
X870169Y692668*
X870397Y692387*
X870624Y691825*
Y691262*
X870397Y690700*
X869942Y689856*
X867669Y687043*
X870851*
X874033Y692950D02*
X873351Y692668D01*
X873124Y692106*
Y691543*
X873351Y690981*
X873806Y690700*
X874715Y690418*
X875397Y690137*
X875851Y689575*
X876079Y689012*
Y688168*
X875851Y687606*
X875624Y687325*
X874942Y687043*
X874033*
X873351Y687325*
X873124Y687606*
X872897Y688168*
Y689012*
X873124Y689575*
X873579Y690137*
X874260Y690418*
X875169Y690700*
X875624Y690981*
X875851Y691543*
Y692106*
X875624Y692668*
X874942Y692950*
X874033*
X881079D02*
X878806D01*
X878579Y690418*
X878806Y690700*
X879488Y690981*
X880169*
X880851Y690700*
X881306Y690137*
X881533Y689293*
X881306Y688731*
X881079Y687887*
X880624Y687325*
X879942Y687043*
X879260*
X878579Y687325*
X878351Y687606*
X878124Y688168*
X886533Y690981D02*
X886306Y690137D01*
X885851Y689575*
X885169Y689293*
X884942*
X884260Y689575*
X883806Y690137*
X883579Y690981*
Y691262*
X883806Y692106*
X884260Y692668*
X884942Y692950*
X885169*
X885851Y692668*
X886306Y692106*
X886533Y690981*
Y689575*
X886306Y688168*
X885851Y687325*
X885169Y687043*
X884715*
X884033Y687325*
X883806Y687887*
X724715Y679075D02*
X724260Y678512D01*
X723806Y677668*
X723351Y676543*
X723124Y675137*
Y674012*
X723351Y672606*
X723806Y671481*
X724260Y670637*
X724715Y670075*
X726760Y677950D02*
X728579Y672043D01*
X730397Y677950D02*
X728579Y672043D01*
X732442Y679075D02*
X732897Y678512D01*
X733351Y677668*
X733806Y676543*
X734033Y675137*
Y674012*
X733806Y672606*
X733351Y671481*
X732897Y670637*
X732442Y670075*
X737669Y679075D02*
X737215Y678512D01*
X736760Y677668*
X736306Y676543*
X736079Y675137*
Y674012*
X736306Y672606*
X736760Y671481*
X737215Y670637*
X737669Y670075*
X741988Y677950D02*
X739715Y674012D01*
X743124*
X741988Y677950D02*
Y672043D01*
X746533Y677950D02*
X745851Y677668D01*
X745397Y676825*
X745169Y675418*
Y674575*
X745397Y673168*
X745851Y672325*
X746533Y672043*
X746988*
X747669Y672325*
X748124Y673168*
X748351Y674575*
Y675418*
X748124Y676825*
X747669Y677668*
X746988Y677950*
X746533*
X750397Y676825D02*
X750851Y677106D01*
X751533Y677950*
Y672043*
X753579Y679075D02*
X754033Y678512D01*
X754488Y677668*
X754942Y676543*
X755169Y675137*
Y674012*
X754942Y672606*
X754488Y671481*
X754033Y670637*
X753579Y670075*
X765397Y677950D02*
X763124D01*
X762897Y675418*
X763124Y675700*
X763806Y675981*
X764488*
X765169Y675700*
X765624Y675137*
X765851Y674293*
X765624Y673731*
X765397Y672887*
X764942Y672325*
X764260Y672043*
X763579*
X762897Y672325*
X762669Y672606*
X762442Y673168*
X770624Y677106D02*
X770397Y677668D01*
X769715Y677950*
X769260*
X768579Y677668*
X768124Y676825*
X767897Y675418*
Y674012*
X768124Y672887*
X768579Y672325*
X769260Y672043*
X769488*
X770169Y672325*
X770624Y672887*
X770851Y673731*
Y674012*
X770624Y674856*
X770169Y675418*
X769488Y675700*
X769260*
X768579Y675418*
X768124Y674856*
X767897Y674012*
X774033Y677950D02*
X773351Y677668D01*
X773124Y677106*
Y676543*
X773351Y675981*
X773806Y675700*
X774715Y675418*
X775397Y675137*
X775851Y674575*
X776079Y674012*
Y673168*
X775851Y672606*
X775624Y672325*
X774942Y672043*
X774033*
X773351Y672325*
X773124Y672606*
X772897Y673168*
Y674012*
X773124Y674575*
X773579Y675137*
X774260Y675418*
X775169Y675700*
X775624Y675981*
X775851Y676543*
Y677106*
X775624Y677668*
X774942Y677950*
X774033*
X783351Y674575D02*
X787442D01*
X795169Y677950D02*
X797669D01*
X796306Y675700*
X796988*
X797442Y675418*
X797669Y675137*
X797897Y674293*
Y673731*
X797669Y672887*
X797215Y672325*
X796533Y672043*
X795851*
X795169Y672325*
X794942Y672606*
X794715Y673168*
X802215Y677950D02*
X799942Y674012D01*
X803351*
X802215Y677950D02*
Y672043D01*
X805397Y676825D02*
X805851Y677106D01*
X806533Y677950*
Y672043*
X811533Y675981D02*
X811306Y675137D01*
X810851Y674575*
X810169Y674293*
X809942*
X809260Y674575*
X808806Y675137*
X808579Y675981*
Y676262*
X808806Y677106*
X809260Y677668*
X809942Y677950*
X810169*
X810851Y677668*
X811306Y677106*
X811533Y675981*
Y674575*
X811306Y673168*
X810851Y672325*
X810169Y672043*
X809715*
X809033Y672325*
X808806Y672887*
X817669Y679075D02*
X813579Y670075D01*
X821306Y679075D02*
X820851Y678512D01*
X820397Y677668*
X819942Y676543*
X819715Y675137*
Y674012*
X819942Y672606*
X820397Y671481*
X820851Y670637*
X821306Y670075*
X823351Y677950D02*
Y672043D01*
Y677950D02*
X826306D01*
X823351Y675137D02*
X825169D01*
X828351Y679075D02*
X828806Y678512D01*
X829260Y677668*
X829715Y676543*
X829942Y675137*
Y674012*
X829715Y672606*
X829260Y671481*
X828806Y670637*
X828351Y670075*
X833579Y679075D02*
X833124Y678512D01*
X832669Y677668*
X832215Y676543*
X831988Y675137*
Y674012*
X832215Y672606*
X832669Y671481*
X833124Y670637*
X833579Y670075*
X837897Y677950D02*
X835624Y674012D01*
X839033*
X837897Y677950D02*
Y672043D01*
X842442Y677950D02*
X841760Y677668D01*
X841306Y676825*
X841079Y675418*
Y674575*
X841306Y673168*
X841760Y672325*
X842442Y672043*
X842897*
X843579Y672325*
X844033Y673168*
X844260Y674575*
Y675418*
X844033Y676825*
X843579Y677668*
X842897Y677950*
X842442*
X846306Y676825D02*
X846760Y677106D01*
X847442Y677950*
Y672043*
X849488Y679075D02*
X849942Y678512D01*
X850397Y677668*
X850851Y676543*
X851079Y675137*
Y674012*
X850851Y672606*
X850397Y671481*
X849942Y670637*
X849488Y670075*
X861306Y677950D02*
X859033D01*
X858806Y675418*
X859033Y675700*
X859715Y675981*
X860397*
X861079Y675700*
X861533Y675137*
X861760Y674293*
X861533Y673731*
X861306Y672887*
X860851Y672325*
X860169Y672043*
X859488*
X858806Y672325*
X858579Y672606*
X858351Y673168*
X866533Y677106D02*
X866306Y677668D01*
X865624Y677950*
X865169*
X864488Y677668*
X864033Y676825*
X863806Y675418*
Y674012*
X864033Y672887*
X864488Y672325*
X865169Y672043*
X865397*
X866079Y672325*
X866533Y672887*
X866760Y673731*
Y674012*
X866533Y674856*
X866079Y675418*
X865397Y675700*
X865169*
X864488Y675418*
X864033Y674856*
X863806Y674012*
X869942Y677950D02*
X869260Y677668D01*
X869033Y677106*
Y676543*
X869260Y675981*
X869715Y675700*
X870624Y675418*
X871306Y675137*
X871760Y674575*
X871988Y674012*
Y673168*
X871760Y672606*
X871533Y672325*
X870851Y672043*
X869942*
X869260Y672325*
X869033Y672606*
X868806Y673168*
Y674012*
X869033Y674575*
X869488Y675137*
X870169Y675418*
X871079Y675700*
X871533Y675981*
X871760Y676543*
Y677106*
X871533Y677668*
X870851Y677950*
X869942*
X879260Y674575D02*
X883351D01*
X893579Y677950D02*
X891306D01*
X891079Y675418*
X891306Y675700*
X891988Y675981*
X892669*
X893351Y675700*
X893806Y675137*
X894033Y674293*
X893806Y673731*
X893579Y672887*
X893124Y672325*
X892442Y672043*
X891760*
X891079Y672325*
X890851Y672606*
X890624Y673168*
X899033Y675981D02*
X898806Y675137D01*
X898351Y674575*
X897669Y674293*
X897442*
X896760Y674575*
X896306Y675137*
X896079Y675981*
Y676262*
X896306Y677106*
X896760Y677668*
X897442Y677950*
X897669*
X898351Y677668*
X898806Y677106*
X899033Y675981*
Y674575*
X898806Y673168*
X898351Y672325*
X897669Y672043*
X897215*
X896533Y672325*
X896306Y672887*
X904260Y677950D02*
X901988Y672043D01*
X901079Y677950D02*
X904260D01*
X908579D02*
X906306Y674012D01*
X909715*
X908579Y677950D02*
Y672043D01*
X681760Y707090D02*
X681419Y707965D01*
X680738Y708840*
X680056Y709278*
X678692*
X678010Y708840*
X677329Y707965*
X676988Y707090*
X676647Y705778*
Y703590*
X676988Y702278*
X677329Y701403*
X678010Y700528*
X678692Y700090*
X680056*
X680738Y700528*
X681419Y701403*
X681760Y702278*
X684829Y709278D02*
Y700090D01*
X687897Y703590D02*
X691988D01*
Y704465*
X691647Y705340*
X691306Y705778*
X690624Y706215*
X689601*
X688919Y705778*
X688238Y704903*
X687897Y703590*
Y702715*
X688238Y701403*
X688919Y700528*
X689601Y700090*
X690624*
X691306Y700528*
X691988Y701403*
X699147Y706215D02*
Y700090D01*
Y704903D02*
X698465Y705778D01*
X697783Y706215*
X696760*
X696079Y705778*
X695397Y704903*
X695056Y703590*
Y702715*
X695397Y701403*
X696079Y700528*
X696760Y700090*
X697783*
X698465Y700528*
X699147Y701403*
X702215Y706215D02*
Y700090D01*
Y703590D02*
X702556Y704903D01*
X703238Y705778*
X703919Y706215*
X704942*
X715851Y709278D02*
Y700090D01*
Y709278D02*
X718919D01*
X719942Y708840*
X720283Y708403*
X720624Y707528*
Y706653*
X720283Y705778*
X719942Y705340*
X718919Y704903*
X715851*
X718238D02*
X720624Y700090D01*
X723692Y709278D02*
X724033Y708840D01*
X724374Y709278*
X724033Y709715*
X723692Y709278*
X724033Y706215D02*
Y700090D01*
X727442Y706215D02*
X729488Y700090D01*
X731533Y706215D02*
X729488Y700090D01*
X734601Y703590D02*
X738692D01*
Y704465*
X738351Y705340*
X738010Y705778*
X737329Y706215*
X736306*
X735624Y705778*
X734942Y704903*
X734601Y703590*
Y702715*
X734942Y701403*
X735624Y700528*
X736306Y700090*
X737329*
X738010Y700528*
X738692Y701403*
X741760Y706215D02*
Y700090D01*
Y703590D02*
X742101Y704903D01*
X742783Y705778*
X743465Y706215*
X744488*
X757783Y709278D02*
Y700090D01*
X755397Y709278D02*
X760169D01*
X763238Y703590D02*
X767329D01*
Y704465*
X766988Y705340*
X766647Y705778*
X765965Y706215*
X764942*
X764260Y705778*
X763579Y704903*
X763238Y703590*
Y702715*
X763579Y701403*
X764260Y700528*
X764942Y700090*
X765965*
X766647Y700528*
X767329Y701403*
X774488Y704903D02*
X773806Y705778D01*
X773124Y706215*
X772101*
X771419Y705778*
X770738Y704903*
X770397Y703590*
Y702715*
X770738Y701403*
X771419Y700528*
X772101Y700090*
X773124*
X773806Y700528*
X774488Y701403*
X777556Y709278D02*
Y700090D01*
Y704465D02*
X778579Y705778D01*
X779260Y706215*
X780283*
X780965Y705778*
X781306Y704465*
Y700090*
X784374Y706215D02*
Y700090D01*
Y704465D02*
X785397Y705778D01*
X786079Y706215*
X787101*
X787783Y705778*
X788124Y704465*
Y700090*
X791192Y709278D02*
X791533Y708840D01*
X791874Y709278*
X791533Y709715*
X791192Y709278*
X791533Y706215D02*
Y700090D01*
X799033Y704903D02*
X798351Y705778D01*
X797669Y706215*
X796647*
X795965Y705778*
X795283Y704903*
X794942Y703590*
Y702715*
X795283Y701403*
X795965Y700528*
X796647Y700090*
X797669*
X798351Y700528*
X799033Y701403*
X806192Y706215D02*
Y700090D01*
Y704903D02*
X805510Y705778D01*
X804829Y706215*
X803806*
X803124Y705778*
X802442Y704903*
X802101Y703590*
Y702715*
X802442Y701403*
X803124Y700528*
X803806Y700090*
X804829*
X805510Y700528*
X806192Y701403*
X809260Y709278D02*
Y700090D01*
X824942Y707965D02*
X824260Y708840D01*
X823238Y709278*
X821874*
X820851Y708840*
X820169Y707965*
Y707090*
X820510Y706215*
X820851Y705778*
X821533Y705340*
X823579Y704465*
X824260Y704028*
X824601Y703590*
X824942Y702715*
Y701403*
X824260Y700528*
X823238Y700090*
X821874*
X820851Y700528*
X820169Y701403*
X828010Y703590D02*
X832101D01*
Y704465*
X831760Y705340*
X831419Y705778*
X830738Y706215*
X829715*
X829033Y705778*
X828351Y704903*
X828010Y703590*
Y702715*
X828351Y701403*
X829033Y700528*
X829715Y700090*
X830738*
X831419Y700528*
X832101Y701403*
X835169Y706215D02*
Y700090D01*
Y703590D02*
X835510Y704903D01*
X836192Y705778*
X836874Y706215*
X837897*
X840965D02*
X843010Y700090D01*
X845056Y706215D02*
X843010Y700090D01*
X848124Y709278D02*
X848465Y708840D01*
X848806Y709278*
X848465Y709715*
X848124Y709278*
X848465Y706215D02*
Y700090D01*
X855965Y704903D02*
X855283Y705778D01*
X854601Y706215*
X853579*
X852897Y705778*
X852215Y704903*
X851874Y703590*
Y702715*
X852215Y701403*
X852897Y700528*
X853579Y700090*
X854601*
X855283Y700528*
X855965Y701403*
X859033Y703590D02*
X863124D01*
Y704465*
X862783Y705340*
X862442Y705778*
X861760Y706215*
X860738*
X860056Y705778*
X859374Y704903*
X859033Y703590*
Y702715*
X859374Y701403*
X860056Y700528*
X860738Y700090*
X861760*
X862442Y700528*
X863124Y701403*
X869942Y704903D02*
X869601Y705778D01*
X868579Y706215*
X867556*
X866533Y705778*
X866192Y704903*
X866533Y704028*
X867215Y703590*
X868919Y703153*
X869601Y702715*
X869942Y701840*
Y701403*
X869601Y700528*
X868579Y700090*
X867556*
X866533Y700528*
X866192Y701403*
X885965Y707090D02*
X885624Y707965D01*
X884942Y708840*
X884260Y709278*
X882897*
X882215Y708840*
X881533Y707965*
X881192Y707090*
X880851Y705778*
Y703590*
X881192Y702278*
X881533Y701403*
X882215Y700528*
X882897Y700090*
X884260*
X884942Y700528*
X885624Y701403*
X885965Y702278*
X890738Y706215D02*
X890056Y705778D01*
X889374Y704903*
X889033Y703590*
Y702715*
X889374Y701403*
X890056Y700528*
X890738Y700090*
X891760*
X892442Y700528*
X893124Y701403*
X893465Y702715*
Y703590*
X893124Y704903*
X892442Y705778*
X891760Y706215*
X890738*
X896533D02*
Y700090D01*
Y703590D02*
X896874Y704903D01*
X897556Y705778*
X898238Y706215*
X899260*
X902329D02*
Y697028D01*
Y704903D02*
X903010Y705778D01*
X903692Y706215*
X904715*
X905397Y705778*
X906079Y704903*
X906419Y703590*
Y702715*
X906079Y701403*
X905397Y700528*
X904715Y700090*
X903692*
X903010Y700528*
X902329Y701403*
X911192Y706215D02*
X910510Y705778D01*
X909829Y704903*
X909488Y703590*
Y702715*
X909829Y701403*
X910510Y700528*
X911192Y700090*
X912215*
X912897Y700528*
X913579Y701403*
X913919Y702715*
Y703590*
X913579Y704903*
X912897Y705778*
X912215Y706215*
X911192*
X916988D02*
Y700090D01*
Y703590D02*
X917329Y704903D01*
X918010Y705778*
X918692Y706215*
X919715*
X926874D02*
Y700090D01*
Y704903D02*
X926192Y705778D01*
X925510Y706215*
X924488*
X923806Y705778*
X923124Y704903*
X922783Y703590*
Y702715*
X923124Y701403*
X923806Y700528*
X924488Y700090*
X925510*
X926192Y700528*
X926874Y701403*
X930965Y709278D02*
Y701840D01*
X931306Y700528*
X931988Y700090*
X932669*
X929942Y706215D02*
X932329D01*
X935738Y709278D02*
X936079Y708840D01*
X936419Y709278*
X936079Y709715*
X935738Y709278*
X936079Y706215D02*
Y700090D01*
X941192Y706215D02*
X940510Y705778D01*
X939829Y704903*
X939488Y703590*
Y702715*
X939829Y701403*
X940510Y700528*
X941192Y700090*
X942215*
X942897Y700528*
X943579Y701403*
X943919Y702715*
Y703590*
X943579Y704903*
X942897Y705778*
X942215Y706215*
X941192*
X946988D02*
Y700090D01*
Y704465D02*
X948010Y705778D01*
X948692Y706215*
X949715*
X950397Y705778*
X950738Y704465*
Y700090*
X680783Y655247D02*
Y648247D01*
X680442Y646934*
X680101Y646497*
X679419Y646059*
X678738*
X678056Y646497*
X677715Y646934*
X677374Y648247*
Y649122*
X685556Y652184D02*
X684874Y651747D01*
X684192Y650872*
X683851Y649559*
Y648684*
X684192Y647372*
X684874Y646497*
X685556Y646059*
X686579*
X687260Y646497*
X687942Y647372*
X688283Y648684*
Y649559*
X687942Y650872*
X687260Y651747*
X686579Y652184*
X685556*
X691351Y655247D02*
Y646059D01*
Y650872D02*
X692033Y651747D01*
X692715Y652184*
X693738*
X694419Y651747*
X695101Y650872*
X695442Y649559*
Y648684*
X695101Y647372*
X694419Y646497*
X693738Y646059*
X692715*
X692033Y646497*
X691351Y647372*
X706351Y655247D02*
Y646059D01*
Y655247D02*
X711124Y646059D01*
Y655247D02*
Y646059D01*
X715897Y652184D02*
X715215Y651747D01*
X714533Y650872*
X714192Y649559*
Y648684*
X714533Y647372*
X715215Y646497*
X715897Y646059*
X716919*
X717601Y646497*
X718283Y647372*
X718624Y648684*
Y649559*
X718283Y650872*
X717601Y651747*
X716919Y652184*
X715897*
X722033D02*
X721692Y651747D01*
X722033Y651309*
X722374Y651747*
X722033Y652184*
Y646934D02*
X721692Y646497D01*
X722033Y646059*
X722374Y646497*
X722033Y646934*
X744829Y650606D02*
Y638137D01*
X750283*
X754374Y650606D02*
Y638137D01*
Y650606D02*
X758465D01*
X759829Y650012*
X760283Y649418*
X760738Y648231*
Y647043*
X760283Y645856*
X759829Y645262*
X758465Y644668*
X754374*
X757556D02*
X760738Y638137D01*
X764829Y650606D02*
Y638137D01*
Y650606D02*
X770738D01*
X764829Y644668D02*
X768465D01*
X775283Y639325D02*
X774829Y638731D01*
X775283Y638137*
X775738Y638731*
X775283Y639325*
X782556Y650606D02*
X781192Y650012D01*
X780283Y648231*
X779829Y645262*
Y643481*
X780283Y640512*
X781192Y638731*
X782556Y638137*
X783465*
X784829Y638731*
X785738Y640512*
X786192Y643481*
Y645262*
X785738Y648231*
X784829Y650012*
X783465Y650606*
X782556*
X793010D02*
X791647Y650012D01*
X790738Y648231*
X790283Y645262*
Y643481*
X790738Y640512*
X791647Y638731*
X793010Y638137*
X793919*
X795283Y638731*
X796192Y640512*
X796647Y643481*
Y645262*
X796192Y648231*
X795283Y650012*
X793919Y650606*
X793010*
X801647D02*
X806647D01*
X803919Y645856*
X805283*
X806192Y645262*
X806647Y644668*
X807101Y642887*
Y641700*
X806647Y639918*
X805738Y638731*
X804374Y638137*
X803010*
X801647Y638731*
X801192Y639325*
X800738Y640512*
X837374Y655247D02*
Y646059D01*
Y655247D02*
X839760D01*
X840783Y654809*
X841465Y653934*
X841806Y653059*
X842147Y651747*
Y649559*
X841806Y648247*
X841465Y647372*
X840783Y646497*
X839760Y646059*
X837374*
X849306Y652184D02*
Y646059D01*
Y650872D02*
X848624Y651747D01*
X847942Y652184*
X846919*
X846238Y651747*
X845556Y650872*
X845215Y649559*
Y648684*
X845556Y647372*
X846238Y646497*
X846919Y646059*
X847942*
X848624Y646497*
X849306Y647372*
X853397Y655247D02*
Y647809D01*
X853738Y646497*
X854419Y646059*
X855101*
X852374Y652184D02*
X854760D01*
X858169Y649559D02*
X862260D01*
Y650434*
X861919Y651309*
X861579Y651747*
X860897Y652184*
X859874*
X859192Y651747*
X858510Y650872*
X858169Y649559*
Y648684*
X858510Y647372*
X859192Y646497*
X859874Y646059*
X860897*
X861579Y646497*
X862260Y647372*
X865669Y652184D02*
X865329Y651747D01*
X865669Y651309*
X866010Y651747*
X865669Y652184*
Y646934D02*
X865329Y646497D01*
X865669Y646059*
X866010Y646497*
X865669Y646934*
X873692Y648231D02*
X874601Y648825D01*
X875965Y650606*
Y638137*
X880510Y647637D02*
Y648231D01*
X880965Y649418*
X881419Y650012*
X882329Y650606*
X884147*
X885056Y650012*
X885510Y649418*
X885965Y648231*
Y647043*
X885510Y645856*
X884601Y644075*
X880056Y638137*
X886419*
X898692Y652981D02*
X890510Y633981D01*
X905510Y650606D02*
X904147Y650012D01*
X903238Y648231*
X902783Y645262*
Y643481*
X903238Y640512*
X904147Y638731*
X905510Y638137*
X906419*
X907783Y638731*
X908692Y640512*
X909147Y643481*
Y645262*
X908692Y648231*
X907783Y650012*
X906419Y650606*
X905510*
X918692Y648825D02*
X918238Y650012D01*
X916874Y650606*
X915965*
X914601Y650012*
X913692Y648231*
X913238Y645262*
Y642293*
X913692Y639918*
X914601Y638731*
X915965Y638137*
X916419*
X917783Y638731*
X918692Y639918*
X919147Y641700*
Y642293*
X918692Y644075*
X917783Y645262*
X916419Y645856*
X915965*
X914601Y645262*
X913692Y644075*
X913238Y642293*
X931419Y652981D02*
X923238Y633981D01*
X935510Y648231D02*
X936419Y648825D01*
X937783Y650606*
Y638137*
X942329Y647637D02*
Y648231D01*
X942783Y649418*
X943238Y650012*
X944147Y650606*
X945965*
X946874Y650012*
X947329Y649418*
X947783Y648231*
Y647043*
X947329Y645856*
X946419Y644075*
X941874Y638137*
X948238*
X1158749Y649278D02*
Y640090D01*
Y649278D02*
X1161817D01*
X1162840Y648840*
X1163181Y648403*
X1163522Y647528*
Y646215*
X1163181Y645340*
X1162840Y644903*
X1161817Y644465*
X1158749*
X1166590Y646215D02*
Y640090D01*
Y643590D02*
X1166931Y644903D01*
X1167613Y645778*
X1168294Y646215*
X1169317*
X1172385Y649278D02*
X1172726Y648840D01*
X1173067Y649278*
X1172726Y649715*
X1172385Y649278*
X1172726Y646215D02*
Y640090D01*
X1176135Y646215D02*
Y640090D01*
Y644465D02*
X1177158Y645778D01*
X1177840Y646215*
X1178863*
X1179544Y645778*
X1179885Y644465*
Y640090*
Y644465D02*
X1180908Y645778D01*
X1181590Y646215*
X1182613*
X1183294Y645778*
X1183635Y644465*
Y640090*
X1190794Y646215D02*
Y640090D01*
Y644903D02*
X1190113Y645778D01*
X1189431Y646215*
X1188408*
X1187726Y645778*
X1187044Y644903*
X1186704Y643590*
Y642715*
X1187044Y641403*
X1187726Y640528*
X1188408Y640090*
X1189431*
X1190113Y640528*
X1190794Y641403*
X1193863Y646215D02*
Y640090D01*
Y643590D02*
X1194204Y644903D01*
X1194885Y645778*
X1195567Y646215*
X1196590*
X1199999D02*
X1202044Y640090D01*
X1204090Y646215D02*
X1202044Y640090D01*
X1201363Y638340*
X1200681Y637465*
X1199999Y637028*
X1199658*
X1219772Y647965D02*
X1219090Y648840D01*
X1218067Y649278*
X1216704*
X1215681Y648840*
X1214999Y647965*
Y647090*
X1215340Y646215*
X1215681Y645778*
X1216363Y645340*
X1218408Y644465*
X1219090Y644028*
X1219431Y643590*
X1219772Y642715*
Y641403*
X1219090Y640528*
X1218067Y640090*
X1216704*
X1215681Y640528*
X1214999Y641403*
X1222840Y649278D02*
X1223181Y648840D01*
X1223522Y649278*
X1223181Y649715*
X1222840Y649278*
X1223181Y646215D02*
Y640090D01*
X1230681Y649278D02*
Y640090D01*
Y644903D02*
X1229999Y645778D01*
X1229317Y646215*
X1228294*
X1227613Y645778*
X1226931Y644903*
X1226590Y643590*
Y642715*
X1226931Y641403*
X1227613Y640528*
X1228294Y640090*
X1229317*
X1229999Y640528*
X1230681Y641403*
X1233749Y643590D02*
X1237840D01*
Y644465*
X1237499Y645340*
X1237158Y645778*
X1236476Y646215*
X1235454*
X1234772Y645778*
X1234090Y644903*
X1233749Y643590*
Y642715*
X1234090Y641403*
X1234772Y640528*
X1235454Y640090*
X1236476*
X1237158Y640528*
X1237840Y641403*
X1253522Y647965D02*
X1252840Y648840D01*
X1251817Y649278*
X1250454*
X1249431Y648840*
X1248749Y647965*
Y647090*
X1249090Y646215*
X1249431Y645778*
X1250113Y645340*
X1252158Y644465*
X1252840Y644028*
X1253181Y643590*
X1253522Y642715*
Y641403*
X1252840Y640528*
X1251817Y640090*
X1250454*
X1249431Y640528*
X1248749Y641403*
X1258294Y646215D02*
X1257613Y645778D01*
X1256931Y644903*
X1256590Y643590*
Y642715*
X1256931Y641403*
X1257613Y640528*
X1258294Y640090*
X1259317*
X1259999Y640528*
X1260681Y641403*
X1261022Y642715*
Y643590*
X1260681Y644903*
X1259999Y645778*
X1259317Y646215*
X1258294*
X1264090Y649278D02*
Y640090D01*
X1271249Y649278D02*
Y640090D01*
Y644903D02*
X1270567Y645778D01*
X1269885Y646215*
X1268863*
X1268181Y645778*
X1267499Y644903*
X1267158Y643590*
Y642715*
X1267499Y641403*
X1268181Y640528*
X1268863Y640090*
X1269885*
X1270567Y640528*
X1271249Y641403*
X1274317Y643590D02*
X1278408D01*
Y644465*
X1278067Y645340*
X1277726Y645778*
X1277044Y646215*
X1276022*
X1275340Y645778*
X1274658Y644903*
X1274317Y643590*
Y642715*
X1274658Y641403*
X1275340Y640528*
X1276022Y640090*
X1277044*
X1277726Y640528*
X1278408Y641403*
X1281476Y646215D02*
Y640090D01*
Y643590D02*
X1281817Y644903D01*
X1282499Y645778*
X1283181Y646215*
X1284204*
X1299885Y647965D02*
X1299204Y648840D01*
X1298181Y649278*
X1296817*
X1295794Y648840*
X1295113Y647965*
Y647090*
X1295454Y646215*
X1295794Y645778*
X1296476Y645340*
X1298522Y644465*
X1299204Y644028*
X1299544Y643590*
X1299885Y642715*
Y641403*
X1299204Y640528*
X1298181Y640090*
X1296817*
X1295794Y640528*
X1295113Y641403*
X1303976Y649278D02*
Y641840D01*
X1304317Y640528*
X1304999Y640090*
X1305681*
X1302954Y646215D02*
X1305340D01*
X1308749Y643590D02*
X1312840D01*
Y644465*
X1312499Y645340*
X1312158Y645778*
X1311476Y646215*
X1310454*
X1309772Y645778*
X1309090Y644903*
X1308749Y643590*
Y642715*
X1309090Y641403*
X1309772Y640528*
X1310454Y640090*
X1311476*
X1312158Y640528*
X1312840Y641403*
X1315908Y646215D02*
Y640090D01*
Y644465D02*
X1316931Y645778D01*
X1317613Y646215*
X1318635*
X1319317Y645778*
X1319658Y644465*
Y640090*
X1326817Y644903D02*
X1326135Y645778D01*
X1325454Y646215*
X1324431*
X1323749Y645778*
X1323067Y644903*
X1322726Y643590*
Y642715*
X1323067Y641403*
X1323749Y640528*
X1324431Y640090*
X1325454*
X1326135Y640528*
X1326817Y641403*
X1329885Y649278D02*
X1330226Y648840D01*
X1330567Y649278*
X1330226Y649715*
X1329885Y649278*
X1330226Y646215D02*
Y640090D01*
X1333635Y649278D02*
Y640090D01*
G54D102*
X1129500Y1065660D03*
Y1068220D03*
Y1070780D03*
Y1073340D03*
X1111500D03*
Y1070780D03*
Y1068220D03*
Y1065660D03*
G54D105*
X1003500Y1031000D03*
Y1022000D03*
Y1013000D03*
G54D106*
X1028500Y1022000D03*
G54D120*
X989500Y1022950D03*
Y1028050D03*
X963050Y1158000D03*
X957950D03*
X1037050Y1170500D03*
X1031950D03*
X1062000Y1165450D03*
Y1170550D03*
X944000Y1134950D03*
Y1140050D03*
X1049000Y1133450D03*
Y1138550D03*
X940000Y1134950D03*
Y1140050D03*
X973050Y1155000D03*
X967950D03*
X973050Y1159000D03*
X967950D03*
X988950Y1144000D03*
X994050D03*
X942000Y1130550D03*
Y1125450D03*
X994000Y1022950D03*
Y1028050D03*
X974550Y1111000D03*
X969450D03*
X946000Y1130550D03*
Y1125450D03*
X974550Y1115000D03*
X969450D03*
X988950Y1136500D03*
X994050D03*
X943450Y1111500D03*
X948550D03*
X942450Y1150000D03*
X947550D03*
X927500Y1116050D03*
Y1110950D03*
X943450Y1116000D03*
X948550D03*
X980500Y1106950D03*
Y1112050D03*
X999450Y1152500D03*
X1004550D03*
X942450Y1154500D03*
X947550D03*
X989450Y1161500D03*
X994550D03*
X1087550Y1027500D03*
X1082450D03*
X1110500Y1054050D03*
Y1048950D03*
X1124450Y1058500D03*
X1129550D03*
X1124450Y1053500D03*
X1129550D03*
X1092950Y1016500D03*
X1098050D03*
X1087500Y1014450D03*
Y1019550D03*
X1083000Y1014450D03*
Y1019550D03*
X1002000Y1113050D03*
Y1107950D03*
X1097500Y1138050D03*
Y1132950D03*
X1110500Y1101950D03*
Y1107050D03*
X1097550Y1123500D03*
X1092450D03*
X1110550Y1121000D03*
X1105450D03*
X938000Y1072450D03*
Y1077550D03*
X952450Y1041000D03*
X957550D03*
X952450Y1033000D03*
X957550D03*
X955000Y1050050D03*
Y1044950D03*
X951000Y1051050D03*
Y1045950D03*
X919000Y1057450D03*
Y1062550D03*
X969950Y1177000D03*
X975050D03*
X915000Y1057450D03*
Y1062550D03*
X951000Y1063950D03*
Y1069050D03*
X957000Y1064950D03*
Y1070050D03*
X940950Y1041000D03*
X946050D03*
X940950Y1037000D03*
X946050D03*
X920000Y1073450D03*
Y1078550D03*
X916000Y1073450D03*
Y1078550D03*
Y1048550D03*
Y1043450D03*
X920000Y1048550D03*
Y1043450D03*
X929550Y1073500D03*
X924450D03*
X929550Y1078000D03*
X924450D03*
X942450Y1073000D03*
X947550D03*
X942450Y1077000D03*
X947550D03*
X958450Y1055500D03*
X963550D03*
X904050Y1050500D03*
X898950D03*
X972450Y1055000D03*
X977550D03*
X972450Y1060000D03*
X977550D03*
X897450Y1012500D03*
X902550D03*
X897450Y1018000D03*
X902550D03*
X1006500Y1054950D03*
Y1060050D03*
X1020000Y1054950D03*
Y1060050D03*
X1033000Y1054950D03*
Y1060050D03*
X1046000Y1054950D03*
Y1060050D03*
X1072500Y1059950D03*
Y1065050D03*
Y1031950D03*
Y1037050D03*
X1067450Y1112500D03*
X1072550D03*
X1067450Y1108000D03*
X1072550D03*
Y1069500D03*
X1067450D03*
X1072550Y1046000D03*
X1067450D03*
X1083550Y1091500D03*
X1078450D03*
X988950Y1128500D03*
X994050D03*
X1097500Y1118550D03*
Y1113450D03*
X1086500Y1107550D03*
Y1102450D03*
X1085050Y1112500D03*
X1079950D03*
X1085050Y1117000D03*
X1079950D03*
X963050Y1154000D03*
X957950D03*
X1069500Y1170550D03*
Y1165450D03*
X1105450Y1079500D03*
X1110550D03*
X968000Y1054950D03*
Y1060050D03*
X1010950Y1055000D03*
X1016050D03*
X1023950D03*
X1029050D03*
X1036950D03*
X1042050D03*
X1072500Y1055550D03*
Y1050450D03*
X1072450Y1027500D03*
X1077550D03*
X1067450Y1074000D03*
X1072550D03*
X1058050Y1133500D03*
X1052950D03*
X1072550Y1041500D03*
X1067450D03*
X1092450Y1107500D03*
X1097550D03*
X1093000Y1022450D03*
Y1027550D03*
X1105450Y1084000D03*
X1110550D03*
X1097450Y1143500D03*
X1102550D03*
X1110500Y1096550D03*
Y1091450D03*
X1092450Y1128000D03*
X1097550D03*
X1110550Y1112500D03*
X1105450D03*
X1097500Y1022450D03*
Y1027550D03*
X926450Y1100500D03*
X931550D03*
X957550Y1037000D03*
X952450D03*
X911050Y1073500D03*
X905950D03*
X957550Y1028500D03*
X952450D03*
X996550Y1055000D03*
X991450D03*
X934000Y1077550D03*
Y1072450D03*
X933050Y1023500D03*
X927950D03*
X925000Y1039050D03*
Y1033950D03*
X929500Y1039050D03*
Y1033950D03*
X931550Y1130500D03*
X926450D03*
X935500Y1033950D03*
Y1039050D03*
X981500Y1054950D03*
Y1060050D03*
X906000Y1068050D03*
Y1062950D03*
X931550Y1138500D03*
X926450D03*
Y1122000D03*
X931550D03*
X975050Y1171000D03*
X969950D03*
X994050Y1140000D03*
X988950D03*
X1052050Y1170500D03*
X1046950D03*
X1072550Y1117000D03*
X1067450D03*
Y1121500D03*
X1072550D03*
X1124450Y1044500D03*
X1129550D03*
Y1049000D03*
X1124450D03*
X910500Y1068050D03*
Y1062950D03*
G54D121*
X1005559Y1136043D03*
X1003000D03*
X1000441D03*
Y1128957D03*
X1003000D03*
X1005559D03*
G54D122*
X961917Y1167000D03*
Y1172000D03*
Y1177000D03*
X939083D03*
Y1172000D03*
Y1167000D03*
G54D125*
X1033500Y1098000D03*
X1043500D03*
X1053500D03*
Y1118000D03*
X1043500D03*
X1033500D03*
G54D126*
X929108Y1046150D03*
X931077D03*
X933046D03*
X935015D03*
X936984D03*
X938953D03*
X940922D03*
X942891D03*
G54D127*
X945850Y1049108D03*
Y1051077D03*
Y1053046D03*
Y1055015D03*
Y1056984D03*
Y1058953D03*
Y1060922D03*
Y1062891D03*
X926150Y1062892D03*
Y1060923D03*
Y1058954D03*
Y1056985D03*
Y1055016D03*
Y1053047D03*
Y1051078D03*
Y1049109D03*
G54D129*
X1071840Y1099500D03*
X1069280D03*
X1066720D03*
X1064160D03*
Y1081500D03*
X1066720D03*
X1069280D03*
X1071840D03*
G54D130*
X954900Y1145327D03*
Y1143358D03*
Y1141390D03*
Y1139421D03*
Y1137453D03*
Y1135484D03*
Y1133516D03*
Y1131547D03*
Y1129579D03*
Y1127610D03*
Y1125642D03*
Y1123673D03*
X982100D03*
Y1125642D03*
Y1127610D03*
Y1129579D03*
Y1131547D03*
Y1133516D03*
Y1135484D03*
Y1137453D03*
Y1139421D03*
Y1141390D03*
Y1143358D03*
Y1145327D03*
G54D131*
X957673Y1120900D03*
X959642D03*
X961610D03*
X963579D03*
X965547D03*
X967516D03*
X969484D03*
X971453D03*
X973421D03*
X975390D03*
X977358D03*
X979327D03*
Y1148100D03*
X977358D03*
X975390D03*
X973421D03*
X971453D03*
X969484D03*
X967516D03*
X965547D03*
X963579D03*
X961610D03*
X959642D03*
X957673D03*
G54D133*
X908421Y1025626D03*
Y1041374D03*
X898579D03*
Y1025626D03*
G54D134*
X986669Y1107350D03*
X995331D03*
Y1113650D03*
X986669D03*
G54D136*
X1092531Y1100331D03*
X1109969Y1027669D03*
G54D139*
X920100Y1100500D03*
X913900D03*
X920100Y1130500D03*
X913900D03*
X920100Y1138500D03*
X913900D03*
X920100Y1122000D03*
X913900D03*
X908600Y1081500D03*
X902400D03*
G54D147*
X942892Y1065850D03*
X940923D03*
X938954D03*
X936985D03*
X935016D03*
X933047D03*
X931078D03*
X929109D03*
G54D161*
X1097059Y1100331D03*
X1091941Y1091669D03*
X1097059D03*
X1105441Y1027669D03*
X1110559Y1036331D03*
X1105441D03*
G54D162*
X1043250Y1160500D03*
Y1165500D03*
Y1170500D03*
X1055750D03*
Y1160500D03*
X987750Y1045000D03*
Y1050000D03*
Y1055000D03*
X1000250D03*
Y1045000D03*
G54D163*
X1065957Y1157118D03*
X1069500D03*
X1073043D03*
Y1146882D03*
X1069500D03*
X1065957D03*
G54D164*
X974500Y1028750D03*
Y1014250D03*
G54D165*
X982000Y1021500D03*
X967000D03*
X0Y0D02*
M02*
