%FSLAX25Y25*%
%MOIN*%
G70*
G01*
G75*
%ADD10C,0.03100*%
%ADD11C,0.00394*%
G36*
X430039Y247733D02*
X429643D01*
Y248938D01*
X430039D01*
Y247733D01*
D02*
G37*
G36*
X430009Y252130D02*
X430034Y252120D01*
X430073Y252110D01*
X430112Y252091D01*
X430165Y252071D01*
X430219Y252052D01*
X430278Y252023D01*
X430409Y251959D01*
X430541Y251871D01*
X430668Y251774D01*
X430727Y251715D01*
X430780Y251652D01*
X430785Y251647D01*
X430790Y251637D01*
X430805Y251617D01*
X430824Y251588D01*
X430844Y251554D01*
X430868Y251515D01*
X430893Y251471D01*
X430917Y251417D01*
X430941Y251359D01*
X430966Y251295D01*
X430990Y251222D01*
X431010Y251149D01*
X431044Y250988D01*
X431049Y250900D01*
X431054Y250807D01*
Y250802D01*
Y250783D01*
Y250759D01*
X431049Y250719D01*
Y250676D01*
X431044Y250627D01*
X431034Y250568D01*
X431029Y250510D01*
X431000Y250373D01*
X430966Y250232D01*
X430912Y250095D01*
X430883Y250027D01*
X430844Y249963D01*
X430839Y249958D01*
X430834Y249949D01*
X430819Y249934D01*
X430805Y249909D01*
X430756Y249851D01*
X430688Y249783D01*
X430605Y249700D01*
X430497Y249622D01*
X430375Y249539D01*
X430234Y249470D01*
X430229D01*
X430214Y249465D01*
X430195Y249456D01*
X430165Y249446D01*
X430126Y249431D01*
X430083Y249417D01*
X430034Y249402D01*
X429975Y249387D01*
X429917Y249373D01*
X429848Y249358D01*
X429702Y249329D01*
X429546Y249309D01*
X429375Y249304D01*
X429326D01*
X429292Y249309D01*
X429248D01*
X429194Y249314D01*
X429141Y249319D01*
X429077Y249329D01*
X428941Y249353D01*
X428794Y249382D01*
X428643Y249431D01*
X428501Y249495D01*
X428497D01*
X428487Y249504D01*
X428467Y249514D01*
X428438Y249529D01*
X428409Y249548D01*
X428375Y249573D01*
X428292Y249636D01*
X428199Y249709D01*
X428106Y249802D01*
X428013Y249914D01*
X427935Y250036D01*
Y250041D01*
X427926Y250051D01*
X427916Y250071D01*
X427906Y250100D01*
X427891Y250129D01*
X427872Y250168D01*
X427857Y250217D01*
X427838Y250266D01*
X427818Y250319D01*
X427804Y250378D01*
X427769Y250510D01*
X427750Y250656D01*
X427740Y250812D01*
Y250817D01*
Y250832D01*
Y250861D01*
X427745Y250895D01*
X427750Y250934D01*
X427755Y250983D01*
X427760Y251037D01*
X427769Y251095D01*
X427799Y251222D01*
X427843Y251359D01*
X427872Y251427D01*
X427906Y251495D01*
X427945Y251559D01*
X427989Y251622D01*
X427994Y251627D01*
X427999Y251637D01*
X428013Y251652D01*
X428033Y251676D01*
X428057Y251700D01*
X428091Y251735D01*
X428126Y251769D01*
X428165Y251803D01*
X428214Y251842D01*
X428262Y251876D01*
X428321Y251915D01*
X428384Y251954D01*
X428448Y251988D01*
X428521Y252023D01*
X428677Y252081D01*
X428775Y251661D01*
X428770D01*
X428760Y251657D01*
X428741Y251652D01*
X428716Y251642D01*
X428687Y251627D01*
X428653Y251613D01*
X428580Y251578D01*
X428497Y251535D01*
X428409Y251476D01*
X428331Y251413D01*
X428262Y251334D01*
X428257Y251325D01*
X428238Y251295D01*
X428214Y251251D01*
X428179Y251188D01*
X428150Y251115D01*
X428126Y251022D01*
X428106Y250920D01*
X428101Y250802D01*
Y250798D01*
Y250788D01*
Y250768D01*
X428106Y250744D01*
Y250710D01*
X428111Y250676D01*
X428126Y250588D01*
X428145Y250490D01*
X428179Y250388D01*
X428223Y250285D01*
X428282Y250188D01*
Y250183D01*
X428292Y250178D01*
X428316Y250149D01*
X428355Y250105D01*
X428409Y250051D01*
X428477Y249997D01*
X428555Y249939D01*
X428653Y249885D01*
X428760Y249841D01*
X428765D01*
X428775Y249836D01*
X428789Y249831D01*
X428814Y249827D01*
X428838Y249817D01*
X428872Y249812D01*
X428950Y249792D01*
X429043Y249773D01*
X429146Y249758D01*
X429258Y249748D01*
X429375Y249744D01*
X429443D01*
X429477Y249748D01*
X429521D01*
X429565Y249753D01*
X429614Y249758D01*
X429726Y249773D01*
X429848Y249792D01*
X429970Y249822D01*
X430087Y249861D01*
X430092D01*
X430102Y249866D01*
X430117Y249875D01*
X430136Y249885D01*
X430195Y249909D01*
X430258Y249949D01*
X430336Y250002D01*
X430409Y250066D01*
X430483Y250139D01*
X430546Y250227D01*
Y250232D01*
X430551Y250236D01*
X430561Y250251D01*
X430571Y250271D01*
X430590Y250324D01*
X430619Y250393D01*
X430644Y250471D01*
X430668Y250563D01*
X430688Y250666D01*
X430693Y250773D01*
Y250778D01*
Y250788D01*
Y250807D01*
X430688Y250832D01*
Y250861D01*
X430683Y250900D01*
X430668Y250983D01*
X430644Y251076D01*
X430605Y251178D01*
X430556Y251276D01*
X430488Y251373D01*
X430483Y251378D01*
X430478Y251383D01*
X430449Y251413D01*
X430400Y251456D01*
X430336Y251510D01*
X430248Y251564D01*
X430146Y251622D01*
X430019Y251671D01*
X429878Y251710D01*
X429985Y252135D01*
X429990D01*
X430009Y252130D01*
D02*
G37*
G36*
X429487Y255585D02*
X429531D01*
X429580Y255580D01*
X429634Y255575D01*
X429697Y255565D01*
X429834Y255541D01*
X429980Y255507D01*
X430131Y255458D01*
X430278Y255390D01*
X430283D01*
X430292Y255380D01*
X430312Y255370D01*
X430341Y255356D01*
X430371Y255331D01*
X430409Y255307D01*
X430492Y255248D01*
X430585Y255170D01*
X430683Y255072D01*
X430775Y254960D01*
X430859Y254833D01*
Y254829D01*
X430868Y254819D01*
X430878Y254799D01*
X430888Y254770D01*
X430902Y254736D01*
X430922Y254697D01*
X430937Y254653D01*
X430956Y254599D01*
X430990Y254487D01*
X431024Y254355D01*
X431044Y254209D01*
X431054Y254057D01*
Y254053D01*
Y254038D01*
Y254013D01*
X431049Y253979D01*
Y253940D01*
X431044Y253896D01*
X431034Y253843D01*
X431024Y253784D01*
X431000Y253662D01*
X430961Y253525D01*
X430907Y253384D01*
X430878Y253316D01*
X430839Y253247D01*
X430834Y253242D01*
X430829Y253233D01*
X430815Y253213D01*
X430800Y253189D01*
X430775Y253159D01*
X430751Y253125D01*
X430683Y253047D01*
X430595Y252959D01*
X430497Y252867D01*
X430375Y252784D01*
X430244Y252706D01*
X430239D01*
X430224Y252696D01*
X430205Y252691D01*
X430175Y252676D01*
X430141Y252662D01*
X430102Y252647D01*
X430053Y252632D01*
X430000Y252618D01*
X429941Y252598D01*
X429882Y252584D01*
X429746Y252554D01*
X429599Y252535D01*
X429443Y252525D01*
X429409D01*
X429365Y252530D01*
X429312D01*
X429243Y252540D01*
X429165Y252550D01*
X429082Y252559D01*
X428985Y252579D01*
X428887Y252603D01*
X428785Y252628D01*
X428682Y252662D01*
X428580Y252706D01*
X428477Y252754D01*
X428375Y252808D01*
X428282Y252876D01*
X428194Y252950D01*
X428189Y252955D01*
X428174Y252969D01*
X428150Y252994D01*
X428121Y253028D01*
X428087Y253072D01*
X428053Y253120D01*
X428009Y253179D01*
X427965Y253247D01*
X427926Y253325D01*
X427882Y253408D01*
X427847Y253501D01*
X427809Y253599D01*
X427784Y253701D01*
X427760Y253813D01*
X427745Y253935D01*
X427740Y254057D01*
Y254062D01*
Y254077D01*
Y254101D01*
X427745Y254131D01*
Y254170D01*
X427750Y254219D01*
X427760Y254267D01*
X427765Y254326D01*
X427794Y254448D01*
X427833Y254585D01*
X427882Y254721D01*
X427916Y254789D01*
X427955Y254858D01*
Y254863D01*
X427965Y254872D01*
X427974Y254892D01*
X427994Y254916D01*
X428013Y254946D01*
X428043Y254980D01*
X428106Y255058D01*
X428189Y255146D01*
X428292Y255238D01*
X428409Y255321D01*
X428545Y255399D01*
X428550D01*
X428565Y255409D01*
X428584Y255419D01*
X428614Y255429D01*
X428648Y255443D01*
X428692Y255458D01*
X428741Y255477D01*
X428794Y255497D01*
X428858Y255512D01*
X428921Y255531D01*
X429068Y255560D01*
X429229Y255580D01*
X429404Y255590D01*
X429453D01*
X429487Y255585D01*
D02*
G37*
G36*
X428170Y239979D02*
X431000D01*
Y239554D01*
X428170D01*
Y238500D01*
X427794D01*
Y241033D01*
X428170D01*
Y239979D01*
D02*
G37*
G36*
X431000Y243634D02*
X430029Y243263D01*
Y241916D01*
X431000Y241569D01*
Y241121D01*
X427794Y242345D01*
Y242809D01*
X431000Y244112D01*
Y243634D01*
D02*
G37*
G36*
X430561Y247308D02*
X430566Y247299D01*
X430580Y247284D01*
X430595Y247260D01*
X430619Y247230D01*
X430639Y247196D01*
X430697Y247113D01*
X430756Y247016D01*
X430819Y246908D01*
X430878Y246786D01*
X430932Y246664D01*
Y246659D01*
X430937Y246650D01*
X430941Y246630D01*
X430951Y246606D01*
X430961Y246576D01*
X430971Y246542D01*
X430980Y246498D01*
X430990Y246454D01*
X431015Y246352D01*
X431034Y246240D01*
X431049Y246113D01*
X431054Y245986D01*
Y245981D01*
Y245966D01*
Y245942D01*
X431049Y245908D01*
Y245864D01*
X431044Y245815D01*
X431039Y245761D01*
X431029Y245703D01*
X431005Y245566D01*
X430971Y245425D01*
X430922Y245273D01*
X430854Y245127D01*
X430849Y245122D01*
X430844Y245112D01*
X430834Y245088D01*
X430815Y245064D01*
X430795Y245029D01*
X430771Y244995D01*
X430707Y244912D01*
X430624Y244815D01*
X430522Y244722D01*
X430405Y244629D01*
X430273Y244546D01*
X430268D01*
X430253Y244537D01*
X430234Y244527D01*
X430205Y244517D01*
X430170Y244502D01*
X430126Y244483D01*
X430078Y244468D01*
X430019Y244449D01*
X429961Y244429D01*
X429892Y244415D01*
X429746Y244380D01*
X429585Y244361D01*
X429414Y244351D01*
X429370D01*
X429336Y244356D01*
X429292D01*
X429243Y244361D01*
X429189Y244366D01*
X429131Y244375D01*
X428994Y244400D01*
X428848Y244434D01*
X428692Y244483D01*
X428541Y244546D01*
X428536D01*
X428521Y244556D01*
X428501Y244566D01*
X428472Y244581D01*
X428438Y244605D01*
X428404Y244629D01*
X428311Y244688D01*
X428214Y244771D01*
X428116Y244864D01*
X428023Y244981D01*
X427979Y245039D01*
X427940Y245108D01*
Y245112D01*
X427930Y245122D01*
X427921Y245147D01*
X427911Y245171D01*
X427891Y245205D01*
X427877Y245249D01*
X427857Y245298D01*
X427838Y245352D01*
X427823Y245410D01*
X427804Y245474D01*
X427769Y245620D01*
X427750Y245776D01*
X427740Y245952D01*
Y245957D01*
Y245966D01*
Y245986D01*
Y246010D01*
X427745Y246040D01*
Y246079D01*
X427755Y246162D01*
X427769Y246254D01*
X427789Y246362D01*
X427818Y246469D01*
X427857Y246576D01*
Y246581D01*
X427862Y246591D01*
X427867Y246606D01*
X427877Y246625D01*
X427901Y246674D01*
X427940Y246737D01*
X427984Y246811D01*
X428038Y246884D01*
X428096Y246957D01*
X428170Y247021D01*
X428179Y247025D01*
X428204Y247045D01*
X428248Y247074D01*
X428311Y247113D01*
X428384Y247152D01*
X428472Y247191D01*
X428575Y247230D01*
X428692Y247265D01*
X428799Y246879D01*
X428794D01*
X428789Y246874D01*
X428760Y246869D01*
X428716Y246850D01*
X428658Y246830D01*
X428599Y246806D01*
X428536Y246777D01*
X428472Y246742D01*
X428414Y246703D01*
X428409Y246698D01*
X428389Y246684D01*
X428365Y246659D01*
X428331Y246625D01*
X428297Y246581D01*
X428257Y246528D01*
X428223Y246469D01*
X428189Y246396D01*
X428184Y246386D01*
X428174Y246362D01*
X428160Y246318D01*
X428145Y246264D01*
X428131Y246201D01*
X428116Y246127D01*
X428106Y246044D01*
X428101Y245957D01*
Y245952D01*
Y245942D01*
Y245927D01*
Y245908D01*
X428106Y245854D01*
X428111Y245786D01*
X428126Y245708D01*
X428140Y245620D01*
X428165Y245537D01*
X428194Y245454D01*
X428199Y245444D01*
X428209Y245420D01*
X428228Y245381D01*
X428257Y245332D01*
X428292Y245278D01*
X428331Y245220D01*
X428375Y245166D01*
X428428Y245112D01*
X428433Y245108D01*
X428453Y245093D01*
X428482Y245069D01*
X428521Y245039D01*
X428570Y245005D01*
X428623Y244971D01*
X428682Y244942D01*
X428745Y244912D01*
X428750D01*
X428760Y244907D01*
X428775Y244903D01*
X428799Y244893D01*
X428824Y244883D01*
X428858Y244873D01*
X428936Y244854D01*
X429033Y244829D01*
X429141Y244810D01*
X429263Y244795D01*
X429390Y244790D01*
X429429D01*
X429463Y244795D01*
X429497D01*
X429541Y244800D01*
X429590Y244805D01*
X429638Y244810D01*
X429756Y244825D01*
X429878Y244854D01*
X429995Y244888D01*
X430112Y244937D01*
X430117D01*
X430126Y244942D01*
X430141Y244951D01*
X430161Y244966D01*
X430209Y245000D01*
X430273Y245044D01*
X430341Y245103D01*
X430414Y245176D01*
X430483Y245264D01*
X430541Y245361D01*
Y245366D01*
X430546Y245376D01*
X430556Y245391D01*
X430561Y245410D01*
X430571Y245434D01*
X430585Y245469D01*
X430610Y245542D01*
X430634Y245635D01*
X430658Y245732D01*
X430673Y245844D01*
X430678Y245961D01*
Y245966D01*
Y245976D01*
Y245991D01*
Y246010D01*
X430673Y246064D01*
X430663Y246132D01*
X430653Y246210D01*
X430634Y246303D01*
X430610Y246401D01*
X430575Y246498D01*
Y246503D01*
X430571Y246508D01*
X430566Y246523D01*
X430556Y246542D01*
X430536Y246591D01*
X430507Y246650D01*
X430473Y246713D01*
X430434Y246777D01*
X430390Y246840D01*
X430346Y246899D01*
X429741D01*
Y245957D01*
X429365D01*
Y247313D01*
X430556D01*
X430561Y247308D01*
D02*
G37*
G36*
X431000Y262607D02*
X427794D01*
Y264925D01*
X428170D01*
Y263032D01*
X429155D01*
Y264803D01*
X429531D01*
Y263032D01*
X430624D01*
Y264998D01*
X431000D01*
Y262607D01*
D02*
G37*
G36*
X430009Y268287D02*
X430034Y268278D01*
X430073Y268268D01*
X430112Y268249D01*
X430165Y268229D01*
X430219Y268209D01*
X430278Y268180D01*
X430409Y268117D01*
X430541Y268029D01*
X430668Y267931D01*
X430727Y267873D01*
X430780Y267809D01*
X430785Y267804D01*
X430790Y267795D01*
X430805Y267775D01*
X430824Y267746D01*
X430844Y267712D01*
X430868Y267673D01*
X430893Y267629D01*
X430917Y267575D01*
X430941Y267516D01*
X430966Y267453D01*
X430990Y267380D01*
X431010Y267307D01*
X431044Y267146D01*
X431049Y267058D01*
X431054Y266965D01*
Y266960D01*
Y266941D01*
Y266916D01*
X431049Y266877D01*
Y266833D01*
X431044Y266785D01*
X431034Y266726D01*
X431029Y266667D01*
X431000Y266531D01*
X430966Y266389D01*
X430912Y266253D01*
X430883Y266184D01*
X430844Y266121D01*
X430839Y266116D01*
X430834Y266106D01*
X430819Y266091D01*
X430805Y266067D01*
X430756Y266009D01*
X430688Y265940D01*
X430605Y265857D01*
X430497Y265779D01*
X430375Y265696D01*
X430234Y265628D01*
X430229D01*
X430214Y265623D01*
X430195Y265613D01*
X430165Y265603D01*
X430126Y265589D01*
X430083Y265574D01*
X430034Y265560D01*
X429975Y265545D01*
X429917Y265530D01*
X429848Y265516D01*
X429702Y265486D01*
X429546Y265467D01*
X429375Y265462D01*
X429326D01*
X429292Y265467D01*
X429248D01*
X429194Y265472D01*
X429141Y265477D01*
X429077Y265486D01*
X428941Y265511D01*
X428794Y265540D01*
X428643Y265589D01*
X428501Y265652D01*
X428497D01*
X428487Y265662D01*
X428467Y265672D01*
X428438Y265686D01*
X428409Y265706D01*
X428375Y265730D01*
X428292Y265794D01*
X428199Y265867D01*
X428106Y265960D01*
X428013Y266072D01*
X427935Y266194D01*
Y266199D01*
X427926Y266209D01*
X427916Y266228D01*
X427906Y266257D01*
X427891Y266287D01*
X427872Y266326D01*
X427857Y266375D01*
X427838Y266423D01*
X427818Y266477D01*
X427804Y266536D01*
X427769Y266667D01*
X427750Y266814D01*
X427740Y266970D01*
Y266975D01*
Y266989D01*
Y267019D01*
X427745Y267053D01*
X427750Y267092D01*
X427755Y267141D01*
X427760Y267194D01*
X427769Y267253D01*
X427799Y267380D01*
X427843Y267516D01*
X427872Y267585D01*
X427906Y267653D01*
X427945Y267717D01*
X427989Y267780D01*
X427994Y267785D01*
X427999Y267795D01*
X428013Y267809D01*
X428033Y267834D01*
X428057Y267858D01*
X428091Y267892D01*
X428126Y267926D01*
X428165Y267961D01*
X428214Y268000D01*
X428262Y268034D01*
X428321Y268073D01*
X428384Y268112D01*
X428448Y268146D01*
X428521Y268180D01*
X428677Y268239D01*
X428775Y267819D01*
X428770D01*
X428760Y267814D01*
X428741Y267809D01*
X428716Y267799D01*
X428687Y267785D01*
X428653Y267770D01*
X428580Y267736D01*
X428497Y267692D01*
X428409Y267634D01*
X428331Y267570D01*
X428262Y267492D01*
X428257Y267482D01*
X428238Y267453D01*
X428214Y267409D01*
X428179Y267346D01*
X428150Y267272D01*
X428126Y267180D01*
X428106Y267077D01*
X428101Y266960D01*
Y266955D01*
Y266946D01*
Y266926D01*
X428106Y266902D01*
Y266867D01*
X428111Y266833D01*
X428126Y266745D01*
X428145Y266648D01*
X428179Y266545D01*
X428223Y266443D01*
X428282Y266345D01*
Y266340D01*
X428292Y266336D01*
X428316Y266306D01*
X428355Y266262D01*
X428409Y266209D01*
X428477Y266155D01*
X428555Y266096D01*
X428653Y266043D01*
X428760Y265999D01*
X428765D01*
X428775Y265994D01*
X428789Y265989D01*
X428814Y265984D01*
X428838Y265974D01*
X428872Y265969D01*
X428950Y265950D01*
X429043Y265931D01*
X429146Y265916D01*
X429258Y265906D01*
X429375Y265901D01*
X429443D01*
X429477Y265906D01*
X429521D01*
X429565Y265911D01*
X429614Y265916D01*
X429726Y265931D01*
X429848Y265950D01*
X429970Y265979D01*
X430087Y266018D01*
X430092D01*
X430102Y266023D01*
X430117Y266033D01*
X430136Y266043D01*
X430195Y266067D01*
X430258Y266106D01*
X430336Y266160D01*
X430409Y266223D01*
X430483Y266297D01*
X430546Y266384D01*
Y266389D01*
X430551Y266394D01*
X430561Y266409D01*
X430571Y266428D01*
X430590Y266482D01*
X430619Y266550D01*
X430644Y266628D01*
X430668Y266721D01*
X430688Y266824D01*
X430693Y266931D01*
Y266936D01*
Y266946D01*
Y266965D01*
X430688Y266989D01*
Y267019D01*
X430683Y267058D01*
X430668Y267141D01*
X430644Y267233D01*
X430605Y267336D01*
X430556Y267434D01*
X430488Y267531D01*
X430483Y267536D01*
X430478Y267541D01*
X430449Y267570D01*
X430400Y267614D01*
X430336Y267668D01*
X430248Y267721D01*
X430146Y267780D01*
X430019Y267829D01*
X429878Y267868D01*
X429985Y268292D01*
X429990D01*
X430009Y268287D01*
D02*
G37*
G36*
X428170Y270054D02*
X431000D01*
Y269630D01*
X428170D01*
Y268575D01*
X427794D01*
Y271108D01*
X428170D01*
Y270054D01*
D02*
G37*
G36*
X431000Y258220D02*
X428482Y256537D01*
X431000D01*
Y256131D01*
X427794D01*
Y256561D01*
X430312Y258249D01*
X427794D01*
Y258654D01*
X431000D01*
Y258220D01*
D02*
G37*
G36*
Y261451D02*
X428482Y259767D01*
X431000D01*
Y259362D01*
X427794D01*
Y259791D01*
X430312Y261480D01*
X427794D01*
Y261885D01*
X431000D01*
Y261451D01*
D02*
G37*
%LPC*%
G36*
X429404Y255151D02*
X429341D01*
X429307Y255146D01*
X429263D01*
X429170Y255136D01*
X429068Y255116D01*
X428950Y255092D01*
X428833Y255058D01*
X428721Y255014D01*
X428716D01*
X428706Y255009D01*
X428692Y254999D01*
X428672Y254990D01*
X428619Y254960D01*
X428555Y254916D01*
X428482Y254863D01*
X428404Y254794D01*
X428331Y254716D01*
X428267Y254628D01*
Y254624D01*
X428262Y254619D01*
X428253Y254604D01*
X428243Y254585D01*
X428218Y254531D01*
X428184Y254463D01*
X428155Y254380D01*
X428131Y254282D01*
X428111Y254175D01*
X428106Y254057D01*
Y254053D01*
Y254038D01*
Y254013D01*
X428111Y253984D01*
X428116Y253945D01*
X428121Y253896D01*
X428131Y253848D01*
X428145Y253794D01*
X428184Y253672D01*
X428209Y253608D01*
X428238Y253545D01*
X428272Y253477D01*
X428316Y253413D01*
X428365Y253350D01*
X428418Y253286D01*
X428423Y253281D01*
X428433Y253272D01*
X428453Y253257D01*
X428477Y253238D01*
X428511Y253213D01*
X428555Y253184D01*
X428604Y253155D01*
X428662Y253125D01*
X428731Y253096D01*
X428804Y253067D01*
X428887Y253038D01*
X428985Y253013D01*
X429087Y252994D01*
X429194Y252979D01*
X429316Y252969D01*
X429448Y252964D01*
X429502D01*
X429546Y252969D01*
X429595Y252974D01*
X429648Y252979D01*
X429712Y252989D01*
X429780Y253003D01*
X429926Y253038D01*
X430000Y253067D01*
X430078Y253096D01*
X430151Y253130D01*
X430224Y253169D01*
X430297Y253218D01*
X430361Y253272D01*
X430366Y253277D01*
X430375Y253286D01*
X430390Y253306D01*
X430414Y253330D01*
X430439Y253360D01*
X430463Y253394D01*
X430497Y253438D01*
X430527Y253486D01*
X430556Y253540D01*
X430585Y253599D01*
X430615Y253662D01*
X430639Y253735D01*
X430663Y253809D01*
X430678Y253887D01*
X430688Y253965D01*
X430693Y254053D01*
Y254057D01*
Y254072D01*
Y254097D01*
X430688Y254131D01*
X430683Y254175D01*
X430673Y254219D01*
X430663Y254272D01*
X430649Y254331D01*
X430610Y254453D01*
X430585Y254521D01*
X430551Y254585D01*
X430512Y254653D01*
X430468Y254716D01*
X430419Y254780D01*
X430361Y254838D01*
X430356Y254843D01*
X430346Y254853D01*
X430327Y254868D01*
X430297Y254887D01*
X430263Y254911D01*
X430219Y254936D01*
X430170Y254965D01*
X430117Y254994D01*
X430048Y255024D01*
X429980Y255053D01*
X429902Y255077D01*
X429814Y255102D01*
X429721Y255121D01*
X429624Y255136D01*
X429517Y255146D01*
X429404Y255151D01*
D02*
G37*
G36*
X429682Y243126D02*
X428799Y242794D01*
X428794D01*
X428780Y242790D01*
X428760Y242780D01*
X428731Y242770D01*
X428697Y242755D01*
X428658Y242741D01*
X428565Y242711D01*
X428457Y242672D01*
X428345Y242633D01*
X428233Y242599D01*
X428126Y242565D01*
X428131D01*
X428140Y242560D01*
X428155D01*
X428179Y242555D01*
X428209Y242546D01*
X428243Y242536D01*
X428321Y242516D01*
X428418Y242492D01*
X428521Y242463D01*
X428633Y242428D01*
X428745Y242389D01*
X429682Y242038D01*
Y243126D01*
D02*
G37*
%LPD*%
D11*
X382000Y274500D02*
X433000D01*
Y235500D02*
Y274500D01*
X382000Y235500D02*
X433000D01*
X382000D02*
Y274500D01*
M02*
